<svg xmlns="http://www.w3.org/2000/svg" viewBox="0 0 250.01 150.25"><defs><style>.cls-1{opacity:0.52;}.cls-13,.cls-15,.cls-2{fill:none;}.cls-14,.cls-15,.cls-2,.cls-3,.cls-4,.cls-5,.cls-6,.cls-7{stroke:#34508b;}.cls-13,.cls-14,.cls-15,.cls-2,.cls-3,.cls-4,.cls-5,.cls-6,.cls-7{stroke-linecap:round;stroke-linejoin:round;}.cls-2,.cls-3,.cls-4,.cls-5,.cls-6,.cls-7{stroke-width:3px;}.cls-3{fill:#ffd3a2;}.cls-11,.cls-4{fill:#34508b;}.cls-12,.cls-14,.cls-5{fill:#fff;}.cls-6{fill:#ff9f9e;}.cls-7{fill:#3bddba;}.cls-16,.cls-8{isolation:isolate;}.cls-9{fill:#36c;}.cls-10{fill:#999;}.cls-13{stroke:#f42f63;stroke-width:1.5px;stroke-dasharray:8;}.cls-14,.cls-15{stroke-width:0.61px;}.cls-15{stroke-dasharray:0 1.53;}.cls-16{opacity:0.5;}</style></defs><title>infografia-movil1</title><g id="Capa_2" data-name="Capa 2"><g id="Capa_1-2" data-name="Capa 1"><g id="Grupo_8326" data-name="Grupo 8326" class="cls-1"><line id="Línea_138" data-name="Línea 138" class="cls-2" x1="53.05" y1="132.81" x2="150.55" y2="132.81"/><g id="Grupo_8325" data-name="Grupo 8325"><path id="Trazado_85020" data-name="Trazado 85020" class="cls-3" d="M129.08,105.06v-3.68H66.29a8.1,8.1,0,0,0,0,16.19h62.79v-3.68H69.6v-8.83Z"/><rect id="Rectángulo_1258" data-name="Rectángulo 1258" class="cls-2" x="69.61" y="105.06" width="54.82" height="8.83"/><line id="Línea_139" data-name="Línea 139" class="cls-2" x1="124.43" y1="109.47" x2="69.61" y2="109.47"/><rect id="Rectángulo_1259" data-name="Rectángulo 1259" class="cls-4" x="69.61" y="105.06" width="4.6" height="8.83"/></g><path id="Trazado_85021" data-name="Trazado 85021" class="cls-5" d="M129.09,128.38H66.29l3.31-3.19L66.29,122h62.8Z"/><line id="Línea_140" data-name="Línea 140" class="cls-2" x1="89.6" y1="125.19" x2="106.52" y2="125.19"/><path id="Trazado_85022" data-name="Trazado 85022" class="cls-6" d="M133.73,117.57H66.29V122h62.79v6.38H66.29v4.43h67.44a7.62,7.62,0,0,0,7.62-7.62h0a7.62,7.62,0,0,0-7.62-7.62Z"/><path id="Trazado_85023" data-name="Trazado 85023" class="cls-7" d="M89.6,135.23l-4.42-3-4.41,3V122H89.6Z"/></g><g class="cls-8"><path class="cls-9" d="M66.3,6.07c0,2.83-1.91,4.45-5.36,4.45H58.19v4.81H54.58V1.47h6.36C64.39,1.47,66.3,3.09,66.3,6.07ZM62.66,6c0-1.22-.69-1.83-2.29-1.83H58.19V7.87h2.18C62,7.87,62.66,7.26,62.66,6Z"/><path class="cls-9" d="M75.35,4.85l-.38,3a2.82,2.82,0,0,0-1.32-.31A2.27,2.27,0,0,0,71.3,10v5.29H67.73V4.83h3.15L71,7.1a3.2,3.2,0,0,1,3.19-2.48A2.38,2.38,0,0,1,75.35,4.85Z"/><path class="cls-9" d="M86.12,11.11H79A2,2,0,0,0,81.16,13a1.8,1.8,0,0,0,1.94-1.16l2.89.93c-.6,1.82-2.39,2.75-4.83,2.75-3.67,0-5.66-2-5.66-5.46s2-5.46,5.48-5.46,5.24,2,5.24,5.31A7,7,0,0,1,86.12,11.11ZM78.94,9.17h4c-.17-1.34-.82-2-1.94-2S79.15,7.77,78.94,9.17Z"/><path class="cls-9" d="M86.81,13.69l1.85-2a3.4,3.4,0,0,0,3.11,1.5c1,0,1.57-.3,1.57-.74s-.5-.65-1.91-.94c-3.19-.64-4.34-1.66-4.34-3.39s1.64-3.48,5.06-3.48c2.52,0,3.9.73,4.81,2L95,8.48A2.88,2.88,0,0,0,92.25,7c-1,0-1.59.38-1.59.8s.46.69,1.93,1c3.11.55,4.34,1.54,4.34,3.34s-1.61,3.45-5,3.45C89.63,15.54,87.89,15,86.81,13.69Z"/><path class="cls-9" d="M108.61,4.83v10.5h-3.19l-.11-2a3.66,3.66,0,0,1-3.63,2.17c-2.14,0-3.59-1-3.59-3.7v-7h3.57v6.11c0,1.43.53,1.87,1.45,1.87,1.11,0,1.93-.74,1.93-2.42V4.83Z"/><path class="cls-9" d="M121.61,10c0,3.48-1.64,5.5-4.33,5.5a3.33,3.33,0,0,1-3.17-2v6.18h-3.57V4.83h3.13l.11,2.22a3.64,3.64,0,0,1,3.5-2.43C120,4.62,121.61,6.61,121.61,10Zm-3.59,0c0-2-.76-2.84-2-2.84s-1.94.93-1.94,2.73v.21c0,1.75.7,2.73,1.94,2.73S118,12.05,118,10.08Z"/><path class="cls-9" d="M133.56,4.83v10.5h-3.19l-.11-2a3.66,3.66,0,0,1-3.63,2.17c-2.14,0-3.59-1-3.59-3.7v-7h3.57v6.11c0,1.43.52,1.87,1.45,1.87,1.11,0,1.93-.74,1.93-2.42V4.83Z"/><path class="cls-9" d="M145.61,11.11h-7.16A2,2,0,0,0,140.66,13a1.78,1.78,0,0,0,1.93-1.16l2.9.93c-.61,1.82-2.4,2.75-4.83,2.75-3.68,0-5.67-2-5.67-5.46s2-5.46,5.48-5.46,5.25,2,5.25,5.31A6.07,6.07,0,0,1,145.61,11.11Zm-7.18-1.94h3.95c-.17-1.34-.82-2-1.93-2S138.64,7.77,138.43,9.17Z"/><path class="cls-9" d="M146.31,13.69l1.84-2a3.4,3.4,0,0,0,3.11,1.5c1,0,1.58-.3,1.58-.74s-.51-.65-1.91-.94c-3.2-.64-4.35-1.66-4.35-3.39s1.64-3.48,5.06-3.48c2.52,0,3.91.73,4.81,2l-1.93,1.89A2.9,2.9,0,0,0,151.74,7c-1,0-1.59.38-1.59.8s.46.69,1.93,1c3.11.55,4.35,1.54,4.35,3.34s-1.62,3.45-5,3.45C149.12,15.54,147.38,15,146.31,13.69Z"/><path class="cls-9" d="M165.27,14.74a5.6,5.6,0,0,1-3,.8c-2.38,0-3.84-.93-3.87-3.36V7.37h-1.8V4.83h1.8V2.48l3.57-1V4.83h3.15V7.37H162v4.22A1.23,1.23,0,0,0,163.4,13a2.41,2.41,0,0,0,1.51-.47Z"/><path class="cls-9" d="M176.73,10.08c0,3.44-2,5.46-5.54,5.46s-5.54-2-5.54-5.46,2-5.46,5.54-5.46S176.73,6.63,176.73,10.08Zm-7.51,0c0,2.06.65,2.92,2,2.92s2-.86,2-2.92-.65-2.92-2-2.92S169.22,8,169.22,10.08Z"/></g><g class="cls-8"><path class="cls-10" d="M194.16,10.08c0,3.42-1.87,5.46-4.78,5.46a4,4,0,0,1-3.49-1.85v6h-1.68V4.83h1.47l.11,1.83a3.91,3.91,0,0,1,3.59-2C192.29,4.62,194.16,6.66,194.16,10.08Zm-1.68,0c0-2.44-1.24-4-3.29-4s-3.3,1.49-3.3,3.86v.25c0,2.38,1.3,3.87,3.3,3.87S192.48,12.51,192.48,10.08Z"/><path class="cls-10" d="M206.26,14l-.11,1.33a3.9,3.9,0,0,1-1.26.21A1.66,1.66,0,0,1,203,14a4.12,4.12,0,0,1-3.38,1.56c-2,0-3.57-.93-3.57-2.82,0-1.57,1.39-2.81,4.1-3.27L202.94,9V8.4a2.2,2.2,0,0,0-2.45-2.31,3.09,3.09,0,0,0-3,2l-1.24-.9a4.29,4.29,0,0,1,4.25-2.56c2.39,0,4.13,1.13,4.13,3.57v5.16c0,.51.21.76.8.76A3.34,3.34,0,0,0,206.26,14Zm-3.32-2.2V10.35l-2.35.44c-1.85.34-2.79,1-2.79,1.93s.71,1.35,1.91,1.35C201.39,14.07,202.94,13.19,202.94,11.8Z"/><path class="cls-10" d="M214.18,4.83l-.34,1.64a2.85,2.85,0,0,0-1.32-.28c-1.26,0-2.77,1.12-2.77,3.47v5.67h-1.68V4.83h1.36l.23,1.72A3.36,3.36,0,0,1,213,4.62,2.69,2.69,0,0,1,214.18,4.83Z"/><path class="cls-10" d="M225.16,14l-.11,1.33a3.9,3.9,0,0,1-1.26.21A1.66,1.66,0,0,1,221.9,14a4.12,4.12,0,0,1-3.38,1.56c-2,0-3.57-.93-3.57-2.82,0-1.57,1.39-2.81,4.1-3.27L221.84,9V8.4a2.2,2.2,0,0,0-2.46-2.31,3.08,3.08,0,0,0-3,2l-1.24-.9a4.29,4.29,0,0,1,4.24-2.56c2.4,0,4.14,1.13,4.14,3.57v5.16c0,.51.21.76.8.76A3.34,3.34,0,0,0,225.16,14Zm-3.32-2.2V10.35l-2.35.44c-1.85.34-2.79,1-2.79,1.93s.71,1.35,1.91,1.35C220.29,14.07,221.84,13.19,221.84,11.8Z"/><path class="cls-10" d="M234.61,12.51c0,1.07.27,1.41,1.13,1.41a3.78,3.78,0,0,0,1.54-.29L237,15.24a4,4,0,0,1-1.55.3c-1.7,0-2.52-.91-2.52-2.82V0h1.68Z"/><path class="cls-10" d="M248.26,14l-.11,1.33a3.9,3.9,0,0,1-1.26.21A1.66,1.66,0,0,1,245,14a4.12,4.12,0,0,1-3.38,1.56c-2,0-3.57-.93-3.57-2.82,0-1.57,1.39-2.81,4.1-3.27L244.94,9V8.4a2.2,2.2,0,0,0-2.46-2.31,3.08,3.08,0,0,0-3,2l-1.24-.9a4.29,4.29,0,0,1,4.24-2.56c2.4,0,4.14,1.13,4.14,3.57v5.16c0,.51.21.76.8.76A3.34,3.34,0,0,0,248.26,14Zm-3.32-2.2V10.35l-2.35.44c-1.85.34-2.79,1-2.79,1.93s.71,1.35,1.91,1.35C243.39,14.07,244.94,13.19,244.94,11.8Z"/></g><g class="cls-8"><path class="cls-9" d="M65,31.72H57.49a2.11,2.11,0,0,0,2.31,2,1.88,1.88,0,0,0,2-1.21l3,1c-.63,1.91-2.5,2.88-5.06,2.88-3.85,0-5.94-2.09-5.94-5.72s2.07-5.72,5.75-5.72,5.5,2.09,5.5,5.56A7.39,7.39,0,0,1,65,31.72Zm-7.53-2h4.14c-.18-1.41-.86-2.16-2-2.16S57.69,28.23,57.47,29.7Z"/><path class="cls-9" d="M78.13,20.48V36.15H74.76l-.13-2.09A3.83,3.83,0,0,1,71,36.37c-2.83,0-4.53-2.09-4.53-5.68s1.72-5.76,4.56-5.76A3.52,3.52,0,0,1,74.39,27V20.48ZM74.39,31.09v-.88c-.09-1.63-.84-2.53-2-2.53s-2.07.9-2.07,3,.8,3,2.07,3S74.3,32.76,74.39,31.09Z"/><path class="cls-9" d="M91.53,25.15v11H88.18l-.11-2a3.83,3.83,0,0,1-3.8,2.27c-2.25,0-3.77-1.1-3.77-3.87V25.15h3.74v6.4c0,1.49.55,2,1.52,2,1.17,0,2-.77,2-2.53V25.15Z"/><path class="cls-9" d="M104.55,28.34l-3.47,1.14c-.16-1.28-.71-1.89-1.7-1.89-1.41,0-2.18.94-2.18,3.1s.86,3,2.18,3c1.06,0,1.65-.64,1.83-1.79L104.57,33c-.3,1.92-2.09,3.37-5.17,3.37-3.85,0-5.94-2.12-5.94-5.72s2.14-5.72,5.79-5.72S104.2,26.55,104.55,28.34Z"/><path class="cls-9" d="M117.64,33.92l-.28,2.1a3.1,3.1,0,0,1-1.5.35c-1.47,0-2.51-.51-2.84-1.7-.62,1.06-1.89,1.7-3.92,1.7s-3.41-1-3.41-2.75,1.17-3,4.29-3.61l2.49-.49v-.39a1.47,1.47,0,0,0-1.56-1.63,1.84,1.84,0,0,0-2,1.69l-3-.88c.37-2.09,2.09-3.38,5.08-3.38,3.39,0,5.26,1.38,5.26,4.22v4c0,.57.26.85.79.85A2,2,0,0,0,117.64,33.92Zm-5.17-1.54v-.94l-1.78.42c-.93.22-1.3.52-1.3,1.14s.4,1,1.08,1C111.39,34,112.47,33.4,112.47,32.38Z"/><path class="cls-9" d="M129.37,28.34l-3.48,1.14c-.15-1.28-.7-1.89-1.69-1.89-1.41,0-2.18.94-2.18,3.1s.86,3,2.18,3c1,0,1.65-.64,1.82-1.79L129.39,33c-.31,1.92-2.09,3.37-5.17,3.37-3.85,0-5.94-2.12-5.94-5.72s2.13-5.72,5.78-5.72S129,26.55,129.37,28.34Z"/><path class="cls-9" d="M130.84,22.09c0-1.26.66-1.81,2.18-1.81s2.18.55,2.18,1.81-.66,1.78-2.18,1.78S130.84,23.32,130.84,22.09Zm4,14.06h-3.74v-11h3.74Z"/><path class="cls-9" d="M148.42,30.65c0,3.6-2.14,5.72-5.81,5.72s-5.81-2.12-5.81-5.72,2.14-5.72,5.81-5.72S148.42,27,148.42,30.65Zm-7.88,0c0,2.15.68,3.06,2.07,3.06s2.07-.91,2.07-3.06-.68-3.06-2.07-3.06S140.54,28.49,140.54,30.65Zm5.33-10.74-2.23,3.81h-2.72l1.47-3.81Z"/><path class="cls-9" d="M161.38,28.82v7.33h-3.74v-6.3c0-1.56-.64-2.06-1.57-2.06s-2,.72-2,2.55v5.81h-3.74v-11h3.35l.11,2.11a3.85,3.85,0,0,1,3.76-2.33A3.54,3.54,0,0,1,161.38,28.82Z"/><path class="cls-9" d="M180.45,31.72H173a2.11,2.11,0,0,0,2.31,2,1.87,1.87,0,0,0,2-1.21l3,1c-.64,1.91-2.51,2.88-5.06,2.88-3.85,0-5.94-2.09-5.94-5.72s2.07-5.72,5.74-5.72,5.5,2.09,5.5,5.56A6.46,6.46,0,0,1,180.45,31.72Zm-7.52-2h4.13c-.17-1.41-.86-2.16-2-2.16S173.15,28.23,172.93,29.7Z"/><path class="cls-9" d="M193.45,28.82v7.33h-3.74v-6.3c0-1.56-.64-2.06-1.56-2.06-1.08,0-2,.72-2,2.55v5.81h-3.74v-11h3.34l.11,2.11a3.87,3.87,0,0,1,3.77-2.33A3.54,3.54,0,0,1,193.45,28.82Z"/><path class="cls-9" d="M201.9,33.73c5-3.11,6.95-5.35,6.95-7.4a1.81,1.81,0,0,0-2-1.95c-1.38,0-2.18,1-2.22,3l-3.23-1c.06-3.22,2.44-4.95,5.7-4.95,3.85,0,5.47,2.39,5.47,4.66,0,2.84-2.22,5-6.16,7.26v0c.73,0,2-.09,2.93-.09h3.41v2.89H201.9Z"/><path class="cls-9" d="M214.53,28.89c0-4.95,2-7.48,6-7.48s6,2.53,6,7.48-2,7.48-6,7.48S214.53,33.84,214.53,28.89Zm8.31,0c0-3.26-.68-4.54-2.28-4.54s-2.29,1.28-2.29,4.54.68,4.53,2.29,4.53S222.84,32.14,222.84,28.89Z"/><path class="cls-9" d="M235.45,21.62V36.15H231.8V25.34a7,7,0,0,1-3.44,1.85L228,24.07a7.51,7.51,0,0,0,4.42-2.45Z"/><path class="cls-9" d="M249.42,29c0,5.2-2.33,7.4-6.16,7.4-2.64,0-4.42-1-5.33-3.17l3.39-1.34a1.83,1.83,0,0,0,2,1.65c1.85,0,2.69-1.48,2.69-4.12V29h-.07c-.39,1.28-1.89,1.92-3.47,1.92a4.51,4.51,0,0,1-4.71-4.63c0-3.08,2.07-4.92,5.65-4.92C247.26,21.41,249.42,24,249.42,29Zm-8.19-2.66a1.83,1.83,0,0,0,2.07,1.94,1.94,1.94,0,1,0,0-3.87A1.82,1.82,0,0,0,241.23,26.31Z"/></g><rect id="Rectángulo_1260" data-name="Rectángulo 1260" class="cls-11" x="52.77" y="43.86" width="197.24" height="25.76"/><g class="cls-8"><path class="cls-11" d="M187.56,113.76h-3.94v5.65h-5.93v-5.65H164.74V110.6l11-16.93h7.84v15.49h3.94ZM171,109.16h6.71v-6.87l.16-4.21h-.08a28.2,28.2,0,0,1-2.27,4.21Z"/><path class="cls-11" d="M201,93.67v25.74H194.5V100.26a12.62,12.62,0,0,1-6.09,3.28L187.79,98c2.65-.31,6.55-2.42,7.84-4.33Z"/><path class="cls-11" d="M212.63,117.74a8.34,8.34,0,0,1-5.42,7.84l-2.92-2.07c2.38-.9,4.17-2.3,4.83-4.18l-.15-.11a1.51,1.51,0,0,1-1.21.43,3.14,3.14,0,0,1-3.24-3.28c0-2.38,1.6-3.66,3.9-3.66C211.27,112.71,212.63,114.93,212.63,117.74Z"/><path class="cls-11" d="M237.16,113.76h-3.94v5.65H227.3v-5.65h-13V110.6l11-16.93h7.83v15.49h3.94Zm-16.57-4.6h6.71v-6.87l.15-4.21h-.08a27.25,27.25,0,0,1-2.26,4.21Z"/></g><g class="cls-8"><path class="cls-12" d="M92.07,54.29v7.15h-2.4l-.1-1.56a4.16,4.16,0,0,1-3.78,1.76c-3.56,0-6.14-2.4-6.14-6.78S82.17,48,86.23,48c3,0,4.76,1,5.82,3.38l-3.18,1.26a2.4,2.4,0,0,0-2.54-1.94c-2,0-3.14,1.38-3.14,4.1S84.29,59,86.43,59c1.56,0,2.72-.7,2.72-2.18v-.2H85.87V54.29Z"/><path class="cls-12" d="M101.53,51.45l-.36,2.88A2.6,2.6,0,0,0,99.91,54a2.16,2.16,0,0,0-2.24,2.36v5h-3.4v-10h3l.14,2.16a3,3,0,0,1,3-2.36A2.3,2.3,0,0,1,101.53,51.45Z"/><path class="cls-12" d="M112.85,59.42l-.26,1.9a2.79,2.79,0,0,1-1.36.32c-1.34,0-2.28-.46-2.58-1.54-.56,1-1.72,1.54-3.56,1.54s-3.1-.88-3.1-2.5,1.06-2.72,3.9-3.28l2.26-.44v-.37a1.34,1.34,0,0,0-1.42-1.47,1.67,1.67,0,0,0-1.86,1.54l-2.76-.8c.34-1.9,1.9-3.09,4.62-3.09,3.08,0,4.78,1.26,4.78,3.85v3.64q0,.78.72.78A1.94,1.94,0,0,0,112.85,59.42Zm-4.7-1.4v-.86l-1.62.38c-.84.2-1.18.48-1.18,1s.36.86,1,.86C107.17,59.44,108.15,58.94,108.15,58Z"/><path class="cls-12" d="M124,54.78v6.66h-3.4V55.71c0-1.42-.58-1.88-1.42-1.88s-1.8.67-1.8,2.33v5.28H114v-10h3l.1,1.92a3.51,3.51,0,0,1,3.42-2.12A3.23,3.23,0,0,1,124,54.78Z"/><path class="cls-12" d="M136.37,47.19V61.44h-3.06l-.12-1.9a3.47,3.47,0,0,1-3.26,2.1c-2.58,0-4.12-1.9-4.12-5.16s1.56-5.25,4.14-5.25a3.19,3.19,0,0,1,3,1.88V47.19ZM133,56.84V56c-.08-1.49-.76-2.3-1.86-2.3s-1.88.81-1.88,2.7.72,2.7,1.88,2.7S132.89,58.36,133,56.84Z"/><path class="cls-12" d="M148.25,57.42h-6.82a1.92,1.92,0,0,0,2.1,1.82,1.7,1.7,0,0,0,1.84-1.1l2.76.88c-.58,1.74-2.28,2.62-4.6,2.62-3.5,0-5.4-1.9-5.4-5.2s1.88-5.21,5.22-5.21,5,1.9,5,5.07A6.3,6.3,0,0,1,148.25,57.42Zm-6.84-1.84h3.76c-.16-1.29-.78-2-1.84-2S141.61,54.24,141.41,55.58Z"/><path class="cls-12" d="M149.33,59.88,151.09,58a3.22,3.22,0,0,0,3,1.42c.94,0,1.5-.28,1.5-.7s-.48-.62-1.82-.9c-3-.6-4.14-1.58-4.14-3.23s1.56-3.32,4.82-3.32c2.4,0,3.72.7,4.58,1.88l-1.84,1.81a2.75,2.75,0,0,0-2.64-1.42c-1,0-1.52.35-1.52.75s.44.67,1.84.92c3,.53,4.14,1.47,4.14,3.19s-1.54,3.28-4.76,3.28C152,61.64,150.35,61.12,149.33,59.88Z"/><path class="cls-12" d="M169.45,58c0,.88.22,1.24.92,1.24a2.88,2.88,0,0,0,1-.18l-.22,2.1a4.38,4.38,0,0,1-2.08.5c-2.14,0-3-.94-3-3.16V47.19h3.4Z"/><path class="cls-12" d="M182.53,56.44c0,3.28-1.94,5.2-5.28,5.2S172,59.72,172,56.44s1.94-5.21,5.28-5.21S182.53,53.15,182.53,56.44Zm-7.16,0c0,2,.62,2.78,1.88,2.78s1.88-.82,1.88-2.78-.62-2.78-1.88-2.78S175.37,54.47,175.37,56.44Z"/><path class="cls-12" d="M194.15,62.22c0,2.32-2.24,3.52-5.62,3.52-3.62,0-5.12-.92-5.12-2.36,0-.82.54-1.56,1.86-1.88a2.24,2.24,0,0,1-1.54-2.08,2.2,2.2,0,0,1,1.64-2,2.93,2.93,0,0,1-1.64-2.75c0-2.16,1.78-3.4,4.88-3.4a8.62,8.62,0,0,1,2,.22c.26-1.56,1.2-2.86,3.16-2.7l.38,2.26c-1.26-.18-2,.24-2.34.86a3,3,0,0,1,1.68,2.76c0,2.17-1.78,3.39-4.88,3.39a9.22,9.22,0,0,1-1.92-.18c-.44.12-.62.34-.62.7s.36.68,1,.68h3.4C192.81,59.22,194.15,60.22,194.15,62.22Zm-2.68.34c0-.4-.3-.64-1.22-.64h-2.74c-1.1,0-1.52.22-1.52.7s.84.92,2.78.92S191.47,63.12,191.47,62.56Zm-4.34-7.93a1.48,1.48,0,1,0,1.48-1.46A1.38,1.38,0,0,0,187.13,54.63Z"/><path class="cls-12" d="M202.57,51.45l-.36,2.88A2.6,2.6,0,0,0,201,54a2.16,2.16,0,0,0-2.24,2.36v5h-3.4v-10h3l.14,2.16a3,3,0,0,1,3-2.36A2.3,2.3,0,0,1,202.57,51.45Z"/><path class="cls-12" d="M213.69,56.44c0,3.28-1.94,5.2-5.28,5.2s-5.28-1.92-5.28-5.2,1.94-5.21,5.28-5.21S213.69,53.15,213.69,56.44Zm-7.16,0c0,2,.62,2.78,1.88,2.78s1.88-.82,1.88-2.78-.62-2.78-1.88-2.78S206.53,54.47,206.53,56.44Z"/><path class="cls-12" d="M214.73,59.88,216.49,58a3.22,3.22,0,0,0,3,1.42c.94,0,1.5-.28,1.5-.7s-.48-.62-1.82-.9c-3-.6-4.14-1.58-4.14-3.23s1.56-3.32,4.82-3.32c2.4,0,3.72.7,4.58,1.88l-1.84,1.81a2.75,2.75,0,0,0-2.64-1.42c-1,0-1.52.35-1.52.75s.44.67,1.84.92c3,.53,4.14,1.47,4.14,3.19s-1.54,3.28-4.76,3.28C217.41,61.64,215.75,61.12,214.73,59.88Z"/></g><line id="Línea_141" data-name="Línea 141" class="cls-13" x1="19.69" y1="149.5" x2="19.69" y2="63.86"/><line id="Línea_151" data-name="Línea 151" class="cls-13" x1="19.69" y1="149.5" x2="227.27" y2="149.5"/><g class="cls-8"><path class="cls-11" d="M177.53,136c0,3.26-1.52,5.17-4.12,5.17a3.49,3.49,0,0,1-3.34-2.32L170,141h-3V126.75h3.4v5.92a3.17,3.17,0,0,1,3-1.88C176,130.79,177.53,132.71,177.53,136Zm-3.42,0c0-1.88-.72-2.7-1.88-2.7s-1.84.94-1.84,2.6v.2c0,1.72.7,2.6,1.84,2.6S174.11,137.87,174.11,136Z"/><path class="cls-11" d="M178.77,128.21c0-1.14.6-1.64,2-1.64s2,.5,2,1.64-.6,1.62-2,1.62S178.77,129.33,178.77,128.21ZM182.45,141h-3.4V131h3.4Z"/><path class="cls-11" d="M187.73,137.53c0,.89.22,1.24.92,1.24a2.88,2.88,0,0,0,1-.18l-.22,2.11a4.38,4.38,0,0,1-2.08.5c-2.14,0-3-.95-3-3.17V126.75h3.4Z"/><path class="cls-11" d="M193.77,137.53c0,.89.22,1.24.92,1.24a2.88,2.88,0,0,0,1-.18l-.22,2.11a4.38,4.38,0,0,1-2.08.5c-2.14,0-3-.95-3-3.17V126.75h3.4Z"/><path class="cls-11" d="M206.53,136c0,3.28-1.94,5.21-5.28,5.21S196,139.27,196,136s1.94-5.2,5.28-5.2S206.53,132.71,206.53,136Zm-7.16,0c0,2,.62,2.78,1.88,2.78s1.88-.82,1.88-2.78-.62-2.78-1.88-2.78S199.37,134,199.37,136Z"/><path class="cls-11" d="M218,134.33V141h-3.4v-5.73c0-1.42-.58-1.88-1.42-1.88s-1.8.66-1.8,2.32V141H208V131h3l.1,1.92a3.51,3.51,0,0,1,3.42-2.12A3.22,3.22,0,0,1,218,134.33Z"/><path class="cls-11" d="M229.53,137h-6.82a1.92,1.92,0,0,0,2.1,1.82,1.7,1.7,0,0,0,1.84-1.1l2.76.88c-.58,1.75-2.28,2.63-4.6,2.63-3.5,0-5.4-1.91-5.4-5.21s1.88-5.2,5.22-5.2,5,1.9,5,5.06A6.3,6.3,0,0,1,229.53,137Zm-6.84-1.84h3.76c-.16-1.28-.78-2-1.84-2S222.89,133.79,222.69,135.13Z"/><path class="cls-11" d="M230.29,139.43l1.76-1.92a3.22,3.22,0,0,0,3,1.42c.94,0,1.5-.28,1.5-.7s-.48-.62-1.82-.9c-3-.6-4.14-1.58-4.14-3.22s1.56-3.32,4.82-3.32c2.4,0,3.72.7,4.58,1.88l-1.84,1.8a2.75,2.75,0,0,0-2.64-1.42c-1,0-1.52.36-1.52.76s.44.66,1.84.92c3,.52,4.14,1.46,4.14,3.18s-1.54,3.29-4.76,3.29C233,141.2,231.31,140.67,230.29,139.43Z"/></g><path id="Trazado_85032" data-name="Trazado 85032" class="cls-13" d="M229,148.94h9.48a8.61,8.61,0,0,0,8.61-8.61h0v-13"/><g id="Grupo_10007" data-name="Grupo 10007"><g id="Grupo_6350" data-name="Grupo 6350"><circle id="Elipse_274" data-name="Elipse 274" class="cls-14" cx="20.13" cy="48.92" r="15.58"/><circle id="Elipse_275" data-name="Elipse 275" class="cls-15" cx="20.13" cy="48.92" r="19.82"/></g><g class="cls-16"><path class="cls-9" d="M18.28,56.74c-3.31-.21-5.37-1.36-6.78-3.31l2.27-2.64a5.66,5.66,0,0,0,4.51,2.86V49.59c-2.94-.59-6.2-1.42-6.2-5,0-2.81,2.25-5,6.2-5.34V36.82h2.59v2.41a8,8,0,0,1,6.27,3.17L24.87,45a5,5,0,0,0-4-2.62v4.19C23.78,47.13,27,48,27,51.7c0,2.93-2.53,4.72-6.11,5v2.41H18.28Zm0-14.31c-1.34.21-2.06.88-2.06,1.87s.88,1.39,2.06,1.71Zm4.59,9.45c0-1-.85-1.41-2-1.73v3.44C22.15,53.41,22.87,52.87,22.87,51.88Z"/></g><g class="cls-8"><path class="cls-9" d="M19.75,57.42c-3.31-.21-5.37-1.36-6.78-3.31l2.26-2.64a5.66,5.66,0,0,0,4.52,2.85V50.26c-2.94-.58-6.2-1.41-6.2-5,0-2.8,2.25-5,6.2-5.34V37.5h2.59v2.4a8,8,0,0,1,6.27,3.18l-2.27,2.56a5,5,0,0,0-4-2.61v4.19c2.91.59,6.11,1.49,6.11,5.15,0,2.94-2.53,4.73-6.11,5.05v2.4H19.75Zm0-14.31c-1.34.21-2.06.88-2.06,1.87s.88,1.39,2.06,1.71Zm4.59,9.45c0-1-.85-1.42-2-1.74v3.45C23.62,54.08,24.34,53.55,24.34,52.56Z"/></g></g></g></g></svg>