<svg xmlns="http://www.w3.org/2000/svg" viewBox="0 0 719 565.1"><defs><style>.cls-1{fill:#f2f2f2;}.cls-2{fill:#e6e6e6;}.cls-13,.cls-15,.cls-21,.cls-23,.cls-3,.cls-4{fill:none;}.cls-21,.cls-3{stroke:#f42f63;}.cls-13,.cls-15,.cls-16,.cls-17,.cls-18,.cls-19,.cls-20,.cls-21,.cls-22,.cls-23,.cls-3,.cls-4{stroke-linecap:round;}.cls-21,.cls-3,.cls-4{stroke-width:2px;stroke-dasharray:8;}.cls-4{stroke:#fbb03b;}.cls-13,.cls-15,.cls-16,.cls-17,.cls-18,.cls-19,.cls-20,.cls-21,.cls-22,.cls-23,.cls-4{stroke-linejoin:round;}.cls-11,.cls-24,.cls-5{isolation:isolate;}.cls-6{fill:#36c;}.cls-7{fill:#4d4d4d;}.cls-8{fill:#999;}.cls-17,.cls-9{fill:#34508b;}.cls-10,.cls-18,.cls-22{fill:#fff;}.cls-11{fill:#f42f63;opacity:0.9;}.cls-12{fill:#fbb03b;}.cls-13{stroke:#36c;stroke-width:0.75px;}.cls-14{opacity:0.52;}.cls-15,.cls-16,.cls-17,.cls-18,.cls-19,.cls-20,.cls-22,.cls-23{stroke:#34508b;}.cls-15,.cls-16,.cls-17,.cls-18,.cls-19,.cls-20{stroke-width:3px;}.cls-16{fill:#ffd3a2;}.cls-19{fill:#ff9f9e;}.cls-20{fill:#3bddba;}.cls-22,.cls-23{stroke-width:1.89px;}.cls-23{stroke-dasharray:0 4.72;}.cls-24{opacity:0.5;}</style></defs><title>infografia-tablet</title><g id="Capa_2" data-name="Capa 2"><g id="Capa_1-2" data-name="Capa 1"><path id="Trazado_90202" data-name="Trazado 90202" class="cls-1" d="M714.25,291.1H506.53l-8.78-14,8.78-14H714.25Z"/><path id="Trazado_90203" data-name="Trazado 90203" class="cls-1" d="M714.25,489.6H506.53l-8.78-22,8.78-22H714.25Z"/><path id="Trazado_90204" data-name="Trazado 90204" class="cls-1" d="M714.25,417.6H506.53l-8.78-21,8.78-21H714.25Z"/><path id="Trazado_90205" data-name="Trazado 90205" class="cls-1" d="M714.25,565.1H506.53l-8.78-23,8.78-23H714.25Z"/><g id="Grupo_9152" data-name="Grupo 9152"><path id="Trazado_90206" data-name="Trazado 90206" class="cls-2" d="M713.74,171.18c-.15-2.44-3-4.36-8.85-5.81a3.13,3.13,0,0,0,.31-1.34V154h0c-.51-8.34-34.55-8.58-38.45-8.58s-37.94.24-38.46,8.58h0v10c0,2.72,3.5,4.85,8.7,6.43a3,3,0,0,0-.12.72h0v10c-5.6,1.46-8.4,3.34-8.54,5.74h0v10c0,1.89,1.7,3.49,4.48,4.84a3.75,3.75,0,0,0-.2.88h0v10c0,4.76,10.69,7.72,22.55,9.09a1.14,1.14,0,0,0,.25.06l.08,0c2.29.26,4.61.46,6.91.6a.35.35,0,0,0,.14,0h.08c2.91.17,5.79.26,8.47.26s5.56-.09,8.48-.26h.07c.05,0,.09,0,.14,0,2.3-.14,4.62-.34,6.91-.6h.08a1.11,1.11,0,0,0,.25-.05c11.86-1.38,22.54-4.34,22.55-9.1v-10h0c-.1-1.75-1.59-3.22-4.53-4.44a3.15,3.15,0,0,0,.28-1.29v-9.35c5.11-1.57,8.54-3.68,8.55-6.38v-10ZM702.2,197.4l-.49.43a12.51,12.51,0,0,1-3.63,2V193a20.72,20.72,0,0,0,4.28-2v5.93a1,1,0,0,1-.16.47ZM670.33,204l-.63,0-1.54,0v-7.15l1.17,0h.23c1.43,0,2.87-.07,4.3-.13v7.14l-.92.05-2.61.08Zm-6.22,0c-.66,0-1.31,0-2-.05h-.24l-2.31-.1v-7.14c1.42.07,2.86.12,4.29.14h.23l1.18,0v7.13h-1.2Zm-25.75-3.26-.13,0v-6.91c1.33.36,2.76.69,4.27,1v7c-1.3-.28-2.51-.57-3.61-.87l-.53-.15Zm30,11.85,1.18,0v7.15c-2,0-3.87-.07-5.7-.17v-7.14c1.42.07,2.86.11,4.3.14Zm5.43,0c1.44,0,2.87-.08,4.3-.14v7.14c-1.83.09-3.73.15-5.7.17v-7.16h1.4Zm11.42-.65v7.1c-1.37.15-2.79.27-4.27.38v-7.14c1.44-.09,2.87-.21,4.27-.34Zm2.86-.31c1.46-.18,2.89-.38,4.27-.61v7c-1.35.24-2.77.46-4.27.66Zm7.12-1.12c1.51-.3,2.94-.63,4.27-1v6.91c-1.26.37-2.7.72-4.27,1.06Zm-48.46,0v7c-1.57-.34-3-.69-4.27-1.06v-6.91c1.33.35,2.77.69,4.27,1Zm2.86.51c1.37.23,2.8.44,4.27.61v7.08c-1.5-.2-2.93-.42-4.27-.66Zm7.12.92c1.41.13,2.83.25,4.27.35v7.13c-1.47-.1-2.89-.23-4.27-.38Zm-3.53-8.56-.43,0-.3,0v-7.11c1.4.14,2.82.25,4.27.35v7.13q-1.8-.13-3.54-.3ZM649.63,196V203c-1.5-.2-2.93-.42-4.27-.66v-7c1.37.23,2.8.43,4.27.6Zm28,7.72-.95.07v-7.13c1.45-.1,2.87-.21,4.28-.35v7.11c-.88.08-1.78.18-2.71.25l-.62,0Zm6.18-.64V196c1.46-.17,2.89-.37,4.28-.6v7c-1.35.24-2.77.47-4.28.66Zm7.12-8.19c1.52-.3,2.95-.63,4.28-1v6.91c-1.27.37-2.7.72-4.28,1.06Zm-19.48-6.54c-1.07,0-2.12-.06-3.15-.11h-.17V181c1.43.07,2.87.11,4.3.14h1.4v7.15l-2.07,0Zm-33.24-20.44V161c1.33.36,2.76.69,4.27,1v7l-.53-.11c-.75-.17-1.5-.34-2.2-.53l-1.54-.42Zm25.9-3.85h1.18v7.15c-1.92,0-3.83-.07-5.7-.16v-7.14c1.42.07,2.85.11,4.29.14Zm5.43,0c1.43,0,2.87-.07,4.3-.13V171l-.73,0h0c-1,0-1.94.07-2.92.09l-.46,0h-1.55V164h1.41Zm32.47.72h0l-.52.41a14.19,14.19,0,0,1-3.39,1.76v-6.81a21.22,21.22,0,0,0,4.28-2V164a1.12,1.12,0,0,1-.33.7Zm-18.2,5.4v-7.07c1.47-.18,2.9-.38,4.28-.6v7c-1.36.24-2.78.46-4.28.66Zm7.13-1.21v-7c1.51-.3,2.94-.63,4.28-1v6.89C694,168.21,692.52,168.57,691,168.91Zm-10-5.55v7.1c-1.38.14-2.81.27-4.28.38v-7.13c1.44-.1,2.87-.21,4.28-.35Zm-28.5,7.1v-7.1c1.4.13,2.82.25,4.27.35v7.12c-1.45-.1-2.88-.23-4.27-.37Zm-2.86-7.41v7.07c-.28,0-.57-.06-.85-.11l-.54-.07-2.41-.38-.47-.09v-7c1.38.22,2.8.42,4.27.6ZM665,188c-.2,0-.39,0-.58-.05q-1.36-.1-2.67-.24c-.19,0-.38,0-.56-.06H661v-7.1c1.41.14,2.83.25,4.28.35V188l-.35,0Zm-9.42-1.07-1.63-.29v-7c1.38.23,2.81.43,4.28.6v7.08c-.88-.11-1.73-.24-2.55-.36l-.1,0Zm-4.48-7.81v7c-1.58-.34-3-.7-4.28-1.07v-6.89c1.33.36,2.76.69,4.28,1Zm-7.12-1.87V184c-2.25-.86-3.69-1.75-4.16-2.54l-.1-.16a.7.7,0,0,0,0-.14v-5.93a20.72,20.72,0,0,0,4.28,2Zm34.17,3.93c1.44,0,2.87-.07,4.3-.13v7.13c-1.87.1-3.78.15-5.71.17V181.2l1.18,0Zm18.41,5.5-1.9.31-1.13.17-1.11.14v-7.07c1.47-.18,2.9-.38,4.28-.6v7l-.14,0Zm-9.64,1.22-1.62.11v-7.13c1.45-.1,2.87-.2,4.27-.34v7.1l-2.5.25Zm16.28-2.68c-.71.2-1.46.38-2.22.56l-1.09.25-.34.07v-7c1.52-.3,2.94-.63,4.28-1V185l-.63.17Zm7.73-13.93c-.13,1-2.32,2.27-6.23,3.48a95.7,95.7,0,0,1-22.93,3.44l-1.54.06-1.3,0c-1.17,0-2.37,0-3.61,0s-2.43,0-3.61,0l-1.29,0-1.54-.06a95.63,95.63,0,0,1-22.93-3.44c-3.88-1.2-6.07-2.49-6.23-3.45a.29.29,0,0,1,0-.09l.3.07,1.72.39c2.83.6,6,1.11,9.3,1.49h.05c2.27.26,4.64.46,7.06.61h.06s0,0,0,0c1.75.1,3.52.18,5.3.22,1.09,0,2.17,0,3.23,0l2.28,0c10.36-.16,20-1.4,26.62-3.31l.91-.27.54-.16c.52-.17,1-.35,1.49-.52a2.34,2.34,0,0,1,.24-.09l1.17-.48.32-.14c.4-.18.78-.36,1.13-.55l.45-.26.5-.3a1.78,1.78,0,0,0,.27-.17c6.39,1.39,8.07,2.91,8.23,3.5Zm-44.15-23c23.5,0,35.38,3.71,35.6,5.84-.18,1-2.37,2.25-6.24,3.45A95,95,0,0,1,673.18,161l-1.55.06-1.28,0c-1.19,0-2.38.05-3.61.05s-2.44,0-3.62-.05l-1.29,0-1.54-.06a95.06,95.06,0,0,1-22.93-3.44c-3.87-1.2-6.06-2.48-6.23-3.45.22-2.13,12.11-5.84,35.61-5.84ZM631.11,164v-5.92a21.14,21.14,0,0,0,4.27,2v6.86C632.61,165.89,631.11,164.84,631.11,164Zm6.9,19.8s0,0,.08.06c1.95,2,6,3.54,11,4.7l.36.08,1.13.24A109.46,109.46,0,0,0,666.72,191h0c1.93.12,3.9.19,5.92.23l2.62,0c1,0,2,0,3,0,1.86,0,3.7-.11,5.51-.22h.06a111,111,0,0,0,16.45-2.11,26.27,26.27,0,0,1-4.21,1.65c-5.33,1.65-13.83,3.15-24.63,3.5l-1,0-1,0c-.9,0-1.8,0-2.72,0-1.24,0-2.44,0-3.62,0l-1.29,0-1.54-.05a95.55,95.55,0,0,1-22.93-3.44c-3.92-1.22-6.11-2.51-6.24-3.48.16-.54,1.6-1.89,6.89-3.19Zm-6.9,13.1V191a21.74,21.74,0,0,0,4.27,2v6.82l-.81-.32h0c-2.24-.92-3.45-1.84-3.45-2.56Zm4.27,15.74v-5.92a21.56,21.56,0,0,0,4.28,2v6.84C636.89,214.52,635.38,213.47,635.38,212.67Zm67,2.89v-6.84a21.47,21.47,0,0,0,4.27-2v5.91c0,.81-1.5,1.86-4.27,2.9Zm4.25-12.79c-.15,1-2.34,2.25-6.23,3.46a95.21,95.21,0,0,1-22.94,3.44c-.52,0-1,.05-1.55.06l-1.28,0c-1.19,0-2.38,0-3.61,0s-2.44,0-3.62,0l-1.28,0-1.55-.06a95,95,0,0,1-22.92-3.44c-3.77-1.17-6-2.41-6.22-3.37.42.15.86.3,1.31.44l.14,0c.38.12.78.23,1.18.34l.46.13.7.18a103.88,103.88,0,0,0,19,2.71h0c2.21.12,4.46.21,6.75.24h1.8l2.4,0c2.08,0,4.13-.11,6.13-.23h0c2.44-.15,4.81-.36,7.09-.62h0l.09,0c2.53-.29,4.93-.65,7.16-1.07l1.35-.26.3-.06a38.26,38.26,0,0,0,10.36-3.39l.39-.22.46-.29c.14-.1.29-.18.41-.27,2.82,1,3.59,1.91,3.68,2.27Zm0-18.68v-6.85a20.48,20.48,0,0,0,4.28-2v5.92C710.91,182,709.41,183.05,706.63,184.09Z"/></g><path id="Trazado_95633" data-name="Trazado 95633" class="cls-3" d="M75.56,547.31v-79.6"/><line id="Línea_153" data-name="Línea 153" class="cls-4" x1="352.53" y1="228.35" x2="352.53" y2="114.35"/><g class="cls-5"><path class="cls-6" d="M397.11,221.65h-3.93v5.63h-5.91v-5.63h-12.9V218.5l11-16.88h7.81v15.44h3.93Zm-16.52-4.59h6.68v-6.84l.16-4.2h-.08a28,28,0,0,1-2.25,4.2Z"/><path class="cls-6" d="M406.6,224.13c0,2.18-1.48,3.5-3.89,3.5s-3.89-1.32-3.89-3.5,1.48-3.53,3.89-3.53S406.6,221.92,406.6,224.13Z"/><path class="cls-6" d="M428.57,218.5c0,6.3-4.51,9.17-10,9.17-4.54,0-7.77-1.4-10-5.13l5.87-3.34c.47,2.14,1.44,3.42,4.2,3.42,2.38,0,3.93-1.25,3.93-3.66s-1.32-3.61-3.93-3.61a5.14,5.14,0,0,0-4.08,1.51l-5-.73,1.63-14.51h16v5.17H416l-.58,4.83a6.74,6.74,0,0,1-.2.93h0a7.11,7.11,0,0,1,5.29-1.83C425.57,210.72,428.57,214,428.57,218.5Z"/><path class="cls-6" d="M462.08,217.64c0,6.34-2.95,10-8,10a6.76,6.76,0,0,1-6.5-4.51l-.19,4.12h-5.8V199.6h6.61v11.51a6.17,6.17,0,0,1,5.88-3.65C459.05,207.46,462.08,211.19,462.08,217.64Zm-6.64-.08c0-3.65-1.4-5.24-3.66-5.24s-3.58,1.82-3.58,5.05v.39c0,3.34,1.36,5.05,3.58,5.05S455.44,221.22,455.44,217.56Z"/><path class="cls-6" d="M464.5,202.44c0-2.22,1.16-3.19,3.85-3.19s3.84,1,3.84,3.19-1.16,3.15-3.84,3.15S464.5,204.62,464.5,202.44Zm7.15,24.84H465V207.84h6.61Z"/><path class="cls-6" d="M481.92,220.56c0,1.71.42,2.41,1.78,2.41a5.71,5.71,0,0,0,2-.35l-.43,4.08a8.55,8.55,0,0,1-4,1c-4.16,0-5.91-1.82-5.91-6.14V199.6h6.61Z"/><path class="cls-6" d="M493.66,220.56c0,1.71.43,2.41,1.79,2.41a5.69,5.69,0,0,0,2-.35L497,226.7a8.52,8.52,0,0,1-4,1c-4.16,0-5.91-1.82-5.91-6.14V199.6h6.61Z"/><path class="cls-6" d="M518.46,217.56c0,6.38-3.77,10.11-10.26,10.11s-10.26-3.73-10.26-10.11,3.77-10.1,10.26-10.1S518.46,211.19,518.46,217.56Zm-13.91,0c0,3.81,1.2,5.41,3.65,5.41s3.65-1.6,3.65-5.41-1.2-5.4-3.65-5.4S504.55,213.75,504.55,217.56Z"/><path class="cls-6" d="M540.78,214.34v12.94h-6.61V216.17c0-2.77-1.12-3.66-2.76-3.66-1.9,0-3.5,1.28-3.5,4.51v10.26h-6.6V207.84h5.9l.2,3.74a6.81,6.81,0,0,1,6.65-4.12C538.06,207.46,540.78,209.83,540.78,214.34Z"/><path class="cls-6" d="M563.18,219.47H549.92c.43,2.53,1.87,3.54,4.09,3.54,1.94,0,3.14-.78,3.57-2.14l5.37,1.71c-1.13,3.38-4.44,5.09-8.94,5.09-6.81,0-10.5-3.69-10.5-10.11s3.65-10.1,10.15-10.1c6.33,0,9.72,3.69,9.72,9.83A12,12,0,0,1,563.18,219.47Zm-13.3-3.58h7.31c-.31-2.49-1.51-3.81-3.57-3.81S550.27,213.29,549.88,215.89Z"/><path class="cls-6" d="M564.66,224.25l3.42-3.73c1.17,1.94,3.27,2.76,5.76,2.76,1.82,0,2.91-.54,2.91-1.36s-.93-1.21-3.54-1.75c-5.91-1.17-8-3.07-8-6.26s3-6.45,9.37-6.45c4.66,0,7.23,1.36,8.9,3.65l-3.58,3.5a5.36,5.36,0,0,0-5.13-2.76c-1.94,0-3,.7-3,1.48s.86,1.28,3.58,1.79c5.76,1,8,2.83,8,6.18,0,3.57-3,6.37-9.25,6.37C569.87,227.67,566.64,226.66,564.66,224.25Z"/></g><g class="cls-5"><path class="cls-7" d="M525.69,276.68c0,3-1.75,4.62-4.65,4.62h-3v-9.25h3C523.94,272.05,525.69,273.71,525.69,276.68Zm-1.18,0c0-2.25-1.24-3.58-3.36-3.58h-2v7.15h2C523.27,280.25,524.51,278.92,524.51,276.68Z"/><path class="cls-7" d="M533.54,278.22h-5.28a2.23,2.23,0,0,0,2.29,2.24,1.89,1.89,0,0,0,2-1l.94.49a3,3,0,0,1-2.91,1.53c-2.12,0-3.39-1.37-3.39-3.64s1.19-3.65,3.3-3.65a3,3,0,0,1,3.14,3.28A5.31,5.31,0,0,1,533.54,278.22Zm-5.26-1h4.24c-.15-1.29-.87-2.09-2.06-2.09A2.11,2.11,0,0,0,528.28,277.22Z"/><path class="cls-7" d="M534.74,279.86l.91-.64a2.2,2.2,0,0,0,2.22,1.24c1.15,0,1.69-.46,1.69-1s-.43-.83-1.83-1.08c-2-.36-2.72-.91-2.72-2.09s1-2.1,2.76-2.1c1.5,0,2.38.54,2.77,1.68l-.95.57a1.71,1.71,0,0,0-1.82-1.27c-.94,0-1.64.51-1.64,1s.46.91,1.89,1.15c2,.32,2.66.91,2.66,2.06s-1.13,2.07-2.92,2.07A3.23,3.23,0,0,1,534.74,279.86Z"/><path class="cls-7" d="M546.69,280.81a2.64,2.64,0,0,1-1.81.63,1.76,1.76,0,0,1-2-1.88v-4.3h-1.4v-1h1.4v-1.68l1.12-.31v2h2.6v1h-2.6v4.11a1,1,0,0,0,1.05,1,1.63,1.63,0,0,0,1.2-.52Z"/><path class="cls-7" d="M547.64,272.11a.84.84,0,0,1,1.68,0,.84.84,0,0,1-1.68,0Zm1.4,9.19h-1.12v-7H549Z"/><path class="cls-7" d="M557.43,276.82v4.48h-1.12v-4.09c0-1.56-.76-2.08-1.73-2.08a2.16,2.16,0,0,0-2.17,2.44v3.73h-1.12v-7h1l.07,1.1a2.78,2.78,0,0,1,5.09,1.43Z"/><path class="cls-7" d="M565.91,280.42l-.07.88a2.56,2.56,0,0,1-.84.14,1.1,1.1,0,0,1-1.26-1,2.76,2.76,0,0,1-2.26,1c-1.31,0-2.38-.62-2.38-1.88,0-1.05.93-1.88,2.73-2.18l1.87-.31v-.39a1.48,1.48,0,0,0-1.64-1.55,2,2,0,0,0-2,1.33l-.83-.6a2.86,2.86,0,0,1,2.83-1.71c1.6,0,2.76.76,2.76,2.39V280c0,.34.14.51.53.51A2.6,2.6,0,0,0,565.91,280.42Zm-2.21-1.48v-1l-1.57.29c-1.23.23-1.87.63-1.87,1.29s.48.9,1.28.9C562.66,280.46,563.7,279.87,563.7,278.94Z"/><path class="cls-7" d="M573.4,271.07V281.3h-1l-.07-1.22a2.62,2.62,0,0,1-2.4,1.36c-1.94,0-3.19-1.36-3.19-3.64s1.25-3.65,3.19-3.65a2.64,2.64,0,0,1,2.33,1.24v-4.32Zm-1.12,6.81v-.17c0-1.58-.87-2.58-2.2-2.58s-2.2,1-2.2,2.67.83,2.66,2.2,2.66S572.28,279.46,572.28,277.88Z"/><path class="cls-7" d="M582,277.8c0,2.27-1.28,3.64-3.39,3.64s-3.39-1.37-3.39-3.64,1.27-3.65,3.39-3.65S582,275.53,582,277.8Zm-5.66,0c0,1.66.85,2.67,2.27,2.67s2.27-1,2.27-2.67-.86-2.68-2.27-2.68S576.34,276.13,576.34,277.8Z"/><path class="cls-7" d="M583.18,279.86l.91-.64a2.2,2.2,0,0,0,2.22,1.24c1.14,0,1.69-.46,1.69-1s-.43-.83-1.83-1.08c-2-.36-2.72-.91-2.72-2.09s1-2.1,2.76-2.1c1.5,0,2.38.54,2.77,1.68l-1,.57a1.71,1.71,0,0,0-1.82-1.27c-.94,0-1.64.51-1.64,1s.46.91,1.89,1.15c2,.32,2.66.91,2.66,2.06s-1.13,2.07-2.93,2.07A3.21,3.21,0,0,1,583.18,279.86Z"/><path class="cls-7" d="M601.57,280.42l-.07.88a2.56,2.56,0,0,1-.84.14,1.1,1.1,0,0,1-1.26-1,2.76,2.76,0,0,1-2.26,1c-1.32,0-2.38-.62-2.38-1.88,0-1.05.92-1.88,2.73-2.18l1.86-.31v-.39a1.47,1.47,0,0,0-1.63-1.55,2.06,2.06,0,0,0-2,1.33l-.82-.6a2.86,2.86,0,0,1,2.83-1.71c1.59,0,2.75.76,2.75,2.39V280c0,.34.15.51.54.51A2.6,2.6,0,0,0,601.57,280.42Zm-2.22-1.48v-1l-1.56.29c-1.24.23-1.87.63-1.87,1.29s.48.9,1.28.9C598.32,280.46,599.35,279.87,599.35,278.94Z"/><path class="cls-7" d="M608,279.42c0,.71.19.94.76.94a2.38,2.38,0,0,0,1-.2l-.18,1.08a2.64,2.64,0,0,1-1,.2c-1.13,0-1.68-.6-1.68-1.88v-8.49H608Z"/><path class="cls-7" d="M617.18,280.42l-.07.88a2.56,2.56,0,0,1-.84.14,1.1,1.1,0,0,1-1.26-1,2.76,2.76,0,0,1-2.26,1c-1.32,0-2.38-.62-2.38-1.88,0-1.05.92-1.88,2.73-2.18l1.86-.31v-.39a1.47,1.47,0,0,0-1.63-1.55,2.06,2.06,0,0,0-2,1.33l-.82-.6a2.86,2.86,0,0,1,2.83-1.71c1.59,0,2.76.76,2.76,2.39V280c0,.34.13.51.53.51A2.6,2.6,0,0,0,617.18,280.42ZM615,278.94v-1l-1.56.29c-1.24.23-1.87.63-1.87,1.29s.48.9,1.28.9C613.93,280.46,615,279.87,615,278.94Z"/><path class="cls-7" d="M629.19,277.8c0,2.28-1.25,3.64-3.19,3.64a2.62,2.62,0,0,1-2.4-1.36l-.07,1.22h-1V271.07h1.12v4.32a2.65,2.65,0,0,1,2.33-1.24C627.94,274.15,629.19,275.51,629.19,277.8Zm-1.12,0c0-1.63-.83-2.67-2.2-2.67s-2.2,1-2.2,2.58v.17c0,1.58.87,2.58,2.2,2.58S628.07,279.42,628.07,277.8Z"/><path class="cls-7" d="M637.32,280.42l-.07.88a2.51,2.51,0,0,1-.84.14,1.11,1.11,0,0,1-1.26-1,2.76,2.76,0,0,1-2.25,1c-1.32,0-2.38-.62-2.38-1.88,0-1.05.92-1.88,2.73-2.18l1.86-.31v-.39a1.48,1.48,0,0,0-1.64-1.55,2.06,2.06,0,0,0-2,1.33l-.83-.6a2.87,2.87,0,0,1,2.83-1.71c1.6,0,2.76.76,2.76,2.39V280c0,.34.14.51.53.51A2.45,2.45,0,0,0,637.32,280.42Zm-2.21-1.48v-1l-1.57.29c-1.23.23-1.86.63-1.86,1.29s.47.9,1.27.9C634.07,280.46,635.11,279.87,635.11,278.94Z"/><path class="cls-7" d="M638,279.86l.91-.64a2.2,2.2,0,0,0,2.22,1.24c1.15,0,1.69-.46,1.69-1s-.43-.83-1.83-1.08c-2-.36-2.72-.91-2.72-2.09s1-2.1,2.76-2.1c1.5,0,2.38.54,2.77,1.68l-1,.57a1.71,1.71,0,0,0-1.82-1.27c-.94,0-1.64.51-1.64,1s.46.91,1.89,1.15c2,.32,2.66.91,2.66,2.06s-1.13,2.07-2.93,2.07A3.22,3.22,0,0,1,638,279.86Z"/><path class="cls-7" d="M651.57,278.22h-5.28a2.23,2.23,0,0,0,2.29,2.24,1.89,1.89,0,0,0,2-1l.94.49a3,3,0,0,1-2.91,1.53c-2.12,0-3.39-1.37-3.39-3.64s1.19-3.65,3.3-3.65a3,3,0,0,1,3.14,3.28A5.31,5.31,0,0,1,651.57,278.22Zm-5.26-1h4.24c-.15-1.29-.87-2.09-2.06-2.09A2.12,2.12,0,0,0,646.31,277.22Z"/></g><g class="cls-5"><path class="cls-6" d="M71.38,8.09c0,3.78-2.54,5.94-7.14,5.94H60.58v6.41H55.76V2h8.48C68.84,2,71.38,4.12,71.38,8.09ZM66.54,8c0-1.63-.92-2.44-3.05-2.44H60.58v4.9h2.91C65.62,10.5,66.54,9.69,66.54,8Z"/><path class="cls-6" d="M83.45,6.47l-.5,4a3.71,3.71,0,0,0-1.77-.42,3,3,0,0,0-3.13,3.3v7.06H73.29v-14h4.2l.19,3a4.27,4.27,0,0,1,4.26-3.3A3.19,3.19,0,0,1,83.45,6.47Z"/><path class="cls-6" d="M97.82,14.81H88.27a2.69,2.69,0,0,0,2.94,2.55,2.37,2.37,0,0,0,2.57-1.54l3.87,1.23c-.81,2.44-3.19,3.67-6.44,3.67-4.9,0-7.56-2.66-7.56-7.28S86.28,6.16,91,6.16s7,2.66,7,7.08A9.16,9.16,0,0,1,97.82,14.81Zm-9.58-2.57H93.5c-.22-1.8-1.09-2.75-2.57-2.75S88.52,10.36,88.24,12.24Z"/><path class="cls-6" d="M98.74,18.26l2.46-2.69a4.53,4.53,0,0,0,4.15,2c1.31,0,2.1-.4,2.1-1s-.67-.87-2.55-1.26c-4.26-.84-5.8-2.22-5.8-4.51s2.19-4.65,6.75-4.65c3.36,0,5.21,1,6.41,2.63l-2.57,2.52a3.86,3.86,0,0,0-3.7-2c-1.4,0-2.13.51-2.13,1.07s.62.92,2.58,1.29c4.14.72,5.8,2,5.8,4.45,0,2.57-2.16,4.59-6.67,4.59C102.49,20.72,100.17,20,98.74,18.26Z"/><path class="cls-6" d="M127.8,6.44v14h-4.25l-.14-2.6a4.89,4.89,0,0,1-4.85,2.88c-2.85,0-4.78-1.4-4.78-4.93V6.44h4.76v8.15c0,1.9.7,2.49,1.93,2.49,1.48,0,2.57-1,2.57-3.22V6.44Z"/><path class="cls-6" d="M145.14,13.38c0,4.65-2.19,7.34-5.77,7.34a4.45,4.45,0,0,1-4.23-2.63v8.23h-4.76V6.44h4.17l.14,3a4.88,4.88,0,0,1,4.68-3.25C143,6.16,145.14,8.82,145.14,13.38Zm-4.79.06c0-2.63-1-3.78-2.63-3.78s-2.58,1.23-2.58,3.64v.28c0,2.32.92,3.64,2.58,3.64S140.35,16.07,140.35,13.44Z"/><path class="cls-6" d="M161.07,6.44v14h-4.26l-.14-2.6a4.88,4.88,0,0,1-4.84,2.88c-2.86,0-4.79-1.4-4.79-4.93V6.44h4.76v8.15c0,1.9.7,2.49,1.93,2.49,1.48,0,2.58-1,2.58-3.22V6.44Z"/><path class="cls-6" d="M177.14,14.81h-9.55a2.69,2.69,0,0,0,2.94,2.55,2.39,2.39,0,0,0,2.58-1.54L177,17.05c-.81,2.44-3.19,3.67-6.44,3.67-4.9,0-7.56-2.66-7.56-7.28s2.63-7.28,7.31-7.28,7,2.66,7,7.08A9.16,9.16,0,0,1,177.14,14.81Zm-9.58-2.57h5.27c-.23-1.8-1.1-2.75-2.58-2.75S167.84,10.36,167.56,12.24Z"/><path class="cls-6" d="M178.06,18.26l2.47-2.69a4.51,4.51,0,0,0,4.14,2c1.32,0,2.1-.4,2.1-1s-.67-.87-2.55-1.26c-4.25-.84-5.79-2.22-5.79-4.51s2.18-4.65,6.74-4.65c3.36,0,5.21,1,6.42,2.63L189,11.31a3.86,3.86,0,0,0-3.7-2c-1.4,0-2.12.51-2.12,1.07s.61.92,2.57,1.29c4.15.72,5.8,2,5.8,4.45,0,2.57-2.16,4.59-6.67,4.59C181.81,20.72,179.49,20,178.06,18.26Z"/><path class="cls-6" d="M203.35,19.66a7.52,7.52,0,0,1-3.95,1.06c-3.17,0-5.13-1.23-5.15-4.48V9.83h-2.41V6.44h2.41V3.3L199,2V6.44h4.2V9.83H199v5.63a1.62,1.62,0,0,0,1.84,1.87,3.28,3.28,0,0,0,2-.61Z"/><path class="cls-6" d="M218.63,13.44c0,4.59-2.71,7.28-7.39,7.28s-7.39-2.69-7.39-7.28,2.72-7.28,7.39-7.28S218.63,8.85,218.63,13.44Zm-10,0c0,2.74.87,3.89,2.63,3.89s2.63-1.15,2.63-3.89-.86-3.89-2.63-3.89S208.61,10.7,208.61,13.44Z"/></g><g class="cls-5"><path class="cls-8" d="M241.87,13.44c0,4.56-2.49,7.28-6.38,7.28a5.3,5.3,0,0,1-4.65-2.46v8.06H228.6V6.44h2l.14,2.44a5.23,5.23,0,0,1,4.79-2.72C239.38,6.16,241.87,8.88,241.87,13.44Zm-2.24,0c0-3.25-1.65-5.32-4.39-5.32s-4.4,2-4.4,5.15v.34c0,3.16,1.74,5.15,4.4,5.15S239.63,16.69,239.63,13.44Z"/><path class="cls-8" d="M258,18.68l-.14,1.76a5.07,5.07,0,0,1-1.68.28,2.2,2.2,0,0,1-2.52-2.07,5.53,5.53,0,0,1-4.51,2.07c-2.63,0-4.76-1.23-4.76-3.75,0-2.1,1.85-3.75,5.46-4.37l3.73-.62V11.2a2.94,2.94,0,0,0-3.28-3.08,4.1,4.1,0,0,0-4,2.66l-1.65-1.2c.72-2.08,2.94-3.42,5.65-3.42,3.19,0,5.52,1.51,5.52,4.76v6.89c0,.67.28,1,1.06,1A5.12,5.12,0,0,0,258,18.68Zm-4.42-2.94V13.8l-3.14.59c-2.46.45-3.72,1.26-3.72,2.58s.95,1.79,2.54,1.79C251.51,18.76,253.58,17.58,253.58,15.74Z"/><path class="cls-8" d="M268.56,6.44l-.45,2.18a3.91,3.91,0,0,0-1.76-.36c-1.69,0-3.7,1.48-3.7,4.62v7.56h-2.24v-14h1.82l.31,2.3A4.48,4.48,0,0,1,267,6.16,3.67,3.67,0,0,1,268.56,6.44Z"/><path class="cls-8" d="M283.2,18.68l-.14,1.76a5.07,5.07,0,0,1-1.68.28,2.2,2.2,0,0,1-2.52-2.07,5.54,5.54,0,0,1-4.51,2.07c-2.63,0-4.76-1.23-4.76-3.75,0-2.1,1.85-3.75,5.46-4.37l3.73-.62V11.2a2.94,2.94,0,0,0-3.28-3.08,4.1,4.1,0,0,0-4,2.66l-1.65-1.2c.72-2.08,2.94-3.42,5.65-3.42,3.19,0,5.52,1.51,5.52,4.76v6.89c0,.67.28,1,1.06,1A5.12,5.12,0,0,0,283.2,18.68Zm-4.42-2.94V13.8l-3.14.59c-2.46.45-3.72,1.26-3.72,2.58s.95,1.79,2.54,1.79C276.7,18.76,278.78,17.58,278.78,15.74Z"/><path class="cls-8" d="M295.8,16.69c0,1.43.36,1.87,1.51,1.87a5,5,0,0,0,2.05-.39L299,20.33a5.49,5.49,0,0,1-2.07.39c-2.27,0-3.36-1.2-3.36-3.75V0h2.24Z"/><path class="cls-8" d="M314,18.68l-.14,1.76a5.07,5.07,0,0,1-1.68.28,2.2,2.2,0,0,1-2.52-2.07,5.54,5.54,0,0,1-4.51,2.07c-2.63,0-4.76-1.23-4.76-3.75,0-2.1,1.85-3.75,5.46-4.37l3.73-.62V11.2a2.94,2.94,0,0,0-3.28-3.08,4.1,4.1,0,0,0-4,2.66l-1.66-1.2c.73-2.08,2.94-3.42,5.66-3.42,3.19,0,5.52,1.51,5.52,4.76v6.89c0,.67.28,1,1.06,1A5.2,5.2,0,0,0,314,18.68Zm-4.42-2.94V13.8l-3.14.59c-2.46.45-3.72,1.26-3.72,2.58s.95,1.79,2.54,1.79C307.5,18.76,309.58,17.58,309.58,15.74Z"/></g><g class="cls-5"><path class="cls-6" d="M68.92,44.16H59.37a2.69,2.69,0,0,0,2.94,2.55,2.39,2.39,0,0,0,2.58-1.54l3.86,1.23c-.81,2.43-3.19,3.67-6.44,3.67-4.9,0-7.56-2.66-7.56-7.28s2.63-7.28,7.31-7.28,7,2.66,7,7.08A9.25,9.25,0,0,1,68.92,44.16Zm-9.58-2.58h5.27c-.23-1.79-1.09-2.74-2.58-2.74S59.62,39.71,59.34,41.58Z"/><path class="cls-6" d="M85.64,29.85V49.79H81.35l-.17-2.66a4.85,4.85,0,0,1-4.56,2.94c-3.61,0-5.77-2.66-5.77-7.23s2.19-7.33,5.8-7.33a4.47,4.47,0,0,1,4.23,2.63V29.85Zm-4.76,13.5V42.23C80.76,40.15,79.81,39,78.27,39s-2.63,1.14-2.63,3.78,1,3.78,2.63,3.78S80.76,45.47,80.88,43.35Z"/><path class="cls-6" d="M102.69,35.79v14H98.43l-.14-2.61a4.88,4.88,0,0,1-4.84,2.89c-2.86,0-4.79-1.4-4.79-4.93V35.79h4.76v8.14c0,1.91.7,2.5,1.93,2.5,1.49,0,2.58-1,2.58-3.22V35.79Z"/><path class="cls-6" d="M119.26,39.85l-4.42,1.45c-.2-1.62-.9-2.41-2.16-2.41-1.79,0-2.77,1.21-2.77,4s1.09,3.84,2.77,3.84c1.35,0,2.1-.81,2.33-2.27l4.28,1.37c-.39,2.44-2.66,4.29-6.58,4.29-4.9,0-7.56-2.69-7.56-7.28s2.72-7.28,7.37-7.28S118.82,37.58,119.26,39.85Z"/><path class="cls-6" d="M135.92,47l-.36,2.66a3.89,3.89,0,0,1-1.9.45c-1.88,0-3.2-.65-3.62-2.16-.78,1.34-2.4,2.16-5,2.16-2.77,0-4.34-1.24-4.34-3.5s1.48-3.81,5.46-4.6l3.16-.61v-.51a1.87,1.87,0,0,0-2-2.07,2.33,2.33,0,0,0-2.6,2.16l-3.86-1.12c.47-2.66,2.66-4.31,6.46-4.31,4.32,0,6.7,1.76,6.7,5.37V46c0,.73.33,1.09,1,1.09A2.81,2.81,0,0,0,135.92,47Zm-6.58-2V43.79l-2.26.54c-1.18.28-1.66.67-1.66,1.45S125.93,47,126.8,47C128,47,129.34,46.29,129.34,45Z"/><path class="cls-6" d="M150.85,39.85l-4.43,1.45c-.19-1.62-.89-2.41-2.15-2.41-1.8,0-2.78,1.21-2.78,4s1.1,3.84,2.78,3.84c1.34,0,2.1-.81,2.32-2.27l4.28,1.37c-.39,2.44-2.65,4.29-6.57,4.29-4.91,0-7.56-2.69-7.56-7.28s2.71-7.28,7.36-7.28S150.4,37.58,150.85,39.85Z"/><path class="cls-6" d="M152.72,31.89c0-1.59.84-2.29,2.77-2.29s2.78.7,2.78,2.29-.84,2.27-2.78,2.27S152.72,33.46,152.72,31.89Zm5.15,17.9h-4.75v-14h4.75Z"/><path class="cls-6" d="M175.09,42.79c0,4.59-2.71,7.28-7.39,7.28s-7.39-2.69-7.39-7.28,2.72-7.28,7.39-7.28S175.09,38.19,175.09,42.79Zm-10,0c0,2.74.87,3.89,2.63,3.89s2.63-1.15,2.63-3.89-.86-3.9-2.63-3.9S165.07,40,165.07,42.79Zm6.78-13.67L169,34h-3.47l1.87-4.85Z"/><path class="cls-6" d="M191.59,40.46v9.33h-4.76v-8c0-2-.82-2.63-2-2.63-1.37,0-2.52.92-2.52,3.24v7.4h-4.76v-14h4.25l.14,2.68a4.93,4.93,0,0,1,4.79-3C189.63,35.51,191.59,37.21,191.59,40.46Z"/><path class="cls-6" d="M215.86,44.16h-9.55a2.69,2.69,0,0,0,2.94,2.55,2.39,2.39,0,0,0,2.58-1.54l3.86,1.23c-.81,2.43-3.19,3.67-6.44,3.67-4.9,0-7.56-2.66-7.56-7.28s2.64-7.28,7.31-7.28,7,2.66,7,7.08A8.33,8.33,0,0,1,215.86,44.16Zm-9.57-2.58h5.26c-.22-1.79-1.09-2.74-2.58-2.74S206.57,39.71,206.29,41.58Z"/><path class="cls-6" d="M232.41,40.46v9.33h-4.76v-8c0-2-.81-2.63-2-2.63-1.37,0-2.52.92-2.52,3.24v7.4h-4.76v-14h4.26l.14,2.68a4.91,4.91,0,0,1,4.79-3C230.45,35.51,232.41,37.21,232.41,40.46Z"/><path class="cls-6" d="M243.16,46.71c6.33-4,8.85-6.81,8.85-9.41a2.3,2.3,0,0,0-2.49-2.49c-1.77,0-2.77,1.31-2.83,3.78l-4.12-1.26c.09-4.09,3.11-6.3,7.26-6.3,4.9,0,7,3,7,5.93,0,3.61-2.83,6.36-7.84,9.24v0c.92-.06,2.55-.11,3.72-.11H257v3.67H243.16Z"/><path class="cls-6" d="M259.23,40.55c0-6.3,2.52-9.52,7.68-9.52s7.67,3.22,7.67,9.52-2.52,9.52-7.67,9.52S259.23,46.85,259.23,40.55Zm10.59,0c0-4.15-.87-5.77-2.91-5.77S264,36.4,264,40.55s.87,5.76,2.92,5.76S269.82,44.69,269.82,40.55Z"/><path class="cls-6" d="M285.86,31.31V49.79h-4.65V36a9,9,0,0,1-4.36,2.35l-.45-4a9.6,9.6,0,0,0,5.63-3.1Z"/><path class="cls-6" d="M303.64,40.66c0,6.61-3,9.41-7.84,9.41-3.36,0-5.63-1.24-6.77-4l4.31-1.7a2.33,2.33,0,0,0,2.55,2.1c2.35,0,3.41-1.88,3.41-5.24v-.45h-.08c-.51,1.63-2.41,2.44-4.43,2.44a5.74,5.74,0,0,1-6-5.88c0-3.92,2.63-6.27,7.2-6.27C300.9,31,303.64,34.33,303.64,40.66Zm-10.42-3.39a2.32,2.32,0,0,0,2.64,2.46,2.47,2.47,0,1,0,0-4.92A2.32,2.32,0,0,0,293.22,37.27Z"/></g><rect id="Rectángulo_1355" data-name="Rectángulo 1355" class="cls-9" y="63.21" width="332" height="43.9"/><g class="cls-5"><path class="cls-10" d="M79,82.11V94.6h-4.2l-.17-2.73C73.38,93.83,71.21,95,68,95c-6.23,0-10.75-4.2-10.75-11.86,0-7.46,4.41-11.94,11.52-11.94,5.25,0,8.33,1.75,10.19,5.92l-5.57,2.2A4.2,4.2,0,0,0,69,75.88c-3.5,0-5.5,2.41-5.5,7.17,0,4.94,1.93,7.28,5.67,7.28,2.73,0,4.76-1.22,4.76-3.81v-.35H68.16V82.11Z"/><path class="cls-10" d="M95.53,77.14l-.63,5a4.49,4.49,0,0,0-2.2-.53,3.8,3.8,0,0,0-3.93,4.13V94.6h-6V77.1h5.25l.25,3.78c.84-2.59,2.59-4.13,5.32-4.13A4,4,0,0,1,95.53,77.14Z"/><path class="cls-10" d="M115.31,91.07l-.46,3.32a4.81,4.81,0,0,1-2.38.56c-2.34,0-4-.8-4.52-2.69-1,1.68-3,2.69-6.23,2.69-3.46,0-5.42-1.54-5.42-4.37s1.85-4.76,6.82-5.74l4-.77v-.63a2.34,2.34,0,0,0-2.49-2.59,2.91,2.91,0,0,0-3.25,2.69l-4.83-1.4c.59-3.32,3.32-5.39,8.08-5.39,5.4,0,8.37,2.21,8.37,6.72v6.37c0,.91.42,1.37,1.26,1.37A3.61,3.61,0,0,0,115.31,91.07Zm-8.23-2.45V87.11l-2.84.67c-1.47.35-2.06.84-2.06,1.82s.63,1.5,1.71,1.5C105.36,91.1,107.08,90.23,107.08,88.62Z"/><path class="cls-10" d="M134.84,83V94.6h-6v-10c0-2.48-1-3.29-2.48-3.29-1.72,0-3.15,1.16-3.15,4.06V94.6h-6V77.1h5.32l.17,3.36a6.15,6.15,0,0,1,6-3.71C132.39,76.75,134.84,78.89,134.84,83Z"/><path class="cls-10" d="M156.4,69.68V94.6H151l-.21-3.32A6.08,6.08,0,0,1,145.12,95c-4.51,0-7.21-3.32-7.21-9s2.73-9.17,7.25-9.17A5.61,5.61,0,0,1,150.45,80V69.68Zm-6,16.87v-1.4c-.14-2.59-1.33-4-3.26-4s-3.29,1.43-3.29,4.72,1.26,4.73,3.29,4.73S150.31,89.21,150.45,86.55Z"/><path class="cls-10" d="M177.15,87.57H165.21a3.36,3.36,0,0,0,3.68,3.18c1.75,0,2.83-.7,3.22-1.92l4.83,1.54c-1,3-4,4.58-8.05,4.58-6.13,0-9.45-3.32-9.45-9.1s3.29-9.1,9.13-9.1,8.76,3.33,8.76,8.86A11.58,11.58,0,0,1,177.15,87.57Zm-12-3.22h6.58c-.28-2.24-1.37-3.43-3.22-3.43S165.53,82,165.18,84.35Z"/><path class="cls-10" d="M179,91.87l3.08-3.36c1,1.75,2.94,2.49,5.18,2.49,1.65,0,2.63-.49,2.63-1.23s-.84-1.08-3.19-1.57c-5.32-1-7.24-2.77-7.24-5.64s2.73-5.81,8.43-5.81c4.2,0,6.51,1.23,8,3.29l-3.22,3.15a4.81,4.81,0,0,0-4.62-2.48c-1.75,0-2.66.63-2.66,1.33s.77,1.15,3.22,1.61c5.18.91,7.24,2.55,7.24,5.56,0,3.22-2.69,5.74-8.33,5.74C183.69,95,180.79,94,179,91.87Z"/><path class="cls-10" d="M214.14,88.55c0,1.54.39,2.17,1.61,2.17a5.07,5.07,0,0,0,1.79-.32l-.39,3.68a7.7,7.7,0,0,1-3.64.87c-3.74,0-5.32-1.64-5.32-5.53V69.68h5.95Z"/><path class="cls-10" d="M237,85.85c0,5.74-3.4,9.1-9.24,9.1s-9.24-3.36-9.24-9.1,3.39-9.1,9.24-9.1S237,80.11,237,85.85Zm-12.53,0c0,3.43,1.08,4.87,3.29,4.87s3.29-1.44,3.29-4.87S230,81,227.76,81,224.47,82.42,224.47,85.85Z"/><path class="cls-10" d="M257.3,96c0,4.06-3.92,6.16-9.84,6.16-6.33,0-9-1.61-9-4.13,0-1.44.95-2.73,3.26-3.29a3.92,3.92,0,0,1-2.7-3.64,3.84,3.84,0,0,1,2.87-3.57,5.13,5.13,0,0,1-2.87-4.8c0-3.78,3.12-6,8.54-6a14.74,14.74,0,0,1,3.5.39c.46-2.73,2.1-5,5.53-4.73l.67,4c-2.21-.32-3.57.42-4.1,1.5a5.17,5.17,0,0,1,2.94,4.83c0,3.78-3.11,5.92-8.54,5.92a16.11,16.11,0,0,1-3.36-.32c-.77.21-1.08.6-1.08,1.23s.63,1.19,1.82,1.19h6C255,90.72,257.3,92.47,257.3,96Zm-4.69.59c0-.7-.53-1.12-2.14-1.12h-4.79c-1.93,0-2.66.39-2.66,1.23,0,1,1.47,1.61,4.86,1.61C251.1,98.28,252.61,97.54,252.61,96.56ZM245,82.7a2.59,2.59,0,1,0,2.59-2.55A2.41,2.41,0,0,0,245,82.7Z"/><path class="cls-10" d="M272,77.14l-.63,5a4.57,4.57,0,0,0-2.21-.53,3.79,3.79,0,0,0-3.92,4.13V94.6h-5.95V77.1h5.25l.25,3.78c.84-2.59,2.59-4.13,5.32-4.13A4,4,0,0,1,272,77.14Z"/><path class="cls-10" d="M291.42,85.85c0,5.74-3.39,9.1-9.24,9.1s-9.24-3.36-9.24-9.1,3.4-9.1,9.24-9.1S291.42,80.11,291.42,85.85Zm-12.53,0c0,3.43,1.09,4.87,3.29,4.87s3.29-1.44,3.29-4.87S284.39,81,282.18,81,278.89,82.42,278.89,85.85Z"/><path class="cls-10" d="M293.21,91.87l3.08-3.36c1,1.75,2.94,2.49,5.18,2.49,1.64,0,2.62-.49,2.62-1.23s-.84-1.08-3.18-1.57c-5.32-1-7.25-2.77-7.25-5.64s2.73-5.81,8.44-5.81c4.2,0,6.51,1.23,8,3.29l-3.22,3.15a4.81,4.81,0,0,0-4.62-2.48c-1.75,0-2.66.63-2.66,1.33s.77,1.15,3.22,1.61c5.18.91,7.25,2.55,7.25,5.56,0,3.22-2.7,5.74-8.33,5.74C297.9,95,295,94,293.21,91.87Z"/></g><g class="cls-5"><path class="cls-7" d="M422.85,255.62v17.74h-4.46v-13.2a8.72,8.72,0,0,1-4.19,2.26l-.44-3.82a9.23,9.23,0,0,0,5.41-3Z"/><path class="cls-7" d="M431.56,272.21a5.74,5.74,0,0,1-3.73,5.4l-2-1.43a5.2,5.2,0,0,0,3.33-2.87l-.1-.08a1.05,1.05,0,0,1-.84.29,2.16,2.16,0,0,1-2.23-2.26,2.41,2.41,0,0,1,2.69-2.52C430.62,268.74,431.56,270.27,431.56,272.21Z"/><path class="cls-7" d="M447,260.32a3.82,3.82,0,0,1-3.33,4.09v.08a3.75,3.75,0,0,1,3.68,4c0,3.07-2.87,5.11-6.88,5.11-3.74,0-6-1.29-7-4.41l4.2-1.8c.18,1.91,1.15,2.63,2.74,2.63s2.5-.78,2.47-2.15-.83-1.91-2.63-1.91h-1v-2.93H440c1.69,0,2.47-.67,2.47-2a1.87,1.87,0,0,0-2.09-2.1,2.31,2.31,0,0,0-2.48,2.4L433.87,260c.62-3.31,3.37-4.6,6.81-4.6C444.71,255.35,447,257.31,447,260.32Z"/><path class="cls-7" d="M465.2,269.46h-2.72v3.9h-4.09v-3.9h-8.92v-2.17l7.61-11.67h5.4v10.67h2.72Zm-11.43-3.17h4.62v-4.73l.11-2.91h-.05a19.47,19.47,0,0,1-1.56,2.91Z"/></g><g class="cls-5"><path class="cls-7" d="M386.33,139.49v1.8H374.85V125.45H386v1.8h-9.2v5.11h7.16v1.8h-7.16v5.33Z"/><path class="cls-7" d="M391,138.07c0,1.23.31,1.61,1.3,1.61a4.36,4.36,0,0,0,1.75-.33l-.32,1.84a4.58,4.58,0,0,1-1.77.34c-1.95,0-2.88-1-2.88-3.22V123.77H391Z"/><path class="cls-7" d="M414.07,135.29c0,3.91-2.14,6.24-5.47,6.24a4.54,4.54,0,0,1-4-2.11v6.91h-1.92v-17h1.68l.12,2.09a4.49,4.49,0,0,1,4.11-2.33C411.93,129.05,414.07,131.38,414.07,135.29Zm-1.92,0c0-2.79-1.42-4.56-3.77-4.56s-3.77,1.7-3.77,4.42v.28c0,2.72,1.49,4.42,3.77,4.42S412.15,138.07,412.15,135.29Z"/><path class="cls-7" d="M424.2,129.29l-.39,1.87a3.3,3.3,0,0,0-1.51-.31c-1.44,0-3.17,1.27-3.17,4v6.48h-1.92v-12h1.56l.27,2a3.83,3.83,0,0,1,3.84-2.21A3.1,3.1,0,0,1,424.2,129.29Z"/><path class="cls-7" d="M436.22,136h-9.05c.24,2.42,1.71,3.84,3.92,3.84,1.75,0,3-.62,3.38-1.78l1.61.84c-.91,1.64-2.4,2.62-5,2.62-3.63,0-5.81-2.35-5.81-6.24s2-6.24,5.66-6.24,5.38,2.52,5.38,5.62A9.08,9.08,0,0,1,436.22,136Zm-9-1.7h7.27c-.26-2.21-1.49-3.58-3.53-3.58S427.48,132.05,427.2,134.31Z"/><path class="cls-7" d="M438.28,138.82l1.56-1.08c.58,1.46,2.07,2.11,3.8,2.11,2,0,2.9-.79,2.9-1.78s-.74-1.41-3.14-1.84c-3.41-.63-4.66-1.56-4.66-3.58s1.8-3.6,4.73-3.6c2.57,0,4.08.91,4.75,2.88l-1.63,1a2.93,2.93,0,0,0-3.12-2.16c-1.61,0-2.81.86-2.81,1.75s.79,1.56,3.24,2c3.36.55,4.56,1.56,4.56,3.53s-1.94,3.55-5,3.55A5.48,5.48,0,0,1,438.28,138.82Z"/><path class="cls-7" d="M461.81,129.29v12h-1.69l-.12-1.82a4.6,4.6,0,0,1-4.29,2.06c-2.38,0-4.42-1.22-4.42-4.39v-7.85h1.92v7.34c0,2.48,1.11,3.22,2.83,3.22a3.65,3.65,0,0,0,3.85-4v-6.53Z"/><path class="cls-7" d="M477.05,135.29c0,3.91-2.14,6.24-5.48,6.24a4.51,4.51,0,0,1-4-2.11v6.91h-1.92v-17h1.68l.12,2.09a4.48,4.48,0,0,1,4.1-2.33C474.91,129.05,477.05,131.38,477.05,135.29Zm-1.93,0c0-2.79-1.41-4.56-3.76-4.56s-3.77,1.7-3.77,4.42v.28c0,2.72,1.49,4.42,3.77,4.42S475.12,138.07,475.12,135.29Z"/><path class="cls-7" d="M490.58,129.29v12H488.9l-.12-1.82a4.61,4.61,0,0,1-4.3,2.06c-2.37,0-4.41-1.22-4.41-4.39v-7.85H482v7.34c0,2.48,1.1,3.22,2.83,3.22,2,0,3.84-1.2,3.84-4v-6.53Z"/><path class="cls-7" d="M504.64,136h-9c.24,2.42,1.7,3.84,3.91,3.84,1.75,0,2.95-.62,3.38-1.78l1.61.84c-.91,1.64-2.4,2.62-5,2.62-3.63,0-5.81-2.35-5.81-6.24s2-6.24,5.66-6.24,5.38,2.52,5.38,5.62A9.08,9.08,0,0,1,504.64,136Zm-9-1.7h7.27c-.26-2.21-1.49-3.58-3.53-3.58S495.91,132.05,495.62,134.31Z"/><path class="cls-7" d="M506.71,138.82l1.56-1.08c.57,1.46,2.06,2.11,3.79,2.11,2,0,2.9-.79,2.9-1.78s-.74-1.41-3.14-1.84c-3.41-.63-4.66-1.56-4.66-3.58s1.8-3.6,4.73-3.6c2.57,0,4.08.91,4.75,2.88l-1.63,1a2.93,2.93,0,0,0-3.12-2.16c-1.61,0-2.81.86-2.81,1.75s.8,1.56,3.24,2c3.36.55,4.56,1.56,4.56,3.53s-1.94,3.55-5,3.55C509.66,141.53,507.62,140.67,506.71,138.82Z"/><path class="cls-7" d="M527.18,140.45a4.49,4.49,0,0,1-3.1,1.08,3,3,0,0,1-3.33-3.22V131h-2.4v-1.66h2.4v-2.88l1.92-.53v3.41h4.44V131h-4.44v7a1.63,1.63,0,0,0,1.8,1.75,2.75,2.75,0,0,0,2-.89Z"/><path class="cls-7" d="M540.16,135.29c0,3.89-2.18,6.24-5.8,6.24s-5.81-2.35-5.81-6.24,2.18-6.24,5.81-6.24S540.16,131.4,540.16,135.29Zm-9.69,0c0,2.86,1.46,4.58,3.89,4.58s3.88-1.72,3.88-4.58-1.46-4.58-3.88-4.58S530.47,132.43,530.47,135.29Z"/><path class="cls-7" d="M561.52,123.77v17.52h-1.68l-.12-2.09a4.48,4.48,0,0,1-4.1,2.33c-3.34,0-5.47-2.33-5.47-6.24s2.13-6.24,5.47-6.24a4.51,4.51,0,0,1,4,2.11v-7.39Zm-1.92,11.66v-.28c0-2.72-1.49-4.42-3.77-4.42s-3.76,1.77-3.76,4.56,1.41,4.56,3.76,4.56S559.6,138.15,559.6,135.43Z"/><path class="cls-7" d="M575.59,136h-9.05c.24,2.42,1.7,3.84,3.91,3.84,1.75,0,2.95-.62,3.38-1.78l1.61.84c-.91,1.64-2.4,2.62-5,2.62-3.62,0-5.81-2.35-5.81-6.24s2-6.24,5.67-6.24,5.37,2.52,5.37,5.62A11,11,0,0,1,575.59,136Zm-9-1.7h7.27c-.26-2.21-1.48-3.58-3.52-3.58S566.85,132.05,566.56,134.31Z"/><path class="cls-7" d="M588.14,138.07c0,1.23.31,1.61,1.29,1.61a4.38,4.38,0,0,0,1.76-.33l-.32,1.84a4.58,4.58,0,0,1-1.77.34c-2,0-2.88-1-2.88-3.22V123.77h1.92Z"/><path class="cls-7" d="M603.86,139.78l-.12,1.51a4.38,4.38,0,0,1-1.44.24,1.88,1.88,0,0,1-2.16-1.78,4.73,4.73,0,0,1-3.87,1.78c-2.25,0-4.08-1.06-4.08-3.22,0-1.8,1.59-3.21,4.68-3.74l3.2-.53v-.67a2.52,2.52,0,0,0-2.81-2.64,3.5,3.5,0,0,0-3.43,2.28l-1.42-1c.62-1.78,2.52-2.93,4.85-2.93,2.73,0,4.73,1.29,4.73,4.08V139c0,.58.24.87.91.87A4.35,4.35,0,0,0,603.86,139.78Zm-3.79-2.52V135.6l-2.69.51c-2.11.38-3.19,1.08-3.19,2.2s.81,1.54,2.18,1.54C598.29,139.85,600.07,138.84,600.07,137.26Z"/></g><g class="cls-5"><path class="cls-7" d="M385.29,162h-8.18a2.3,2.3,0,0,0,2.52,2.18,2,2,0,0,0,2.21-1.31l3.31,1.05c-.7,2.09-2.74,3.15-5.52,3.15-4.2,0-6.48-2.28-6.48-6.25s2.26-6.24,6.26-6.24,6,2.28,6,6.08A6.88,6.88,0,0,1,385.29,162Zm-8.2-2.21h4.51c-.19-1.53-.94-2.35-2.21-2.35S377.33,158.13,377.09,159.74Z"/><path class="cls-7" d="M399.26,149.69v17.09h-3.67l-.14-2.28a4.18,4.18,0,0,1-3.92,2.52c-3.09,0-4.94-2.28-4.94-6.2s1.87-6.29,5-6.29a3.82,3.82,0,0,1,3.62,2.26v-7.1Zm-4.08,11.56v-1c-.09-1.77-.91-2.76-2.23-2.76s-2.26,1-2.26,3.24S391.56,164,393,164,395.09,163.08,395.18,161.25Z"/><path class="cls-7" d="M413.52,154.77v12h-3.65l-.12-2.24A4.2,4.2,0,0,1,405.6,167c-2.45,0-4.11-1.2-4.11-4.23v-8h4.08v7c0,1.63.6,2.14,1.66,2.14,1.27,0,2.21-.85,2.21-2.77v-6.36Z"/><path class="cls-7" d="M427.37,158.25l-3.8,1.25c-.16-1.39-.76-2.06-1.85-2.06-1.53,0-2.37,1-2.37,3.38s.93,3.29,2.37,3.29c1.16,0,1.81-.69,2-1.94l3.67,1.17c-.34,2.09-2.28,3.68-5.64,3.68-4.2,0-6.48-2.31-6.48-6.25s2.33-6.24,6.31-6.24S427,156.31,427.37,158.25Z"/><path class="cls-7" d="M441.29,164.35l-.32,2.28a3.28,3.28,0,0,1-1.63.39c-1.61,0-2.74-.56-3.1-1.85-.67,1.15-2.06,1.85-4.27,1.85-2.37,0-3.72-1.06-3.72-3s1.27-3.27,4.68-3.94l2.71-.53v-.43a1.61,1.61,0,0,0-1.7-1.78,2,2,0,0,0-2.23,1.85l-3.31-1c.4-2.28,2.28-3.7,5.54-3.7,3.7,0,5.74,1.52,5.74,4.61v4.37c0,.62.29.94.86.94A2.43,2.43,0,0,0,441.29,164.35Zm-5.65-1.68v-1l-1.94.45c-1,.24-1.42.58-1.42,1.25s.44,1,1.18,1C434.47,164.38,435.64,163.78,435.64,162.67Z"/><path class="cls-7" d="M453.72,158.25l-3.79,1.25c-.17-1.39-.77-2.06-1.85-2.06-1.54,0-2.38,1-2.38,3.38s.94,3.29,2.38,3.29c1.15,0,1.8-.69,2-1.94l3.67,1.17c-.33,2.09-2.28,3.68-5.64,3.68-4.2,0-6.48-2.31-6.48-6.25s2.33-6.24,6.31-6.24S453.33,156.31,453.72,158.25Z"/><path class="cls-7" d="M455,151.44c0-1.37.72-2,2.38-2s2.38.6,2.38,2-.72,1.94-2.38,1.94S455,152.78,455,151.44Zm4.42,15.34H455.3v-12h4.08Z"/><path class="cls-7" d="M473.78,160.77c0,3.94-2.33,6.25-6.34,6.25s-6.33-2.31-6.33-6.25,2.33-6.24,6.33-6.24S473.78,156.84,473.78,160.77Zm-8.59,0c0,2.36.74,3.34,2.25,3.34s2.26-1,2.26-3.34-.74-3.33-2.26-3.33S465.19,158.42,465.19,160.77ZM471,149.06l-2.43,4.15h-3l1.6-4.15Z"/><path class="cls-7" d="M487.56,158.78v8h-4.08v-6.87c0-1.7-.7-2.26-1.71-2.26-1.17,0-2.16.8-2.16,2.79v6.34h-4.08v-12h3.65l.12,2.31a4.2,4.2,0,0,1,4.1-2.55A3.87,3.87,0,0,1,487.56,158.78Z"/><path class="cls-7" d="M495.19,164.9l2.11-2.3a3.87,3.87,0,0,0,3.55,1.7c1.13,0,1.8-.33,1.8-.84s-.57-.74-2.18-1.08c-3.65-.72-5-1.89-5-3.86s1.87-4,5.78-4c2.88,0,4.47.84,5.5,2.26L504.57,159a3.3,3.3,0,0,0-3.17-1.7c-1.2,0-1.82.43-1.82.91s.53.79,2.21,1.1c3.55.63,5,1.75,5,3.82S504.91,167,501,167C498.4,167,496.41,166.39,495.19,164.9Z"/><path class="cls-7" d="M520.22,154.77v12h-3.65l-.12-2.24A4.2,4.2,0,0,1,512.3,167c-2.45,0-4.1-1.2-4.1-4.23v-8h4.08v7c0,1.63.6,2.14,1.65,2.14,1.27,0,2.21-.85,2.21-2.77v-6.36Z"/><path class="cls-7" d="M535.2,160.73c0,4-1.88,6.29-5,6.29a3.8,3.8,0,0,1-3.62-2.26v7.06h-4.08v-17h3.57l.12,2.55a4.18,4.18,0,0,1,4-2.79C533.37,154.53,535.2,156.81,535.2,160.73Zm-4.11,0c0-2.25-.86-3.24-2.25-3.24s-2.21,1.06-2.21,3.13v.23c0,2,.79,3.13,2.21,3.13S531.09,163,531.09,160.77Z"/><path class="cls-7" d="M548.59,162H540.4a2.31,2.31,0,0,0,2.52,2.18,2,2,0,0,0,2.21-1.31l3.31,1.05c-.69,2.09-2.73,3.15-5.52,3.15-4.2,0-6.48-2.28-6.48-6.25s2.26-6.24,6.27-6.24,6,2.28,6,6.08A7.76,7.76,0,0,1,548.59,162Zm-8.21-2.21h4.51c-.19-1.53-.93-2.35-2.21-2.35S540.62,158.13,540.38,159.74Z"/><path class="cls-7" d="M559.1,154.8l-.43,3.45a3.16,3.16,0,0,0-1.51-.36,2.6,2.6,0,0,0-2.69,2.84v6.05h-4.08v-12H554l.16,2.6a3.66,3.66,0,0,1,3.65-2.84A2.68,2.68,0,0,1,559.1,154.8Z"/><path class="cls-7" d="M559.77,151.44c0-1.37.72-2,2.38-2s2.37.6,2.37,2-.72,1.94-2.37,1.94S559.77,152.78,559.77,151.44Zm4.42,15.34h-4.08v-12h4.08Z"/><path class="cls-7" d="M578.59,160.77c0,3.94-2.33,6.25-6.34,6.25s-6.34-2.31-6.34-6.25,2.33-6.24,6.34-6.24S578.59,156.84,578.59,160.77Zm-8.6,0c0,2.36.75,3.34,2.26,3.34s2.26-1,2.26-3.34-.75-3.33-2.26-3.33S570,158.42,570,160.77Z"/><path class="cls-7" d="M589.05,154.8l-.43,3.45a3.13,3.13,0,0,0-1.51-.36,2.6,2.6,0,0,0-2.69,2.84v6.05h-4.08v-12h3.6l.17,2.6a3.64,3.64,0,0,1,3.64-2.84A2.68,2.68,0,0,1,589.05,154.8Z"/></g><g class="cls-5"><path class="cls-7" d="M524.43,386.87c0,1.74-1.25,2.81-3.11,2.81h-2.14v3.62h-1.12v-9.25h3.26A2.79,2.79,0,0,1,524.43,386.87Zm-1.18,0c0-1.15-.64-1.77-2.1-1.77h-2v3.53h2C522.61,388.63,523.25,388,523.25,386.87Z"/><path class="cls-7" d="M530.11,386.29l-.22,1.1a2,2,0,0,0-.88-.18,2,2,0,0,0-1.85,2.31v3.78H526v-7H527l.15,1.15a2.24,2.24,0,0,1,2.24-1.28A1.81,1.81,0,0,1,530.11,386.29Z"/><path class="cls-7" d="M537.52,389.8c0,2.27-1.28,3.64-3.39,3.64s-3.39-1.37-3.39-3.64,1.27-3.64,3.39-3.64S537.52,387.53,537.52,389.8Zm-5.66,0c0,1.66.85,2.67,2.27,2.67s2.27-1,2.27-2.67-.86-2.68-2.27-2.68S531.86,388.13,531.86,389.8Z"/><path class="cls-7" d="M545.19,388l-1.06.5a1.83,1.83,0,0,0-1.87-1.38c-1.4,0-2.24,1-2.24,2.66s.84,2.66,2.24,2.66a1.79,1.79,0,0,0,2-1.44l1,.36a3,3,0,0,1-3,2.06c-2.11,0-3.39-1.37-3.39-3.64s1.28-3.64,3.39-3.64A3,3,0,0,1,545.19,388Z"/><path class="cls-7" d="M552.83,390.22h-5.28a2.23,2.23,0,0,0,2.29,2.24,1.89,1.89,0,0,0,2-1l.94.49a3,3,0,0,1-2.91,1.53c-2.12,0-3.39-1.37-3.39-3.64s1.19-3.64,3.3-3.64a3,3,0,0,1,3.14,3.27A5.31,5.31,0,0,1,552.83,390.22Zm-5.26-1h4.24a2,2,0,0,0-2.06-2.08A2.11,2.11,0,0,0,547.57,389.22Z"/><path class="cls-7" d="M560.88,383.07V393.3h-1l-.07-1.22a2.6,2.6,0,0,1-2.39,1.36c-2,0-3.2-1.36-3.2-3.64s1.25-3.64,3.2-3.64a2.63,2.63,0,0,1,2.32,1.23v-4.32Zm-1.12,6.81v-.17c0-1.58-.86-2.57-2.2-2.57s-2.19,1-2.19,2.66.82,2.66,2.19,2.66S559.76,391.46,559.76,389.88Z"/><path class="cls-7" d="M569.09,390.22h-5.28a2.22,2.22,0,0,0,2.28,2.24,1.92,1.92,0,0,0,2-1l.93.49a3,3,0,0,1-2.91,1.53c-2.12,0-3.39-1.37-3.39-3.64s1.19-3.64,3.31-3.64a3,3,0,0,1,3.13,3.27A5.5,5.5,0,0,1,569.09,390.22Zm-5.27-1h4.25c-.16-1.29-.87-2.08-2.06-2.08A2.11,2.11,0,0,0,563.82,389.22Z"/><path class="cls-7" d="M577.05,388.82v4.48h-1.12v-4.09c0-1.56-.75-2.07-1.72-2.07a2.15,2.15,0,0,0-2.17,2.43v3.73h-1.12v-7h1l.07,1.1a2.78,2.78,0,0,1,5.08,1.43Z"/><path class="cls-7" d="M583.42,392.81a2.6,2.6,0,0,1-1.8.63,1.76,1.76,0,0,1-2-1.88v-4.3h-1.4v-1h1.4v-1.68l1.12-.3v2h2.59v1h-2.59v4.11a1,1,0,0,0,1.05,1,1.61,1.61,0,0,0,1.19-.52Z"/><path class="cls-7" d="M590.61,390.22h-5.28a2.22,2.22,0,0,0,2.28,2.24,1.89,1.89,0,0,0,2-1l.94.49a3,3,0,0,1-2.91,1.53c-2.12,0-3.39-1.37-3.39-3.64s1.19-3.64,3.3-3.64a3,3,0,0,1,3.14,3.27A7.49,7.49,0,0,1,590.61,390.22Zm-5.27-1h4.24c-.15-1.29-.86-2.08-2.06-2.08A2.11,2.11,0,0,0,585.34,389.22Z"/><path class="cls-7" d="M591.81,391.86l.91-.63a2.18,2.18,0,0,0,2.21,1.23c1.15,0,1.7-.46,1.7-1s-.44-.82-1.84-1.08c-2-.36-2.72-.91-2.72-2.08s1-2.1,2.76-2.1c1.5,0,2.38.53,2.78,1.68l-1,.56a1.7,1.7,0,0,0-1.82-1.26c-.94,0-1.64.5-1.64,1s.47.91,1.89,1.15c2,.32,2.67.91,2.67,2.06s-1.14,2.07-2.93,2.07A3.2,3.2,0,0,1,591.81,391.86Z"/><path class="cls-7" d="M610.11,383.07V393.3h-1l-.07-1.22a2.62,2.62,0,0,1-2.4,1.36c-1.94,0-3.19-1.36-3.19-3.64s1.25-3.64,3.19-3.64a2.65,2.65,0,0,1,2.33,1.23v-4.32ZM609,389.88v-.17c0-1.58-.87-2.57-2.2-2.57s-2.2,1-2.2,2.66.83,2.66,2.2,2.66S609,391.46,609,389.88Z"/><path class="cls-7" d="M618.31,390.22H613a2.22,2.22,0,0,0,2.28,2.24,1.9,1.9,0,0,0,2-1l.94.49a3,3,0,0,1-2.92,1.53c-2.11,0-3.39-1.37-3.39-3.64s1.19-3.64,3.31-3.64a3,3,0,0,1,3.14,3.27A5.31,5.31,0,0,1,618.31,390.22Zm-5.26-1h4.24a2,2,0,0,0-2.06-2.08A2.1,2.1,0,0,0,613.05,389.22Z"/><path class="cls-7" d="M621.21,391.42c0,.72.18.94.75.94a2.45,2.45,0,0,0,1-.2l-.19,1.08a2.63,2.63,0,0,1-1,.2c-1.14,0-1.68-.6-1.68-1.88v-8.49h1.12Z"/><path class="cls-7" d="M632.09,386.29l-.23,1.1a2,2,0,0,0-.88-.18,2.05,2.05,0,0,0-1.85,2.31v3.78H628v-7h.91l.15,1.15a2.26,2.26,0,0,1,2.25-1.28A1.84,1.84,0,0,1,632.09,386.29Z"/><path class="cls-7" d="M639.1,390.22h-5.28a2.22,2.22,0,0,0,2.28,2.24,1.9,1.9,0,0,0,2-1l.94.49a3,3,0,0,1-2.92,1.53c-2.11,0-3.39-1.37-3.39-3.64s1.19-3.64,3.31-3.64a3,3,0,0,1,3.14,3.27A5.31,5.31,0,0,1,639.1,390.22Zm-5.27-1h4.25c-.16-1.29-.87-2.08-2.06-2.08A2.11,2.11,0,0,0,633.83,389.22Z"/><path class="cls-7" d="M646.79,388l-1.07.5a1.81,1.81,0,0,0-1.86-1.38c-1.4,0-2.24,1-2.24,2.66s.84,2.66,2.24,2.66a1.8,1.8,0,0,0,2-1.44l1,.36a3,3,0,0,1-3,2.06c-2.12,0-3.39-1.37-3.39-3.64s1.27-3.64,3.39-3.64A3,3,0,0,1,646.79,388Z"/><path class="cls-7" d="M654.78,392.42l-.07.88a2.56,2.56,0,0,1-.84.14,1.1,1.1,0,0,1-1.26-1,2.76,2.76,0,0,1-2.26,1c-1.31,0-2.38-.62-2.38-1.88,0-1.05.93-1.88,2.74-2.18l1.86-.31v-.39a1.47,1.47,0,0,0-1.64-1.54,2,2,0,0,0-2,1.33l-.83-.61a2.85,2.85,0,0,1,2.83-1.7c1.6,0,2.76.75,2.76,2.38V392c0,.34.14.51.53.51A2.6,2.6,0,0,0,654.78,392.42ZM652.57,391v-1l-1.57.29c-1.23.23-1.86.63-1.86,1.29s.47.9,1.27.9C651.53,392.46,652.57,391.87,652.57,391Z"/><path class="cls-7" d="M662.12,386.29v7h-1l-.07-1.07a2.7,2.7,0,0,1-2.51,1.21,2.35,2.35,0,0,1-2.58-2.56v-4.59h1.12v4.29c0,1.44.65,1.88,1.66,1.88a2.12,2.12,0,0,0,2.24-2.35v-3.82Z"/><path class="cls-7" d="M670.59,383.07V393.3h-1l-.07-1.22a2.62,2.62,0,0,1-2.4,1.36c-1.95,0-3.19-1.36-3.19-3.64s1.24-3.64,3.19-3.64a2.65,2.65,0,0,1,2.33,1.23v-4.32Zm-1.12,6.81v-.17c0-1.58-.87-2.57-2.2-2.57s-2.2,1-2.2,2.66.82,2.66,2.2,2.66S669.47,391.46,669.47,389.88Z"/><path class="cls-7" d="M679.18,389.8c0,2.27-1.27,3.64-3.39,3.64s-3.39-1.37-3.39-3.64,1.28-3.64,3.39-3.64S679.18,387.53,679.18,389.8Zm-5.66,0c0,1.66.86,2.67,2.27,2.67s2.27-1,2.27-2.67-.85-2.68-2.27-2.68S673.52,388.13,673.52,389.8Z"/></g><g class="cls-5"><path class="cls-7" d="M524.06,398.07V408.3h-1l-.07-1.22a2.6,2.6,0,0,1-2.39,1.36c-2,0-3.19-1.36-3.19-3.64s1.24-3.64,3.19-3.64a2.63,2.63,0,0,1,2.32,1.23v-4.32Zm-1.12,6.81v-.17c0-1.58-.86-2.57-2.2-2.57s-2.19,1-2.19,2.66.82,2.66,2.19,2.66S522.94,406.46,522.94,404.88Z"/><path class="cls-7" d="M532.27,405.22H527a2.22,2.22,0,0,0,2.28,2.24,1.92,1.92,0,0,0,2-1l.93.49a3,3,0,0,1-2.91,1.53c-2.11,0-3.39-1.37-3.39-3.64s1.19-3.64,3.31-3.64a3,3,0,0,1,3.13,3.27A5.5,5.5,0,0,1,532.27,405.22Zm-5.27-1h4.25c-.16-1.29-.87-2.08-2.06-2.08A2.11,2.11,0,0,0,527,404.22Z"/><path class="cls-7" d="M542.6,401.29l-.22,1.1a2,2,0,0,0-.89-.18,2.05,2.05,0,0,0-1.85,2.31v3.78h-1.12v-7h.91l.16,1.15a2.24,2.24,0,0,1,2.24-1.28A1.81,1.81,0,0,1,542.6,401.29Z"/><path class="cls-7" d="M549.61,405.22h-5.28a2.23,2.23,0,0,0,2.29,2.24,1.89,1.89,0,0,0,2-1l.94.49a3,3,0,0,1-2.91,1.53c-2.12,0-3.39-1.37-3.39-3.64s1.19-3.64,3.3-3.64a3,3,0,0,1,3.14,3.27A5.31,5.31,0,0,1,549.61,405.22Zm-5.26-1h4.24a2,2,0,0,0-2.06-2.08A2.11,2.11,0,0,0,544.35,404.22Z"/><path class="cls-7" d="M557.47,409.07c0,1.39-1.57,2.24-3.46,2.24-2.21,0-3.22-.8-3.22-1.85a1.36,1.36,0,0,0,.28-2.65,1.39,1.39,0,0,1,1-1.37,2.18,2.18,0,0,1-1-1.92c0-1.38,1.19-2.36,2.87-2.36a3.48,3.48,0,0,1,1.43.28,1.82,1.82,0,0,1,2-1.43l.25,1c-.94,0-1.47.26-1.66.77a2.14,2.14,0,0,1,.88,1.76c0,1.39-1.19,2.37-2.87,2.37a3.9,3.9,0,0,1-1.08-.13c-.56.13-.79.41-.79.89s.38.75.93.75h2.32C556.68,407.4,557.47,408.06,557.47,409.07Zm-1,.13c0-.51-.33-.83-1.38-.83h-1.88c-.88,0-1.35.34-1.35.87s.77,1.13,2.32,1.13S556.43,409.81,556.43,409.2Zm-4.17-5.68a1.73,1.73,0,1,0,1.71-1.45A1.54,1.54,0,0,0,552.26,403.52Z"/><path class="cls-7" d="M565.08,407.42l-.07.88a2.51,2.51,0,0,1-.84.14,1.11,1.11,0,0,1-1.26-1,2.73,2.73,0,0,1-2.25,1c-1.32,0-2.38-.62-2.38-1.88,0-1.05.92-1.88,2.73-2.18l1.86-.31v-.39a1.47,1.47,0,0,0-1.64-1.54,2,2,0,0,0-2,1.33l-.83-.61a2.86,2.86,0,0,1,2.83-1.7c1.6,0,2.76.75,2.76,2.38V407c0,.34.14.51.53.51A2.45,2.45,0,0,0,565.08,407.42ZM562.87,406v-1l-1.57.29c-1.23.23-1.86.63-1.86,1.29s.48.9,1.27.9C561.84,407.46,562.87,406.87,562.87,406Z"/><path class="cls-7" d="M567.42,406.42c0,.72.18.94.76.94a2.43,2.43,0,0,0,1-.2l-.18,1.08a2.71,2.71,0,0,1-1,.2c-1.13,0-1.68-.6-1.68-1.88v-8.49h1.12Z"/><path class="cls-7" d="M571.41,408.3h-1.12v-7h1.12Zm1.18-10.51-1.38,2.34h-.91l1.07-2.34Z"/><path class="cls-7" d="M580,407.42l-.07.88a2.56,2.56,0,0,1-.84.14,1.1,1.1,0,0,1-1.26-1,2.76,2.76,0,0,1-2.26,1c-1.32,0-2.38-.62-2.38-1.88,0-1.05.92-1.88,2.73-2.18l1.86-.31v-.39a1.46,1.46,0,0,0-1.64-1.54,2,2,0,0,0-2,1.33l-.83-.61a2.87,2.87,0,0,1,2.83-1.7c1.6,0,2.76.75,2.76,2.38V407c0,.34.14.51.54.51A2.6,2.6,0,0,0,580,407.42ZM577.75,406v-1l-1.57.29c-1.23.23-1.86.63-1.86,1.29s.48.9,1.28.9C576.72,407.46,577.75,406.87,577.75,406Z"/><path class="cls-7" d="M580.61,406.86l.91-.63a2.18,2.18,0,0,0,2.21,1.23c1.15,0,1.7-.46,1.7-1s-.44-.82-1.84-1.08c-2-.36-2.72-.91-2.72-2.08s1-2.1,2.76-2.1c1.5,0,2.38.53,2.78,1.68l-1,.56a1.7,1.7,0,0,0-1.82-1.26c-.94,0-1.64.5-1.64,1s.47.91,1.89,1.15c2,.32,2.67.91,2.67,2.06s-1.14,2.07-2.93,2.07A3.2,3.2,0,0,1,580.61,406.86Z"/><path class="cls-7" d="M599.33,404.8c0,2.28-1.25,3.64-3.2,3.64a2.65,2.65,0,0,1-2.32-1.23v4h-1.12v-9.95h1l.07,1.22a2.6,2.6,0,0,1,2.39-1.35C598.08,401.16,599.33,402.51,599.33,404.8Zm-1.12,0c0-1.63-.83-2.66-2.2-2.66s-2.2,1-2.2,2.57v.17c0,1.58.87,2.58,2.2,2.58S598.21,406.42,598.21,404.8Z"/><path class="cls-7" d="M607.46,407.42l-.07.88a2.51,2.51,0,0,1-.84.14,1.1,1.1,0,0,1-1.26-1,2.76,2.76,0,0,1-2.25,1c-1.32,0-2.39-.62-2.39-1.88,0-1.05.93-1.88,2.74-2.18l1.86-.31v-.39a1.47,1.47,0,0,0-1.64-1.54,2,2,0,0,0-2,1.33l-.83-.61a2.85,2.85,0,0,1,2.83-1.7c1.6,0,2.76.75,2.76,2.38V407c0,.34.14.51.53.51A2.6,2.6,0,0,0,607.46,407.42ZM605.25,406v-1l-1.57.29c-1.23.23-1.86.63-1.86,1.29s.47.9,1.27.9C604.21,407.46,605.25,406.87,605.25,406Z"/><path class="cls-7" d="M612.81,401.29l-.23,1.1a1.93,1.93,0,0,0-.88-.18,2.05,2.05,0,0,0-1.85,2.31v3.78h-1.12v-7h.91l.16,1.15a2.24,2.24,0,0,1,2.24-1.28A1.81,1.81,0,0,1,612.81,401.29Z"/><path class="cls-7" d="M620.2,407.42l-.07.88a2.51,2.51,0,0,1-.84.14,1.1,1.1,0,0,1-1.26-1,2.76,2.76,0,0,1-2.25,1c-1.32,0-2.39-.62-2.39-1.88,0-1.05.93-1.88,2.74-2.18l1.86-.31v-.39a1.47,1.47,0,0,0-1.64-1.54,2,2,0,0,0-2,1.33l-.83-.61a2.85,2.85,0,0,1,2.83-1.7c1.6,0,2.76.75,2.76,2.38V407c0,.34.14.51.53.51A2.6,2.6,0,0,0,620.2,407.42ZM618,406v-1l-1.57.29c-1.23.23-1.86.63-1.86,1.29s.47.9,1.27.9C617,407.46,618,406.87,618,406Z"/><path class="cls-7" d="M625.31,407.39c3.7-2.72,4.84-3.94,4.84-5.58a1.79,1.79,0,0,0-2-1.85,2.21,2.21,0,0,0-2.2,2.29l-1-.59a3,3,0,0,1,3.23-2.75,2.83,2.83,0,0,1,3.09,2.9c0,1.74-1.12,3.27-4.43,5.47h0l1.39,0h3.24v1.05h-6.22Z"/><path class="cls-7" d="M633,403.68c0-3.1,1.21-4.77,3.45-4.77s3.45,1.67,3.45,4.77-1.21,4.76-3.45,4.76S633,406.77,633,403.68Zm5.73,0c0-2.44-.79-3.76-2.28-3.76s-2.28,1.32-2.28,3.76.8,3.75,2.28,3.75S638.72,406.11,638.72,403.68Z"/><path class="cls-7" d="M644.74,399.05v9.25h-1.12v-6.78c0-.31,0-.69,0-1.08a5.37,5.37,0,0,1-2.4,1.3l-.29-1a5.81,5.81,0,0,0,2.8-1.67Z"/><path class="cls-7" d="M653.55,403.68c0,3.09-1.23,4.76-3.56,4.76a3.08,3.08,0,0,1-3.21-2.09l1.11-.59a1.89,1.89,0,0,0,2.09,1.63c1.93,0,2.55-1.61,2.55-4.09v-.13h-.06a2.38,2.38,0,0,1-2.58,1.74,2.85,2.85,0,0,1-3.09-3,2.89,2.89,0,0,1,3.18-3C652.3,398.91,653.55,400.88,653.55,403.68ZM648,401.93a1.81,1.81,0,0,0,2,1.9,1.92,1.92,0,1,0,0-3.84A1.82,1.82,0,0,0,648,401.93Z"/><path class="cls-7" d="M662.23,409.48c-.55,1.37-1.18,1.83-2.22,1.83a1.9,1.9,0,0,1-1.54-.59l.4-1a1.3,1.3,0,0,0,1.13.56c.49,0,.92-.21,1.27-1.13l.37-.91-2.93-7H660l1.75,4.57.43,1.25.51-1.39,1.63-4.43h1.21Z"/><path class="cls-7" d="M670.51,407.39c3.7-2.72,4.85-3.94,4.85-5.58a1.8,1.8,0,0,0-2-1.85,2.21,2.21,0,0,0-2.2,2.29l-1-.59a3,3,0,0,1,3.22-2.75,2.84,2.84,0,0,1,3.1,2.9c0,1.74-1.12,3.27-4.43,5.47h0l1.39,0h3.23v1.05h-6.22Z"/><path class="cls-7" d="M678.2,403.68c0-3.1,1.2-4.77,3.44-4.77s3.45,1.67,3.45,4.77-1.2,4.76-3.45,4.76S678.2,406.77,678.2,403.68Zm5.73,0c0-2.44-.8-3.76-2.29-3.76s-2.28,1.32-2.28,3.76.8,3.75,2.28,3.75S683.93,406.11,683.93,403.68Z"/><path class="cls-7" d="M686.68,407.39c3.7-2.72,4.85-3.94,4.85-5.58a1.8,1.8,0,0,0-2-1.85,2.21,2.21,0,0,0-2.2,2.29l-1-.59a3,3,0,0,1,3.22-2.75,2.84,2.84,0,0,1,3.1,2.9c0,1.74-1.12,3.27-4.43,5.47h0l1.39,0h3.23v1.05h-6.22Z"/><path class="cls-7" d="M694.37,403.68c0-3.1,1.2-4.77,3.44-4.77s3.45,1.67,3.45,4.77-1.2,4.76-3.45,4.76S694.37,406.77,694.37,403.68Zm5.73,0c0-2.44-.8-3.76-2.29-3.76s-2.28,1.32-2.28,3.76.8,3.75,2.28,3.75S700.1,406.11,700.1,403.68Z"/></g><g class="cls-5"><path class="cls-7" d="M427,376.62v17.74h-4.47v-13.2a8.72,8.72,0,0,1-4.19,2.26l-.43-3.82a9.23,9.23,0,0,0,5.4-3Z"/><path class="cls-7" d="M435.71,393.2a5.76,5.76,0,0,1-3.74,5.41l-2-1.43a5.25,5.25,0,0,0,3.34-2.87l-.11-.08a1,1,0,0,1-.83.29,2.17,2.17,0,0,1-2.24-2.26,2.42,2.42,0,0,1,2.69-2.52C434.77,389.74,435.71,391.27,435.71,393.2Z"/><path class="cls-7" d="M451.43,388.28c0,4.36-3.11,6.35-6.91,6.35-3.14,0-5.37-1-6.93-3.55l4.06-2.31a2.56,2.56,0,0,0,2.9,2.36,2.4,2.4,0,0,0,2.72-2.52c0-1.59-.92-2.5-2.72-2.5a3.54,3.54,0,0,0-2.82,1.05l-3.5-.52,1.13-10h11.08v3.57h-7.72l-.4,3.34a5.28,5.28,0,0,1-.13.64h0a4.92,4.92,0,0,1,3.66-1.26C449.36,382.91,451.43,385.17,451.43,388.28Z"/></g><g class="cls-5"><path class="cls-7" d="M520.18,464.8h-1.12v-9.25h1.12Z"/><path class="cls-7" d="M528.7,460.32v4.48h-1.12v-4.09c0-1.56-.75-2.07-1.72-2.07a2.15,2.15,0,0,0-2.17,2.43v3.73h-1.12v-7h1l.07,1.1a2.78,2.78,0,0,1,5.08,1.43Z"/><path class="cls-7" d="M536.52,457.79l-2.92,7h-1.12l-2.91-7h1.27l2.22,5.87,2.28-5.87Z"/><path class="cls-7" d="M543.59,461.72h-5.28a2.22,2.22,0,0,0,2.28,2.24,1.89,1.89,0,0,0,2-1l.94.49a3,3,0,0,1-2.91,1.53c-2.12,0-3.39-1.37-3.39-3.64s1.19-3.64,3.31-3.64a3,3,0,0,1,3.13,3.27A5.5,5.5,0,0,1,543.59,461.72Zm-5.27-1h4.24c-.15-1.29-.86-2.08-2-2.08A2.11,2.11,0,0,0,538.32,460.72Z"/><path class="cls-7" d="M549.49,457.79l-.22,1.1a2,2,0,0,0-.88-.18,2.05,2.05,0,0,0-1.85,2.31v3.78h-1.12v-7h.91l.15,1.15a2.24,2.24,0,0,1,2.24-1.28A1.81,1.81,0,0,1,549.49,457.79Z"/><path class="cls-7" d="M549.85,463.36l.92-.63A2.18,2.18,0,0,0,553,464c1.15,0,1.69-.46,1.69-1s-.43-.82-1.83-1.08c-2-.36-2.72-.91-2.72-2.08s1-2.1,2.76-2.1c1.5,0,2.38.53,2.77,1.68l-.95.56a1.7,1.7,0,0,0-1.82-1.26c-.94,0-1.64.5-1.64,1s.46.91,1.89,1.15c2,.32,2.66.91,2.66,2.06s-1.13,2.07-2.92,2.07A3.23,3.23,0,0,1,549.85,463.36Z"/><path class="cls-7" d="M557.23,455.61a.84.84,0,1,1,.84.84A.8.8,0,0,1,557.23,455.61Zm1.4,9.19h-1.12v-7h1.12Z"/><path class="cls-7" d="M567.23,461.3c0,2.27-1.27,3.64-3.39,3.64s-3.39-1.37-3.39-3.64,1.28-3.64,3.39-3.64S567.23,459,567.23,461.3Zm-5.66,0c0,1.66.86,2.67,2.27,2.67s2.27-1,2.27-2.67-.85-2.68-2.27-2.68S561.57,459.63,561.57,461.3Zm3.87-7-1.37,2.34h-.91l1.06-2.34Z"/><path class="cls-7" d="M575.18,460.32v4.48h-1.12v-4.09c0-1.56-.75-2.07-1.72-2.07a2.15,2.15,0,0,0-2.17,2.43v3.73h-1.12v-7h1l.07,1.1a2.78,2.78,0,0,1,5.08,1.43Z"/><path class="cls-7" d="M588,454.57V464.8h-1l-.07-1.22a2.62,2.62,0,0,1-2.4,1.36c-1.94,0-3.19-1.36-3.19-3.64s1.25-3.64,3.19-3.64a2.65,2.65,0,0,1,2.33,1.23v-4.32Zm-1.12,6.81v-.17c0-1.58-.87-2.57-2.2-2.57s-2.2,1-2.2,2.66.83,2.66,2.2,2.66S586.89,463,586.89,461.38Z"/><path class="cls-7" d="M596.21,461.72h-5.28a2.22,2.22,0,0,0,2.28,2.24,1.9,1.9,0,0,0,2-1l.94.49a3,3,0,0,1-2.92,1.53c-2.11,0-3.39-1.37-3.39-3.64s1.19-3.64,3.31-3.64a3,3,0,0,1,3.14,3.27A5.31,5.31,0,0,1,596.21,461.72Zm-5.27-1h4.25c-.16-1.29-.87-2.08-2.06-2.08A2.11,2.11,0,0,0,590.94,460.72Z"/><path class="cls-7" d="M599.11,462.92c0,.72.18.94.75.94a2.45,2.45,0,0,0,1-.2l-.19,1.08a2.63,2.63,0,0,1-1,.2c-1.14,0-1.68-.6-1.68-1.88v-8.49h1.12Z"/><path class="cls-7" d="M612.49,458.37c0,1.74-1.24,2.81-3.11,2.81h-2.14v3.62h-1.12v-9.25h3.26C611.25,455.55,612.49,456.63,612.49,458.37Zm-1.17,0c0-1.15-.65-1.77-2.1-1.77h-2v3.53h2C610.67,460.13,611.32,459.52,611.32,458.37Z"/><path class="cls-7" d="M618.18,457.79l-.23,1.1a2,2,0,0,0-.88-.18,2.05,2.05,0,0,0-1.85,2.31v3.78H614.1v-7H615l.15,1.15a2.26,2.26,0,0,1,2.25-1.28A1.84,1.84,0,0,1,618.18,457.79Z"/><path class="cls-7" d="M625.19,461.72h-5.28a2.22,2.22,0,0,0,2.28,2.24,1.9,1.9,0,0,0,2-1l.94.49a3,3,0,0,1-2.92,1.53c-2.11,0-3.39-1.37-3.39-3.64s1.19-3.64,3.31-3.64a3,3,0,0,1,3.14,3.27A5.31,5.31,0,0,1,625.19,461.72Zm-5.26-1h4.24c-.16-1.29-.87-2.08-2.06-2.08A2.1,2.1,0,0,0,619.93,460.72Z"/><path class="cls-7" d="M626.39,463.36l.91-.63a2.2,2.2,0,0,0,2.21,1.23c1.15,0,1.7-.46,1.7-1s-.43-.82-1.83-1.08c-2-.36-2.72-.91-2.72-2.08s1.05-2.1,2.76-2.1c1.5,0,2.38.53,2.77,1.68l-1,.56a1.7,1.7,0,0,0-1.82-1.26c-.94,0-1.64.5-1.64,1s.46.91,1.89,1.15c2,.32,2.66.91,2.66,2.06s-1.13,2.07-2.93,2.07A3.2,3.2,0,0,1,626.39,463.36Z"/><path class="cls-7" d="M640.12,457.79v7h-1l-.08-1.07a2.68,2.68,0,0,1-2.5,1.21,2.35,2.35,0,0,1-2.58-2.56v-4.59h1.12v4.29c0,1.44.64,1.88,1.65,1.88a2.12,2.12,0,0,0,2.24-2.35v-3.82Z"/><path class="cls-7" d="M649,461.3c0,2.28-1.25,3.64-3.2,3.64a2.65,2.65,0,0,1-2.32-1.23v4h-1.12v-9.95h1l.07,1.22a2.6,2.6,0,0,1,2.39-1.35C647.76,457.66,649,459,649,461.3Zm-1.12,0c0-1.63-.83-2.66-2.2-2.66s-2.2,1-2.2,2.57v.17c0,1.58.86,2.58,2.2,2.58S647.89,462.92,647.89,461.3Z"/><path class="cls-7" d="M656.9,457.79v7h-1l-.07-1.07a2.7,2.7,0,0,1-2.51,1.21,2.35,2.35,0,0,1-2.57-2.56v-4.59h1.12v4.29c0,1.44.64,1.88,1.65,1.88a2.12,2.12,0,0,0,2.24-2.35v-3.82Z"/><path class="cls-7" d="M665.1,461.72h-5.28a2.23,2.23,0,0,0,2.29,2.24,1.89,1.89,0,0,0,2-1l.94.49a3,3,0,0,1-2.91,1.53c-2.12,0-3.39-1.37-3.39-3.64s1.19-3.64,3.3-3.64a3,3,0,0,1,3.14,3.27A5.31,5.31,0,0,1,665.1,461.72Zm-5.26-1h4.24a2,2,0,0,0-2.06-2.08A2.11,2.11,0,0,0,659.84,460.72Z"/><path class="cls-7" d="M666.31,463.36l.91-.63a2.18,2.18,0,0,0,2.21,1.23c1.15,0,1.69-.46,1.69-1s-.43-.82-1.83-1.08c-2-.36-2.72-.91-2.72-2.08s1-2.1,2.76-2.1c1.5,0,2.38.53,2.77,1.68l-1,.56a1.7,1.7,0,0,0-1.82-1.26c-.94,0-1.64.5-1.64,1s.46.91,1.89,1.15c2,.32,2.66.91,2.66,2.06s-1.13,2.07-2.92,2.07A3.2,3.2,0,0,1,666.31,463.36Z"/><path class="cls-7" d="M678.25,464.31a2.63,2.63,0,0,1-1.81.63,1.76,1.76,0,0,1-1.94-1.88v-4.3h-1.4v-1h1.4v-1.68l1.12-.3v2h2.59v1h-2.59v4.11a1,1,0,0,0,1,1,1.61,1.61,0,0,0,1.19-.52Z"/><path class="cls-7" d="M685.82,461.3c0,2.27-1.27,3.64-3.39,3.64s-3.38-1.37-3.38-3.64,1.27-3.64,3.38-3.64S685.82,459,685.82,461.3Zm-5.65,0c0,1.66.85,2.67,2.26,2.67s2.27-1,2.27-2.67-.85-2.68-2.27-2.68S680.17,459.63,680.17,461.3Z"/></g><g class="cls-5"><path class="cls-7" d="M526.58,475.13v4.67h-.84l0-1.25a3.19,3.19,0,0,1-2.92,1.39c-2.63,0-4.28-1.84-4.28-4.76s1.72-4.77,4.31-4.77a3.71,3.71,0,0,1,3.7,2.12l-1,.56a2.64,2.64,0,0,0-2.68-1.63c-1.88,0-3.14,1.39-3.14,3.72s1.09,3.71,3.15,3.71c1.54,0,2.74-.79,2.74-2.38v-.33h-2.95v-1.05Z"/><path class="cls-7" d="M534.58,476.72H529.3a2.23,2.23,0,0,0,2.29,2.24,1.89,1.89,0,0,0,2-1l.94.49a3,3,0,0,1-2.91,1.53c-2.12,0-3.39-1.37-3.39-3.64s1.19-3.64,3.3-3.64a3,3,0,0,1,3.14,3.27A5.31,5.31,0,0,1,534.58,476.72Zm-5.26-1h4.24a2,2,0,0,0-2.06-2.08A2.11,2.11,0,0,0,529.32,475.72Z"/><path class="cls-7" d="M542.55,475.32v4.48h-1.12v-4.09c0-1.56-.76-2.07-1.72-2.07a2.15,2.15,0,0,0-2.17,2.43v3.73h-1.12v-7h1l.07,1.1a2.78,2.78,0,0,1,5.08,1.43Z"/><path class="cls-7" d="M550.68,476.72H545.4a2.23,2.23,0,0,0,2.29,2.24,1.89,1.89,0,0,0,2-1l.94.49a3,3,0,0,1-2.91,1.53c-2.12,0-3.39-1.37-3.39-3.64s1.19-3.64,3.3-3.64a3,3,0,0,1,3.14,3.27A5.31,5.31,0,0,1,550.68,476.72Zm-5.26-1h4.24a2,2,0,0,0-2.06-2.08A2.11,2.11,0,0,0,545.42,475.72Z"/><path class="cls-7" d="M556.59,472.79l-.22,1.1a2,2,0,0,0-.89-.18c-.84,0-1.84.74-1.84,2.31v3.78h-1.13v-7h.92l.15,1.15a2.24,2.24,0,0,1,2.24-1.28A1.81,1.81,0,0,1,556.59,472.79Z"/><path class="cls-7" d="M564,478.92l-.07.88a2.51,2.51,0,0,1-.84.14,1.11,1.11,0,0,1-1.26-1,2.74,2.74,0,0,1-2.25,1c-1.32,0-2.38-.62-2.38-1.88,0-1.05.92-1.88,2.73-2.18l1.86-.31v-.39a1.47,1.47,0,0,0-1.64-1.54,2,2,0,0,0-2,1.33l-.83-.61a2.86,2.86,0,0,1,2.83-1.7c1.6,0,2.76.75,2.76,2.38v3.44c0,.34.14.51.53.51A2.45,2.45,0,0,0,564,478.92Zm-2.21-1.47v-1l-1.57.29c-1.23.23-1.86.63-1.86,1.29s.48.9,1.27.9C560.73,479,561.77,478.37,561.77,477.45Z"/><path class="cls-7" d="M566.32,477.92c0,.72.18.94.76.94a2.43,2.43,0,0,0,1-.2l-.18,1.08a2.71,2.71,0,0,1-1,.2c-1.13,0-1.68-.6-1.68-1.88v-8.49h1.12Z"/><path class="cls-7" d="M579.34,469.57V479.8h-1l-.07-1.22a2.61,2.61,0,0,1-2.39,1.36c-1.95,0-3.2-1.36-3.2-3.64s1.25-3.64,3.2-3.64a2.63,2.63,0,0,1,2.32,1.23v-4.32Zm-1.12,6.81v-.17c0-1.58-.87-2.57-2.2-2.57s-2.2,1-2.2,2.66.83,2.66,2.2,2.66S578.22,478,578.22,476.38Z"/><path class="cls-7" d="M587.55,476.72h-5.28a2.22,2.22,0,0,0,2.28,2.24,1.89,1.89,0,0,0,2-1l.94.49a3,3,0,0,1-2.91,1.53c-2.12,0-3.39-1.37-3.39-3.64s1.19-3.64,3.31-3.64a3,3,0,0,1,3.13,3.27A7.49,7.49,0,0,1,587.55,476.72Zm-5.27-1h4.24c-.15-1.29-.86-2.08-2-2.08A2.11,2.11,0,0,0,582.28,475.72Z"/><path class="cls-7" d="M594.87,477.92c0,.72.18.94.75.94a2.38,2.38,0,0,0,1-.2l-.18,1.08a2.63,2.63,0,0,1-1,.2c-1.14,0-1.69-.6-1.69-1.88v-8.49h1.13Z"/><path class="cls-7" d="M604,478.92l-.07.88a2.56,2.56,0,0,1-.84.14,1.1,1.1,0,0,1-1.26-1,2.76,2.76,0,0,1-2.26,1c-1.31,0-2.38-.62-2.38-1.88,0-1.05.93-1.88,2.73-2.18l1.87-.31v-.39a1.47,1.47,0,0,0-1.64-1.54,2,2,0,0,0-2,1.33l-.82-.61a2.85,2.85,0,0,1,2.83-1.7c1.59,0,2.76.75,2.76,2.38v3.44c0,.34.14.51.53.51A2.6,2.6,0,0,0,604,478.92Zm-2.21-1.47v-1l-1.57.29c-1.24.23-1.87.63-1.87,1.29s.48.9,1.28.9C600.79,479,601.83,478.37,601.83,477.45Z"/><path class="cls-7" d="M616.88,479.8h-1.39l-3.87-6.19-1-1.82h0l.06,1.48v6.53h-1.07v-9.25H611l3.85,6.17,1,1.85h0l-.06-1.49v-6.53h1.07Z"/><path class="cls-7" d="M625.56,478.92l-.07.88a2.56,2.56,0,0,1-.84.14,1.1,1.1,0,0,1-1.26-1,2.76,2.76,0,0,1-2.26,1c-1.32,0-2.38-.62-2.38-1.88,0-1.05.92-1.88,2.73-2.18l1.86-.31v-.39a1.47,1.47,0,0,0-1.64-1.54,2,2,0,0,0-2,1.33l-.83-.61a2.87,2.87,0,0,1,2.83-1.7c1.6,0,2.76.75,2.76,2.38v3.44c0,.34.14.51.54.51A2.6,2.6,0,0,0,625.56,478.92Zm-2.22-1.47v-1l-1.57.29c-1.23.23-1.86.63-1.86,1.29s.48.9,1.28.9C622.31,479,623.34,478.37,623.34,477.45Z"/><path class="cls-7" d="M632.68,474.52l-1.06.5a1.83,1.83,0,0,0-1.87-1.38c-1.4,0-2.24,1-2.24,2.66s.84,2.66,2.24,2.66a1.8,1.8,0,0,0,2-1.44l1,.36a3,3,0,0,1-3,2.06c-2.11,0-3.39-1.37-3.39-3.64s1.28-3.64,3.39-3.64A3,3,0,0,1,632.68,474.52Z"/><path class="cls-7" d="M634.09,470.61a.84.84,0,1,1,.84.84A.8.8,0,0,1,634.09,470.61Zm1.4,9.19h-1.12v-7h1.12Z"/><path class="cls-7" d="M644.09,476.3c0,2.27-1.27,3.64-3.39,3.64s-3.39-1.37-3.39-3.64,1.28-3.64,3.39-3.64S644.09,474,644.09,476.3Zm-5.66,0c0,1.66.86,2.67,2.27,2.67s2.27-1,2.27-2.67-.85-2.68-2.27-2.68S638.43,474.63,638.43,476.3Zm3.87-7-1.37,2.34H640l1.07-2.34Z"/><path class="cls-7" d="M652,475.32v4.48h-1.12v-4.09c0-1.56-.75-2.07-1.72-2.07a2.15,2.15,0,0,0-2.17,2.43v3.73h-1.12v-7h1l.07,1.1a2.78,2.78,0,0,1,5.08,1.43Z"/></g><g class="cls-5"><path class="cls-7" d="M525.79,539.14v1.05l-6.7.06L519,531l6.49-.06v1l-5.36,0,0,3,4.17,0v1l-4.17,0,0,3.11Z"/><path class="cls-7" d="M531.8,540.13l-1.95-2.68-2,2.72h-1.3l2.66-3.56-2.56-3.45h1.4l1.88,2.58,1.79-2.61h1.32l-2.5,3.45,2.61,3.55Z"/><path class="cls-7" d="M540.11,534.78l-1.06.51a1.81,1.81,0,0,0-1.87-1.37c-1.4,0-2.23,1-2.22,2.68s.87,2.65,2.27,2.64a1.78,1.78,0,0,0,1.94-1.46l1,.36a3,3,0,0,1-3,2.08c-2.11,0-3.4-1.34-3.42-3.61s1.24-3.65,3.36-3.67A3,3,0,0,1,540.11,534.78Z"/><path class="cls-7" d="M547.78,536.91l-5.28,0a2.2,2.2,0,0,0,2.3,2.22,1.91,1.91,0,0,0,2-1l.94.48a3,3,0,0,1-2.9,1.55c-2.12,0-3.4-1.34-3.42-3.61s1.15-3.65,3.27-3.67a3,3,0,0,1,3.17,3.25A7.49,7.49,0,0,1,547.78,536.91ZM542.5,536l4.25,0c-.17-1.29-.89-2.08-2.08-2.07A2.11,2.11,0,0,0,542.5,536Z"/><path class="cls-7" d="M555.76,529.69l.1,10.22h-1l-.08-1.21a2.61,2.61,0,0,1-2.38,1.38c-1.95,0-3.21-1.33-3.23-3.62s1.22-3.65,3.16-3.67a2.65,2.65,0,0,1,2.34,1.21l0-4.31Zm-1.06,6.82v-.17c0-1.58-.89-2.57-2.22-2.56s-2.19,1.06-2.18,2.68.86,2.66,2.23,2.64S554.72,538.09,554.7,536.51Z"/><path class="cls-7" d="M564,536.76l-5.28,0a2.22,2.22,0,0,0,2.3,2.22,1.9,1.9,0,0,0,2-1.06l.94.48a3,3,0,0,1-2.9,1.56c-2.11,0-3.4-1.34-3.42-3.61s1.16-3.66,3.27-3.68a3,3,0,0,1,3.17,3.25A5.4,5.4,0,0,1,564,536.76Zm-5.28-1,4.25,0c-.17-1.28-.89-2.08-2.08-2.06A2.11,2.11,0,0,0,558.75,535.81Z"/><path class="cls-7" d="M572,535.29l0,4.48H570.9l0-4.09c0-1.56-.78-2.07-1.75-2.06a2.15,2.15,0,0,0-2.14,2.46l0,3.72h-1.12l-.06-7h1l.08,1.09a2.54,2.54,0,0,1,2.34-1.25A2.5,2.5,0,0,1,572,535.29Z"/><path class="cls-7" d="M578.39,539.22a2.61,2.61,0,0,1-1.8.65,1.76,1.76,0,0,1-2-1.86l0-4.3h-1.4v-1h1.41l0-1.68,1.12-.32,0,2,2.59,0v1l-2.6,0,0,4.1a.94.94,0,0,0,1.06,1,1.59,1.59,0,0,0,1.19-.52Z"/><path class="cls-7" d="M585.55,536.56l-5.28.05a2.22,2.22,0,0,0,2.3,2.22,1.91,1.91,0,0,0,2-1.05l.94.48a3,3,0,0,1-2.9,1.55c-2.12,0-3.4-1.34-3.42-3.61s1.15-3.65,3.27-3.67a3,3,0,0,1,3.17,3.25A7.1,7.1,0,0,1,585.55,536.56Zm-5.28-.94,4.25,0c-.17-1.29-.89-2.08-2.08-2.07A2.11,2.11,0,0,0,580.27,535.62Z"/><path class="cls-7" d="M586.76,538.19l.91-.64a2.2,2.2,0,0,0,2.22,1.22c1.15,0,1.69-.48,1.69-1.06s-.45-.82-1.85-1.06c-2-.34-2.72-.88-2.73-2.06s1-2.11,2.74-2.13c1.5,0,2.38.51,2.78,1.66l-.94.57a1.72,1.72,0,0,0-1.83-1.25c-.94,0-1.64.52-1.63,1s.47.91,1.9,1.13c2,.31,2.67.89,2.68,2s-1.12,2.08-2.91,2.1A3.19,3.19,0,0,1,586.76,538.19Z"/><path class="cls-7" d="M605,529.24l.1,10.23h-1l-.09-1.22a2.6,2.6,0,0,1-2.38,1.38c-2,0-3.2-1.33-3.23-3.61s1.22-3.66,3.17-3.67a2.62,2.62,0,0,1,2.33,1.21l0-4.32Zm-1.06,6.82v-.17c0-1.58-.89-2.57-2.22-2.55s-2.19,1-2.17,2.68.85,2.65,2.22,2.64S603.94,537.64,603.92,536.06Z"/><path class="cls-7" d="M613.25,536.31l-5.28.05a2.22,2.22,0,0,0,2.3,2.22,1.9,1.9,0,0,0,2-1.05l.94.48a3,3,0,0,1-2.9,1.55c-2.11,0-3.4-1.34-3.42-3.61s1.16-3.65,3.27-3.67a3,3,0,0,1,3.17,3.25A5.25,5.25,0,0,1,613.25,536.31Zm-5.27-.94,4.24,0c-.17-1.29-.89-2.08-2.08-2.07A2.11,2.11,0,0,0,608,535.37Z"/><path class="cls-7" d="M616.16,537.49c0,.72.19.94.76.93a2.38,2.38,0,0,0,1-.2l-.17,1.08a2.63,2.63,0,0,1-1,.2c-1.14,0-1.69-.58-1.7-1.86l-.08-8.49h1.12Z"/></g><g class="cls-5"><path class="cls-7" d="M518.22,553.36l.91-.63a2.18,2.18,0,0,0,2.21,1.23c1.15,0,1.69-.46,1.69-1s-.43-.82-1.83-1.08c-2-.36-2.72-.91-2.72-2.08s1-2.1,2.76-2.1c1.5,0,2.38.53,2.77,1.68l-1,.56a1.7,1.7,0,0,0-1.82-1.26c-.94,0-1.64.5-1.64,1s.46.91,1.89,1.15c2,.32,2.66.91,2.66,2.06s-1.13,2.07-2.92,2.07A3.18,3.18,0,0,1,518.22,553.36Z"/><path class="cls-7" d="M531.83,551.72h-5.28a2.22,2.22,0,0,0,2.28,2.24,1.89,1.89,0,0,0,2-1l.94.49a3,3,0,0,1-2.91,1.53c-2.12,0-3.39-1.37-3.39-3.64s1.19-3.64,3.3-3.64a3,3,0,0,1,3.14,3.27A7.31,7.31,0,0,1,531.83,551.72Zm-5.27-1h4.24c-.15-1.29-.86-2.08-2.06-2.08A2.11,2.11,0,0,0,526.56,550.72Z"/><path class="cls-7" d="M539.51,549.52l-1.06.5a1.82,1.82,0,0,0-1.86-1.38c-1.41,0-2.25,1-2.25,2.66s.84,2.66,2.25,2.66a1.8,1.8,0,0,0,2-1.44l1,.36a3,3,0,0,1-3,2.06c-2.11,0-3.39-1.37-3.39-3.64s1.28-3.64,3.39-3.64A3,3,0,0,1,539.51,549.52Z"/><path class="cls-7" d="M545.49,554.31a2.63,2.63,0,0,1-1.81.63,1.76,1.76,0,0,1-1.94-1.88v-4.3h-1.4v-1h1.4v-1.68l1.12-.31v2h2.59v1h-2.59v4.11a1,1,0,0,0,1,1,1.61,1.61,0,0,0,1.19-.52Z"/><path class="cls-7" d="M553.06,551.3c0,2.27-1.27,3.64-3.38,3.64s-3.39-1.37-3.39-3.64,1.27-3.64,3.39-3.64S553.06,549,553.06,551.3Zm-5.65,0c0,1.66.85,2.67,2.27,2.67s2.26-1,2.26-2.67-.85-2.68-2.26-2.68S547.41,549.63,547.41,551.3Z"/><path class="cls-7" d="M559,547.8l-.23,1.09a1.93,1.93,0,0,0-.88-.18A2.05,2.05,0,0,0,556,551v3.78h-1.12v-7h.91l.16,1.14a2.24,2.24,0,0,1,2.24-1.28A1.68,1.68,0,0,1,559,547.8Z"/><path class="cls-7" d="M570.2,549.52l-1.06.5a1.83,1.83,0,0,0-1.87-1.38c-1.4,0-2.24,1-2.24,2.66s.84,2.66,2.24,2.66a1.8,1.8,0,0,0,2-1.44l1,.36a3,3,0,0,1-3,2.06c-2.12,0-3.39-1.37-3.39-3.64s1.27-3.64,3.39-3.64A3,3,0,0,1,570.2,549.52Z"/><path class="cls-7" d="M578.24,551.3c0,2.27-1.28,3.64-3.39,3.64s-3.39-1.37-3.39-3.64,1.27-3.64,3.39-3.64S578.24,549,578.24,551.3Zm-5.66,0c0,1.66.85,2.67,2.27,2.67s2.27-1,2.27-2.67-.86-2.68-2.27-2.68S572.58,549.63,572.58,551.3Z"/><path class="cls-7" d="M586.4,551.3c0,2.27-1.28,3.64-3.39,3.64s-3.39-1.37-3.39-3.64,1.27-3.64,3.39-3.64S586.4,549,586.4,551.3Zm-5.66,0c0,1.66.85,2.67,2.27,2.67s2.27-1,2.27-2.67-.86-2.68-2.27-2.68S580.74,549.63,580.74,551.3Z"/><path class="cls-7" d="M594.85,551.3c0,2.28-1.24,3.64-3.19,3.64a2.63,2.63,0,0,1-2.32-1.23v4h-1.13V547.8h1l.07,1.21a2.64,2.64,0,0,1,2.4-1.35C593.61,547.66,594.85,549,594.85,551.3Zm-1.12,0c0-1.63-.82-2.66-2.2-2.66s-2.19,1-2.19,2.57v.17c0,1.58.86,2.58,2.19,2.58S593.73,552.92,593.73,551.3Z"/><path class="cls-7" d="M602.64,551.72h-5.28a2.22,2.22,0,0,0,2.28,2.24,1.89,1.89,0,0,0,2-1l.94.49a3,3,0,0,1-2.91,1.53c-2.12,0-3.39-1.37-3.39-3.64s1.19-3.64,3.31-3.64a3,3,0,0,1,3.13,3.27A5.4,5.4,0,0,1,602.64,551.72Zm-5.27-1h4.24c-.15-1.29-.86-2.08-2.05-2.08A2.11,2.11,0,0,0,597.37,550.72Z"/><path class="cls-7" d="M608.54,547.8l-.22,1.09a2,2,0,0,0-.88-.18,2.05,2.05,0,0,0-1.85,2.31v3.78h-1.12v-7h.91l.15,1.14a2.25,2.25,0,0,1,2.24-1.28A1.68,1.68,0,0,1,608.54,547.8Z"/><path class="cls-7" d="M615.94,553.92l-.07.88a2.56,2.56,0,0,1-.84.14,1.1,1.1,0,0,1-1.26-1,2.76,2.76,0,0,1-2.26,1c-1.32,0-2.38-.62-2.38-1.88,0-1,.93-1.87,2.73-2.18l1.86-.31v-.39a1.46,1.46,0,0,0-1.63-1.54,2,2,0,0,0-2,1.33l-.82-.6a2.84,2.84,0,0,1,2.83-1.71c1.59,0,2.76.75,2.76,2.38v3.44c0,.34.14.51.53.51A2.6,2.6,0,0,0,615.94,553.92Zm-2.22-1.47v-1l-1.56.29c-1.24.23-1.87.63-1.87,1.29s.48.9,1.28.9C612.69,554,613.72,553.37,613.72,552.45Z"/><path class="cls-7" d="M621.21,554.31a2.6,2.6,0,0,1-1.8.63,1.76,1.76,0,0,1-1.95-1.88v-4.3h-1.4v-1h1.4v-1.68l1.12-.31v2h2.59v1h-2.59v4.11a1,1,0,0,0,1,1,1.59,1.59,0,0,0,1.19-.52Z"/><path class="cls-7" d="M622.16,545.61a.85.85,0,1,1,.84.84A.8.8,0,0,1,622.16,545.61Zm1.4,9.19h-1.12v-7h1.12Z"/><path class="cls-7" d="M631.63,547.8l-2.91,7H627.6l-2.92-7H626l2.21,5.87,2.28-5.87Z"/><path class="cls-7" d="M639.09,551.3c0,2.27-1.27,3.64-3.39,3.64s-3.39-1.37-3.39-3.64,1.28-3.64,3.39-3.64S639.09,549,639.09,551.3Zm-5.66,0c0,1.66.86,2.67,2.27,2.67s2.27-1,2.27-2.67-.85-2.68-2.27-2.68S633.43,549.63,633.43,551.3Z"/></g><g class="cls-5"><path class="cls-7" d="M422.87,448.62v17.74h-4.46v-13.2a8.75,8.75,0,0,1-4.2,2.26l-.43-3.82a9.28,9.28,0,0,0,5.41-3Z"/><path class="cls-7" d="M431.58,465.2a5.76,5.76,0,0,1-3.74,5.41l-2-1.43a5.23,5.23,0,0,0,3.33-2.87l-.11-.08a1,1,0,0,1-.83.29,2.16,2.16,0,0,1-2.23-2.26,2.41,2.41,0,0,1,2.69-2.52C430.64,461.74,431.58,463.27,431.58,465.2Z"/><path class="cls-7" d="M447,453.32a3.83,3.83,0,0,1-3.33,4.09v.08a3.75,3.75,0,0,1,3.68,4c0,3.07-2.88,5.11-6.88,5.11-3.74,0-6-1.29-7-4.41l4.19-1.8c.19,1.91,1.16,2.63,2.74,2.63s2.51-.78,2.48-2.15-.84-1.91-2.64-1.91h-1v-2.93h.78c1.69,0,2.47-.67,2.47-2a1.88,1.88,0,0,0-2.1-2.1,2.3,2.3,0,0,0-2.47,2.4l-4.06-1.38c.62-3.3,3.36-4.59,6.8-4.59C444.73,448.35,447,450.31,447,453.32Z"/><path class="cls-7" d="M463.25,460.28c0,4.36-3.12,6.35-6.91,6.35-3.14,0-5.38-1-6.94-3.55l4.06-2.31a2.58,2.58,0,0,0,2.91,2.36,2.39,2.39,0,0,0,2.71-2.52c0-1.59-.91-2.5-2.71-2.5a3.56,3.56,0,0,0-2.83,1.05l-3.49-.52,1.13-10h11.08v3.57h-7.72l-.4,3.34a4.56,4.56,0,0,1-.14.64h0a4.9,4.9,0,0,1,3.65-1.26C461.18,454.91,463.25,457.17,463.25,460.28Z"/></g><g class="cls-5"><path class="cls-7" d="M407,528.32a3.82,3.82,0,0,1-3.33,4.09v.08a3.75,3.75,0,0,1,3.68,4c0,3.07-2.88,5.11-6.88,5.11-3.74,0-6-1.29-7-4.41l4.19-1.8c.19,1.91,1.16,2.63,2.74,2.63s2.51-.78,2.48-2.15S402,534,400.23,534h-1v-2.93H400c1.69,0,2.47-.67,2.47-2a1.88,1.88,0,0,0-2.1-2.1,2.3,2.3,0,0,0-2.47,2.4L393.86,528c.62-3.31,3.36-4.6,6.8-4.6C404.7,523.35,407,525.31,407,528.32Z"/><path class="cls-7" d="M408.51,532.49c0-6,2.42-9.14,7.37-9.14s7.37,3.09,7.37,9.14-2.42,9.14-7.37,9.14S408.51,538.54,408.51,532.49Zm10.17,0c0-4-.84-5.54-2.8-5.54s-2.8,1.56-2.8,5.54.84,5.54,2.8,5.54S418.68,536.47,418.68,532.49Z"/><path class="cls-7" d="M424.48,532.49c0-6,2.42-9.14,7.37-9.14s7.37,3.09,7.37,9.14-2.42,9.14-7.37,9.14S424.48,538.54,424.48,532.49Zm10.17,0c0-4-.84-5.54-2.8-5.54s-2.8,1.56-2.8,5.54.84,5.54,2.8,5.54S434.65,536.47,434.65,532.49Z"/><path class="cls-7" d="M469.25,532.41v9h-4.57v-7.9c0-1.7-.73-2.32-1.83-2.32-1.37,0-2.37,1-2.37,3v7.18h-4.57v-7.9c0-1.7-.75-2.32-1.83-2.32-1.26,0-2.36.92-2.36,3.12v7.1h-4.57V527.92h4.08l.14,2.58a4.69,4.69,0,0,1,4.52-2.85,4.18,4.18,0,0,1,4.24,2.72,4.86,4.86,0,0,1,4.52-2.72C467.29,527.65,469.25,529.26,469.25,532.41Z"/><path class="cls-7" d="M470.72,524.18c0-1.53.81-2.2,2.67-2.2s2.66.67,2.66,2.2-.81,2.18-2.66,2.18S470.72,525.69,470.72,524.18Zm4.95,17.18H471.1V527.92h4.57Z"/><path class="cls-7" d="M482.1,536.71c0,1.18.29,1.67,1.23,1.67a3.66,3.66,0,0,0,1.37-.25l-.29,2.83a5.94,5.94,0,0,1-2.8.67c-2.87,0-4.08-1.26-4.08-4.25V522.22h4.57Z"/></g><g class="cls-5"><path class="cls-7" d="M413.52,554.34v7.21h-1.8v-7c0-2-1.17-2.88-2.66-2.88-1.76,0-3.33,1.33-3.33,3.74v6.17h-1.8v-7c0-2-1.17-2.88-2.66-2.88s-3.33,1.11-3.33,3.9v6h-1.8V550.29h1.58l.11,1.76a4.08,4.08,0,0,1,3.6-2,4.16,4.16,0,0,1,3.87,2.2,4.31,4.31,0,0,1,3.92-2.2A4,4,0,0,1,413.52,554.34Z"/><path class="cls-7" d="M416.57,546.78a1.35,1.35,0,1,1,1.35,1.35A1.28,1.28,0,0,1,416.57,546.78Zm2.25,14.77H417V550.29h1.8Z"/><path class="cls-7" d="M424.15,558.53c0,1.15.3,1.51,1.22,1.51a4,4,0,0,0,1.64-.32l-.29,1.74a4.44,4.44,0,0,1-1.67.31c-1.82,0-2.7-1-2.7-3V545.12h1.8Z"/><path class="cls-7" d="M430.48,558.53c0,1.15.29,1.51,1.21,1.51a4,4,0,0,0,1.64-.32l-.29,1.74a4.42,4.42,0,0,1-1.66.31c-1.83,0-2.7-1-2.7-3V545.12h1.8Z"/><path class="cls-7" d="M445.28,555.92c0,3.65-2,5.85-5.44,5.85s-5.45-2.2-5.45-5.85,2.05-5.85,5.45-5.85S445.28,552.27,445.28,555.92Zm-9.09,0c0,2.68,1.37,4.3,3.65,4.3s3.64-1.62,3.64-4.3-1.37-4.3-3.64-4.3S436.19,553.24,436.19,555.92Z"/><path class="cls-7" d="M458.06,554.34v7.21h-1.8V555c0-2.49-1.21-3.33-2.77-3.33s-3.48,1-3.48,3.92v6h-1.8V550.29h1.57l.11,1.76a4.07,4.07,0,0,1,3.78-2C456.08,550.07,458.06,551.44,458.06,554.34Z"/><path class="cls-7" d="M471.14,556.6h-8.49c.23,2.27,1.6,3.6,3.67,3.6,1.64,0,2.77-.59,3.17-1.67l1.51.79c-.86,1.53-2.25,2.45-4.68,2.45-3.4,0-5.45-2.2-5.45-5.85s1.92-5.85,5.31-5.85,5.05,2.36,5.05,5.26A9.88,9.88,0,0,1,471.14,556.6Zm-8.47-1.6h6.82c-.25-2.07-1.39-3.36-3.31-3.36S462.94,552.88,462.67,555Z"/><path class="cls-7" d="M473.07,559.23l1.46-1a3.53,3.53,0,0,0,3.56,2c1.84,0,2.72-.75,2.72-1.67s-.7-1.33-2.95-1.73c-3.19-.59-4.37-1.47-4.37-3.36s1.69-3.37,4.44-3.37c2.41,0,3.83.85,4.46,2.7l-1.54.9a2.73,2.73,0,0,0-2.92-2c-1.51,0-2.63.81-2.63,1.65s.74,1.46,3,1.84c3.16.52,4.28,1.47,4.28,3.31s-1.82,3.33-4.7,3.33A5.13,5.13,0,0,1,473.07,559.23Z"/></g><g class="cls-5"><path class="cls-7" d="M410.44,482.42c0,3.67-2,5.85-5.13,5.85a4.21,4.21,0,0,1-3.85-2.18l-.11,2h-1.58V471.62h1.8v6.93a4.26,4.26,0,0,1,3.74-2C408.44,476.57,410.44,478.75,410.44,482.42Zm-1.8,0c0-2.61-1.33-4.28-3.53-4.28s-3.54,1.6-3.54,4.14v.27c0,2.55,1.4,4.15,3.54,4.15S408.64,485,408.64,482.42Z"/><path class="cls-7" d="M412.94,473.28a1.35,1.35,0,1,1,1.35,1.35A1.28,1.28,0,0,1,412.94,473.28Zm2.25,14.77h-1.8V476.79h1.8Z"/><path class="cls-7" d="M420.52,485c0,1.15.29,1.51,1.21,1.51a4,4,0,0,0,1.65-.32l-.29,1.74a4.51,4.51,0,0,1-1.67.31c-1.82,0-2.7-1-2.7-3V471.62h1.8Z"/><path class="cls-7" d="M426.84,485c0,1.15.29,1.51,1.22,1.51a4,4,0,0,0,1.64-.32l-.29,1.74a4.47,4.47,0,0,1-1.67.31c-1.82,0-2.7-1-2.7-3V471.62h1.8Z"/><path class="cls-7" d="M441.65,482.42c0,3.65-2,5.85-5.45,5.85s-5.44-2.2-5.44-5.85,2-5.85,5.44-5.85S441.65,478.77,441.65,482.42Zm-9.09,0c0,2.68,1.37,4.3,3.64,4.3s3.65-1.62,3.65-4.3-1.37-4.3-3.65-4.3S432.56,479.74,432.56,482.42Z"/><path class="cls-7" d="M454.43,480.84v7.21h-1.8v-6.58c0-2.49-1.22-3.33-2.77-3.33s-3.49,1-3.49,3.92v6h-1.8V476.79h1.58l.11,1.76a4.07,4.07,0,0,1,3.78-2C452.45,476.57,454.43,477.94,454.43,480.84Z"/><path class="cls-7" d="M467.5,483.09H459c.22,2.28,1.59,3.61,3.66,3.61,1.65,0,2.77-.59,3.18-1.67l1.51.79c-.86,1.53-2.25,2.45-4.69,2.45-3.39,0-5.44-2.2-5.44-5.85s1.91-5.85,5.31-5.85,5,2.36,5,5.26A8.09,8.09,0,0,1,467.5,483.09ZM459,481.5h6.82c-.25-2.07-1.4-3.36-3.31-3.36S459.31,479.38,459,481.5Z"/><path class="cls-7" d="M469.43,485.73l1.47-1a3.51,3.51,0,0,0,3.55,2c1.85,0,2.73-.75,2.73-1.67s-.7-1.33-2.95-1.73c-3.2-.59-4.37-1.47-4.37-3.36s1.69-3.37,4.43-3.37c2.41,0,3.83.85,4.46,2.7l-1.53.9a2.75,2.75,0,0,0-2.93-2c-1.5,0-2.63.81-2.63,1.65s.74,1.46,3,1.84c3.15.52,4.28,1.46,4.28,3.31s-1.83,3.33-4.71,3.33A5.14,5.14,0,0,1,469.43,485.73Z"/></g><g class="cls-5"><path class="cls-7" d="M410.44,410.42c0,3.67-2,5.85-5.13,5.85a4.21,4.21,0,0,1-3.85-2.18l-.11,2h-1.58V399.62h1.8v6.93a4.26,4.26,0,0,1,3.74-2C408.44,404.57,410.44,406.75,410.44,410.42Zm-1.8,0c0-2.61-1.33-4.28-3.53-4.28s-3.54,1.6-3.54,4.14v.27c0,2.55,1.4,4.15,3.54,4.15S408.64,413,408.64,410.42Z"/><path class="cls-7" d="M412.94,401.28a1.35,1.35,0,1,1,1.35,1.35A1.28,1.28,0,0,1,412.94,401.28Zm2.25,14.77h-1.8V404.79h1.8Z"/><path class="cls-7" d="M420.52,413c0,1.15.29,1.51,1.21,1.51a4,4,0,0,0,1.65-.32l-.29,1.74a4.51,4.51,0,0,1-1.67.31c-1.82,0-2.7-1-2.7-3V399.62h1.8Z"/><path class="cls-7" d="M426.84,413c0,1.15.29,1.51,1.22,1.51a4,4,0,0,0,1.64-.32l-.29,1.74a4.47,4.47,0,0,1-1.67.31c-1.82,0-2.7-1-2.7-3V399.62h1.8Z"/><path class="cls-7" d="M441.65,410.42c0,3.65-2,5.85-5.45,5.85s-5.44-2.2-5.44-5.85,2-5.85,5.44-5.85S441.65,406.77,441.65,410.42Zm-9.09,0c0,2.68,1.37,4.3,3.64,4.3s3.65-1.62,3.65-4.3-1.37-4.3-3.65-4.3S432.56,407.74,432.56,410.42Z"/><path class="cls-7" d="M454.43,408.84v7.21h-1.8v-6.58c0-2.49-1.22-3.33-2.77-3.33s-3.49,1-3.49,3.92v6h-1.8V404.79h1.58l.11,1.76a4.07,4.07,0,0,1,3.78-2C452.45,404.57,454.43,405.94,454.43,408.84Z"/><path class="cls-7" d="M467.5,411.09H459c.22,2.28,1.59,3.61,3.66,3.61,1.65,0,2.77-.59,3.18-1.67l1.51.79c-.86,1.53-2.25,2.45-4.69,2.45-3.39,0-5.44-2.2-5.44-5.85s1.91-5.85,5.31-5.85,5,2.36,5,5.26A8.09,8.09,0,0,1,467.5,411.09ZM459,409.5h6.82c-.25-2.07-1.4-3.36-3.31-3.36S459.31,407.38,459,409.5Z"/><path class="cls-7" d="M469.43,413.73l1.47-1a3.51,3.51,0,0,0,3.55,2c1.85,0,2.73-.75,2.73-1.67s-.7-1.33-2.95-1.73c-3.2-.59-4.37-1.47-4.37-3.36s1.69-3.37,4.43-3.37c2.41,0,3.83.85,4.46,2.7l-1.53.9a2.75,2.75,0,0,0-2.93-2c-1.5,0-2.63.81-2.63,1.65s.74,1.46,3,1.84c3.15.52,4.28,1.46,4.28,3.31s-1.83,3.33-4.71,3.33A5.14,5.14,0,0,1,469.43,413.73Z"/></g><g class="cls-5"><path class="cls-7" d="M411.27,290.92c0,3.67-2,5.85-5.13,5.85a4.21,4.21,0,0,1-3.85-2.18l-.11,2H400.6V280.12h1.8v6.93a4.26,4.26,0,0,1,3.74-2C409.27,285.07,411.27,287.25,411.27,290.92Zm-1.8,0c0-2.61-1.33-4.28-3.53-4.28s-3.54,1.6-3.54,4.15v.27c0,2.54,1.4,4.14,3.54,4.14S409.47,293.53,409.47,290.92Z"/><path class="cls-7" d="M413.77,281.78a1.35,1.35,0,1,1,1.35,1.35A1.28,1.28,0,0,1,413.77,281.78ZM416,296.55h-1.8V285.29H416Z"/><path class="cls-7" d="M421.35,293.53c0,1.15.29,1.51,1.21,1.51a4,4,0,0,0,1.65-.32l-.29,1.74a4.51,4.51,0,0,1-1.67.31c-1.82,0-2.7-1-2.7-3V280.12h1.8Z"/><path class="cls-7" d="M427.67,293.53c0,1.15.29,1.51,1.22,1.51a4,4,0,0,0,1.64-.32l-.29,1.74a4.47,4.47,0,0,1-1.67.31c-1.82,0-2.7-1-2.7-3V280.12h1.8Z"/><path class="cls-7" d="M442.48,290.92c0,3.65-2.05,5.85-5.45,5.85s-5.44-2.2-5.44-5.85,2-5.85,5.44-5.85S442.48,287.27,442.48,290.92Zm-9.09,0c0,2.68,1.37,4.3,3.64,4.3s3.65-1.62,3.65-4.3-1.37-4.3-3.65-4.3S433.39,288.24,433.39,290.92Z"/><path class="cls-7" d="M455.26,289.34v7.21h-1.8V290c0-2.49-1.22-3.33-2.77-3.33s-3.49,1-3.49,3.92v6h-1.8V285.29H447l.11,1.76a4.07,4.07,0,0,1,3.78-2C453.28,285.07,455.26,286.44,455.26,289.34Z"/><path class="cls-7" d="M468.33,291.6h-8.48c.22,2.27,1.59,3.6,3.66,3.6,1.65,0,2.77-.59,3.18-1.67l1.51.79c-.86,1.53-2.25,2.45-4.69,2.45-3.39,0-5.44-2.2-5.44-5.85s1.91-5.85,5.31-5.85,5,2.36,5,5.26A8.34,8.34,0,0,1,468.33,291.6Zm-8.46-1.6h6.82c-.25-2.07-1.4-3.36-3.31-3.36S460.14,287.88,459.87,290Z"/><path class="cls-7" d="M470.26,294.23l1.47-1a3.51,3.51,0,0,0,3.55,2c1.85,0,2.73-.75,2.73-1.67s-.7-1.33-2.95-1.73c-3.2-.59-4.37-1.47-4.37-3.36s1.69-3.37,4.43-3.37c2.41,0,3.83.85,4.46,2.7l-1.53.9a2.74,2.74,0,0,0-2.93-2c-1.5,0-2.63.81-2.63,1.65s.74,1.46,3,1.84c3.15.52,4.28,1.47,4.28,3.31s-1.83,3.33-4.71,3.33A5.14,5.14,0,0,1,470.26,294.23Z"/></g><circle id="Elipse_342" data-name="Elipse 342" class="cls-11" cx="373.5" cy="277.85" r="8.75"/><g class="cls-5"><path class="cls-10" d="M375.36,273v10.49h-2.64v-7.8a5.13,5.13,0,0,1-2.47,1.33l-.26-2.25a5.49,5.49,0,0,0,3.2-1.77Z"/></g><circle id="Elipse_343" data-name="Elipse 343" class="cls-11" cx="373.52" cy="396.35" r="8.75"/><g class="cls-5"><path class="cls-10" d="M369.94,399.71c3.59-2.24,5-3.86,5-5.34a1.31,1.31,0,0,0-1.42-1.41c-1,0-1.57.74-1.6,2.14l-2.33-.72c0-2.31,1.76-3.57,4.11-3.57,2.78,0,4,1.73,4,3.37,0,2.05-1.61,3.6-4.45,5.24v0c.52,0,1.44-.07,2.11-.07h2.46v2.08h-7.86Z"/></g><circle id="Elipse_344" data-name="Elipse 344" class="cls-11" cx="373.52" cy="467.35" r="8.75"/><g class="cls-5"><path class="cls-10" d="M377.49,465a2.25,2.25,0,0,1-2,2.41v.05a2.22,2.22,0,0,1,2.18,2.38c0,1.81-1.7,3-4.07,3-2.21,0-3.54-.76-4.13-2.61l2.48-1.06c.11,1.13.68,1.56,1.62,1.56s1.48-.46,1.46-1.28-.49-1.12-1.56-1.12h-.58v-1.73h.46c1,0,1.46-.4,1.46-1.21a1.11,1.11,0,0,0-1.24-1.24,1.35,1.35,0,0,0-1.46,1.41l-2.4-.81c.37-1.95,2-2.71,4-2.71C376.14,462.05,377.49,463.21,377.49,465Z"/></g><circle id="Elipse_345" data-name="Elipse 345" class="cls-11" cx="373.52" cy="540.35" r="8.75"/><g class="cls-5"><path class="cls-10" d="M378.4,543.11h-1.6v2.3h-2.41v-2.3h-5.28v-1.29l4.5-6.89h3.19v6.3h1.6Zm-6.75-1.88h2.74v-2.79l.06-1.72h0a11.87,11.87,0,0,1-.92,1.72Z"/></g><g class="cls-5"><path class="cls-7" d="M480.52,328.19H479v-9.56h1.55Z"/><path class="cls-7" d="M490,321.61c0,1.86-1.3,3-3.36,3h-2.13v3.61H483v-9.56h3.68C488.73,318.63,490,319.75,490,321.61Zm-1.6,0c0-1.08-.63-1.66-2-1.66h-1.89v3.31h1.89C487.8,323.26,488.43,322.7,488.43,321.61Z"/><path class="cls-7" d="M495.68,328.33c-2.77,0-4.5-1.88-4.5-4.92s1.75-4.92,4.48-4.92a3.71,3.71,0,0,1,3.83,2.34l-1.47.65a2.14,2.14,0,0,0-2.27-1.65c-1.78,0-2.95,1.31-2.95,3.58s1.08,3.58,2.89,3.58a2.4,2.4,0,0,0,2.47-1.83l1.47.49A3.9,3.9,0,0,1,495.68,328.33Z"/><path class="cls-7" d="M512.11,324.21h-2.88v3h-1.35v-3H505v-1.29h2.89v-3h1.35v3h2.88Z"/><path class="cls-7" d="M524.26,321a2.11,2.11,0,0,1-1.79,2.32v0a2.07,2.07,0,0,1,2,2.23c0,1.58-1.39,2.72-3.48,2.72a3.31,3.31,0,0,1-3.43-2.31l1.42-.69a1.91,1.91,0,0,0,2.07,1.67c1.19,0,1.87-.65,1.85-1.59s-.65-1.41-2-1.41h-.43v-1.23h.39c1.19,0,1.78-.46,1.8-1.43a1.39,1.39,0,0,0-1.58-1.52,1.65,1.65,0,0,0-1.81,1.42l-1.42-.58a3.15,3.15,0,0,1,3.26-2.17C523.17,318.49,524.26,319.63,524.26,321Z"/><path class="cls-7" d="M528.23,327.77a2.79,2.79,0,0,1-1.71,2.59l-.75-.64a2.26,2.26,0,0,0,1.53-1.49l-.07,0a.55.55,0,0,1-.41.12.94.94,0,0,1-.92-1,1.05,1.05,0,0,1,1.1-1.07C527.79,326.23,528.23,326.88,528.23,327.77Z"/><path class="cls-7" d="M536.25,325.07a3.08,3.08,0,0,1-3.4,3.26,3.41,3.41,0,0,1-3.46-2.1l1.44-.79a1.83,1.83,0,0,0,2,1.57,1.73,1.73,0,0,0,1.91-1.85,1.68,1.68,0,0,0-1.85-1.84,2.26,2.26,0,0,0-2,.83l-1.28-.09.59-5.43h5.55V320h-4.32l-.33,2.65,0,.21h0a2.77,2.77,0,0,1,2.12-.77A2.84,2.84,0,0,1,536.25,325.07Z"/><path class="cls-7" d="M542.05,321.15a2.43,2.43,0,1,1-2.41-2.66A2.38,2.38,0,0,1,542.05,321.15Zm-3.56,0c0,1,.41,1.52,1.15,1.52s1.15-.56,1.15-1.52-.4-1.53-1.15-1.53S538.49,320.18,538.49,321.15Zm7-2.52h1.34l-6.24,9.56h-1.35Zm3.38,7a2.43,2.43,0,1,1-2.42-2.67A2.39,2.39,0,0,1,548.89,325.67Zm-3.56,0c0,1,.4,1.53,1.14,1.53s1.16-.56,1.16-1.53-.41-1.52-1.16-1.52S545.33,324.71,545.33,325.67Z"/></g><g class="cls-5"><path class="cls-7" d="M479.89,349.19h-1.55v-9.56h1.55Z"/><path class="cls-7" d="M489.41,342.61c0,1.86-1.31,3-3.36,3h-2.13v3.61h-1.55v-9.56h3.68C488.1,339.63,489.41,340.75,489.41,342.61Zm-1.61,0c0-1.08-.62-1.66-2-1.66h-1.88v3.31h1.88C487.18,344.26,487.8,343.7,487.8,342.61Z"/><path class="cls-7" d="M495.05,349.33c-2.76,0-4.5-1.88-4.5-4.92s1.75-4.92,4.49-4.92a3.7,3.7,0,0,1,3.82,2.34l-1.46.65a2.16,2.16,0,0,0-2.27-1.65c-1.79,0-3,1.31-3,3.58s1.09,3.58,2.9,3.58a2.39,2.39,0,0,0,2.46-1.83l1.48.49A3.92,3.92,0,0,1,495.05,349.33Z"/><path class="cls-7" d="M511.49,345.21h-2.88v3h-1.35v-3h-2.9v-1.29h2.9v-3h1.35v3h2.88Z"/><path class="cls-7" d="M524.66,346.8H523v2.39h-1.46V346.8h-4.71v-.94l4.27-6.23H523v6h1.62Zm-6.24-1.2h3.16v-3.28l.06-1.55h0a13.35,13.35,0,0,1-.93,1.6Z"/><path class="cls-7" d="M530.29,342.15a2.43,2.43,0,1,1-2.41-2.66A2.38,2.38,0,0,1,530.29,342.15Zm-3.56,0c0,1,.41,1.52,1.15,1.52s1.15-.56,1.15-1.52-.4-1.53-1.15-1.53S526.73,341.18,526.73,342.15Zm7-2.52h1.33l-6.24,9.56H527.5Zm3.37,7a2.43,2.43,0,1,1-2.42-2.67A2.39,2.39,0,0,1,537.13,346.67Zm-3.56,0c0,1,.4,1.53,1.14,1.53s1.16-.56,1.16-1.53-.41-1.52-1.16-1.52S533.57,345.71,533.57,346.67Z"/></g><g class="cls-5"><path class="cls-7" d="M428.72,327c3.26-2.07,4.55-3.55,4.54-4.9a1.19,1.19,0,0,0-1.3-1.28c-.91,0-1.42.69-1.45,2l-2.13-.64c0-2.12,1.59-3.27,3.73-3.28,2.53,0,3.62,1.55,3.63,3,0,1.87-1.44,3.3-4,4.81h0c.48,0,1.32-.06,1.93-.07h2.24l0,1.89-7.17,0Z"/><path class="cls-7" d="M436.79,323.76c0-3.26,1.27-4.93,3.94-4.95s4,1.64,4,4.9-1.27,4.93-3.94,4.94S436.81,327,436.79,323.76Zm5.47,0c0-2.14-.46-3-1.52-3s-1.5.85-1.49,3,.47,3,1.53,3S442.28,325.86,442.26,323.72Z"/><path class="cls-7" d="M450.31,318.89l.07,9.56H448l-.05-7.11a4.6,4.6,0,0,1-2.25,1.23l-.24-2.05a4.94,4.94,0,0,0,2.9-1.63Z"/><path class="cls-7" d="M459.32,323.67c0,3.41-1.5,4.87-4,4.89a3.37,3.37,0,0,1-3.52-2.06l2.22-.9a1.22,1.22,0,0,0,1.33,1.08c1.22,0,1.76-1,1.75-2.72v-.23H457a2.23,2.23,0,0,1-2.28,1.27,3,3,0,0,1-3.12-3c0-2,1.34-3.25,3.71-3.27C457.87,318.7,459.3,320.39,459.32,323.67Zm-5.4-1.72a1.21,1.21,0,0,0,1.37,1.27,1.22,1.22,0,0,0,1.35-1.29,1.36,1.36,0,0,0-2.72,0Z"/></g><g class="cls-5"><path class="cls-7" d="M426.07,346.81c3.29-2,4.6-3.48,4.62-4.82a1.2,1.2,0,0,0-1.28-1.3c-.91,0-1.44.66-1.48,1.94l-2.12-.67c.06-2.12,1.63-3.25,3.77-3.23,2.54,0,3.6,1.61,3.58,3.1,0,1.87-1.49,3.28-4.09,4.75h0c.48,0,1.32,0,1.92,0l2.25,0,0,1.89-7.16,0Z"/><path class="cls-7" d="M434.19,343.69c0-3.26,1.34-4.91,4-4.89s3.95,1.7,3.92,5-1.34,4.91-4,4.89S434.16,347,434.19,343.69Zm5.47.05c0-2.14-.42-3-1.48-3s-1.51.83-1.53,3,.42,3,1.48,3S439.64,345.88,439.66,343.74Z"/><path class="cls-7" d="M443.3,347c3.29-2,4.6-3.49,4.62-4.83a1.2,1.2,0,0,0-1.28-1.3c-.92,0-1.44.67-1.48,1.94L443,342.1c.06-2.11,1.63-3.24,3.77-3.23,2.54,0,3.59,1.61,3.58,3.1,0,1.87-1.49,3.28-4.09,4.75h0c.48,0,1.32,0,1.92,0l2.25,0,0,1.9-7.16-.06Z"/><path class="cls-7" d="M451.42,343.84c0-3.26,1.34-4.92,4-4.89s3.95,1.69,3.92,4.95-1.34,4.91-4,4.89S451.39,347.09,451.42,343.84Zm5.47,0c0-2.14-.42-3-1.48-3s-1.51.82-1.53,3,.42,3,1.48,3S456.87,346,456.89,343.88Z"/></g><g class="cls-5"><path class="cls-7" d="M625.89,328.19h-1.55v-9.56h1.55Z"/><path class="cls-7" d="M635.41,321.61c0,1.86-1.31,3-3.36,3h-2.13v3.61h-1.55v-9.56h3.68C634.1,318.63,635.41,319.75,635.41,321.61Zm-1.61,0c0-1.08-.62-1.66-2-1.66h-1.88v3.31h1.88C633.18,323.26,633.8,322.7,633.8,321.61Z"/><path class="cls-7" d="M641.05,328.33c-2.76,0-4.5-1.88-4.5-4.92s1.75-4.92,4.49-4.92a3.7,3.7,0,0,1,3.82,2.34l-1.46.65a2.16,2.16,0,0,0-2.27-1.65c-1.79,0-3,1.31-3,3.58s1.09,3.58,2.9,3.58a2.39,2.39,0,0,0,2.46-1.83l1.48.49A3.92,3.92,0,0,1,641.05,328.33Z"/><path class="cls-7" d="M657.49,324.21H654.6v3h-1.34v-3h-2.9v-1.29h2.9v-3h1.34v3h2.89Z"/><path class="cls-7" d="M670.66,325.8H669v2.39h-1.46V325.8h-4.71v-.94l4.27-6.23H669v6h1.62Zm-6.24-1.2h3.16v-3.28l.06-1.55h0a13.35,13.35,0,0,1-.93,1.6Z"/><path class="cls-7" d="M674,327.77a2.78,2.78,0,0,1-1.71,2.59l-.75-.64a2.3,2.3,0,0,0,1.54-1.49l-.08,0a.52.52,0,0,1-.4.12,1,1,0,0,1-.93-1,1.06,1.06,0,0,1,1.1-1.07C673.56,326.23,674,326.88,674,327.77Z"/><path class="cls-7" d="M682,325.07a3.08,3.08,0,0,1-3.4,3.26,3.43,3.43,0,0,1-3.46-2.1l1.45-.79a1.82,1.82,0,0,0,2,1.57,1.72,1.72,0,0,0,1.91-1.85,1.67,1.67,0,0,0-1.85-1.84,2.23,2.23,0,0,0-1.94.83l-1.29-.09.6-5.43h5.54V320h-4.31l-.34,2.65,0,.21h0a2.73,2.73,0,0,1,2.11-.77A2.84,2.84,0,0,1,682,325.07Z"/><path class="cls-7" d="M687.82,321.15a2.43,2.43,0,1,1-2.42-2.66A2.39,2.39,0,0,1,687.82,321.15Zm-3.56,0c0,1,.4,1.52,1.14,1.52s1.16-.56,1.16-1.52-.41-1.53-1.16-1.53S684.26,320.18,684.26,321.15Zm7-2.52h1.33l-6.24,9.56H685Zm3.37,7a2.43,2.43,0,1,1-2.41-2.67A2.38,2.38,0,0,1,694.65,325.67Zm-3.56,0c0,1,.41,1.53,1.15,1.53s1.15-.56,1.15-1.53-.4-1.52-1.15-1.52S691.09,324.71,691.09,325.67Z"/></g><g class="cls-5"><path class="cls-7" d="M625.89,349.19h-1.55v-9.56h1.55Z"/><path class="cls-7" d="M635.41,342.61c0,1.86-1.31,3-3.36,3h-2.13v3.61h-1.55v-9.56h3.68C634.1,339.63,635.41,340.75,635.41,342.61Zm-1.61,0c0-1.08-.62-1.66-2-1.66h-1.88v3.31h1.88C633.18,344.26,633.8,343.7,633.8,342.61Z"/><path class="cls-7" d="M641.05,349.33c-2.76,0-4.5-1.88-4.5-4.92s1.75-4.92,4.49-4.92a3.7,3.7,0,0,1,3.82,2.34l-1.46.65a2.16,2.16,0,0,0-2.27-1.65c-1.79,0-3,1.31-3,3.58s1.09,3.58,2.9,3.58a2.39,2.39,0,0,0,2.46-1.83l1.48.49A3.92,3.92,0,0,1,641.05,349.33Z"/><path class="cls-7" d="M657.49,345.21H654.6v3h-1.34v-3h-2.9v-1.29h2.9v-3h1.34v3h2.89Z"/><path class="cls-7" d="M670.66,346.8H669v2.39h-1.46V346.8h-4.71v-.94l4.27-6.23H669v6h1.62Zm-6.24-1.2h3.16v-3.28l.06-1.55h0a13.35,13.35,0,0,1-.93,1.6Z"/><path class="cls-7" d="M674,348.77a2.78,2.78,0,0,1-1.71,2.59l-.75-.64a2.3,2.3,0,0,0,1.54-1.49l-.08,0a.52.52,0,0,1-.4.12,1,1,0,0,1-.93-1,1.06,1.06,0,0,1,1.1-1.07C673.56,347.23,674,347.88,674,348.77Z"/><path class="cls-7" d="M682.14,341.53l-1.36.65a1.75,1.75,0,0,0-1.85-1.35c-1.41,0-2.36,1.57-2.36,3.68v.26h.06a2.48,2.48,0,0,1,2.52-1.61,2.94,2.94,0,0,1,3.18,3.06c0,1.91-1.3,3.11-3.4,3.11-2.45,0-3.78-1.95-3.78-4.92,0-3.26,1.67-4.92,3.87-4.92A3,3,0,0,1,682.14,341.53Zm-5.08,4.67a1.73,1.73,0,0,0,1.87,1.8,1.78,1.78,0,1,0,0-3.55A1.71,1.71,0,0,0,677.06,346.2Z"/><path class="cls-7" d="M690.41,346.07a3.08,3.08,0,0,1-3.4,3.26,3.41,3.41,0,0,1-3.46-2.1l1.45-.79a1.82,1.82,0,0,0,2,1.57,1.72,1.72,0,0,0,1.91-1.85,1.67,1.67,0,0,0-1.85-1.84,2.23,2.23,0,0,0-1.94.83l-1.29-.09.59-5.43H690V341h-4.32l-.33,2.65,0,.21h0a2.73,2.73,0,0,1,2.11-.77A2.84,2.84,0,0,1,690.41,346.07Z"/><path class="cls-7" d="M696.22,342.15a2.43,2.43,0,1,1-2.42-2.66A2.39,2.39,0,0,1,696.22,342.15Zm-3.56,0c0,1,.4,1.52,1.14,1.52s1.16-.56,1.16-1.52-.41-1.53-1.16-1.53S692.66,341.18,692.66,342.15Zm7-2.52H701l-6.24,9.56h-1.35Zm3.37,7a2.43,2.43,0,1,1-2.42-2.67A2.39,2.39,0,0,1,703.05,346.67Zm-3.56,0c0,1,.41,1.53,1.14,1.53s1.16-.56,1.16-1.53-.4-1.52-1.16-1.52S699.49,345.71,699.49,346.67Z"/></g><g class="cls-5"><path class="cls-7" d="M575,327c3.26-2.07,4.56-3.55,4.55-4.9a1.2,1.2,0,0,0-1.3-1.28c-.91,0-1.43.69-1.45,2l-2.13-.63c0-2.12,1.58-3.27,3.73-3.29,2.53,0,3.61,1.56,3.62,3.05,0,1.87-1.44,3.3-4,4.8v0c.48,0,1.32-.07,1.92-.07l2.25,0v1.9l-7.17,0Z"/><path class="cls-7" d="M583.07,323.76c0-3.26,1.27-4.94,3.93-4.95s4,1.64,4,4.89-1.27,4.93-3.93,4.95S583.09,327,583.07,323.76Zm5.47,0c0-2.14-.47-3-1.53-3s-1.5.85-1.48,3,.47,3,1.52,3S588.55,325.86,588.54,323.72Z"/><path class="cls-7" d="M592.22,326.88c3.26-2.06,4.56-3.55,4.55-4.89a1.2,1.2,0,0,0-1.3-1.28c-.91,0-1.43.69-1.45,2l-2.13-.64c0-2.11,1.58-3.27,3.73-3.28,2.53,0,3.61,1.55,3.62,3.05,0,1.86-1.44,3.29-4,4.8v0c.48,0,1.32-.07,1.92-.08h2.25v1.9l-7.17,0Z"/><path class="cls-7" d="M604.85,318.83l.07,9.56-2.41,0,0-7.11a4.77,4.77,0,0,1-2.25,1.23l-.25-2.06a5,5,0,0,0,2.9-1.62Z"/></g><g class="cls-5"><path class="cls-7" d="M572.77,346.82c3.29-2,4.6-3.48,4.61-4.83a1.19,1.19,0,0,0-1.28-1.3c-.91,0-1.43.67-1.47,1.94L572.5,342c.06-2.11,1.64-3.24,3.78-3.22,2.53,0,3.59,1.61,3.58,3.1,0,1.87-1.49,3.27-4.09,4.74v0c.48,0,1.32-.05,1.93-.05l2.25,0,0,1.9-7.17-.06Z"/><path class="cls-7" d="M580.89,343.7c0-3.26,1.34-4.91,4-4.89s4,1.7,3.93,5-1.34,4.91-4,4.89S580.86,347,580.89,343.7Zm5.47.05c0-2.15-.43-3-1.48-3s-1.51.83-1.53,3,.42,3,1.48,3S586.34,345.89,586.36,343.75Z"/><path class="cls-7" d="M590,347c3.29-2,4.6-3.48,4.61-4.83a1.19,1.19,0,0,0-1.28-1.3c-.91,0-1.44.67-1.48,1.95l-2.12-.67c.06-2.12,1.64-3.25,3.78-3.23,2.53,0,3.59,1.61,3.58,3.1,0,1.87-1.49,3.28-4.09,4.75h0c.47,0,1.31-.05,1.92,0l2.25,0,0,1.89-7.17-.06Z"/><path class="cls-7" d="M598.26,347c3.29-2,4.61-3.48,4.62-4.83a1.2,1.2,0,0,0-1.28-1.3c-.91,0-1.44.67-1.48,2l-2.12-.67c.06-2.12,1.63-3.25,3.78-3.23,2.53,0,3.59,1.61,3.58,3.1,0,1.87-1.49,3.27-4.1,4.74v0c.48,0,1.32-.05,1.93,0l2.24,0v1.89l-7.17-.06Z"/></g><path id="Trazado_91758" data-name="Trazado 91758" class="cls-12" d="M471.75,323.63l-4.5-4.27v8.55Z"/><path id="Trazado_91759" data-name="Trazado 91759" class="cls-12" d="M471.75,345.13l-4.5-4.27v8.55Z"/><path id="Trazado_91760" data-name="Trazado 91760" class="cls-12" d="M617.25,323.63l-4.5-4.27v8.55Z"/><path id="Trazado_91761" data-name="Trazado 91761" class="cls-12" d="M617.25,345.13l-4.5-4.27v8.55Z"/><rect id="Rectángulo_1387" data-name="Rectángulo 1387" class="cls-13" x="401" y="311.35" width="314" height="45"/><path id="Trazado_91762" data-name="Trazado 91762" class="cls-4" d="M351.51,171.85H332v106.5h19.5"/><path id="Trazado_91763" data-name="Trazado 91763" class="cls-4" d="M332,279.6V396.35h19.5"/><path id="Trazado_91764" data-name="Trazado 91764" class="cls-4" d="M332,398.1v69.75h19.5"/><path id="Trazado_91765" data-name="Trazado 91765" class="cls-4" d="M332,469.6v73h19.5"/><circle id="Elipse_346" data-name="Elipse 346" class="cls-6" cx="401" cy="333.85" r="3.75"/><circle id="Elipse_347" data-name="Elipse 347" class="cls-6" cx="715.25" cy="333.85" r="3.75"/><g id="Grupo_9413" data-name="Grupo 9413"><g id="Grupo_9412" data-name="Grupo 9412" class="cls-14"><line id="Línea_154" data-name="Línea 154" class="cls-15" x1="166.91" y1="415.15" x2="308.71" y2="415.15"/><g id="Grupo_9411" data-name="Grupo 9411"><path id="Trazado_91766" data-name="Trazado 91766" class="cls-16" d="M277.5,374.79v-5.35H186.17a11.77,11.77,0,1,0,0,23.54H277.5v-5.35H191V374.79Z"/><rect id="Rectángulo_1388" data-name="Rectángulo 1388" class="cls-15" x="190.99" y="374.79" width="79.73" height="12.84"/><line id="Línea_155" data-name="Línea 155" class="cls-15" x1="270.72" y1="381.21" x2="190.99" y2="381.21"/><rect id="Rectángulo_1389" data-name="Rectángulo 1389" class="cls-17" x="190.99" y="374.79" width="6.69" height="12.84"/></g><path id="Trazado_91767" data-name="Trazado 91767" class="cls-18" d="M277.5,408.7H186.17l4.82-4.63-4.82-4.64h91.32Z"/><line id="Línea_156" data-name="Línea 156" class="cls-15" x1="220.06" y1="404.07" x2="244.68" y2="404.07"/><path id="Trazado_91768" data-name="Trazado 91768" class="cls-19" d="M284.25,393H186.17v6.45H277.5v9.27H186.17v6.45h98.08a11.08,11.08,0,0,0,11.08-11.08h0A11.09,11.09,0,0,0,284.25,393Z"/><path id="Trazado_91769" data-name="Trazado 91769" class="cls-20" d="M220.06,418.67l-6.42-4.37-6.42,4.37V399.43h12.84Z"/></g><g class="cls-5"><path class="cls-9" d="M198.55,480.24H191v10.85H179.61V480.24H154.75v-6.07l21.19-32.49H191V471.4h7.56Zm-31.82-8.84h12.88V458.22l.3-8.08h-.15a52.29,52.29,0,0,1-4.35,8.08Z"/><path class="cls-9" d="M224.31,441.68v49.41H211.88V454.33c-3.37,3.07-7.42,5.54-11.68,6.29L199,450c5.09-.6,12.58-4.65,15.05-8.31Z"/><path class="cls-9" d="M246.69,487.87c0,6.37-3.44,12.06-10.41,15.05l-5.61-4c4.57-1.73,8-4.42,9.28-8l-.3-.22a2.84,2.84,0,0,1-2.32.82,6,6,0,0,1-6.21-6.29c0-4.56,3.07-7,7.49-7C244.07,478.21,246.69,482.48,246.69,487.87Z"/><path class="cls-9" d="M293.79,480.24h-7.57v10.85H274.84V480.24H250v-6.07l21.19-32.49h15.05V471.4h7.57ZM262,471.4h12.88V458.22l.3-8.08H275a53.09,53.09,0,0,1-4.34,8.08Z"/></g><g class="cls-5"><path class="cls-9" d="M177.64,522.36c0,6.07-2.83,9.61-7.67,9.61a6.47,6.47,0,0,1-6.22-4.32l-.19,4H158V505.08h6.33v11a5.92,5.92,0,0,1,5.63-3.5C174.73,512.6,177.64,516.18,177.64,522.36Zm-6.37-.07c0-3.51-1.34-5-3.5-5s-3.43,1.75-3.43,4.84v.37c0,3.2,1.31,4.84,3.43,4.84S171.27,525.79,171.27,522.29Z"/><path class="cls-9" d="M180,507.8c0-2.13,1.11-3.06,3.68-3.06s3.69.93,3.69,3.06-1.12,3-3.69,3S180,509.88,180,507.8Zm6.85,23.8h-6.33V513h6.33Z"/><path class="cls-9" d="M196.63,525.15c0,1.64.41,2.31,1.72,2.31a5.41,5.41,0,0,0,1.89-.33l-.4,3.91A8.18,8.18,0,0,1,196,532c-4,0-5.66-1.75-5.66-5.89v-21h6.33Z"/><path class="cls-9" d="M207.88,525.15c0,1.64.41,2.31,1.71,2.31a5.42,5.42,0,0,0,1.9-.33l-.41,3.91a8.1,8.1,0,0,1-3.87.93c-4,0-5.66-1.75-5.66-5.89v-21h6.33Z"/><path class="cls-9" d="M231.64,522.29c0,6.1-3.61,9.68-9.83,9.68s-9.84-3.58-9.84-9.68,3.62-9.69,9.84-9.69S231.64,516.18,231.64,522.29Zm-13.33,0c0,3.65,1.15,5.17,3.5,5.17s3.5-1.52,3.5-5.17-1.16-5.18-3.5-5.18S218.31,518.63,218.31,522.29Z"/><path class="cls-9" d="M253,519.19V531.6h-6.33V520.94c0-2.64-1.08-3.5-2.65-3.5-1.82,0-3.35,1.23-3.35,4.32v9.84h-6.33V513H240l.19,3.58a6.52,6.52,0,0,1,6.36-3.95C250.41,512.6,253,514.87,253,519.19Z"/><path class="cls-9" d="M274.47,524.11h-12.7c.41,2.42,1.79,3.39,3.91,3.39,1.86,0,3-.75,3.43-2l5.14,1.64c-1.08,3.24-4.25,4.88-8.57,4.88-6.52,0-10.06-3.54-10.06-9.68s3.5-9.69,9.72-9.69,9.32,3.54,9.32,9.42A11.83,11.83,0,0,1,274.47,524.11Zm-12.74-3.43h7c-.29-2.38-1.45-3.65-3.42-3.65S262.1,518.19,261.73,520.68Z"/><path class="cls-9" d="M275.88,528.69l3.28-3.57c1.12,1.86,3.13,2.64,5.51,2.64,1.75,0,2.8-.52,2.8-1.3s-.9-1.16-3.39-1.68c-5.66-1.12-7.71-2.94-7.71-6s2.9-6.18,9-6.18c4.47,0,6.93,1.3,8.53,3.5l-3.42,3.35a5.14,5.14,0,0,0-4.92-2.64c-1.86,0-2.83.67-2.83,1.42s.82,1.22,3.43,1.71c5.51,1,7.71,2.72,7.71,5.92,0,3.43-2.87,6.11-8.87,6.11C280.87,532,277.78,531,275.88,528.69Z"/></g><path id="Trazado_91770" data-name="Trazado 91770" class="cls-21" d="M313,506.47V531a16.31,16.31,0,0,1-16.31,16.31H82.26"/></g><g id="Grupo_10007" data-name="Grupo 10007"><g id="Grupo_6350" data-name="Grupo 6350"><circle id="Elipse_274" data-name="Elipse 274" class="cls-22" cx="75.72" cy="426.01" r="47.94"/><circle id="Elipse_275" data-name="Elipse 275" class="cls-23" cx="75.72" cy="426.01" r="61"/></g><g class="cls-24"><path class="cls-6" d="M70,450.08c-10.19-.66-16.51-4.19-20.87-10.19l7-8.13c2.46,4.93,7.64,8,13.88,8.79V428.06C61,426.25,51,423.7,51,412.61c0-8.62,6.9-15.28,19.06-16.43v-7.39h8v7.39c9.78.74,14.87,4.27,19.31,9.78l-7,7.89c-3.12-5-6.9-7.48-12.32-8.06v12.9c9,1.81,18.81,4.6,18.81,15.86,0,9-7.8,14.54-18.81,15.53v7.39H70Zm0-44c-4.11.66-6.32,2.71-6.32,5.75s2.71,4.27,6.32,5.26Zm14.13,29.08c0-3-2.63-4.35-6.16-5.34v10.6C81.93,439.81,84.15,438.16,84.15,435.12Z"/></g><g class="cls-5"><path class="cls-6" d="M74.54,452.16C64.35,451.5,58,448,53.67,442l7-8.13c2.47,4.93,7.64,8,13.89,8.79V430.14c-9-1.81-19.06-4.35-19.06-15.44,0-8.63,6.9-15.29,19.06-16.44v-7.39h8v7.39c9.77.74,14.87,4.28,19.3,9.78l-7,7.89c-3.12-5-6.9-7.48-12.32-8.05v12.89c8.95,1.81,18.81,4.61,18.81,15.86,0,9-7.8,14.54-18.81,15.53v7.39h-8Zm0-44c-4.11.66-6.33,2.71-6.33,5.75s2.71,4.28,6.33,5.26Zm14.13,29.09c0-3-2.63-4.36-6.16-5.34v10.59C86.45,441.89,88.67,440.25,88.67,437.21Z"/></g></g></g></g></svg>