<svg xmlns="http://www.w3.org/2000/svg" viewBox="0 0 381.2 285.66"><defs><style>.cls-1{opacity:0.52;}.cls-12,.cls-15,.cls-2,.cls-8{fill:none;}.cls-11,.cls-12,.cls-2,.cls-3,.cls-4,.cls-5,.cls-6,.cls-7{stroke:#34508b;}.cls-11,.cls-12,.cls-15,.cls-2,.cls-3,.cls-4,.cls-5,.cls-6,.cls-7,.cls-8{stroke-linecap:round;}.cls-11,.cls-12,.cls-15,.cls-2,.cls-3,.cls-4,.cls-5,.cls-6,.cls-7{stroke-linejoin:round;}.cls-2,.cls-3,.cls-4,.cls-5,.cls-6,.cls-7{stroke-width:3px;}.cls-3{fill:#ffd3a2;}.cls-10,.cls-4{fill:#34508b;}.cls-11,.cls-5{fill:#fff;}.cls-6{fill:#ff9f9e;}.cls-7{fill:#3bddba;}.cls-15,.cls-8{stroke:#f42f63;stroke-dasharray:8;}.cls-11,.cls-12,.cls-15,.cls-8{stroke-width:2px;}.cls-13,.cls-9{isolation:isolate;}.cls-12{stroke-dasharray:0 5;}.cls-13{opacity:0.5;}.cls-14{fill:#36c;}</style></defs><title>infografia-desktop1</title><g id="Capa_2" data-name="Capa 2"><g id="Capa_1-2" data-name="Capa 1"><g id="Grupo_6349" data-name="Grupo 6349" class="cls-1"><line id="Línea_125" data-name="Línea 125" class="cls-2" x1="166.38" y1="100.12" x2="356.3" y2="100.12"/><g id="Grupo_6348" data-name="Grupo 6348"><path id="Trazado_73338" data-name="Trazado 73338" class="cls-3" d="M314.49,46.07V38.9H192.18a15.77,15.77,0,0,0,0,31.54H314.49V63.27H198.63V46.07Z"/><rect id="Rectángulo_971" data-name="Rectángulo 971" class="cls-2" x="198.63" y="46.07" width="106.79" height="17.2"/><line id="Línea_126" data-name="Línea 126" class="cls-2" x1="305.42" y1="54.67" x2="198.63" y2="54.67"/><rect id="Rectángulo_972" data-name="Rectángulo 972" class="cls-4" x="198.63" y="46.07" width="8.96" height="17.2"/></g><path id="Trazado_73339" data-name="Trazado 73339" class="cls-5" d="M314.49,91.49H192.18l6.45-6.21-6.45-6.21H314.49Z"/><line id="Línea_127" data-name="Línea 127" class="cls-2" x1="237.57" y1="85.28" x2="270.54" y2="85.28"/><path id="Trazado_73340" data-name="Trazado 73340" class="cls-6" d="M323.54,70.44H192.18v8.63H314.49V91.49H192.18v8.64H323.54a14.86,14.86,0,0,0,14.85-14.84h0a14.84,14.84,0,0,0-14.85-14.84Z"/><path id="Trazado_73341" data-name="Trazado 73341" class="cls-7" d="M237.57,104.84,229,99l-8.6,5.86V79.07h17.2Z"/></g><path id="Trazado_95632" data-name="Trazado 95632" class="cls-8" d="M65,104.57V284.63h260.7"/><g class="cls-9"><path class="cls-10" d="M222.9,190.46H212.5v14.92H196.86V190.46H162.7v-8.33l29.12-44.66H212.5v40.85h10.4Zm-43.74-12.14h17.7V160.21l.41-11.11h-.2a72.88,72.88,0,0,1-6,11.11Z"/><path class="cls-10" d="M258.3,137.47v67.91H241.22V154.86c-4.63,4.22-10.19,7.61-16.06,8.64l-1.64-14.61c7-.82,17.28-6.38,20.68-11.42Z"/><path class="cls-10" d="M289.07,201c0,8.75-4.74,16.57-14.31,20.68l-7.71-5.45c6.27-2.37,11-6.07,12.76-11l-.42-.31A3.92,3.92,0,0,1,276.2,206a8.26,8.26,0,0,1-8.54-8.64c0-6.28,4.22-9.67,10.29-9.67C285.47,187.69,289.07,193.55,289.07,201Z"/><path class="cls-10" d="M353.79,190.46H343.4v14.92H327.76V190.46H293.59v-8.33l29.13-44.66H343.4v40.85h10.39Zm-43.73-12.14h17.7V160.21l.41-11.11H328a72.81,72.81,0,0,1-6,11.11Z"/></g><g id="Grupo_10007" data-name="Grupo 10007"><g id="Grupo_6350" data-name="Grupo 6350"><circle id="Elipse_274" data-name="Elipse 274" class="cls-11" cx="65.6" cy="65.6" r="50.77"/><circle id="Elipse_275" data-name="Elipse 275" class="cls-12" cx="65.6" cy="65.6" r="64.6"/></g><g class="cls-13"><path class="cls-14" d="M59.56,91.09c-10.78-.7-17.48-4.44-22.09-10.79l7.39-8.62C47.47,76.9,53,80.12,59.56,81V67.77C50,65.85,39.38,63.16,39.38,51.41c0-9.14,7.31-16.18,20.18-17.4V26.18H68V34c10.36.78,15.75,4.52,20.45,10.35l-7.39,8.36C77.75,47.41,73.75,44.8,68,44.19V57.85c9.49,1.91,19.93,4.87,19.93,16.79,0,9.57-8.27,15.4-19.93,16.45v7.83H59.56Zm0-46.64c-4.35.7-6.69,2.87-6.69,6.09s2.87,4.52,6.69,5.57Zm15,30.8c0-3.22-2.78-4.61-6.53-5.65V80.82C72.18,80.21,74.53,78.47,74.53,75.25Z"/></g><g class="cls-9"><path class="cls-14" d="M64.35,93.29c-10.79-.7-17.49-4.44-22.1-10.79l7.39-8.61c2.61,5.22,8.09,8.44,14.71,9.31V70c-9.57-1.91-20.19-4.61-20.19-16.35,0-9.14,7.31-16.19,20.19-17.41V28.38h8.44v7.83c10.35.79,15.74,4.53,20.44,10.36l-7.39,8.35c-3.31-5.31-7.31-7.92-13-8.53V60.05c9.48,1.92,19.92,4.88,19.92,16.8,0,9.57-8.26,15.4-19.92,16.44v7.83H64.35Zm0-46.63c-4.35.69-6.7,2.87-6.7,6.09s2.87,4.52,6.7,5.56Zm15,30.8c0-3.22-2.78-4.62-6.52-5.66V83C77,82.41,79.31,80.67,79.31,77.46Z"/></g></g><g class="cls-9"><path class="cls-10" d="M194.16,248.36c0,8.34-3.89,13.2-10.55,13.2a8.91,8.91,0,0,1-8.55-5.94l-.25,5.43h-7.63V224.6h8.7v15.15a8.14,8.14,0,0,1,7.73-4.81C190.17,234.94,194.16,239.86,194.16,248.36Zm-8.75-.11c0-4.81-1.85-6.91-4.82-6.91s-4.71,2.41-4.71,6.66v.51c0,4.4,1.8,6.65,4.71,6.65S185.41,253.07,185.41,248.25Z"/><path class="cls-10" d="M197.33,228.34c0-2.92,1.54-4.2,5.07-4.2s5.07,1.28,5.07,4.2-1.54,4.15-5.07,4.15S197.33,231.21,197.33,228.34Zm9.42,32.71h-8.7V235.46h8.7Z"/><path class="cls-10" d="M220.26,252.2c0,2.25.57,3.17,2.36,3.17a7.32,7.32,0,0,0,2.61-.46l-.56,5.37a11.22,11.22,0,0,1-5.33,1.28c-5.48,0-7.78-2.4-7.78-8.08V224.6h8.7Z"/><path class="cls-10" d="M235.72,252.2c0,2.25.56,3.17,2.36,3.17a7.32,7.32,0,0,0,2.61-.46l-.57,5.37a11.15,11.15,0,0,1-5.32,1.28c-5.48,0-7.78-2.4-7.78-8.08V224.6h8.7Z"/><path class="cls-10" d="M268.38,248.25c0,8.4-5,13.31-13.51,13.31s-13.52-4.91-13.52-13.31,5-13.31,13.52-13.31S268.38,239.86,268.38,248.25Zm-18.33,0c0,5,1.59,7.12,4.82,7.12s4.81-2.1,4.81-7.12-1.59-7.11-4.81-7.11S250.05,243.24,250.05,248.25Z"/><path class="cls-10" d="M297.76,244v17.05h-8.7V246.41c0-3.63-1.49-4.81-3.64-4.81-2.5,0-4.6,1.69-4.6,5.94v13.51h-8.71V235.46h7.79l.25,4.91a9,9,0,0,1,8.76-5.43C294.18,234.94,297.76,238.07,297.76,244Z"/><path class="cls-10" d="M327.25,250.76H309.79c.56,3.33,2.46,4.66,5.37,4.66,2.56,0,4.15-1,4.71-2.82l7.07,2.26c-1.49,4.45-5.84,6.7-11.78,6.7-9,0-13.82-4.86-13.82-13.31s4.81-13.31,13.36-13.31c8.35,0,12.8,4.87,12.8,13A16.37,16.37,0,0,1,327.25,250.76Zm-17.51-4.71h9.62c-.41-3.27-2-5-4.71-5S310.25,242.62,309.74,246.05Z"/><path class="cls-10" d="M329.19,257.06l4.5-4.92c1.54,2.56,4.3,3.64,7.58,3.64,2.41,0,3.84-.72,3.84-1.79s-1.23-1.59-4.66-2.31c-7.78-1.53-10.6-4-10.6-8.24s4-8.5,12.34-8.5c6.14,0,9.52,1.8,11.72,4.81l-4.71,4.61c-1.43-2.56-3.68-3.63-6.75-3.63-2.56,0-3.89.92-3.89,1.94s1.12,1.69,4.71,2.36c7.57,1.33,10.59,3.74,10.59,8.14,0,4.71-3.94,8.39-12.18,8.39C336.05,261.56,331.8,260.23,329.19,257.06Z"/></g><path id="Trazado_74901" data-name="Trazado 74901" class="cls-15" d="M333.13,284.66h24.66a22.41,22.41,0,0,0,22.41-22.41V228.53"/></g></g></svg>