<?xml version="1.0" encoding="utf-8"?>
<!-- Generator: Adobe Illustrator 23.0.6, SVG Export Plug-In . SVG Version: 6.00 Build 0)  -->
<svg version="1.1" id="Capa_1" xmlns="http://www.w3.org/2000/svg" xmlns:xlink="http://www.w3.org/1999/xlink" x="0px" y="0px"
	 viewBox="0 0 437.6 534" style="enable-background:new 0 0 437.6 534;" xml:space="preserve">
<style type="text/css">
	.st0{fill:#3366CC;}
	.st1{fill:#999999;}
	.st2{fill:#34508B;}
	.st3{fill:#FFFFFF;}
	.st4{fill:#F2F2F2;}
	.st5{fill:#E6E6E6;}
	.st6{fill:none;stroke:#FBB03B;stroke-width:2;stroke-linecap:round;stroke-linejoin:round;stroke-dasharray:8;}
	.st7{enable-background:new    ;}
	.st8{fill:#4D4D4D;}
	.st9{opacity:0.9;fill:#F42F63;enable-background:new    ;}
	.st10{fill:#FBB03B;}
	.st11{fill:none;stroke:#3366CC;stroke-width:0.75;stroke-linecap:round;stroke-linejoin:round;}
</style>
<title>infografia-desktop2</title>
<g>
	<g id="Capa_1-2">
		<g>
			<path class="st0" d="M38.2,10.1c0,4.7-3.2,7.4-8.9,7.4h-4.6v8h-6V2.5h10.6C35.1,2.5,38.2,5.2,38.2,10.1z M32.2,10.1
				C32.2,8,31,7,28.4,7h-3.6v6.1h3.6C31,13.1,32.2,12.1,32.2,10.1z"/>
			<path class="st0" d="M53.3,8.1l-0.6,5c-0.7-0.4-1.4-0.5-2.2-0.5c-2.1-0.1-3.9,1.6-3.9,3.6c0,0.2,0,0.3,0,0.5v8.8h-6V8.1h5.2
				l0.2,3.8c0.9-2.6,2.6-4.1,5.3-4.1C52.1,7.7,52.7,7.8,53.3,8.1z"/>
			<path class="st0" d="M71.3,18.5H59.3c0.1,1.9,1.7,3.3,3.5,3.2c0,0,0.1,0,0.1,0c1.8,0,2.8-0.7,3.2-1.9l4.8,1.5c-1,3-4,4.6-8,4.6
				c-6.1,0-9.5-3.3-9.5-9.1s3.3-9.1,9.1-9.1s8.8,3.3,8.8,8.9C71.5,17.2,71.4,17.9,71.3,18.5z M59.3,15.3h6.6
				c-0.3-2.2-1.4-3.4-3.2-3.4S59.7,13,59.3,15.3L59.3,15.3z"/>
			<path class="st0" d="M72.4,22.8l3.1-3.4c1,1.8,2.9,2.5,5.2,2.5c1.7,0,2.6-0.5,2.6-1.2s-0.8-1.1-3.2-1.6c-5.3-1-7.2-2.8-7.2-5.6
				s2.7-5.8,8.4-5.8c4.2,0,6.5,1.2,8,3.3l-3.2,3.1c-0.9-1.7-2.7-2.6-4.6-2.5c-1.8,0-2.7,0.6-2.7,1.3s0.8,1.1,3.2,1.6
				c5.2,0.9,7.2,2.6,7.2,5.6c0,3.2-2.7,5.7-8.3,5.7C77.1,25.9,74.2,25,72.4,22.8z"/>
			<path class="st0" d="M108.8,8.1v17.5h-5.3l-0.2-3.2c-1.1,2.5-3.2,3.6-6.1,3.6c-3.6,0-6-1.8-6-6.2V8.1h6v10.2
				c0,2.4,0.9,3.1,2.4,3.1c1.9,0,3.2-1.2,3.2-4V8.1H108.8z"/>
			<path class="st0" d="M130.4,16.7c0,5.8-2.7,9.2-7.2,9.2c-2.3,0.1-4.4-1.2-5.3-3.3v10.3h-6V8.1h5.2l0.2,3.7
				c0.9-2.5,3.2-4.1,5.8-4.1C127.8,7.7,130.4,11,130.4,16.7z M124.4,16.8c0-3.3-1.3-4.7-3.3-4.7s-3.2,1.5-3.2,4.6V17
				c0,2.9,1.2,4.5,3.2,4.5S124.4,20.1,124.4,16.8L124.4,16.8z"/>
			<path class="st0" d="M150.4,8.1v17.5H145l-0.2-3.2c-1.1,2.5-3.2,3.6-6.1,3.6c-3.6,0-6-1.8-6-6.2V8.1h6v10.2
				c0,2.4,0.9,3.1,2.4,3.1c1.9,0,3.2-1.2,3.2-4V8.1H150.4z"/>
			<path class="st0" d="M170.4,18.5h-11.9c0.1,1.8,1.7,3.3,3.5,3.2c0.1,0,0.1,0,0.2,0c1.8,0,2.8-0.7,3.2-1.9l4.8,1.5
				c-1,3-4,4.6-8,4.6c-6.1,0-9.4-3.3-9.4-9.1s3.3-9.1,9.1-9.1c5.7,0,8.8,3.3,8.8,8.9C170.7,17.2,170.6,17.9,170.4,18.5z M158.4,15.3
				h6.6c-0.3-2.2-1.4-3.4-3.2-3.4S158.8,13,158.4,15.3L158.4,15.3z"/>
			<path class="st0" d="M171.6,22.8l3.1-3.4c1,1.8,2.9,2.5,5.2,2.5c1.6,0,2.6-0.5,2.6-1.2s-0.8-1.1-3.2-1.6c-5.3-1-7.2-2.8-7.2-5.6
				s2.7-5.8,8.4-5.8c4.2,0,6.5,1.2,8,3.3l-3.2,3.1c-0.9-1.7-2.7-2.6-4.6-2.5c-1.8,0-2.7,0.6-2.7,1.3s0.8,1.1,3.2,1.6
				c5.2,0.9,7.2,2.6,7.2,5.6c0,3.2-2.7,5.7-8.3,5.7C176.3,25.9,173.4,25,171.6,22.8z"/>
			<path class="st0" d="M203.2,24.6c-1.5,0.9-3.2,1.4-4.9,1.3c-4,0-6.4-1.5-6.4-5.6v-8h-3V8.1h3V4.1l5.9-1.6v5.6h5.2v4.2h-5.2v7
				c-0.2,1.1,0.5,2.1,1.6,2.3c0.2,0,0.5,0,0.7,0c0.9,0,1.8-0.2,2.5-0.8L203.2,24.6z"/>
			<path class="st0" d="M222.3,16.8c0,5.7-3.4,9.1-9.2,9.1s-9.2-3.4-9.2-9.1s3.4-9.1,9.2-9.1S222.3,11.1,222.3,16.8z M209.8,16.8
				c0,3.4,1.1,4.9,3.3,4.9s3.3-1.4,3.3-4.9s-1.1-4.9-3.3-4.9S209.8,13.4,209.8,16.8z"/>
		</g>
		<g>
			<path class="st1" d="M251.4,16.8c0,5.7-3.1,9.1-8,9.1c-2.3,0.1-4.6-1.1-5.8-3.1v10.1h-2.8V8.1h2.4l0.2,3c1.2-2.2,3.5-3.5,6-3.4
				C248.2,7.7,251.4,11.1,251.4,16.8z M248.6,16.8c0-4.1-2.1-6.6-5.5-6.6s-5.5,2.5-5.5,6.4V17c0,4,2.2,6.4,5.5,6.4
				S248.6,20.9,248.6,16.8z"/>
			<path class="st1" d="M271.5,23.4l-0.2,2.2c-0.7,0.2-1.4,0.4-2.1,0.4c-1.7,0-2.8-0.6-3.1-2.6c-1.4,1.7-3.5,2.7-5.6,2.6
				c-3.3,0-5.9-1.5-5.9-4.7c0-2.6,2.3-4.7,6.8-5.5L266,15v-1c0-2.3-1.5-3.9-4.1-3.9c-2.2-0.1-4.2,1.3-5,3.3l-2.1-1.5
				c0.9-2.6,3.7-4.3,7.1-4.3c4,0,6.9,1.9,6.9,6v8.6c0,0.8,0.4,1.3,1.3,1.3C270.6,23.6,271.1,23.5,271.5,23.4z M266,19.7v-2.4
				l-3.9,0.7c-3.1,0.6-4.7,1.6-4.7,3.2c0,1.5,1.2,2.2,3.2,2.2C263.4,23.5,266,22,266,19.7z"/>
			<path class="st1" d="M284.7,8.1l-0.6,2.7c-0.7-0.3-1.4-0.5-2.2-0.4c-2.1,0-4.6,1.9-4.6,5.8v9.4h-2.8V8.1h2.3l0.4,2.9
				c1-2.1,2.9-3.2,5.6-3.2C283.5,7.7,284.1,7.8,284.7,8.1z"/>
			<path class="st1" d="M303,23.4l-0.2,2.2c-0.7,0.2-1.4,0.4-2.1,0.4c-1.7,0-2.8-0.6-3.1-2.6c-1.3,1.7-3.4,2.7-5.6,2.6
				c-3.3,0-6-1.5-6-4.7c0-2.6,2.3-4.7,6.8-5.5l4.7-0.8v-1c0-2.3-1.5-3.9-4.1-3.9c-2.2-0.1-4.2,1.3-5,3.3l-2.1-1.5
				c0.9-2.6,3.7-4.3,7.1-4.3c4,0,6.9,1.9,6.9,6v8.6c0,0.8,0.4,1.3,1.3,1.3C302.1,23.6,302.6,23.5,303,23.4z M297.5,19.7v-2.4
				l-3.9,0.7c-3.1,0.6-4.7,1.6-4.7,3.2c0,1.5,1.2,2.2,3.2,2.2C294.9,23.5,297.5,22,297.5,19.7L297.5,19.7z"/>
			<path class="st1" d="M318.8,20.9c0,1.8,0.5,2.4,1.9,2.4c0.9,0,1.7-0.2,2.6-0.5l-0.5,2.7c-0.8,0.3-1.7,0.5-2.6,0.5
				c-2.8,0-4.2-1.5-4.2-4.7V0h2.8V20.9z"/>
			<path class="st1" d="M341.5,23.4l-0.2,2.2c-0.7,0.2-1.4,0.4-2.1,0.4c-1.7,0-2.8-0.6-3.1-2.6c-1.4,1.7-3.5,2.7-5.6,2.6
				c-3.3,0-6-1.5-6-4.7c0-2.6,2.3-4.7,6.8-5.5L336,15v-1c0-2.3-1.5-3.9-4.1-3.9c-2.2-0.1-4.2,1.3-5,3.3l-2.1-1.5
				c0.9-2.6,3.7-4.3,7.1-4.3c4,0,6.9,1.9,6.9,6v8.6c0,0.8,0.4,1.3,1.3,1.3C340.6,23.6,341.1,23.5,341.5,23.4z M336,19.7v-2.4
				l-3.9,0.7c-3.1,0.6-4.7,1.6-4.7,3.2c0,1.5,1.2,2.2,3.2,2.2C333.4,23.5,336,22,336,19.7z"/>
		</g>
		<g>
			<path class="st0" d="M35.2,55.3H23.2c0.1,1.9,1.7,3.3,3.5,3.2c0.1,0,0.1,0,0.2,0c1.8,0,2.8-0.7,3.2-1.9l4.9,1.5c-1,3-4,4.6-8,4.6
				c-6.1,0-9.5-3.3-9.5-9.1s3.3-9.1,9.1-9.1s8.8,3.3,8.8,8.9C35.4,54,35.3,54.6,35.2,55.3z M23.2,52h6.6c-0.3-2.2-1.4-3.4-3.2-3.4
				S23.5,49.7,23.2,52L23.2,52z"/>
			<path class="st0" d="M56.1,37.4v24.9h-5.4L50.5,59c-1,2.3-3.2,3.7-5.7,3.7c-4.5,0-7.2-3.3-7.2-9s2.7-9.2,7.2-9.2
				c2.3-0.1,4.3,1.2,5.3,3.3V37.4H56.1z M50.1,54.2v-1.4c-0.1-2.6-1.3-4-3.2-4s-3.3,1.4-3.3,4.7s1.3,4.7,3.3,4.7S50,56.9,50.1,54.2
				L50.1,54.2z"/>
			<path class="st0" d="M77.4,44.8v17.5h-5.3L71.9,59c-1.1,2.5-3.2,3.6-6,3.6c-3.6,0-6-1.8-6-6.2V44.8h6V55c0,2.4,0.9,3.1,2.4,3.1
				c1.8,0,3.2-1.2,3.2-4v-9.3H77.4z"/>
			<path class="st0" d="M98.1,49.9l-5.5,1.8c-0.2-2-1.1-3-2.7-3c-2.2,0-3.5,1.5-3.5,4.9s1.4,4.8,3.5,4.8c1.7,0,2.6-1,2.9-2.8
				l5.3,1.7c-0.5,3-3.3,5.3-8.2,5.3c-6.1,0-9.4-3.4-9.4-9.1s3.4-9.1,9.2-9.1S97.5,47,98.1,49.9z"/>
			<path class="st0" d="M118.9,58.8l-0.4,3.3c-0.7,0.4-1.6,0.6-2.4,0.6c-2.3,0-4-0.8-4.5-2.7c-1,1.7-3,2.7-6.2,2.7
				c-3.5,0-5.4-1.5-5.4-4.4s1.8-4.8,6.8-5.7l4-0.8v-0.6c0.1-1.3-0.8-2.4-2.1-2.6c-0.1,0-0.3,0-0.4,0c-1.6-0.2-3,0.9-3.2,2.5
				c0,0,0,0.1,0,0.1l-4.8-1.4c0.6-3.3,3.3-5.4,8.1-5.4c5.4,0,8.4,2.2,8.4,6.7v6.4c0,0.9,0.4,1.4,1.3,1.4
				C118.2,58.9,118.6,58.9,118.9,58.8z M110.7,56.3v-1.5l-2.8,0.7c-1.5,0.3-2.1,0.8-2.1,1.8s0.6,1.5,1.7,1.5
				C109,58.8,110.7,57.9,110.7,56.3z"/>
			<path class="st0" d="M137.6,49.9l-5.5,1.8c-0.2-2-1.1-3-2.7-3c-2.2,0-3.5,1.5-3.5,4.9s1.4,4.8,3.5,4.8c1.7,0,2.6-1,2.9-2.8
				l5.4,1.7c-0.5,3-3.3,5.3-8.2,5.3c-6.1,0-9.4-3.4-9.4-9.1s3.4-9.1,9.2-9.1S137,47,137.6,49.9z"/>
			<path class="st0" d="M139.9,39.9c0-2,1.1-2.9,3.5-2.9s3.5,0.9,3.5,2.9s-1,2.8-3.5,2.8S139.9,41.9,139.9,39.9z M146.4,62.3h-6
				V44.8h6V62.3z"/>
			<path class="st0" d="M167.9,53.5c0,5.7-3.4,9.1-9.2,9.1s-9.2-3.4-9.2-9.1s3.4-9.1,9.2-9.1S167.9,47.8,167.9,53.5z M155.4,53.5
				c0,3.4,1.1,4.9,3.3,4.9s3.3-1.4,3.3-4.9s-1.1-4.9-3.3-4.9S155.4,50.1,155.4,53.5z M163.8,36.5l-3.5,6.1H156l2.4-6.1H163.8z"/>
			<path class="st0" d="M188.5,50.7v11.6h-5.9v-10c0-2.5-1-3.3-2.5-3.3c-1.7,0-3.1,1.2-3.1,4.1v9.2H171V44.8h5.3l0.2,3.4
				c1-2.4,3.4-3.9,6-3.7C186.1,44.5,188.5,46.6,188.5,50.7z"/>
			<path class="st0" d="M218.9,55.3h-11.9c0.1,1.9,1.7,3.3,3.5,3.2c0.1,0,0.1,0,0.2,0c1.8,0,2.8-0.7,3.2-1.9l4.8,1.5
				c-1,3-4,4.6-8,4.6c-6.1,0-9.4-3.3-9.4-9.1s3.3-9.1,9.1-9.1s8.7,3.3,8.7,8.9C219,54,219,54.6,218.9,55.3z M206.9,52h6.6
				c-0.3-2.2-1.4-3.4-3.2-3.4S207.2,49.7,206.9,52L206.9,52z"/>
			<path class="st0" d="M239.5,50.7v11.6h-5.9v-10c0-2.5-1-3.3-2.5-3.3c-1.7,0-3.1,1.2-3.1,4.1v9.2h-6V44.8h5.3l0.2,3.4
				c1-2.4,3.4-3.9,6-3.7C237.1,44.5,239.5,46.6,239.5,50.7z"/>
			<path class="st0" d="M253,58.5c7.9-4.9,11-8.5,11-11.8c0.1-1.6-1-3-2.6-3.1c-0.2,0-0.3,0-0.5,0c-2.2,0-3.5,1.6-3.5,4.7l-5.1-1.6
				c0.1-5.1,3.9-7.9,9.1-7.9c6.1,0,8.7,3.8,8.7,7.4c0,4.5-3.5,8-9.8,11.5l0,0c1.1-0.1,3.2-0.1,4.6-0.1h5.4v4.6H253V58.5z"/>
			<path class="st0" d="M273.1,50.8c0-7.9,3.1-11.9,9.6-11.9s9.6,4,9.6,11.9s-3.1,11.9-9.6,11.9S273.1,58.6,273.1,50.8z M286.3,50.8
				c0-5.2-1.1-7.2-3.6-7.2s-3.6,2-3.6,7.2s1.1,7.2,3.6,7.2S286.3,55.9,286.3,50.8z"/>
			<path class="st0" d="M306.4,39.2v23.1h-5.8V45.1c-1.5,1.5-3.4,2.5-5.5,2.9l-0.6-5c2.4-0.3,5.9-2.2,7-3.9L306.4,39.2z"/>
			<path class="st0" d="M328.6,50.9c0,8.3-3.7,11.8-9.8,11.8c-4.2,0-7-1.5-8.5-5l5.4-2.1c0.1,1.6,1.6,2.8,3.2,2.6c0,0,0,0,0,0
				c2.9,0,4.3-2.3,4.3-6.5V51H323c-0.6,2-3,3-5.5,3c-4,0.2-7.3-2.9-7.5-6.9c0-0.1,0-0.3,0-0.4c0-4.9,3.3-7.8,9-7.8
				C325.1,38.8,328.6,43,328.6,50.9z M315.6,46.7c0,2,1.2,3.1,3.3,3.1s3.3-1.2,3.3-3.1s-1.2-3.1-3.3-3.1S315.5,44.7,315.6,46.7
				L315.6,46.7z"/>
		</g>
		<rect id="Rectángulo_973" x="18.1" y="75.6" class="st2" width="358.3" height="57.3"/>
		<g>
			<path class="st3" d="M65.7,100.3v14.3h-4.8l-0.2-3.1c-1.4,2.2-3.9,3.5-7.6,3.5c-7.1,0-12.3-4.8-12.3-13.6c0-8.5,5-13.6,13.2-13.6
				c6,0,9.5,2,11.6,6.8l-6.4,2.5c-0.5-2.4-2.6-4.1-5.1-3.9c-4,0-6.3,2.8-6.3,8.2c0,5.6,2.2,8.3,6.5,8.3c3.1,0,5.4-1.4,5.4-4.4V105
				h-6.6v-4.6L65.7,100.3z"/>
			<path class="st3" d="M84.6,94.7l-0.7,5.8c-0.8-0.4-1.6-0.6-2.5-0.6c-2.4-0.1-4.4,1.8-4.5,4.2c0,0.2,0,0.4,0,0.6v10.1h-6.8v-20h6
				l0.3,4.3c1-3,3-4.7,6.1-4.7C83.2,94.2,83.9,94.3,84.6,94.7z"/>
			<path class="st3" d="M107.2,110.6l-0.5,3.8c-0.8,0.4-1.8,0.6-2.7,0.6c-2.7,0-4.6-0.9-5.2-3.1c-1.1,1.9-3.5,3.1-7.1,3.1
				c-4,0-6.2-1.8-6.2-5s2.1-5.4,7.8-6.6l4.5-0.9v-0.7c0.2-1.5-0.9-2.8-2.3-3c-0.2,0-0.3,0-0.5,0c-1.8-0.2-3.5,1.1-3.7,2.9
				c0,0.1,0,0.2,0,0.2l-5.5-1.6c0.7-3.8,3.8-6.2,9.2-6.2c6.2,0,9.6,2.5,9.6,7.7v7.3c0,1,0.5,1.6,1.4,1.6
				C106.4,110.8,106.8,110.7,107.2,110.6z M97.8,107.8v-1.7l-3.2,0.8c-1.7,0.4-2.4,1-2.4,2.1s0.7,1.7,2,1.7
				C95.9,110.6,97.8,109.6,97.8,107.8z"/>
			<path class="st3" d="M129.6,101.3v13.3h-6.8v-11.4c0-2.8-1.2-3.8-2.8-3.8c-2,0-3.6,1.3-3.6,4.6v10.6h-6.8v-20h6.1l0.2,3.8
				c1.2-2.7,3.9-4.4,6.8-4.2C126.8,94.2,129.6,96.7,129.6,101.3z"/>
			<path class="st3" d="M154.3,86.2v28.5h-6.1l-0.2-3.8c-1.1,2.6-3.7,4.3-6.5,4.2c-5.2,0-8.2-3.8-8.2-10.3s3.1-10.5,8.3-10.5
				c2.6-0.1,4.9,1.4,6,3.8V86.2H154.3z M147.5,105.4v-1.6c-0.2-3-1.5-4.6-3.7-4.6s-3.8,1.6-3.8,5.4s1.4,5.4,3.8,5.4
				C145.9,110,147.3,108.5,147.5,105.4L147.5,105.4z"/>
			<path class="st3" d="M178,106.6h-13.6c0.4,2.6,1.9,3.6,4.2,3.6c2,0,3.2-0.8,3.7-2.2l5.5,1.8c-1.2,3.5-4.6,5.2-9.2,5.2
				c-7,0-10.8-3.8-10.8-10.4s3.8-10.4,10.4-10.4c6.5,0,10,3.8,10,10.1C178.2,105.1,178.1,105.8,178,106.6z M164.3,102.9h7.5
				c-0.3-2.6-1.6-3.9-3.7-3.9S164.7,100.2,164.3,102.9L164.3,102.9z"/>
			<path class="st3" d="M180.2,111.5l3.5-3.8c1.2,2,3.4,2.8,5.9,2.8c1.9,0,3-0.6,3-1.4s-1-1.2-3.6-1.8c-6.1-1.2-8.3-3.2-8.3-6.4
				s3.1-6.6,9.6-6.6c4.8,0,7.4,1.4,9.2,3.8l-3.7,3.6c-1-1.9-3.1-3-5.3-2.8c-2,0-3,0.7-3,1.5s0.9,1.3,3.7,1.8c5.9,1,8.3,2.9,8.3,6.4
				c0,3.7-3.1,6.6-9.5,6.6C185.5,115,182.2,114,180.2,111.5z"/>
			<path class="st3" d="M220.4,107.7c0,1.8,0.4,2.5,1.8,2.5c0.7,0,1.4-0.1,2-0.4l-0.4,4.2c-1.3,0.7-2.7,1-4.2,1
				c-4.3,0-6.1-1.9-6.1-6.3V86.2h6.8L220.4,107.7z"/>
			<path class="st3" d="M246.6,104.6c0,6.6-3.9,10.4-10.6,10.4s-10.6-3.8-10.6-10.4s3.9-10.4,10.5-10.4S246.6,98.1,246.6,104.6z
				 M232.3,104.6c0,3.9,1.2,5.6,3.8,5.6s3.8-1.6,3.8-5.6s-1.2-5.6-3.8-5.6S232.3,100.7,232.3,104.6L232.3,104.6z"/>
			<path class="st3" d="M269.8,116.2c0,4.6-4.5,7-11.2,7c-7.2,0-10.2-1.8-10.2-4.7c0-1.6,1.1-3.1,3.7-3.8c-1.8-0.6-3-2.3-3.1-4.2
				c0.1-1.9,1.4-3.6,3.3-4.1c-2.1-1-3.3-3.2-3.3-5.5c0-4.3,3.6-6.8,9.8-6.8c1.3,0,2.7,0.1,4,0.4c0.5-3.1,2.4-5.7,6.3-5.4l0.8,4.5
				c-2.5-0.3-4.1,0.5-4.7,1.7c2.1,1,3.4,3.2,3.4,5.5c0,4.3-3.5,6.8-9.8,6.8c-1.3,0-2.6-0.1-3.8-0.4c-0.9,0.2-1.2,0.7-1.2,1.4
				c0,0.9,0.7,1.4,2.1,1.4h6.8C267.1,110.2,269.8,112.2,269.8,116.2z M264.5,116.9c0-0.8-0.6-1.3-2.4-1.3h-5.5c-2.2,0-3,0.4-3,1.4
				c0,1.2,1.7,1.8,5.6,1.8C262.7,118.8,264.5,118,264.5,116.9L264.5,116.9z M255.8,101c0.3,1.6,1.8,2.7,3.4,2.5
				c1.3-0.2,2.3-1.2,2.5-2.5c-0.3-1.6-1.8-2.7-3.4-2.5C257,98.7,256,99.7,255.8,101L255.8,101z"/>
			<path class="st3" d="M286.6,94.7l-0.7,5.8c-0.8-0.4-1.6-0.6-2.5-0.6c-2.4-0.1-4.4,1.8-4.5,4.2c0,0.2,0,0.4,0,0.6v10.1h-6.8v-20h6
				l0.3,4.3c1-3,3-4.7,6.1-4.7C285.2,94.2,286,94.3,286.6,94.7z"/>
			<path class="st3" d="M308.9,104.6c0,6.6-3.9,10.4-10.5,10.4s-10.6-3.8-10.6-10.4s3.9-10.4,10.6-10.4S308.9,98.1,308.9,104.6z
				 M294.6,104.6c0,3.9,1.2,5.6,3.8,5.6s3.8-1.6,3.8-5.6s-1.2-5.6-3.8-5.6S294.6,100.7,294.6,104.6L294.6,104.6z"/>
			<path class="st3" d="M311,111.5l3.5-3.8c1.2,2,3.4,2.8,5.9,2.8c1.9,0,3-0.6,3-1.4s-1-1.2-3.6-1.8c-6.1-1.2-8.3-3.2-8.3-6.4
				s3.1-6.6,9.6-6.6c4.8,0,7.4,1.4,9.1,3.8l-3.7,3.6c-1-1.9-3.1-3-5.3-2.8c-2,0-3,0.7-3,1.5s0.9,1.3,3.7,1.8c5.9,1,8.3,2.9,8.3,6.4
				c0,3.7-3.1,6.6-9.5,6.6C316.3,115,313,114,311,111.5z"/>
		</g>
		<path id="Trazado_73333" class="st4" d="M437.6,292.1H159.1l-11.8-12.4l11.8-12.4h278.5V292.1z"/>
		<path id="Trazado_73334" class="st4" d="M437.6,467.4H159.1L147.4,448l11.8-19.4h278.5V467.4z"/>
		<path id="Trazado_73335" class="st4" d="M437.6,403.8H159.1l-11.8-18.5l11.8-18.5h278.5V403.8z"/>
		<path id="Trazado_73336" class="st4" d="M437.6,534H159.1l-11.8-20.3l11.8-20.3h278.5V534z"/>
		<g id="Grupo_6347">
			<path id="Trazado_73337" class="st5" d="M393.5,190.4c-0.1-1.9-2.3-3.3-6.8-4.5c0.1-0.3,0.2-0.7,0.2-1v-7.7l0,0
				c-0.4-6.4-26.5-6.6-29.5-6.6s-29.1,0.2-29.5,6.6l0,0v7.7c0,2.1,2.7,3.7,6.7,4.9c-0.1,0.2-0.1,0.4-0.1,0.6l0,0v7.6
				c-4.3,1.1-6.4,2.6-6.5,4.4l0,0v7.7c0,1.4,1.3,2.7,3.4,3.7c-0.1,0.2-0.1,0.4-0.1,0.7l0,0v7.7c0,3.6,8.2,5.9,17.3,7h0.2h0.1
				c1.8,0.2,3.5,0.4,5.3,0.5h0.1l0,0c2.2,0.1,4.4,0.2,6.5,0.2s4.3-0.1,6.5-0.2h0.1h0.1c1.8-0.1,3.5-0.3,5.3-0.5h0.1
				c0.1,0,0.1,0,0.2,0c9.1-1.1,17.3-3.3,17.3-7v-7.7l0,0c-0.1-1.3-1.2-2.5-3.5-3.4c0.1-0.3,0.2-0.7,0.2-1v-7.2
				c3.9-1.2,6.5-2.8,6.6-4.9L393.5,190.4L393.5,190.4z M384.7,210.5l-0.4,0.3c-0.8,0.7-1.8,1.2-2.8,1.5v-5.2
				c1.1-0.4,2.2-0.9,3.3-1.5v4.5C384.8,210.2,384.8,210.4,384.7,210.5z M360.3,215.6h-0.5h-1.2v-5.4h0.9h0.2c1.1,0,2.2-0.1,3.3-0.1
				v5.5h-0.7C361.6,215.5,360.9,215.5,360.3,215.6L360.3,215.6z M355.5,215.6H354h-0.2l-1.8-0.1V210c1.1,0.1,2.2,0.1,3.3,0.1h0.2
				h0.9v5.5L355.5,215.6L355.5,215.6z M335.8,213.1h-0.1v-5.3c1,0.3,2.1,0.5,3.3,0.8v5.3c-1-0.2-1.9-0.4-2.8-0.7L335.8,213.1
				L335.8,213.1z M358.8,222.1h0.9v5.5c-1.5,0-3,0-4.4-0.1V222c1.1,0.1,2.2,0.1,3.3,0.1L358.8,222.1z M362.9,222.1
				c1.1,0,2.2-0.1,3.3-0.1v5.5c-1.4,0.1-2.9,0.1-4.4,0.1v-5.5L362.9,222.1L362.9,222.1z M371.7,221.6v5.4c-1,0.1-2.1,0.2-3.3,0.3
				v-5.5C369.5,221.8,370.6,221.8,371.7,221.6L371.7,221.6z M373.9,221.4c1.1-0.1,2.2-0.3,3.3-0.5v5.4c-1,0.2-2.1,0.3-3.3,0.5V221.4
				z M379.3,220.5c1.2-0.2,2.3-0.5,3.3-0.8v5.3c-1,0.3-2.1,0.6-3.3,0.8V220.5z M342.2,220.5v5.4c-1.2-0.3-2.3-0.5-3.3-0.8v-5.3
				C339.9,220.1,341,220.3,342.2,220.5L342.2,220.5z M344.4,220.9c1.1,0.2,2.1,0.3,3.3,0.5v5.4c-1.2-0.2-2.2-0.3-3.3-0.5V220.9z
				 M349.8,221.6c1.1,0.1,2.2,0.2,3.3,0.3v5.5c-1.1-0.1-2.2-0.2-3.3-0.3V221.6z M347.1,215.1h-0.3h-0.2v-5.4
				c1.1,0.1,2.2,0.2,3.3,0.3v5.5L347.1,215.1z M344.4,209.3v5.4c-1.1-0.1-2.2-0.3-3.3-0.5v-5.4C342.1,209,343.2,209.2,344.4,209.3z
				 M365.9,215.2l-0.7,0.1v-5.5c1.1-0.1,2.2-0.2,3.3-0.3v5.4l-2.1,0.2L365.9,215.2L365.9,215.2z M370.6,214.7v-5.4
				c1.1-0.1,2.2-0.3,3.3-0.5v5.4C372.9,214.4,371.7,214.6,370.6,214.7L370.6,214.7z M376,208.5c1.2-0.2,2.3-0.5,3.3-0.8v5.3
				c-1,0.3-2.1,0.6-3.3,0.8V208.5z M361.1,203.5c-0.8,0-1.6,0-2.4-0.1h-0.1v-5.5c1.1,0.1,2.2,0.1,3.3,0.1h1.1v5.5h-1.6L361.1,203.5
				L361.1,203.5z M335.6,187.8v-5.3c1,0.3,2.1,0.5,3.3,0.8v5.4l-0.4-0.1l-1.7-0.4C336.4,188,336,187.9,335.6,187.8L335.6,187.8z
				 M355.5,184.8h0.9v5.5c-1.5,0-2.9,0-4.4-0.1v-5.5c1.1,0.1,2.2,0.1,3.3,0.1L355.5,184.8z M359.6,184.8l3.3-0.1v5.5h-0.6h0
				l-2.2,0.1h-1.5v-5.5L359.6,184.8L359.6,184.8z M384.5,185.4L384.5,185.4l-0.4,0.3c-0.8,0.6-1.7,1-2.6,1.4v-5.2
				c1.1-0.4,2.2-0.9,3.3-1.5v4.5C384.8,185.1,384.7,185.3,384.5,185.4L384.5,185.4z M370.5,189.5v-5.4c1.1-0.1,2.2-0.3,3.3-0.5v5.4
				C372.8,189.2,371.7,189.4,370.5,189.5L370.5,189.5z M376,188.6v-5.3c1.2-0.2,2.2-0.5,3.3-0.8v5.3
				C378.3,188.1,377.2,188.4,376,188.6L376,188.6z M368.4,184.4v5.4c-1,0.1-2.1,0.2-3.3,0.3v-5.5
				C366.2,184.6,367.4,184.5,368.4,184.4L368.4,184.4z M346.5,189.8v-5.4c1.1,0.1,2.2,0.2,3.3,0.3v5.5
				C348.7,190,347.6,189.9,346.5,189.8L346.5,189.8z M344.3,184.1v5.4l-0.7-0.1l-0.4-0.1l-1.9-0.3L341,189v-5.4
				C342.1,183.8,343.2,184,344.3,184.1L344.3,184.1z M356.1,203.2h-0.4c-0.7,0-1.4-0.1-2-0.2h-0.4h-0.1v-5.4
				c1.1,0.1,2.2,0.2,3.3,0.3v5.5L356.1,203.2z M348.9,202.4l-1.3-0.2v-5.4c1.1,0.2,2.2,0.3,3.3,0.5v5.4L348.9,202.4L348.9,202.4
				L348.9,202.4z M345.4,196.4v5.4c-1.2-0.3-2.3-0.5-3.3-0.8v-5.3C343.1,195.9,344.3,196.2,345.4,196.4z M340,195v5.2
				c-1.7-0.7-2.8-1.3-3.2-2l-0.1-0.1c0,0,0-0.1,0-0.1v-4.5C337.8,194.1,338.9,194.6,340,195z M366.2,198c1.1,0,2.2-0.1,3.3-0.1v5.5
				c-1.4,0.1-2.9,0.1-4.4,0.1V198H366.2z M380.3,202.2l-1.5,0.2l-0.9,0.1l-0.9,0.1v-5.4c1.1-0.1,2.2-0.3,3.3-0.5v5.4L380.3,202.2
				L380.3,202.2z M372.9,203.1c-0.4,0-0.8,0.1-1.2,0.1v-5.5c1.1-0.1,2.2-0.2,3.3-0.3v5.5l-1.9,0.2L372.9,203.1z M385.4,201.1
				c-0.5,0.1-1.1,0.3-1.7,0.4l-0.8,0.2l-0.3,0.1v-5.4c1.2-0.2,2.3-0.5,3.3-0.8v5.3L385.4,201.1L385.4,201.1z M391.3,190.5
				c-0.1,0.8-1.8,1.7-4.8,2.7c-5.7,1.6-11.6,2.4-17.5,2.6l-1.2,0.1h-1c-0.9,0-1.8,0-2.8,0s-1.9,0-2.8,0h-1l-1.2-0.1
				c-5.9-0.2-11.9-1-17.6-2.6c-3-0.9-4.6-1.9-4.8-2.6c0,0,0,0,0-0.1l0.2,0.1l1.3,0.3c2.2,0.5,4.6,0.9,7.1,1.1l0,0
				c1.7,0.2,3.5,0.4,5.4,0.5h0.2c1.3,0.1,2.7,0.1,4.1,0.2c0.8,0,1.7,0,2.5,0h1.8c6.9,0,13.7-0.8,20.4-2.5l0.7-0.2l0.4-0.1
				c0.4-0.1,0.8-0.3,1.1-0.4l0.2-0.1l0.9-0.4l0.2-0.1l0.9-0.4c0.1-0.1,0.2-0.1,0.3-0.2l0.4-0.2l0.2-0.1
				C389.9,188.8,391.2,190,391.3,190.5L391.3,190.5z M357.5,172.8c18,0,27.1,2.8,27.3,4.5c-0.1,0.8-1.8,1.7-4.8,2.6
				c-5.7,1.6-11.6,2.5-17.6,2.6l-1.2,0.1h-1c-0.9,0-1.8,0-2.8,0s-1.9,0-2.8,0c-0.3,0-0.7,0-1,0l-1.2-0.1c-5.9-0.2-11.8-1.1-17.5-2.7
				c-3-0.9-4.6-1.9-4.8-2.6C330.4,175.7,339.5,172.8,357.5,172.8L357.5,172.8z M330.2,184.9v-4.5c1,0.6,2.1,1.1,3.3,1.5v5.2
				C331.3,186.3,330.2,185.5,330.2,184.9z M335.5,200.1C335.5,200.1,335.5,200.1,335.5,200.1c1.5,1.5,4.6,2.7,8.5,3.6l0.3,0.1
				l0.9,0.2c4.1,0.8,8.2,1.4,12.4,1.6l0,0c1.5,0.1,3,0.1,4.5,0.2h2h2.3c1.4,0,2.8-0.1,4.2-0.2h0c4.2-0.2,8.5-0.8,12.6-1.6
				c-1,0.5-2.1,0.9-3.2,1.3c-6.2,1.7-12.5,2.6-18.9,2.7h-0.7h-0.8h-2.1c-1,0-1.9,0-2.8,0h-1h-1.2c-5.9-0.2-11.8-1.1-17.5-2.7
				c-3-0.9-4.7-1.9-4.8-2.7C330.4,202.1,331.5,201.1,335.5,200.1L335.5,200.1z M330.2,210.1v-4.6c1,0.6,2.1,1.1,3.3,1.5v5.2
				l-0.6-0.2l0,0C331.1,211.3,330.2,210.6,330.2,210.1L330.2,210.1z M333.4,222.1v-4.5c1,0.6,2.1,1.1,3.3,1.5v5.2
				C334.6,223.6,333.4,222.8,333.4,222.1L333.4,222.1z M384.8,224.4v-5.2c1.1-0.4,2.2-0.9,3.3-1.5v4.5
				C388.1,222.8,386.9,223.6,384.8,224.4z M388,214.5c-0.1,0.7-1.8,1.7-4.8,2.6c-5.7,1.6-11.6,2.5-17.6,2.6h-1.2h-1
				c-0.9,0-1.8,0-2.8,0s-1.9,0-2.8,0h-1h-1.2c-5.9-0.2-11.8-1-17.6-2.6c-2.9-0.9-4.6-1.9-4.8-2.6l1,0.3h0.1l0.9,0.3l0.4,0.1l0.5,0.1
				c4.8,1.1,9.6,1.8,14.5,2.1l0,0c1.7,0.1,3.4,0.2,5.2,0.2h3.2c1.6,0,3.2-0.1,4.7-0.2l0,0c1.9-0.1,3.7-0.3,5.4-0.5h0.1
				c2-0.2,3.8-0.5,5.5-0.8l1-0.2l0.2-0.1c2.8-0.5,5.4-1.4,7.9-2.6l0.3-0.2l0.4-0.2c0.1-0.1,0.2-0.1,0.3-0.2c2.2,0.8,2.8,1.5,2.8,1.7
				L388,214.5z M388,200.2V195c1.1-0.4,2.2-0.9,3.3-1.5v4.5C391.3,198.6,390.2,199.4,388,200.2L388,200.2z"/>
		</g>
		<line id="Línea_129" class="st6" x1="19.1" y1="246.7" x2="19.1" y2="146.1"/>
		<g class="st7">
			<path class="st0" d="M55.3,218.6h-2.8v4.1h-4.3v-4.1h-9.3v-2.3l7.9-12.2h5.6v11.1h2.8V218.6z M43.4,215.3h4.8v-4.9l0.1-3h-0.1
				c-0.4,1-1,2.1-1.6,3L43.4,215.3z"/>
		</g>
		<g class="st7">
			<path class="st0" d="M62.1,220.4c0,1.6-1.1,2.5-2.8,2.5c-1.7,0-2.8-1-2.8-2.5c0-1.6,1.1-2.5,2.8-2.5
				C61.1,217.8,62.1,218.8,62.1,220.4z"/>
			<path class="st0" d="M78.1,216.3c0,4.5-3.2,6.6-7.2,6.6c-3.3,0-5.6-1-7.2-3.7l4.2-2.4c0.3,1.5,1,2.5,3,2.5c1.7,0,2.8-0.9,2.8-2.6
				c0-1.7-1-2.6-2.8-2.6c-1.3,0-2.3,0.3-2.9,1.1l-3.6-0.5l1.2-10.4H77v3.7h-8l-0.4,3.5c-0.1,0.4-0.1,0.6-0.1,0.7h0
				c0.8-0.8,2.2-1.3,3.8-1.3C75.9,210.7,78.1,213,78.1,216.3z"/>
			<path class="st0" d="M102.5,215.7c0,4.6-2.1,7.2-5.8,7.2c-2.3,0-3.9-1.3-4.7-3.2l-0.1,3h-4.2v-19.9h4.8v8.3
				c0.8-1.6,2.2-2.6,4.2-2.6C100.3,208.3,102.5,211,102.5,215.7z M97.7,215.6c0-2.6-1-3.8-2.6-3.8c-1.7,0-2.6,1.3-2.6,3.6v0.3
				c0,2.4,1,3.6,2.6,3.6C96.7,219.4,97.7,218.3,97.7,215.6z"/>
			<path class="st0" d="M104.4,204.7c0-1.6,0.8-2.3,2.8-2.3c1.9,0,2.8,0.7,2.8,2.3c0,1.6-0.8,2.3-2.8,2.3
				C105.2,207,104.4,206.3,104.4,204.7z M109.5,222.6h-4.8v-14h4.8V222.6z"/>
			<path class="st0" d="M117.1,217.8c0,1.2,0.3,1.7,1.3,1.7c0.6,0,0.9-0.1,1.4-0.3l-0.3,2.9c-0.7,0.4-1.9,0.7-2.9,0.7
				c-3,0-4.3-1.3-4.3-4.4v-15.8h4.8V217.8z"/>
			<path class="st0" d="M125.7,217.8c0,1.2,0.3,1.7,1.3,1.7c0.6,0,0.9-0.1,1.4-0.3l-0.3,2.9c-0.7,0.4-1.9,0.7-2.9,0.7
				c-3,0-4.3-1.3-4.3-4.4v-15.8h4.8V217.8z"/>
			<path class="st0" d="M143.7,215.6c0,4.6-2.7,7.3-7.4,7.3s-7.4-2.7-7.4-7.3s2.7-7.3,7.4-7.3S143.7,211,143.7,215.6z M133.6,215.6
				c0,2.7,0.9,3.9,2.6,3.9s2.6-1.1,2.6-3.9s-0.9-3.9-2.6-3.9S133.6,212.9,133.6,215.6z"/>
			<path class="st0" d="M159.9,213.3v9.3h-4.8v-8c0-2-0.8-2.6-2-2.6c-1.4,0-2.5,0.9-2.5,3.2v7.4h-4.8v-14h4.3l0.1,2.7
				c0.9-2,2.6-3,4.8-3C157.9,208.3,159.9,210,159.9,213.3z"/>
			<path class="st0" d="M176.1,217h-9.5c0.3,1.8,1.3,2.5,2.9,2.5c1.4,0,2.3-0.6,2.6-1.5l3.9,1.2c-0.8,2.4-3.2,3.7-6.4,3.7
				c-4.9,0-7.6-2.7-7.6-7.3s2.6-7.3,7.3-7.3c4.6,0,7,2.7,7,7.1C176.3,215.9,176.2,216.6,176.1,217z M166.6,214.4h5.3
				c-0.2-1.8-1.1-2.7-2.6-2.7C167.7,211.7,166.8,212.5,166.6,214.4z"/>
			<path class="st0" d="M177.3,220.4l2.5-2.7c0.8,1.4,2.4,2,4.1,2c1.3,0,2.1-0.4,2.1-1c0-0.5-0.7-0.9-2.5-1.3
				c-4.3-0.8-5.8-2.2-5.8-4.5s2.2-4.6,6.7-4.6c3.4,0,5.2,1,6.4,2.6l-2.6,2.5c-0.8-1.4-2-2-3.7-2c-1.4,0-2.1,0.5-2.1,1.1
				c0,0.6,0.6,0.9,2.6,1.3c4.1,0.7,5.8,2,5.8,4.5c0,2.6-2.2,4.6-6.7,4.6C181.1,222.9,178.8,222.2,177.3,220.4z"/>
		</g>
		<g>
			<path class="st8" d="M173.1,280.3c0,3-1.8,4.6-4.6,4.6h-3v-9.2h3C171.4,275.6,173.1,277.3,173.1,280.3z M171.9,280.3
				c0-2.2-1.2-3.6-3.4-3.6h-2v7.1h2C170.7,283.9,171.9,282.5,171.9,280.3L171.9,280.3z"/>
			<path class="st8" d="M181,281.8h-5.3c0,1.2,1,2.2,2.2,2.2c0,0,0.1,0,0.1,0c0.8,0.1,1.6-0.3,2-1l0.9,0.5c-0.6,1-1.8,1.6-2.9,1.5
				c-2.1,0-3.4-1.4-3.4-3.6s1.2-3.6,3.3-3.6c1.7-0.1,3,1.2,3.1,2.9c0,0.1,0,0.3,0,0.4C181,281.3,181,281.5,181,281.8z M175.7,280.8
				h4.2c-0.2-1.3-0.9-2.1-2.1-2.1C176.8,278.7,175.7,279.6,175.7,280.8C175.7,280.8,175.7,280.8,175.7,280.8L175.7,280.8z"/>
			<path class="st8" d="M182.1,283.5l0.9-0.6c0.4,0.8,1.3,1.3,2.2,1.2c1.1,0,1.7-0.5,1.7-1s-0.4-0.8-1.8-1.1c-2-0.4-2.7-0.9-2.7-2.1
				s1.1-2.1,2.8-2.1c1.5,0,2.4,0.5,2.8,1.7L187,280c-0.2-0.8-1-1.4-1.8-1.3c-0.9,0-1.6,0.5-1.6,1s0.5,0.9,1.9,1.1
				c2,0.3,2.7,0.9,2.7,2.1s-1.1,2.1-2.9,2.1C183.9,285.1,182.8,284.5,182.1,283.5z"/>
			<path class="st8" d="M194.1,284.4c-0.5,0.4-1.1,0.7-1.8,0.6c-1,0.1-1.8-0.6-1.9-1.6c0-0.1,0-0.2,0-0.3v-4.3h-1.4v-1h1.4v-1.7
				l1.1-0.3v2h2.6v1h-2.6v4.1c0,0.6,0.4,1,1,1c0.5,0,0.9-0.2,1.2-0.5L194.1,284.4z"/>
			<path class="st8" d="M195,275.7c0-0.5,0.4-0.8,0.8-0.8s0.8,0.4,0.8,0.8c0,0.5-0.4,0.8-0.8,0.8l0,0c-0.4,0-0.8-0.3-0.8-0.7
				C195,275.8,195,275.7,195,275.7z M196.4,284.9h-1.1v-7h1.1V284.9z"/>
			<path class="st8" d="M204.8,280.4v4.5h-1.1v-4.1c0-1.6-0.8-2.1-1.7-2.1c-1.2,0-2.2,0.9-2.2,2.1c0,0.1,0,0.2,0,0.3v3.7h-1.1v-7h1
				l0.1,1.1c0.8-1.3,2.6-1.6,3.8-0.8C204.4,278.7,204.8,279.5,204.8,280.4L204.8,280.4z"/>
			<path class="st8" d="M213.3,284l-0.1,0.9c-0.3,0.1-0.6,0.1-0.8,0.1c-0.6,0.1-1.2-0.3-1.3-0.9c0,0,0-0.1,0-0.1
				c-0.6,0.7-1.4,1-2.3,1c-1.3,0-2.4-0.6-2.4-1.9c0-1,0.9-1.9,2.7-2.2l1.9-0.3v-0.4c0-0.8-0.6-1.5-1.4-1.6c-0.1,0-0.2,0-0.3,0
				c-0.9,0-1.7,0.5-2,1.3l-0.8-0.6c0.5-1.1,1.6-1.8,2.8-1.7c1.6,0,2.8,0.8,2.8,2.4v3.4c0,0.3,0.1,0.5,0.5,0.5
				C212.9,284.1,213.1,284,213.3,284z M211.1,282.5v-1l-1.6,0.3c-1.2,0.2-1.9,0.6-1.9,1.3s0.5,0.9,1.3,0.9
				C210.1,284.1,211.1,283.5,211.1,282.5L211.1,282.5z"/>
			<path class="st8" d="M220.8,274.7v10.2h-1l-0.1-1.2c-0.5,0.9-1.4,1.4-2.4,1.4c-2,0-3.2-1.4-3.2-3.6s1.2-3.6,3.2-3.6
				c0.9,0,1.8,0.4,2.3,1.2v-4.3L220.8,274.7z M219.7,281.5v-0.2c0-1.6-0.9-2.6-2.2-2.6s-2.2,1-2.2,2.7s0.8,2.7,2.2,2.7
				S219.7,283.1,219.7,281.5z"/>
			<path class="st8" d="M229.4,281.4c0,2.3-1.3,3.6-3.4,3.6s-3.4-1.4-3.4-3.6s1.3-3.6,3.4-3.6S229.4,279.1,229.4,281.4z
				 M223.7,281.4c0,1.7,0.9,2.7,2.3,2.7s2.3-1,2.3-2.7s-0.9-2.7-2.3-2.7S223.7,279.7,223.7,281.4L223.7,281.4z"/>
			<path class="st8" d="M230.6,283.5l0.9-0.6c0.4,0.8,1.3,1.3,2.2,1.2c1.1,0,1.7-0.5,1.7-1s-0.4-0.8-1.8-1.1c-2-0.4-2.7-0.9-2.7-2.1
				s1.1-2.1,2.8-2.1c1.5,0,2.4,0.5,2.8,1.7l-0.9,0.6c-0.2-0.8-1-1.4-1.8-1.3c-0.9,0-1.6,0.5-1.6,1s0.5,0.9,1.9,1.1
				c2,0.3,2.7,0.9,2.7,2.1s-1.1,2-2.9,2C232.4,285.1,231.2,284.5,230.6,283.5z"/>
			<path class="st8" d="M249,284l-0.1,0.9c-0.3,0.1-0.6,0.1-0.8,0.1c-0.6,0.1-1.2-0.3-1.3-0.9c0,0,0,0,0-0.1c-0.6,0.7-1.4,1-2.2,1
				c-1.3,0-2.4-0.6-2.4-1.9c0-1,0.9-1.9,2.7-2.2l1.9-0.3v-0.4c0-0.8-0.6-1.5-1.4-1.6c-0.1,0-0.2,0-0.2,0c-0.9,0-1.7,0.5-2,1.3
				l-0.8-0.6c0.5-1.1,1.6-1.8,2.8-1.7c1.6,0,2.8,0.8,2.8,2.4v3.4c0,0.3,0.1,0.5,0.5,0.5C248.6,284.1,248.8,284,249,284z
				 M246.8,282.5v-1l-1.6,0.3c-1.2,0.2-1.9,0.6-1.9,1.3s0.5,0.9,1.3,0.9C245.7,284.1,246.8,283.5,246.8,282.5L246.8,282.5z"/>
			<path class="st8" d="M255.4,283c0,0.7,0.2,0.9,0.8,0.9c0.3,0,0.7-0.1,1-0.2l-0.2,1.1c-0.3,0.1-0.7,0.2-1,0.2
				c-1.1,0-1.7-0.6-1.7-1.9v-8.5h1.1L255.4,283z"/>
			<path class="st8" d="M264.6,284l-0.1,0.9c-0.3,0.1-0.6,0.1-0.8,0.1c-0.6,0.1-1.2-0.3-1.3-0.9c0,0,0,0,0-0.1c-0.6,0.7-1.4,1-2.2,1
				c-1.3,0-2.4-0.6-2.4-1.9c0-1,0.9-1.9,2.7-2.2l1.9-0.3v-0.4c0-0.8-0.6-1.5-1.4-1.6c-0.1,0-0.2,0-0.2,0c-0.9,0-1.7,0.5-2,1.3
				l-0.8-0.6c0.5-1.1,1.6-1.8,2.8-1.7c1.6,0,2.8,0.8,2.8,2.4v3.4c0,0.3,0.1,0.5,0.5,0.5C264.2,284.1,264.4,284,264.6,284z
				 M262.4,282.5v-1l-1.6,0.3c-1.2,0.2-1.9,0.6-1.9,1.3s0.5,0.9,1.3,0.9C261.3,284.1,262.4,283.5,262.4,282.5L262.4,282.5z"/>
			<path class="st8" d="M276.6,281.4c0,2.3-1.2,3.6-3.2,3.6c-1,0-1.9-0.5-2.4-1.4l-0.1,1.2h-1v-10.2h1.1v4.3
				c0.5-0.8,1.4-1.3,2.3-1.2C275.4,277.8,276.6,279.1,276.6,281.4z M275.5,281.4c0-1.6-0.8-2.7-2.2-2.7s-2.2,1-2.2,2.6v0.2
				c0,1.6,0.9,2.6,2.2,2.6S275.5,283,275.5,281.4z"/>
			<path class="st8" d="M284.7,284l-0.1,0.9c-0.3,0.1-0.6,0.1-0.8,0.1c-0.6,0.1-1.2-0.3-1.3-0.9c0,0,0-0.1,0-0.1
				c-0.6,0.7-1.4,1-2.3,1c-1.3,0-2.4-0.6-2.4-1.9c0-1,0.9-1.9,2.7-2.2l1.9-0.3v-0.4c0-0.8-0.6-1.5-1.4-1.6c-0.1,0-0.2,0-0.2,0
				c-0.9,0-1.7,0.5-2,1.3l-0.8-0.6c0.5-1.1,1.6-1.8,2.8-1.7c1.6,0,2.8,0.8,2.8,2.4v3.4c0,0.3,0.1,0.5,0.5,0.5
				C284.4,284.1,284.5,284,284.7,284z M282.5,282.5v-1l-1.6,0.3c-1.2,0.2-1.9,0.6-1.9,1.3s0.5,0.9,1.3,0.9
				C281.5,284.1,282.5,283.5,282.5,282.5L282.5,282.5z"/>
			<path class="st8" d="M285.4,283.5l0.9-0.6c0.4,0.8,1.3,1.3,2.2,1.2c1.1,0,1.7-0.5,1.7-1s-0.4-0.8-1.8-1.1c-2-0.4-2.7-0.9-2.7-2.1
				s1-2.1,2.8-2.1c1.5,0,2.4,0.5,2.8,1.7l-1,0.6c-0.2-0.8-1-1.4-1.8-1.3c-0.9,0-1.6,0.5-1.6,1s0.5,0.9,1.9,1.1
				c2,0.3,2.7,0.9,2.7,2.1s-1.1,2.1-2.9,2.1C287.2,285.1,286,284.5,285.4,283.5z"/>
			<path class="st8" d="M299,281.8h-5.3c0,1.2,1,2.2,2.2,2.2c0,0,0.1,0,0.1,0c0.8,0.1,1.6-0.3,2-1l0.9,0.5c-0.6,1-1.7,1.6-2.9,1.5
				c-2.1,0-3.4-1.4-3.4-3.6s1.2-3.6,3.3-3.6c1.7-0.1,3,1.2,3.1,2.9c0,0.1,0,0.3,0,0.4C299,281.3,299,281.5,299,281.8z M293.7,280.8
				h4.3c-0.2-1.3-0.9-2.1-2.1-2.1C294.8,278.7,293.8,279.6,293.7,280.8C293.7,280.8,293.7,280.8,293.7,280.8L293.7,280.8z"/>
		</g>
		<g>
			<path class="st8" d="M85.4,261.9v13.2H82v-9.8c-0.9,0.8-1.9,1.4-3.1,1.7l-0.3-2.9c1.5-0.3,3-1,4-2.2H85.4z"/>
			<path class="st8" d="M91.8,274.2c0,1.8-1.1,3.4-2.8,4l-1.5-1.1c1.1-0.3,2-1.1,2.4-2.1l0,0c-0.2,0.2-0.4,0.2-0.6,0.2
				c-0.9,0-1.6-0.7-1.7-1.6c0,0,0-0.1,0-0.1c-0.1-1,0.7-1.8,1.7-1.9c0.1,0,0.2,0,0.3,0C91.1,271.6,91.8,272.8,91.8,274.2z"/>
			<path class="st8" d="M103.3,265.4c0.1,1.5-1,2.9-2.5,3v0.1c1.5,0,2.8,1.3,2.7,2.8c0,0.1,0,0.1,0,0.2c0,2.3-2.1,3.8-5.1,3.8
				c-2.8,0-4.5-1-5.2-3.3l3.1-1.3c0.1,1.4,0.9,2,2,2s1.9-0.6,1.8-1.6s-0.6-1.4-2-1.4h-0.7v-2.2h0.6c1.3,0,1.8-0.5,1.8-1.5
				c0.1-0.8-0.4-1.5-1.2-1.6c-0.1,0-0.2,0-0.4,0c-0.9-0.1-1.8,0.6-1.8,1.6c0,0.1,0,0.1,0,0.2l-3-1c0.5-2.5,2.5-3.4,5.1-3.4
				C101.6,261.7,103.3,263.1,103.3,265.4z"/>
			<path class="st8" d="M116.9,272.2h-2v2.9h-3v-2.9h-6.6v-1.6l5.7-8.7h4v8h2L116.9,272.2z M108.4,269.8h3.4v-3.5l0.1-2.2l0,0
				c-0.3,0.8-0.7,1.5-1.2,2.2L108.4,269.8z"/>
		</g>
		<g class="st7">
			<path class="st8" d="M47.1,177.2v1.4h-8.6v-11.9h8.3v1.4h-6.9v3.8h5.4v1.4h-5.4v4H47.1z"/>
		</g>
		<g class="st7">
			<path class="st8" d="M50.6,176.1c0,0.9,0.2,1.2,1,1.2c0.5,0,0.8-0.1,1.3-0.3l-0.2,1.4c-0.4,0.2-0.9,0.3-1.3,0.3
				c-1.5,0-2.2-0.8-2.2-2.4v-10.9h1.4V176.1z"/>
		</g>
		<g class="st7">
			<path class="st8" d="M68,174c0,2.9-1.6,4.7-4.1,4.7c-1.4,0-2.4-0.6-3-1.6v5.2h-1.4v-12.8h1.3l0.1,1.6c0.5-1,1.7-1.7,3.1-1.7
				C66.4,169.4,68,171.1,68,174z M66.6,174c0-2.1-1.1-3.4-2.8-3.4c-1.7,0-2.8,1.3-2.8,3.3v0.2c0,2,1.1,3.3,2.8,3.3
				C65.5,177.5,66.6,176.1,66.6,174z"/>
		</g>
		<g class="st7">
			<path class="st8" d="M75.5,169.5l-0.3,1.4c-0.3-0.1-0.7-0.2-1.1-0.2c-1.1,0-2.4,1-2.4,3v4.9h-1.4v-9h1.2l0.2,1.5
				c0.5-1.1,1.5-1.7,2.9-1.7C74.8,169.4,75.2,169.4,75.5,169.5z"/>
		</g>
		<g class="st7">
			<path class="st8" d="M84.5,174.6h-6.8c0.2,1.8,1.3,2.9,2.9,2.9c1.3,0,2.2-0.5,2.5-1.3l1.2,0.6c-0.7,1.2-1.8,2-3.7,2
				c-2.7,0-4.4-1.8-4.4-4.7s1.5-4.7,4.2-4.7c2.6,0,4,1.9,4,4.2C84.6,174,84.6,174.3,84.5,174.6z M77.8,173.3h5.5
				c-0.2-1.7-1.1-2.7-2.6-2.7C79,170.6,78,171.6,77.8,173.3z"/>
			<path class="st8" d="M86,176.7l1.2-0.8c0.4,1.1,1.5,1.6,2.8,1.6c1.5,0,2.2-0.6,2.2-1.3c0-0.7-0.6-1.1-2.4-1.4
				c-2.6-0.5-3.5-1.2-3.5-2.7c0-1.5,1.4-2.7,3.5-2.7c1.9,0,3.1,0.7,3.6,2.2l-1.2,0.7c-0.4-1.2-1.2-1.6-2.3-1.6
				c-1.2,0-2.1,0.6-2.1,1.3c0,0.8,0.6,1.2,2.4,1.5c2.5,0.4,3.4,1.2,3.4,2.6c0,1.6-1.5,2.7-3.8,2.7C88.2,178.7,86.7,178.1,86,176.7z"
				/>
			<path class="st8" d="M103.6,169.5v9h-1.3l-0.1-1.4c-0.6,1.1-1.8,1.5-3.2,1.5c-1.8,0-3.3-0.9-3.3-3.3v-5.9h1.4v5.5
				c0,1.9,0.8,2.4,2.1,2.4c1.5,0,2.9-0.9,2.9-3v-4.9H103.6z"/>
			<path class="st8" d="M114.9,174c0,2.9-1.6,4.7-4.1,4.7c-1.4,0-2.4-0.6-3-1.6v5.2h-1.4v-12.8h1.3l0.1,1.6c0.5-1,1.7-1.7,3.1-1.7
				C113.3,169.4,114.9,171.1,114.9,174z M113.5,174c0-2.1-1.1-3.4-2.8-3.4c-1.7,0-2.8,1.3-2.8,3.3v0.2c0,2,1.1,3.3,2.8,3.3
				C112.4,177.5,113.5,176.1,113.5,174z"/>
			<path class="st8" d="M125,169.5v9h-1.3l-0.1-1.4c-0.6,1.1-1.8,1.5-3.2,1.5c-1.8,0-3.3-0.9-3.3-3.3v-5.9h1.4v5.5
				c0,1.9,0.8,2.4,2.1,2.4c1.5,0,2.9-0.9,2.9-3v-4.9H125z"/>
			<path class="st8" d="M135.5,174.6h-6.8c0.2,1.8,1.3,2.9,2.9,2.9c1.3,0,2.2-0.5,2.5-1.3l1.2,0.6c-0.7,1.2-1.8,2-3.7,2
				c-2.7,0-4.4-1.8-4.4-4.7s1.5-4.7,4.2-4.7c2.6,0,4,1.9,4,4.2C135.6,174,135.5,174.3,135.5,174.6z M128.7,173.3h5.5
				c-0.2-1.7-1.1-2.7-2.6-2.7C129.9,170.6,128.9,171.6,128.7,173.3z"/>
			<path class="st8" d="M137,176.7l1.2-0.8c0.4,1.1,1.5,1.6,2.8,1.6c1.5,0,2.2-0.6,2.2-1.3c0-0.7-0.6-1.1-2.4-1.4
				c-2.6-0.5-3.5-1.2-3.5-2.7c0-1.5,1.4-2.7,3.5-2.7c1.9,0,3.1,0.7,3.6,2.2l-1.2,0.7c-0.4-1.2-1.2-1.6-2.3-1.6
				c-1.2,0-2.1,0.6-2.1,1.3c0,0.8,0.6,1.2,2.4,1.5c2.5,0.4,3.4,1.2,3.4,2.6c0,1.6-1.5,2.7-3.8,2.7
				C139.2,178.7,137.6,178.1,137,176.7z"/>
			<path class="st8" d="M152.2,177.9c-0.6,0.5-1.3,0.8-2.3,0.8c-1.3,0-2.5-0.7-2.5-2.4v-5.5h-1.8v-1.2h1.8v-2.2l1.4-0.4v2.6h3.3v1.2
				h-3.3v5.3c0,0.9,0.6,1.3,1.4,1.3c0.6,0,1.1-0.3,1.5-0.7L152.2,177.9z"/>
			<path class="st8" d="M161.9,174c0,2.9-1.6,4.7-4.4,4.7s-4.4-1.8-4.4-4.7s1.6-4.7,4.4-4.7S161.9,171.1,161.9,174z M154.6,174
				c0,2.1,1.1,3.4,2.9,3.4s2.9-1.3,2.9-3.4s-1.1-3.4-2.9-3.4S154.6,171.9,154.6,174z"/>
			<path class="st8" d="M177.8,165.4v13.1h-1.3l-0.1-1.6c-0.5,1-1.7,1.7-3.1,1.7c-2.5,0-4.1-1.7-4.1-4.7c0-2.9,1.6-4.7,4.1-4.7
				c1.4,0,2.4,0.6,3,1.6v-5.5H177.8z M176.3,174.1v-0.2c0-2-1.1-3.3-2.8-3.3c-1.8,0-2.8,1.3-2.8,3.4c0,2.1,1.1,3.4,2.8,3.4
				C175.2,177.5,176.3,176.2,176.3,174.1z"/>
			<path class="st8" d="M188.3,174.6h-6.8c0.2,1.8,1.3,2.9,2.9,2.9c1.3,0,2.2-0.5,2.5-1.3l1.2,0.6c-0.7,1.2-1.8,2-3.7,2
				c-2.7,0-4.4-1.8-4.4-4.7s1.5-4.7,4.2-4.7c2.6,0,4,1.9,4,4.2C188.3,174,188.3,174.3,188.3,174.6z M181.5,173.3h5.5
				c-0.2-1.7-1.1-2.7-2.6-2.7C182.7,170.6,181.7,171.6,181.5,173.3z"/>
			<path class="st8" d="M197.5,176.1c0,0.9,0.2,1.2,1,1.2c0.5,0,0.8-0.1,1.3-0.3l-0.2,1.4c-0.4,0.2-0.9,0.3-1.3,0.3
				c-1.5,0-2.2-0.8-2.2-2.4v-10.9h1.4V176.1z"/>
		</g>
		<g class="st7">
			<path class="st8" d="M210.2,177.4l-0.1,1.1c-0.3,0.1-0.6,0.2-1.1,0.2c-0.9,0-1.5-0.3-1.6-1.3c-0.6,0.8-1.7,1.3-2.9,1.3
				c-1.7,0-3.1-0.8-3.1-2.4c0-1.4,1.2-2.4,3.5-2.8l2.4-0.4v-0.5c0-1.2-0.8-2-2.1-2c-1.2,0-2.1,0.6-2.6,1.7l-1.1-0.8
				c0.5-1.3,1.9-2.2,3.6-2.2c2.1,0,3.5,1,3.5,3.1v4.4c0,0.4,0.2,0.6,0.7,0.6C209.8,177.5,210,177.5,210.2,177.4z M207.4,175.5v-1.2
				l-2,0.4c-1.6,0.3-2.4,0.8-2.4,1.7c0,0.8,0.6,1.2,1.6,1.2C206.1,177.5,207.4,176.7,207.4,175.5z"/>
		</g>
		<g class="st7">
			<path class="st8" d="M225.3,174.9h-6.1c0.2,1.2,0.9,1.6,1.9,1.6c0.9,0,1.5-0.4,1.7-1l2.5,0.8c-0.5,1.6-2.1,2.4-4.1,2.4
				c-3.2,0-4.9-1.7-4.9-4.7c0-3,1.7-4.7,4.7-4.7c2.9,0,4.5,1.7,4.5,4.6C225.4,174.2,225.3,174.7,225.3,174.9z M219.1,173.3h3.4
				c-0.1-1.2-0.7-1.8-1.7-1.8C219.9,171.5,219.3,172.1,219.1,173.3z"/>
			<path class="st8" d="M235.9,165.7v12.8h-2.8l-0.1-1.7c-0.5,1.1-1.5,1.9-2.9,1.9c-2.3,0-3.7-1.7-3.7-4.6c0-3,1.4-4.7,3.7-4.7
				c1.3,0,2.2,0.7,2.7,1.7v-5.3H235.9z M232.8,174.4v-0.7c-0.1-1.3-0.7-2.1-1.7-2.1c-1,0-1.7,0.7-1.7,2.4s0.6,2.4,1.7,2.4
				C232.1,176.5,232.7,175.8,232.8,174.4z"/>
			<path class="st8" d="M246.7,169.5v9h-2.7l-0.1-1.7c-0.6,1.3-1.7,1.9-3.1,1.9c-1.8,0-3.1-0.9-3.1-3.2v-6h3.1v5.2
				c0,1.2,0.4,1.6,1.2,1.6c1,0,1.7-0.6,1.7-2.1v-4.8H246.7z"/>
			<path class="st8" d="M257.1,172.1l-2.8,0.9c-0.1-1-0.6-1.5-1.4-1.5c-1.2,0-1.8,0.8-1.8,2.5c0,1.8,0.7,2.5,1.8,2.5
				c0.9,0,1.4-0.5,1.5-1.5l2.8,0.9c-0.3,1.6-1.7,2.8-4.2,2.8c-3.2,0-4.9-1.7-4.9-4.7c0-3,1.7-4.7,4.7-4.7
				C255.7,169.4,256.9,170.7,257.1,172.1z"/>
		</g>
		<g class="st7">
			<path class="st8" d="M267.3,176.7l-0.2,1.7c-0.4,0.2-0.8,0.3-1.2,0.3c-1.2,0-2.1-0.4-2.3-1.4c-0.5,0.9-1.5,1.4-3.2,1.4
				c-1.8,0-2.8-0.8-2.8-2.2c0-1.5,1-2.4,3.5-3l2-0.4v-0.3c0-0.8-0.5-1.3-1.3-1.3c-0.9,0-1.5,0.3-1.7,1.4l-2.5-0.7
				c0.3-1.7,1.7-2.8,4.2-2.8c2.8,0,4.3,1.1,4.3,3.5v3.3c0,0.5,0.2,0.7,0.6,0.7C266.9,176.8,267.1,176.8,267.3,176.7z M263,175.5
				v-0.8l-1.5,0.3c-0.8,0.2-1.1,0.4-1.1,0.9c0,0.5,0.3,0.8,0.9,0.8C262.1,176.7,263,176.3,263,175.5z"/>
		</g>
		<g class="st7">
			<path class="st8" d="M276.6,172.1l-2.8,0.9c-0.1-1-0.6-1.5-1.4-1.5c-1.2,0-1.8,0.8-1.8,2.5c0,1.8,0.7,2.5,1.8,2.5
				c0.9,0,1.4-0.5,1.5-1.5l2.8,0.9c-0.3,1.6-1.7,2.8-4.2,2.8c-3.2,0-4.9-1.7-4.9-4.7c0-3,1.7-4.7,4.7-4.7
				C275.2,169.4,276.3,170.7,276.6,172.1z"/>
			<path class="st8" d="M277.4,167c0-1,0.5-1.5,1.8-1.5s1.8,0.5,1.8,1.5c0,1-0.5,1.5-1.8,1.5S277.4,168,277.4,167z M280.8,178.5
				h-3.1v-9h3.1V178.5z"/>
			<path class="st8" d="M291.5,174c0,3-1.7,4.7-4.8,4.7S282,177,282,174c0-3,1.7-4.7,4.8-4.7S291.5,171.1,291.5,174z M285,174
				c0,1.8,0.6,2.5,1.7,2.5c1.1,0,1.7-0.7,1.7-2.5s-0.6-2.5-1.7-2.5C285.6,171.5,285,172.3,285,174z M289.4,165.3l-1.8,3.1h-2.2
				l1.2-3.1H289.4z"/>
			<path class="st8" d="M301.7,172.5v6h-3.1v-5.1c0-1.3-0.5-1.7-1.3-1.7c-0.9,0-1.6,0.6-1.6,2.1v4.8h-3.1v-9h2.7l0.1,1.7
				c0.6-1.3,1.7-1.9,3.1-1.9C300.5,169.4,301.7,170.5,301.7,172.5z"/>
		</g>
		<g>
			<path class="st8" d="M171.8,376.7c0,1.5-1.2,2.8-2.7,2.8c-0.1,0-0.2,0-0.4,0h-2.1v3.6h-1.1v-9.2h3.3
				C170.6,373.9,171.8,375,171.8,376.7z M170.7,376.7c0-1.1-0.6-1.8-2.1-1.8h-2v3.5h2C170,378.5,170.7,377.9,170.7,376.7z"/>
			<path class="st8" d="M177.5,376.1l-0.2,1.1c-0.3-0.1-0.6-0.2-0.9-0.2c-1.1,0.1-2,1.1-1.9,2.2c0,0,0,0.1,0,0.1v3.8h-1.1v-7h0.9
				l0.2,1.1c0.4-0.9,1.3-1.4,2.2-1.3C177,376,177.3,376,177.5,376.1z"/>
			<path class="st8" d="M184.9,379.6c0,2.3-1.3,3.6-3.4,3.6s-3.4-1.4-3.4-3.6s1.3-3.6,3.4-3.6S184.9,377.4,184.9,379.6z
				 M179.3,379.6c0,1.7,0.9,2.7,2.3,2.7s2.3-1,2.3-2.7s-0.8-2.6-2.3-2.6S179.3,378,179.3,379.6L179.3,379.6z"/>
			<path class="st8" d="M192.6,377.9l-1.1,0.5c-0.2-0.9-1-1.4-1.9-1.4c-1.4,0-2.2,1-2.2,2.7s0.8,2.7,2.2,2.7c0.9,0.1,1.8-0.5,2-1.4
				l1,0.4c-0.4,1.3-1.7,2.1-3,2.1c-2.1,0-3.4-1.4-3.4-3.6s1.3-3.6,3.4-3.6C190.9,375.9,192.1,376.7,192.6,377.9z"/>
			<path class="st8" d="M200.2,380H195c0,1.2,1,2.2,2.2,2.2c0,0,0.1,0,0.1,0c1,0,1.7-0.4,2-1l0.9,0.5c-0.6,1-1.7,1.6-2.9,1.5
				c-2.1,0-3.4-1.4-3.4-3.6s1.1-3.7,3.2-3.7c1.7-0.1,3.1,1.2,3.1,2.8c0,0.1,0,0.3,0,0.4C200.3,379.5,200.3,379.8,200.2,380z
				 M195,379h4.2c-0.2-1.3-0.9-2.1-2.1-2.1C196,376.9,195,377.9,195,379C195,379,195,379,195,379L195,379z"/>
			<path class="st8" d="M208.3,372.9v10.2h-1l-0.1-1.2c-0.5,0.9-1.4,1.4-2.4,1.4c-1.9,0-3.2-1.4-3.2-3.6s1.2-3.6,3.2-3.6
				c0.9,0,1.8,0.4,2.3,1.2v-4.3L208.3,372.9z M207.2,379.7v-0.2c0-1.6-0.9-2.6-2.2-2.6s-2.2,1-2.2,2.7s0.8,2.7,2.2,2.7
				S207.2,381.3,207.2,379.7z"/>
			<path class="st8" d="M216.5,380h-5.3c0,1.2,1,2.2,2.2,2.2c0,0,0.1,0,0.1,0c1,0,1.7-0.4,2-1l0.9,0.5c-0.6,1-1.7,1.6-2.9,1.5
				c-2.1,0-3.4-1.4-3.4-3.6s1.2-3.6,3.3-3.6c1.7-0.1,3.1,1.2,3.1,2.8c0,0.1,0,0.3,0,0.4C216.6,379.6,216.5,379.8,216.5,380z
				 M211.2,379h4.2c-0.1-1.3-0.9-2.1-2.1-2.1C212.2,376.9,211.3,377.8,211.2,379C211.2,379,211.2,379,211.2,379L211.2,379z"/>
			<path class="st8" d="M224.5,378.6v4.5h-1.1V379c0-1.5-0.8-2.1-1.7-2.1c-1.2,0-2.2,0.9-2.2,2.1c0,0.1,0,0.2,0,0.3v3.7h-1.1v-7h1
				l0.1,1.1c0.9-1.3,2.6-1.6,3.9-0.7C224,376.9,224.4,377.7,224.5,378.6L224.5,378.6z"/>
			<path class="st8" d="M230.8,382.6c-0.5,0.4-1.1,0.7-1.8,0.6c-1,0.1-1.8-0.6-1.9-1.5c0-0.1,0-0.2,0-0.3v-4.3h-1.4v-1h1.4v-1.7
				l1.1-0.3v2h2.6v1h-2.6v4.1c0,0.5,0.4,1,0.9,1c0.1,0,0.1,0,0.2,0c0.5,0,0.9-0.2,1.2-0.5L230.8,382.6z"/>
			<path class="st8" d="M238,380h-5.3c0,1.2,1,2.2,2.2,2.2c0,0,0.1,0,0.1,0c1,0,1.7-0.4,2-1l0.9,0.5c-0.6,1-1.7,1.6-2.9,1.5
				c-2.1,0-3.4-1.4-3.4-3.6s1.2-3.6,3.3-3.6c1.7-0.1,3.1,1.2,3.1,2.8c0,0.1,0,0.3,0,0.4C238.1,379.6,238,379.8,238,380z M232.7,379
				h4.3c-0.1-1.3-0.9-2.1-2.1-2.1C233.8,376.9,232.8,377.8,232.7,379C232.8,379,232.7,379,232.7,379L232.7,379z"/>
			<path class="st8" d="M239.2,381.7l0.9-0.6c0.4,0.8,1.3,1.3,2.2,1.2c1.1,0,1.7-0.5,1.7-1s-0.4-0.8-1.8-1.1c-2-0.4-2.7-0.9-2.7-2.1
				s1.1-2.1,2.8-2.1c1.5,0,2.4,0.5,2.8,1.7l-0.9,0.6c-0.2-0.8-1-1.3-1.8-1.3c-0.9,0-1.6,0.5-1.6,1s0.5,0.9,1.9,1.1
				c2,0.3,2.7,0.9,2.7,2.1s-1.1,2.1-2.9,2.1C241,383.4,239.8,382.8,239.2,381.7z"/>
			<path class="st8" d="M257.5,372.9v10.2h-1l-0.1-1.2c-0.5,0.9-1.4,1.4-2.4,1.4c-1.9,0-3.2-1.4-3.2-3.6s1.2-3.6,3.2-3.6
				c0.9,0,1.8,0.4,2.3,1.2v-4.3L257.5,372.9z M256.4,379.7v-0.2c0-1.6-0.9-2.6-2.2-2.6s-2.2,1-2.2,2.7s0.8,2.7,2.2,2.7
				S256.4,381.3,256.4,379.7z"/>
			<path class="st8" d="M265.7,380h-5.3c0,1.2,1,2.2,2.2,2.2c0,0,0.1,0,0.1,0c1,0,1.7-0.4,2-1l0.9,0.5c-0.6,1-1.7,1.6-2.9,1.5
				c-2.1,0-3.4-1.4-3.4-3.6s1.2-3.6,3.3-3.6c1.7-0.1,3.1,1.2,3.1,2.9c0,0.1,0,0.3,0,0.4C265.8,379.6,265.8,379.8,265.7,380z
				 M260.5,379h4.2c-0.1-1.3-0.9-2.1-2-2.1C261.5,376.9,260.5,377.8,260.5,379C260.5,379,260.5,379,260.5,379L260.5,379z"/>
			<path class="st8" d="M268.6,381.3c0,0.7,0.2,0.9,0.8,0.9c0.3,0,0.7-0.1,1-0.2l-0.2,1.1c-0.3,0.1-0.7,0.2-1,0.2
				c-1.1,0-1.7-0.6-1.7-1.9v-8.5h1.1L268.6,381.3z"/>
			<path class="st8" d="M279.5,376.1l-0.2,1.1c-0.3-0.1-0.6-0.2-0.9-0.2c-1.1,0.1-2,1.1-1.9,2.2c0,0,0,0.1,0,0.1v3.8h-1.1v-7h0.9
				l0.1,1.1c0.4-0.9,1.3-1.4,2.2-1.3C279,376,279.2,376,279.5,376.1z"/>
			<path class="st8" d="M286.5,380h-5.3c0,1.2,1,2.2,2.2,2.2c0,0,0.1,0,0.1,0c0.8,0.1,1.6-0.3,2-1l0.9,0.5c-0.6,1-1.7,1.6-2.9,1.5
				c-2.1,0-3.4-1.4-3.4-3.6s1.2-3.6,3.3-3.6c1.7-0.1,3.1,1.2,3.1,2.9c0,0.1,0,0.3,0,0.4C286.6,379.6,286.5,379.8,286.5,380z
				 M281.2,379h4.2c-0.2-1.3-0.9-2.1-2.1-2.1C282.3,376.9,281.3,377.8,281.2,379C281.2,379,281.2,379,281.2,379L281.2,379z"/>
			<path class="st8" d="M294.2,377.9l-1.1,0.5c-0.2-0.9-1-1.4-1.9-1.4c-1.4,0-2.2,1-2.2,2.7s0.8,2.7,2.2,2.7c0.9,0.1,1.8-0.5,2-1.4
				l1,0.4c-0.4,1.3-1.7,2.1-3,2.1c-2.1,0-3.4-1.4-3.4-3.6s1.3-3.6,3.4-3.6C292.5,375.9,293.7,376.7,294.2,377.9z"/>
			<path class="st8" d="M302.2,382.2l-0.1,0.9c-0.3,0.1-0.6,0.1-0.8,0.1c-0.6,0.1-1.2-0.3-1.3-0.9c0,0,0-0.1,0-0.1
				c-0.6,0.7-1.4,1-2.3,1c-1.3,0-2.4-0.6-2.4-1.9c0-1,0.9-1.9,2.7-2.2l1.9-0.3v-0.4c0-0.8-0.6-1.5-1.4-1.5c-0.1,0-0.2,0-0.2,0
				c-0.9,0-1.7,0.5-2,1.3l-0.8-0.6c0.5-1.1,1.6-1.8,2.8-1.7c1.6,0,2.8,0.8,2.8,2.4v3.5c0,0.3,0.1,0.5,0.5,0.5
				C301.8,382.3,302,382.3,302.2,382.2z M300,380.8v-1l-1.6,0.3c-1.2,0.2-1.9,0.6-1.9,1.3s0.5,0.9,1.3,0.9
				C298.9,382.3,300,381.7,300,380.8z"/>
			<path class="st8" d="M309.5,376.1v7h-1l-0.1-1.1c-0.5,0.8-1.5,1.3-2.5,1.2c-1.3,0.1-2.4-0.8-2.6-2.1c0-0.2,0-0.3,0-0.5v-4.6h1.1
				v4.3c0,1.4,0.6,1.9,1.6,1.9c1.2,0.1,2.2-0.8,2.2-2c0-0.1,0-0.2,0-0.4v-3.8L309.5,376.1z"/>
			<path class="st8" d="M318,372.9v10.2h-1l-0.1-1.2c-0.5,0.9-1.4,1.4-2.4,1.4c-2,0-3.2-1.4-3.2-3.6s1.2-3.6,3.2-3.6
				c0.9,0,1.8,0.4,2.3,1.2v-4.3L318,372.9z M316.9,379.7v-0.2c0-1.6-0.9-2.6-2.2-2.6s-2.2,1-2.2,2.7s0.8,2.7,2.2,2.7
				S316.9,381.3,316.9,379.7L316.9,379.7z"/>
			<path class="st8" d="M326.6,379.6c0,2.3-1.3,3.6-3.4,3.6s-3.4-1.4-3.4-3.6s1.3-3.6,3.4-3.6S326.6,377.4,326.6,379.6z
				 M320.9,379.6c0,1.7,0.9,2.7,2.3,2.7s2.3-1,2.3-2.7s-0.9-2.7-2.3-2.7S320.9,378,320.9,379.6z"/>
			<path class="st8" d="M339,372.9v10.2h-1l-0.1-1.2c-0.5,0.9-1.4,1.4-2.4,1.4c-1.9,0-3.2-1.4-3.2-3.6s1.2-3.6,3.2-3.6
				c0.9,0,1.8,0.4,2.3,1.2v-4.3L339,372.9z M337.9,379.7v-0.2c0-1.6-0.9-2.6-2.2-2.6s-2.2,1-2.2,2.7s0.8,2.7,2.2,2.7
				S337.9,381.3,337.9,379.7z"/>
			<path class="st8" d="M347.2,380H342c0,1.2,1,2.2,2.2,2.2c0,0,0.1,0,0.1,0c1,0,1.7-0.4,2-1l0.9,0.5c-0.6,1-1.7,1.6-2.9,1.5
				c-2.1,0-3.4-1.4-3.4-3.6s1.2-3.6,3.3-3.6c1.7-0.1,3.1,1.2,3.1,2.8c0,0.1,0,0.3,0,0.4C347.3,379.6,347.3,379.8,347.2,380z
				 M342,379h4.2c-0.1-1.3-0.9-2.1-2.1-2.1C343,376.9,342,377.8,342,379C342,379,342,379,342,379L342,379z"/>
			<path class="st8" d="M357.6,376.1l-0.2,1.1c-0.3-0.1-0.6-0.2-0.9-0.2c-1.1,0.1-2,1.1-1.9,2.2c0,0,0,0.1,0,0.1v3.8h-1.1v-7h0.9
				l0.1,1.1c0.4-0.9,1.3-1.4,2.2-1.3C357.1,376,357.3,376,357.6,376.1z"/>
			<path class="st8" d="M364.6,380h-5.3c0,1.2,1,2.2,2.2,2.2c0,0,0.1,0,0.1,0c0.8,0.1,1.6-0.3,2-1l0.9,0.5c-0.6,1-1.7,1.6-2.9,1.5
				c-2.1,0-3.4-1.4-3.4-3.6s1.2-3.6,3.3-3.6c1.7-0.1,3.1,1.2,3.1,2.9c0,0.1,0,0.3,0,0.4C364.7,379.6,364.6,379.8,364.6,380z
				 M359.3,379h4.2c-0.2-1.3-0.9-2.1-2.1-2.1C360.4,376.9,359.4,377.8,359.3,379C359.3,379,359.3,379,359.3,379L359.3,379z"/>
			<path class="st8" d="M372.5,383.9c0,1.4-1.6,2.2-3.5,2.2c-2.2,0-3.2-0.8-3.2-1.9c0.7-0.1,1.3-0.7,1.2-1.5c-0.1-0.5-0.4-1-0.9-1.2
				c0-0.6,0.4-1.2,1-1.4c-0.6-0.4-1-1.1-1-1.9c0-1.4,1.2-2.4,2.9-2.4c0.5,0,1,0.1,1.4,0.3c0.2-0.9,1.1-1.5,2-1.4l0.3,1
				c-0.9,0-1.5,0.3-1.7,0.8c0.6,0.4,0.9,1.1,0.9,1.8c0,1.4-1.2,2.4-2.9,2.4c-0.4,0-0.7,0-1.1-0.1c-0.6,0.1-0.8,0.4-0.8,0.9
				s0.4,0.8,0.9,0.8h2.3C371.7,382.2,372.5,382.9,372.5,383.9z M371.5,384c0-0.5-0.3-0.8-1.4-0.8h-1.9c-0.9,0-1.3,0.3-1.3,0.9
				c0,0.7,0.8,1.1,2.3,1.1S371.4,384.6,371.5,384L371.5,384z M367.3,378.4c-0.1,0.9,0.5,1.8,1.4,2s1.8-0.5,2-1.4s-0.5-1.8-1.4-2
				c-0.1,0-0.2,0-0.2,0c-0.8-0.1-1.6,0.5-1.7,1.3C367.2,378.3,367.2,378.3,367.3,378.4L367.3,378.4z"/>
			<path class="st8" d="M380.1,382.2l-0.1,0.9c-0.3,0.1-0.6,0.1-0.8,0.1c-0.6,0.1-1.2-0.3-1.3-0.9c0,0,0-0.1,0-0.1
				c-0.6,0.7-1.4,1-2.3,1c-1.3,0-2.4-0.6-2.4-1.9c0-1,0.9-1.9,2.7-2.2l1.9-0.3v-0.4c0-0.8-0.6-1.5-1.4-1.5c-0.1,0-0.2,0-0.3,0
				c-0.9,0-1.7,0.5-2,1.3l-0.8-0.6c0.5-1.1,1.6-1.8,2.8-1.7c1.6,0,2.8,0.8,2.8,2.4v3.5c0,0.3,0.1,0.5,0.5,0.5
				C379.7,382.3,379.9,382.3,380.1,382.2z M377.9,380.8v-1l-1.6,0.3c-1.2,0.2-1.9,0.6-1.9,1.3s0.5,0.9,1.3,0.9
				C376.8,382.3,377.9,381.7,377.9,380.8L377.9,380.8z"/>
			<path class="st8" d="M382.4,381.3c0,0.7,0.2,0.9,0.8,0.9c0.3,0,0.7-0.1,1-0.2l-0.2,1.1c-0.3,0.1-0.7,0.2-1,0.2
				c-1.1,0-1.7-0.6-1.7-1.9v-8.5h1.1L382.4,381.3z"/>
			<path class="st8" d="M386.4,383.1h-1.1v-7h1.1V383.1z M387.6,372.6l-1.4,2.4h-0.9l1.1-2.3L387.6,372.6z"/>
			<path class="st8" d="M395,382.2l-0.1,0.9c-0.3,0.1-0.6,0.1-0.8,0.1c-0.6,0.1-1.2-0.3-1.3-0.9c0,0,0-0.1,0-0.1
				c-0.6,0.7-1.4,1-2.3,1c-1.3,0-2.4-0.6-2.4-1.9c0-1,0.9-1.9,2.7-2.2l1.9-0.3v-0.4c0-0.8-0.6-1.5-1.4-1.5c-0.1,0-0.2,0-0.3,0
				c-0.9-0.1-1.7,0.5-2,1.3l-0.8-0.6c0.5-1.1,1.6-1.8,2.8-1.7c1.6,0,2.8,0.8,2.8,2.4v3.5c0,0.3,0.1,0.5,0.5,0.5
				C394.6,382.3,394.8,382.3,395,382.2z M392.8,380.8v-1l-1.6,0.3c-1.2,0.2-1.9,0.6-1.9,1.3s0.5,0.9,1.3,0.9
				C391.7,382.3,392.7,381.7,392.8,380.8L392.8,380.8z"/>
			<path class="st8" d="M395.6,381.7l0.9-0.6c0.4,0.8,1.3,1.3,2.2,1.2c1.1,0,1.7-0.5,1.7-1s-0.4-0.8-1.8-1.1c-2-0.4-2.7-0.9-2.7-2.1
				s1-2.1,2.8-2.1c1.5,0,2.4,0.5,2.8,1.7l-1,0.6c-0.2-0.8-1-1.3-1.8-1.3c-0.9,0-1.6,0.5-1.6,1s0.5,0.9,1.9,1.1
				c2,0.3,2.7,0.9,2.7,2.1s-1.1,2.1-2.9,2.1C397.4,383.4,396.2,382.8,395.6,381.7z"/>
			<path class="st8" d="M171.9,394.6c0,2.3-1.2,3.6-3.2,3.6c-0.9,0-1.8-0.4-2.3-1.2v4h-1.1v-9.9h1l0.1,1.2c0.5-0.9,1.4-1.4,2.4-1.4
				C170.6,391,171.9,392.4,171.9,394.6z M170.8,394.6c0-1.6-0.8-2.7-2.2-2.7s-2.2,1-2.2,2.6v0.2c0,1.6,0.9,2.6,2.2,2.6
				S170.8,396.3,170.8,394.6z"/>
			<path class="st8" d="M180,397.2l-0.1,0.9c-0.3,0.1-0.6,0.1-0.8,0.1c-0.6,0.1-1.2-0.3-1.3-0.9c0,0,0,0,0-0.1c-0.5,0.7-1.4,1-2.2,1
				c-1.3,0-2.4-0.6-2.4-1.9c0-1,0.9-1.9,2.7-2.2l1.9-0.3v-0.4c0-0.8-0.6-1.5-1.4-1.5c-0.1,0-0.2,0-0.3,0c-0.9,0-1.7,0.5-2,1.3
				l-0.8-0.6c0.5-1.1,1.6-1.8,2.8-1.7c1.6,0,2.8,0.8,2.8,2.4v3.5c0,0.3,0.1,0.5,0.5,0.5C179.6,397.3,179.8,397.3,180,397.2z
				 M177.8,395.8v-1l-1.6,0.3c-1.2,0.2-1.9,0.6-1.9,1.3s0.5,0.9,1.3,0.9C176.8,397.3,177.8,396.7,177.8,395.8L177.8,395.8z"/>
			<path class="st8" d="M185.4,391.1l-0.2,1.1c-0.3-0.1-0.6-0.2-0.9-0.2c-1.1,0.1-1.9,1-1.9,2.1c0,0.1,0,0.1,0,0.2v3.8h-1.1v-7h0.9
				l0.1,1.1c0.4-0.9,1.3-1.4,2.2-1.3C184.9,391,185.1,391,185.4,391.1z"/>
			<path class="st8" d="M192.8,397.2l-0.1,0.9c-0.3,0.1-0.5,0.1-0.8,0.1c-0.6,0.1-1.2-0.3-1.3-0.9c0,0,0,0,0-0.1
				c-0.5,0.7-1.4,1-2.2,1c-1.3,0-2.4-0.6-2.4-1.9c0-1,0.9-1.9,2.7-2.2l1.9-0.3v-0.4c0-0.8-0.6-1.5-1.4-1.5c-0.1,0-0.2,0-0.3,0
				c-0.9,0-1.7,0.5-2,1.3l-0.8-0.6c0.5-1.1,1.6-1.8,2.8-1.7c1.6,0,2.8,0.8,2.8,2.4v3.5c0,0.3,0.1,0.5,0.5,0.5
				C192.4,397.3,192.6,397.3,192.8,397.2z M190.6,395.8v-1l-1.6,0.3c-1.2,0.2-1.9,0.6-1.9,1.3s0.5,0.9,1.3,0.9
				C189.5,397.3,190.6,396.7,190.6,395.8z"/>
			<path class="st8" d="M197.9,397.2c3.7-2.7,4.9-3.9,4.9-5.6c0-1-0.7-1.8-1.7-1.9c-0.1,0-0.2,0-0.3,0c-1.2,0-2.2,1-2.2,2.2
				c0,0,0,0.1,0,0.1l-1-0.6c0.1-1.6,1.6-2.9,3.2-2.7c1.6-0.1,2.9,1,3.1,2.6c0,0.1,0,0.2,0,0.3c0,1.7-1.1,3.3-4.4,5.5l0,0h1.4h3.2v1
				h-6.2L197.9,397.2z"/>
			<path class="st8" d="M205.6,393.5c0-3.1,1.2-4.8,3.4-4.8s3.4,1.7,3.4,4.8s-1.2,4.8-3.4,4.8S205.6,396.6,205.6,393.5z
				 M211.3,393.5c0-2.4-0.8-3.8-2.3-3.8s-2.3,1.3-2.3,3.8s0.8,3.8,2.3,3.8S211.3,396,211.3,393.5z"/>
			<path class="st8" d="M217.3,388.9v9.2h-1.1v-6.8c0-0.3,0-0.7,0-1.1c-0.7,0.6-1.5,1.1-2.4,1.3l-0.3-1c1.1-0.3,2-0.9,2.8-1.7
				L217.3,388.9z"/>
			<path class="st8" d="M226.1,393.5c0,3.1-1.2,4.8-3.6,4.8c-1.4,0.1-2.8-0.7-3.2-2.1l1.1-0.6c0.1,1,1.1,1.7,2.1,1.6
				c1.9,0,2.6-1.6,2.6-4.1V393H225c-0.3,1.1-1.4,1.9-2.6,1.7c-1.7,0-3-1.4-3-3c0-1.7,1.4-3,3-3C224.9,388.8,226.1,390.7,226.1,393.5
				z M220.5,391.8c-0.1,1,0.7,1.8,1.7,1.9c0.1,0,0.2,0,0.3,0c1.1,0.1,2-0.7,2.1-1.8s-0.7-2-1.8-2.1c-0.1,0-0.2,0-0.3,0
				c-1-0.1-1.9,0.6-2,1.6C220.5,391.5,220.5,391.6,220.5,391.8z"/>
			<path class="st8" d="M234.8,399.3c-0.6,1.4-1.2,1.8-2.2,1.8c-0.6,0-1.1-0.2-1.5-0.6l0.4-1c0.3,0.4,0.7,0.6,1.1,0.6
				c0.5,0,0.9-0.2,1.3-1.1l0.4-0.9l-2.9-7h1.3l1.8,4.6l0.4,1.2l0.5-1.4l1.6-4.4h1.2L234.8,399.3z"/>
			<path class="st8" d="M243.1,397.2c3.7-2.7,4.8-3.9,4.8-5.6c0-1-0.7-1.8-1.7-1.9c-0.1,0-0.2,0-0.3,0c-1.2,0-2.2,1-2.2,2.2
				c0,0,0,0,0,0.1l-1-0.6c0.1-1.6,1.6-2.9,3.2-2.7c1.6-0.1,2.9,1,3.1,2.5c0,0.1,0,0.2,0,0.4c0,1.7-1.1,3.3-4.4,5.5l0,0h1.4h3.2v1
				H243L243.1,397.2z"/>
			<path class="st8" d="M250.8,393.5c0-3.1,1.2-4.8,3.4-4.8s3.4,1.7,3.4,4.8s-1.2,4.8-3.4,4.8S250.8,396.6,250.8,393.5z
				 M256.5,393.5c0-2.4-0.8-3.8-2.3-3.8s-2.3,1.3-2.3,3.8s0.8,3.8,2.3,3.8S256.5,396,256.5,393.5z"/>
			<path class="st8" d="M259.2,397.2c3.7-2.7,4.8-3.9,4.8-5.6c0-1-0.7-1.8-1.7-1.9c-0.1,0-0.2,0-0.3,0c-1.2,0-2.2,1-2.2,2.2
				c0,0,0,0,0,0.1l-1-0.6c0.1-1.6,1.6-2.9,3.2-2.7c1.6-0.1,2.9,1,3.1,2.5c0,0.1,0,0.2,0,0.4c0,1.7-1.1,3.3-4.4,5.5l0,0h1.4h3.2v1
				h-6.2L259.2,397.2z"/>
			<path class="st8" d="M266.9,393.5c0-3.1,1.2-4.8,3.5-4.8s3.4,1.7,3.4,4.8s-1.2,4.8-3.4,4.8S266.9,396.6,266.9,393.5z
				 M272.7,393.5c0-2.4-0.8-3.8-2.3-3.8s-2.3,1.3-2.3,3.8s0.8,3.8,2.3,3.8S272.7,396,272.7,393.5z"/>
		</g>
		<g>
			<path class="st8" d="M88.4,368.7v13.2H85v-9.8c-0.9,0.8-1.9,1.4-3.1,1.7l-0.3-2.8c1.6-0.3,3-1,4-2.2L88.4,368.7z"/>
			<path class="st8" d="M94.8,381c0,1.8-1.1,3.4-2.8,4l-1.5-1c1.1-0.3,2-1.1,2.4-2.1l-0.1-0.1c-0.2,0.2-0.4,0.2-0.6,0.2
				c-0.9,0-1.6-0.7-1.7-1.6c0,0,0-0.1,0-0.1c-0.1-1,0.7-1.8,1.7-1.9c0.1,0,0.2,0,0.3,0C94.1,378.5,94.8,379.6,94.8,381z"/>
			<path class="st8" d="M106.5,377.4c0,3.2-2.3,4.7-5.1,4.7c-2.3,0-4-0.7-5.2-2.6l3-1.7c0.1,1.1,1,1.8,2,1.8c0,0,0.1,0,0.1,0
				c1,0.1,1.9-0.6,2-1.6c0-0.1,0-0.2,0-0.3c0.1-1-0.7-1.8-1.6-1.9c-0.1,0-0.3,0-0.4,0c-0.8-0.1-1.5,0.2-2.1,0.8l-2.6-0.4l0.8-7.5
				h8.2v2.7H100l-0.3,2.5c0,0.2-0.1,0.3-0.1,0.5l0,0c0.7-0.7,1.7-1,2.7-0.9c2.1-0.2,4,1.4,4.2,3.5
				C106.5,377,106.5,377.2,106.5,377.4z"/>
		</g>
		<g>
			<path class="st8" d="M167.5,446.3h-1.1V437h1.1V446.3z"/>
			<path class="st8" d="M176,441.8v4.5h-1.1v-4.1c0-1.6-0.8-2.1-1.7-2.1c-1.2,0-2.2,0.9-2.2,2.1c0,0.1,0,0.2,0,0.3v3.7h-1.1v-7h1
				l0.1,1.1c0.5-0.8,1.4-1.3,2.4-1.2c1.4-0.1,2.6,0.9,2.7,2.3C176,441.5,176,441.7,176,441.8z"/>
			<path class="st8" d="M183.8,439.3l-2.9,7h-1.1l-2.9-7h1.3l2.2,5.9l2.3-5.9H183.8z"/>
			<path class="st8" d="M190.9,443.2h-5.3c0,1.2,1,2.2,2.2,2.3c0,0,0.1,0,0.1,0c0.8,0.1,1.6-0.3,2-1l0.9,0.5c-0.6,1-1.7,1.6-2.9,1.5
				c-2.1,0-3.4-1.4-3.4-3.6s1.2-3.6,3.3-3.6c1.7-0.1,3.1,1.2,3.1,2.8c0,0.1,0,0.3,0,0.4C190.9,442.7,190.9,442.9,190.9,443.2z
				 M185.6,442.2h4.2c-0.1-1.3-0.9-2.1-2.1-2.1C186.6,440.1,185.6,441,185.6,442.2C185.6,442.1,185.6,442.2,185.6,442.2L185.6,442.2
				z"/>
			<path class="st8" d="M196.8,439.3l-0.2,1.1c-0.3-0.1-0.6-0.2-0.9-0.2c-1.1,0.1-2,1.1-1.9,2.2c0,0,0,0,0,0.1v3.8h-1.1v-7h0.9
				l0.1,1.1c0.4-0.9,1.3-1.4,2.2-1.3C196.3,439.1,196.5,439.2,196.8,439.3z"/>
			<path class="st8" d="M197.1,444.8l0.9-0.6c0.4,0.8,1.3,1.3,2.2,1.2c1.1,0,1.7-0.5,1.7-1s-0.4-0.8-1.8-1.1c-2-0.4-2.7-0.9-2.7-2.1
				s1.1-2.1,2.8-2.1c1.5,0,2.4,0.5,2.8,1.7l-0.9,0.6c-0.2-0.8-1-1.3-1.8-1.3c-0.9,0-1.6,0.5-1.6,1s0.5,0.9,1.9,1.1
				c2,0.3,2.7,0.9,2.7,2.1s-1.1,2.1-2.9,2.1C198.9,446.5,197.8,445.9,197.1,444.8z"/>
			<path class="st8" d="M204.5,437.1c0-0.5,0.4-0.8,0.8-0.8s0.8,0.4,0.8,0.8c0,0.5-0.4,0.8-0.8,0.8l0,0c-0.4,0-0.8-0.3-0.8-0.7
				C204.5,437.1,204.5,437.1,204.5,437.1z M205.9,446.3h-1.1v-7h1.1V446.3z"/>
			<path class="st8" d="M214.5,442.8c0,2.3-1.3,3.6-3.4,3.6s-3.4-1.4-3.4-3.6s1.3-3.6,3.4-3.6S214.5,440.5,214.5,442.8z
				 M208.9,442.8c0,1.7,0.9,2.7,2.3,2.7s2.3-1,2.3-2.7s-0.9-2.7-2.3-2.7S208.9,441.1,208.9,442.8z M212.7,435.8l-1.4,2.3h-0.9
				l1.1-2.3H212.7z"/>
			<path class="st8" d="M222.5,441.8v4.5h-1.1v-4.1c0-1.6-0.8-2.1-1.7-2.1c-1.2,0-2.2,0.9-2.2,2.1c0,0.1,0,0.2,0,0.3v3.7h-1.1v-7h1
				l0.1,1.1c0.5-0.8,1.4-1.3,2.4-1.2c1.4-0.1,2.6,0.9,2.7,2.3C222.5,441.5,222.5,441.7,222.5,441.8z"/>
			<path class="st8" d="M235.3,436v10.2h-1l-0.1-1.2c-0.5,0.9-1.4,1.4-2.4,1.4c-1.9,0-3.2-1.4-3.2-3.6s1.2-3.6,3.2-3.6
				c0.9,0,1.8,0.4,2.3,1.2V436H235.3z M234.2,442.8v-0.2c0-1.6-0.9-2.6-2.2-2.6s-2.2,1-2.2,2.7s0.8,2.7,2.2,2.7
				S234.2,444.4,234.2,442.8L234.2,442.8z"/>
			<path class="st8" d="M243.5,443.2h-5.3c0,1.2,1,2.2,2.2,2.3c0,0,0.1,0,0.1,0c0.8,0.1,1.6-0.3,2-1l0.9,0.5c-0.6,1-1.7,1.6-2.9,1.5
				c-2.1,0-3.4-1.4-3.4-3.6s1.2-3.6,3.3-3.6c1.7-0.1,3.1,1.2,3.1,2.8c0,0.1,0,0.3,0,0.4C243.6,442.7,243.5,442.9,243.5,443.2z
				 M238.2,442.2h4.2c-0.2-1.3-0.9-2.1-2.1-2.1C239.3,440,238.3,441,238.2,442.2C238.2,442.1,238.2,442.2,238.2,442.2L238.2,442.2z"
				/>
			<path class="st8" d="M246.4,444.4c0,0.7,0.2,0.9,0.8,0.9c0.3,0,0.7-0.1,1-0.2l-0.2,1.1c-0.3,0.1-0.7,0.2-1,0.2
				c-1.1,0-1.7-0.6-1.7-1.9V436h1.1L246.4,444.4z"/>
			<path class="st8" d="M259.8,439.8c0,1.7-1.2,2.8-3.1,2.8h-2.1v3.6h-1.1V437h3.3C258.5,437,259.8,438.1,259.8,439.8z M258.6,439.8
				c0-1.1-0.6-1.8-2.1-1.8h-2v3.5h2C258,441.6,258.6,441,258.6,439.8z"/>
			<path class="st8" d="M265.5,439.3l-0.2,1.1c-0.3-0.1-0.6-0.2-0.9-0.2c-1.1,0.1-2,1.1-1.9,2.2c0,0,0,0,0,0.1v3.8h-1.1v-7h0.9
				l0.1,1.1c0.4-0.9,1.3-1.4,2.2-1.3C265,439.1,265.2,439.2,265.5,439.3z"/>
			<path class="st8" d="M272.5,443.2h-5.3c0,1.2,1,2.2,2.2,2.3c0,0,0.1,0,0.1,0c0.8,0.1,1.6-0.3,2-1l0.9,0.5c-0.6,1-1.7,1.6-2.9,1.5
				c-2.1,0-3.4-1.4-3.4-3.6s1.2-3.6,3.3-3.6c1.7-0.1,3.1,1.2,3.1,2.8c0,0.1,0,0.3,0,0.4C272.6,442.7,272.5,442.9,272.5,443.2z
				 M267.2,442.2h4.2c-0.2-1.3-0.9-2.1-2.1-2.1C268.2,440,267.3,441,267.2,442.2C267.2,442.1,267.2,442.2,267.2,442.2L267.2,442.2z"
				/>
			<path class="st8" d="M273.7,444.8l0.9-0.6c0.4,0.8,1.3,1.3,2.2,1.2c1.1,0,1.7-0.5,1.7-1s-0.4-0.8-1.8-1.1c-2-0.4-2.7-0.9-2.7-2.1
				s1-2.1,2.8-2.1c1.5,0,2.4,0.5,2.8,1.7l-1,0.6c-0.2-0.8-1-1.3-1.8-1.3c-0.9,0-1.6,0.5-1.6,1s0.5,0.9,1.9,1.1
				c2,0.3,2.7,0.9,2.7,2.1s-1.1,2.1-2.9,2.1C275.4,446.5,274.3,445.9,273.7,444.8z"/>
			<path class="st8" d="M287.4,439.3v7h-1l-0.1-1.1c-0.5,0.8-1.5,1.3-2.5,1.2c-1.3,0.1-2.4-0.8-2.6-2.1c0-0.2,0-0.3,0-0.5v-4.6h1.1
				v4.3c0,1.4,0.6,1.9,1.6,1.9c1.2,0.1,2.2-0.8,2.2-2c0-0.1,0-0.2,0-0.4v-3.8L287.4,439.3z"/>
			<path class="st8" d="M296.3,442.8c0,2.3-1.2,3.6-3.2,3.6c-0.9,0-1.8-0.4-2.3-1.2v4h-1.1v-10h1l0.1,1.2c0.5-0.9,1.4-1.4,2.4-1.4
				C295,439.1,296.3,440.5,296.3,442.8z M295.2,442.8c0-1.6-0.8-2.7-2.2-2.7s-2.2,1-2.2,2.6v0.2c0,1.6,0.9,2.6,2.2,2.6
				S295.2,444.4,295.2,442.8z"/>
			<path class="st8" d="M304.2,439.3v7h-1l-0.1-1.1c-0.5,0.8-1.5,1.3-2.5,1.2c-1.3,0.1-2.5-0.8-2.6-2.1c0-0.2,0-0.3,0-0.5v-4.6h1.1
				v4.3c0,1.4,0.6,1.9,1.6,1.9c1.2,0.1,2.2-0.8,2.2-2c0-0.1,0-0.2,0-0.4v-3.8L304.2,439.3z"/>
			<path class="st8" d="M312.4,443.2h-5.3c0,1.2,1,2.2,2.2,2.3c0,0,0.1,0,0.1,0c0.8,0.1,1.6-0.3,2-1l0.9,0.5c-0.6,1-1.7,1.6-2.9,1.5
				c-2.1,0-3.4-1.4-3.4-3.6s1.2-3.6,3.3-3.6c1.7-0.1,3.1,1.2,3.1,2.8c0,0.1,0,0.3,0,0.4C312.5,442.7,312.4,442.9,312.4,443.2z
				 M307.1,442.2h4.2c-0.1-1.3-0.9-2.1-2.1-2.1C308.1,440.1,307.2,441,307.1,442.2C307.1,442.1,307.1,442.2,307.1,442.2L307.1,442.2
				z"/>
			<path class="st8" d="M313.6,444.8l0.9-0.6c0.4,0.8,1.3,1.3,2.2,1.2c1.1,0,1.7-0.5,1.7-1s-0.4-0.8-1.8-1.1c-2-0.4-2.7-0.9-2.7-2.1
				s1-2.1,2.8-2.1c1.5,0,2.4,0.5,2.8,1.7l-1,0.6c-0.2-0.8-1-1.3-1.8-1.3c-0.9,0-1.6,0.5-1.6,1s0.5,0.9,1.9,1.1
				c2,0.3,2.7,0.9,2.7,2.1s-1.1,2.1-2.9,2.1C315.4,446.5,314.2,445.9,313.6,444.8z"/>
			<path class="st8" d="M325.5,445.8c-0.5,0.4-1.1,0.7-1.8,0.6c-1,0.1-1.9-0.6-2-1.5c0-0.1,0-0.2,0-0.4v-4.3h-1.4v-1h1.4v-1.7
				l1.1-0.3v2h2.6v1h-2.6v4.1c0,0.6,0.4,1,1,1c0.5,0,0.9-0.2,1.2-0.5L325.5,445.8z"/>
			<path class="st8" d="M333.1,442.8c0,2.3-1.3,3.6-3.4,3.6s-3.4-1.4-3.4-3.6s1.3-3.6,3.4-3.6S333.1,440.5,333.1,442.8z
				 M327.4,442.8c0,1.7,0.9,2.7,2.3,2.7s2.3-1,2.3-2.7s-0.9-2.7-2.3-2.7S327.5,441.1,327.4,442.8L327.4,442.8z"/>
			<path class="st8" d="M342.7,441.6v4.7h-0.8V445c-0.6,1-1.8,1.5-2.9,1.4c-2.6,0-4.3-1.8-4.3-4.8s1.7-4.8,4.3-4.8
				c1.6-0.1,3,0.7,3.7,2.1l-1,0.6c-0.4-1.1-1.5-1.7-2.7-1.6c-1.9,0-3.1,1.4-3.1,3.7s1.1,3.7,3.1,3.7c1.5,0,2.7-0.8,2.7-2.4v-0.3h-3
				v-1L342.7,441.6z"/>
			<path class="st8" d="M350.7,443.2h-5.3c0,1.2,1,2.2,2.2,2.3c0,0,0.1,0,0.1,0c0.8,0.1,1.6-0.3,2-1l0.9,0.5c-0.6,1-1.7,1.6-2.9,1.5
				c-2.1,0-3.4-1.4-3.4-3.6s1.2-3.6,3.3-3.6c1.7-0.1,3.1,1.2,3.1,2.8c0,0.1,0,0.3,0,0.4C350.7,442.7,350.7,442.9,350.7,443.2z
				 M345.4,442.2h4.2c-0.2-1.3-0.9-2.1-2.1-2.1C346.4,440,345.4,441,345.4,442.2C345.4,442.1,345.4,442.2,345.4,442.2L345.4,442.2z"
				/>
			<path class="st8" d="M358.6,441.8v4.5h-1.1v-4.1c0-1.6-0.8-2.1-1.7-2.1c-1.2,0-2.2,0.9-2.2,2.1c0,0.1,0,0.2,0,0.3v3.7h-1.1v-7h1
				l0.1,1.1c0.5-0.8,1.4-1.3,2.4-1.2c1.4-0.1,2.6,0.9,2.7,2.3C358.6,441.5,358.6,441.7,358.6,441.8z"/>
			<path class="st8" d="M366.8,443.2h-5.3c0,1.2,1,2.2,2.2,2.3c0,0,0.1,0,0.1,0c0.8,0.1,1.6-0.3,2-1l0.9,0.5c-0.6,1-1.7,1.6-2.9,1.5
				c-2.1,0-3.4-1.4-3.4-3.6s1.2-3.6,3.3-3.6c1.7-0.1,3.1,1.2,3.1,2.9c0,0.1,0,0.3,0,0.4C366.8,442.7,366.8,442.9,366.8,443.2z
				 M361.5,442.2h4.2c-0.2-1.3-0.9-2.1-2.1-2.1C362.5,440,361.5,441,361.5,442.2C361.5,442.1,361.5,442.2,361.5,442.2L361.5,442.2z"
				/>
			<path class="st8" d="M372.7,439.3l-0.2,1.1c-0.3-0.1-0.6-0.2-0.9-0.2c-1.1,0.1-2,1.1-1.9,2.2c0,0,0,0,0,0.1v3.8h-1.1v-7h0.9
				l0.1,1.1c0.4-0.9,1.3-1.4,2.2-1.3C372.2,439.1,372.4,439.2,372.7,439.3z"/>
			<path class="st8" d="M380.1,445.4l-0.1,0.9c-0.3,0.1-0.6,0.1-0.8,0.1c-0.6,0.1-1.2-0.3-1.3-0.9c0,0,0-0.1,0-0.1
				c-0.6,0.7-1.4,1-2.3,1c-1.3,0-2.4-0.6-2.4-1.9c0-1,0.9-1.9,2.7-2.2l1.9-0.3v-0.4c0-0.8-0.6-1.5-1.4-1.5c-0.1,0-0.2,0-0.3,0
				c-0.9,0-1.7,0.5-2,1.3l-0.8-0.6c0.5-1.1,1.6-1.8,2.8-1.7c1.6,0,2.8,0.8,2.8,2.4v3.5c0,0.3,0.1,0.5,0.5,0.5
				C379.7,445.5,379.9,445.4,380.1,445.4z M377.9,443.9v-1l-1.6,0.3c-1.2,0.2-1.9,0.6-1.9,1.3s0.5,0.9,1.3,0.9
				C376.8,445.4,377.9,444.8,377.9,443.9L377.9,443.9z"/>
			<path class="st8" d="M382.4,444.4c0,0.7,0.2,0.9,0.8,0.9c0.3,0,0.7-0.1,1-0.2l-0.2,1.1c-0.3,0.1-0.7,0.2-1,0.2
				c-1.1,0-1.7-0.6-1.7-1.9V436h1.1L382.4,444.4z"/>
			<path class="st8" d="M395.4,436v10.2h-1l-0.1-1.2c-0.5,0.9-1.4,1.4-2.4,1.4c-2,0-3.2-1.4-3.2-3.6s1.2-3.6,3.2-3.6
				c0.9,0,1.8,0.4,2.3,1.2V436H395.4z M394.3,442.8v-0.2c0-1.6-0.9-2.6-2.2-2.6s-2.2,1-2.2,2.7s0.8,2.7,2.2,2.7
				S394.3,444.4,394.3,442.8L394.3,442.8z"/>
			<path class="st8" d="M403.6,443.2h-5.3c0,1.2,1,2.2,2.2,2.3c0,0,0.1,0,0.1,0c0.8,0.1,1.6-0.3,2-1l0.9,0.5c-0.6,1-1.7,1.6-2.9,1.5
				c-2.1,0-3.4-1.4-3.4-3.6s1.2-3.6,3.3-3.6c1.7-0.1,3.1,1.2,3.1,2.8c0,0.1,0,0.3,0,0.4C403.7,442.7,403.7,442.9,403.6,443.2z
				 M398.4,442.2h4.2c-0.2-1.3-0.9-2.1-2.1-2.1C399.4,440,398.4,441,398.4,442.2C398.4,442.1,398.4,442.2,398.4,442.2L398.4,442.2z"
				/>
			<path class="st8" d="M411,444.4c0,0.7,0.2,0.9,0.8,0.9c0.3,0,0.7-0.1,1-0.2l-0.2,1.1c-0.3,0.1-0.7,0.2-1,0.2
				c-1.1,0-1.7-0.6-1.7-1.9V436h1.1V444.4z"/>
			<path class="st8" d="M420.1,445.4l-0.1,0.9c-0.3,0.1-0.6,0.1-0.8,0.1c-0.6,0.1-1.2-0.3-1.3-0.9c0,0,0,0,0-0.1
				c-0.6,0.7-1.4,1-2.2,1c-1.3,0-2.4-0.6-2.4-1.9c0-1,0.9-1.9,2.7-2.2l1.9-0.3v-0.4c0-0.8-0.6-1.5-1.4-1.5c-0.1,0-0.2,0-0.3,0
				c-0.9,0-1.7,0.5-2,1.3l-0.8-0.6c0.5-1.1,1.6-1.8,2.8-1.7c1.6,0,2.8,0.8,2.8,2.4v3.5c0,0.3,0.1,0.5,0.5,0.5
				C419.8,445.5,419.9,445.4,420.1,445.4z M417.9,443.9v-1l-1.6,0.3c-1.2,0.2-1.9,0.6-1.9,1.3s0.5,0.9,1.3,0.9
				C416.9,445.4,417.9,444.8,417.9,443.9z"/>
			<path class="st8" d="M173.6,461.3h-1.4l-3.9-6.2l-1-1.8l0,0l0.1,1.5v6.5h-1.1V452h1.4l3.9,6.2l1,1.9l0,0l-0.1-1.5V452h1.1
				L173.6,461.3z"/>
			<path class="st8" d="M182.3,460.4l-0.1,0.9c-0.3,0.1-0.6,0.1-0.8,0.1c-0.6,0.1-1.2-0.3-1.3-0.9c0,0,0-0.1,0-0.1
				c-0.6,0.7-1.4,1-2.3,1c-1.3,0-2.4-0.6-2.4-1.9c0-1,0.9-1.9,2.7-2.2l1.9-0.3v-0.4c0-0.8-0.6-1.5-1.4-1.5c-0.1,0-0.2,0-0.3,0
				c-0.9,0-1.7,0.5-2,1.3l-0.8-0.6c0.5-1.1,1.6-1.8,2.8-1.7c1.6,0,2.8,0.8,2.8,2.4v3.5c0,0.3,0.1,0.5,0.5,0.5
				C181.9,460.5,182.1,460.4,182.3,460.4z M180.1,458.9v-1l-1.6,0.3c-1.2,0.2-1.9,0.6-1.9,1.3s0.5,0.9,1.3,0.9
				C179,460.4,180.1,459.8,180.1,458.9L180.1,458.9z"/>
			<path class="st8" d="M189.4,456l-1.1,0.5c-0.2-0.9-1-1.4-1.9-1.4c-1.4,0-2.2,1-2.2,2.7s0.8,2.7,2.2,2.7c0.9,0.1,1.8-0.5,2-1.5
				l1,0.4c-0.4,1.3-1.7,2.1-3,2.1c-2.1,0-3.4-1.4-3.4-3.6s1.3-3.6,3.4-3.6C187.7,454.1,188.9,454.8,189.4,456z"/>
			<path class="st8" d="M190.8,452.1c0-0.5,0.4-0.8,0.8-0.8c0.5,0,0.8,0.4,0.8,0.8c0,0.5-0.4,0.8-0.8,0.8
				C191.2,452.9,190.8,452.5,190.8,452.1z M192.2,461.3h-1.1v-7h1.1V461.3z"/>
			<path class="st8" d="M200.8,457.8c0,2.3-1.3,3.6-3.4,3.6s-3.4-1.4-3.4-3.6s1.3-3.6,3.4-3.6S200.8,455.5,200.8,457.8z
				 M195.2,457.8c0,1.7,0.9,2.7,2.3,2.7s2.3-1,2.3-2.7s-0.9-2.7-2.3-2.7S195.2,456.1,195.2,457.8z M199,450.8l-1.4,2.3h-0.9l1.1-2.3
				H199z"/>
			<path class="st8" d="M208.8,456.8v4.5h-1.1v-4.1c0-1.6-0.8-2.1-1.7-2.1c-1.2,0-2.2,0.9-2.2,2.1c0,0.1,0,0.2,0,0.3v3.7h-1.1v-7h1
				l0.1,1.1c0.5-0.8,1.4-1.3,2.4-1.2c1.4-0.1,2.6,0.9,2.7,2.3C208.8,456.5,208.8,456.7,208.8,456.8z"/>
		</g>
		<g>
			<path class="st8" d="M173,518.1v1h-6.7v-9.2h6.5v1h-5.4v3h4.2v1h-4.2v3.1L173,518.1z"/>
			<path class="st8" d="M179,519.2l-1.9-2.7l-2,2.7h-1.3l2.7-3.5l-2.5-3.5h1.4l1.9,2.6l1.8-2.6h1.3l-2.5,3.4l2.6,3.6H179z"/>
			<path class="st8" d="M187.4,513.9l-1.1,0.5c-0.2-0.8-1-1.4-1.9-1.4c-1.4,0-2.2,1-2.2,2.7s0.8,2.7,2.2,2.7c0.9,0.1,1.8-0.5,2-1.4
				l1,0.4c-0.4,1.3-1.7,2.1-3,2.1c-2.1,0-3.4-1.4-3.4-3.6s1.3-3.6,3.4-3.6C185.7,511.9,186.9,512.7,187.4,513.9z"/>
			<path class="st8" d="M195.1,516.1h-5.3c0,1.2,1,2.2,2.2,2.2c0,0,0.1,0,0.1,0c0.8,0.1,1.6-0.3,2-1l0.9,0.5c-0.6,1-1.7,1.6-2.9,1.5
				c-2.1,0-3.4-1.4-3.4-3.6s1.2-3.7,3.3-3.7c1.7-0.1,3.1,1.2,3.1,2.9c0,0.1,0,0.3,0,0.4C195.1,515.5,195.1,515.8,195.1,516.1z
				 M189.8,515.1h4.2c-0.2-1.3-0.9-2.1-2.1-2.1C190.8,513,189.8,513.9,189.8,515.1C189.8,515.1,189.8,515.1,189.8,515.1z"/>
			<path class="st8" d="M203.1,508.9v10.2h-1l-0.1-1.2c-0.5,0.9-1.4,1.4-2.4,1.4c-2,0-3.2-1.4-3.2-3.6s1.2-3.6,3.2-3.6
				c0.9,0,1.8,0.4,2.3,1.2v-4.3L203.1,508.9z M202,515.7v-0.2c0-1.6-0.9-2.6-2.2-2.6s-2.2,1-2.2,2.7s0.8,2.7,2.2,2.7
				S202,517.3,202,515.7L202,515.7z"/>
			<path class="st8" d="M211.3,516.1H206c0,1.2,1,2.2,2.2,2.2c0,0,0.1,0,0.1,0c1,0,1.7-0.4,2-1l0.9,0.5c-0.6,1-1.7,1.6-2.9,1.5
				c-2.1,0-3.4-1.4-3.4-3.6s1.2-3.6,3.3-3.6c1.7-0.1,3.1,1.2,3.1,2.8c0,0.1,0,0.3,0,0.4C211.4,515.6,211.3,515.8,211.3,516.1z
				 M206,515.1h4.2c-0.2-1.3-0.9-2.1-2.1-2.1C207.1,512.9,206.1,513.8,206,515.1C206,515,206,515,206,515.1L206,515.1z"/>
			<path class="st8" d="M219.3,514.7v4.5h-1.1v-4.1c0-1.5-0.8-2.1-1.7-2.1c-1.2,0-2.2,0.9-2.2,2.1c0,0.1,0,0.2,0,0.3v3.7h-1.1v-7h1
				l0.1,1.1c0.5-0.8,1.4-1.3,2.4-1.2c1.4-0.1,2.6,0.9,2.7,2.3C219.3,514.4,219.3,514.5,219.3,514.7z"/>
			<path class="st8" d="M225.6,518.7c-0.5,0.4-1.1,0.7-1.8,0.6c-1,0.1-1.9-0.5-2-1.5c0-0.1,0-0.3,0-0.4v-4.3h-1.4v-1h1.4v-1.7
				l1.1-0.3v2h2.6v1H223v4.1c0,0.6,0.4,1,1,1c0,0,0,0,0.1,0c0.5,0,0.9-0.2,1.2-0.5L225.6,518.7z"/>
			<path class="st8" d="M232.8,516.1h-5.3c0,1.2,1,2.2,2.2,2.2c0,0,0.1,0,0.1,0c0.8,0.1,1.6-0.3,2-1l0.9,0.5c-0.6,1-1.7,1.6-2.9,1.5
				c-2.1,0-3.4-1.4-3.4-3.6s1.2-3.6,3.3-3.6c1.7-0.1,3.1,1.2,3.1,2.8c0,0.1,0,0.3,0,0.4C232.9,515.6,232.9,515.8,232.8,516.1z
				 M227.6,515.1h4.2c-0.2-1.3-0.9-2.1-2.1-2.1C228.6,512.9,227.6,513.9,227.6,515.1C227.6,515,227.6,515.1,227.6,515.1z"/>
			<path class="st8" d="M234,517.7l0.9-0.6c0.4,0.8,1.3,1.3,2.2,1.2c1.1,0,1.7-0.5,1.7-1s-0.4-0.8-1.8-1.1c-2-0.4-2.7-0.9-2.7-2.1
				s1.1-2.1,2.8-2.1c1.5,0,2.4,0.5,2.8,1.7l-0.9,0.6c-0.2-0.8-1-1.4-1.9-1.3c-0.9,0-1.6,0.5-1.6,1s0.5,0.9,1.9,1.2
				c2,0.3,2.7,0.9,2.7,2.1s-1.1,2.1-2.9,2.1C235.8,519.4,234.6,518.8,234,517.7z"/>
			<path class="st8" d="M252.3,508.9v10.2h-1l-0.1-1.2c-0.5,0.9-1.4,1.4-2.4,1.4c-1.9,0-3.2-1.4-3.2-3.6s1.2-3.6,3.2-3.6
				c0.9,0,1.8,0.4,2.3,1.2v-4.3L252.3,508.9z M251.2,515.7v-0.2c0-1.6-0.9-2.6-2.2-2.6s-2.2,1-2.2,2.7s0.8,2.7,2.2,2.7
				S251.2,517.3,251.2,515.7L251.2,515.7z"/>
			<path class="st8" d="M260.5,516.1h-5.3c0,1.2,1,2.2,2.2,2.2c0,0,0,0,0.1,0c1,0,1.7-0.4,2-1l0.9,0.5c-0.6,1-1.7,1.6-2.9,1.5
				c-2.1,0-3.4-1.4-3.4-3.6s1.2-3.6,3.3-3.6c1.7-0.1,3.1,1.2,3.1,2.8c0,0.1,0,0.3,0,0.4C260.6,515.6,260.6,515.8,260.5,516.1z
				 M255.3,515.1h4.2c0-1.1-0.8-2-1.9-2.1c0,0-0.1,0-0.1,0C256.3,513,255.3,513.9,255.3,515.1C255.3,515,255.3,515.1,255.3,515.1z"
				/>
			<path class="st8" d="M263.4,517.3c0,0.7,0.2,0.9,0.8,0.9c0.3,0,0.7-0.1,1-0.2l-0.2,1.1c-0.3,0.1-0.7,0.2-1,0.2
				c-1.1,0-1.7-0.6-1.7-1.9v-8.5h1.1L263.4,517.3z"/>
			<path class="st8" d="M269.6,517.7l0.9-0.6c0.4,0.8,1.3,1.3,2.2,1.2c1.1,0,1.7-0.5,1.7-1s-0.4-0.8-1.8-1.1c-2-0.4-2.7-0.9-2.7-2.1
				s1-2.1,2.8-2.1c1.5,0,2.4,0.5,2.8,1.7l-1,0.6c-0.2-0.8-1-1.3-1.8-1.3c-0.9,0-1.6,0.5-1.6,1s0.5,0.9,1.9,1.2
				c2,0.3,2.7,0.9,2.7,2.1s-1.1,2.1-2.9,2.1C271.4,519.4,270.2,518.8,269.6,517.7z"/>
			<path class="st8" d="M283.2,516.1h-5.3c0,1.2,1,2.2,2.2,2.2c0,0,0,0,0.1,0c1,0,1.7-0.4,2-1l0.9,0.5c-0.6,1-1.7,1.6-2.9,1.5
				c-2.1,0-3.4-1.4-3.4-3.6s1.1-3.7,3.3-3.7c1.7-0.1,3.1,1.2,3.1,2.8c0,0.1,0,0.3,0,0.4C283.3,515.5,283.2,515.8,283.2,516.1z
				 M277.9,515.1h4.2c0-1.1-0.8-2-1.9-2.1c0,0-0.1,0-0.1,0C279,513,278,513.9,277.9,515.1C277.9,515,277.9,515.1,277.9,515.1z"/>
			<path class="st8" d="M290.9,513.9l-1.1,0.5c-0.2-0.8-1-1.4-1.8-1.4c-1.4,0-2.2,1-2.2,2.7s0.8,2.7,2.2,2.7c0.9,0.1,1.8-0.5,2-1.4
				l1,0.4c-0.4,1.3-1.7,2.1-3,2.1c-2.1,0-3.4-1.4-3.4-3.6s1.3-3.7,3.4-3.7C289.3,512,290.4,512.7,290.9,513.9z"/>
			<path class="st8" d="M296.9,518.7c-0.5,0.4-1.1,0.7-1.8,0.6c-1,0.1-1.8-0.6-1.9-1.6c0-0.1,0-0.2,0-0.3v-4.3h-1.4v-1h1.4v-1.7
				l1.1-0.3v2h2.6v1h-2.6v4.1c0,0.6,0.4,1,1,1c0.5,0,0.9-0.2,1.2-0.5L296.9,518.7z"/>
			<path class="st8" d="M304.4,515.7c0,2.3-1.3,3.6-3.4,3.6s-3.4-1.4-3.4-3.6s1.3-3.6,3.4-3.6S304.4,513.4,304.4,515.7z
				 M298.8,515.7c0,1.7,0.9,2.7,2.3,2.7s2.3-1,2.3-2.7s-0.9-2.7-2.3-2.7S298.8,514,298.8,515.7z"/>
			<path class="st8" d="M310.3,512.2l-0.2,1.1c-0.3-0.1-0.6-0.2-0.9-0.2c-1.1,0.1-2,1.1-1.9,2.2c0,0,0,0.1,0,0.1v3.8h-1.1v-7h0.9
				l0.1,1.2c0.4-0.9,1.3-1.4,2.2-1.3C309.8,512,310.1,512,310.3,512.2z"/>
			<path class="st8" d="M321.6,513.9l-1.1,0.5c-0.2-0.8-1-1.4-1.9-1.4c-1.4,0-2.2,1-2.2,2.7s0.8,2.7,2.2,2.7c0.9,0.1,1.8-0.5,2-1.4
				l1,0.4c-0.4,1.3-1.7,2.1-3,2.1c-2.1,0-3.4-1.4-3.4-3.6s1.3-3.6,3.4-3.6C319.9,511.9,321.1,512.7,321.6,513.9z"/>
			<path class="st8" d="M329.6,515.7c0,2.3-1.3,3.6-3.4,3.6s-3.4-1.4-3.4-3.6s1.3-3.6,3.4-3.6S329.6,513.4,329.6,515.7z
				 M323.9,515.7c0,1.7,0.9,2.7,2.3,2.7s2.3-1,2.3-2.7s-0.9-2.7-2.3-2.7S324,514,323.9,515.7L323.9,515.7z"/>
			<path class="st8" d="M337.8,515.7c0,2.3-1.3,3.6-3.4,3.6s-3.4-1.4-3.4-3.6s1.3-3.6,3.4-3.6S337.8,513.4,337.8,515.7z
				 M332.1,515.7c0,1.7,0.9,2.7,2.3,2.7s2.3-1,2.3-2.7s-0.9-2.7-2.3-2.7S332.1,514,332.1,515.7z"/>
			<path class="st8" d="M346.2,515.7c0,2.3-1.2,3.6-3.2,3.6c-0.9,0-1.8-0.4-2.3-1.2v4h-1.1v-9.9h1l0.1,1.2c0.5-0.8,1.4-1.4,2.3-1.3
				C345,512,346.2,513.4,346.2,515.7z M345.1,515.7c0-1.6-0.8-2.7-2.2-2.7s-2.2,1-2.2,2.6v0.2c0,1.6,0.9,2.6,2.2,2.6
				S345.1,517.3,345.1,515.7L345.1,515.7z"/>
			<path class="st8" d="M354,516.1h-5.3c0,1.2,1,2.2,2.2,2.2c0,0,0,0,0.1,0c1,0,1.7-0.4,2-1l0.9,0.5c-0.6,1-1.7,1.6-2.9,1.5
				c-2.1,0-3.4-1.4-3.4-3.6s1.2-3.6,3.3-3.6c1.7-0.1,3.1,1.2,3.1,2.8c0,0.1,0,0.3,0,0.4C354.1,515.6,354,515.8,354,516.1z
				 M348.7,515.1h4.3c0-1.1-0.8-2-1.9-2.1c0,0-0.1,0-0.1,0C349.8,512.9,348.8,513.9,348.7,515.1C348.8,515,348.8,515.1,348.7,515.1
				L348.7,515.1z"/>
			<path class="st8" d="M359.9,512.2l-0.2,1.1c-0.3-0.1-0.6-0.2-0.9-0.2c-1.1,0.1-2,1.1-1.9,2.2c0,0,0,0.1,0,0.1v3.8h-1.1v-7h0.9
				l0.1,1.2c0.4-0.9,1.3-1.4,2.2-1.3C359.4,512,359.7,512,359.9,512.2z"/>
			<path class="st8" d="M367.3,518.3l-0.1,0.9c-0.3,0.1-0.6,0.1-0.8,0.1c-0.6,0.1-1.2-0.3-1.3-0.9c0,0,0,0,0-0.1
				c-0.5,0.7-1.4,1-2.2,1c-1.3,0-2.4-0.6-2.4-1.9c0-1,0.9-1.9,2.7-2.2l1.9-0.3v-0.4c0-0.8-0.6-1.5-1.4-1.5c-0.1,0-0.2,0-0.3,0
				c-0.9,0-1.7,0.5-2,1.3l-0.8-0.6c0.5-1.1,1.6-1.8,2.8-1.7c1.6,0,2.8,0.8,2.8,2.4v3.4c0,0.3,0.1,0.5,0.5,0.5
				C366.9,518.3,367.1,518.3,367.3,518.3z M365.1,516.8v-1l-1.6,0.3c-1.2,0.2-1.9,0.6-1.9,1.3s0.5,0.9,1.3,0.9
				C364.1,518.3,365.1,517.7,365.1,516.8L365.1,516.8z"/>
			<path class="st8" d="M372.6,518.7c-0.5,0.4-1.1,0.7-1.8,0.6c-1,0.1-1.9-0.5-2-1.5c0-0.1,0-0.3,0-0.4v-4.3h-1.4v-1h1.4v-1.7
				l1.1-0.3v2h2.6v1H370v4.1c0,0.6,0.4,1,1,1c0,0,0,0,0.1,0c0.5,0,0.9-0.2,1.2-0.5L372.6,518.7z"/>
			<path class="st8" d="M373.5,510c0-0.5,0.4-0.8,0.8-0.8s0.8,0.4,0.8,0.8c0,0,0,0,0,0c0,0.5-0.4,0.8-0.8,0.8S373.5,510.5,373.5,510
				C373.5,510,373.5,510,373.5,510z M374.9,519.2h-1.1v-7h1.1V519.2z"/>
			<path class="st8" d="M383,512.2l-2.9,7H379l-2.9-7h1.3l2.2,5.9l2.3-5.9H383z"/>
			<path class="st8" d="M390.5,515.7c0,2.3-1.3,3.6-3.4,3.6s-3.4-1.4-3.4-3.6s1.3-3.7,3.4-3.7S390.5,513.4,390.5,515.7z
				 M384.8,515.7c0,1.7,0.9,2.7,2.3,2.7s2.3-1,2.3-2.7s-0.9-2.7-2.3-2.7S384.8,514,384.8,515.7z"/>
		</g>
		<g>
			<path class="st8" d="M85.4,432.3v13.2H82v-9.8c-0.9,0.8-1.9,1.4-3.1,1.7l-0.3-2.8c1.5-0.3,3-1,4-2.2H85.4z"/>
			<path class="st8" d="M91.8,444.6c0,1.8-1.1,3.4-2.8,4l-1.5-1.1c1.1-0.3,2-1.1,2.4-2.1l-0.1-0.1c-0.2,0.2-0.4,0.2-0.6,0.2
				c-0.9,0-1.6-0.7-1.7-1.6c0,0,0-0.1,0-0.1c-0.1-1,0.7-1.8,1.7-1.9c0.1,0,0.2,0,0.3,0C91.1,442,91.8,443.2,91.8,444.6z"/>
			<path class="st8" d="M103.3,435.8c0.1,1.5-1,2.8-2.5,3v0.1c1.5,0,2.8,1.3,2.7,2.8c0,0.1,0,0.1,0,0.2c0,2.3-2.1,3.8-5.1,3.8
				c-2.8,0-4.5-1-5.2-3.3l3.1-1.3c0.1,1.4,0.9,2,2,2s1.9-0.6,1.8-1.6s-0.6-1.4-2-1.4h-0.7v-2.2h0.6c1.3,0,1.8-0.5,1.8-1.5
				c0.1-0.8-0.5-1.5-1.2-1.6c-0.1,0-0.2,0-0.3,0c-0.9-0.1-1.8,0.6-1.8,1.6c0,0.1,0,0.1,0,0.2l-3-1c0.5-2.5,2.5-3.4,5.1-3.4
				C101.6,432.1,103.3,433.5,103.3,435.8z"/>
			<path class="st8" d="M115.4,441c0,3.2-2.3,4.7-5.1,4.7c-2.3,0-4-0.7-5.2-2.6l3-1.7c0.1,1.1,1,1.8,2,1.8c0,0,0.1,0,0.1,0
				c1,0.1,1.9-0.6,2-1.6c0-0.1,0-0.2,0-0.3c0.1-1-0.7-1.8-1.6-1.9c-0.1,0-0.3,0-0.4,0c-0.8-0.1-1.5,0.2-2.1,0.8l-2.6-0.4l0.8-7.5
				h8.2v2.7h-5.7l-0.3,2.5c0,0.2-0.1,0.3-0.1,0.5l0,0c0.7-0.7,1.7-1,2.7-0.9c2.1-0.2,4,1.4,4.2,3.5
				C115.4,440.6,115.4,440.8,115.4,441z"/>
		</g>
		<g>
			<path class="st8" d="M73.7,502c0.1,1.5-1,2.8-2.5,3v0.1c1.5,0,2.8,1.3,2.7,2.8c0,0.1,0,0.1,0,0.2c0,2.3-2.1,3.8-5.1,3.8
				c-2.8,0-4.5-1-5.2-3.3l3.1-1.3c0.1,1.4,0.9,2,2,2s1.9-0.6,1.8-1.6s-0.6-1.4-2-1.4H68V504h0.6c1.3,0,1.8-0.5,1.8-1.5
				c0.1-0.8-0.5-1.5-1.3-1.5c-0.1,0-0.2,0-0.3,0c-0.9-0.1-1.8,0.6-1.8,1.6c0,0.1,0,0.1,0,0.2l-3-1c0.5-2.5,2.5-3.4,5.1-3.4
				C72,498.3,73.7,499.8,73.7,502z"/>
			<path class="st8" d="M74.9,505.1c0-4.5,1.8-6.8,5.5-6.8s5.5,2.3,5.5,6.8s-1.8,6.8-5.5,6.8S74.9,509.6,74.9,505.1z M82.4,505.1
				c0-3-0.6-4.1-2.1-4.1s-2.1,1.2-2.1,4.1s0.6,4.1,2.1,4.1S82.4,508.1,82.4,505.1z"/>
			<path class="st8" d="M86.8,505.1c0-4.5,1.8-6.8,5.5-6.8s5.5,2.3,5.5,6.8s-1.8,6.8-5.5,6.8S86.8,509.6,86.8,505.1z M94.3,505.1
				c0-3-0.6-4.1-2.1-4.1s-2.1,1.2-2.1,4.1s0.6,4.1,2.1,4.1S94.3,508.1,94.3,505.1z"/>
			<path class="st8" d="M120.1,505v6.7h-3.4v-5.9c0-1.3-0.5-1.7-1.4-1.7c-1,0-1.8,0.8-1.8,2.3v5.3h-3.4v-5.9c0-1.3-0.6-1.7-1.4-1.7
				s-1.8,0.7-1.8,2.3v5.3h-3.4v-10h3l0.1,1.9c0.6-1.3,1.9-2.2,3.4-2.1c1.4-0.1,2.7,0.7,3.2,2c0.6-1.3,1.9-2.1,3.4-2
				c1.8-0.1,3.3,1.2,3.5,3C120.1,504.7,120.1,504.9,120.1,505z"/>
			<path class="st8" d="M121.2,498.9c0-1.1,0.6-1.6,2-1.6s2,0.5,2,1.6s-0.6,1.6-2,1.6S121.2,500,121.2,498.9z M124.8,511.7h-3.4v-10
				h3.4V511.7z"/>
			<path class="st8" d="M129.6,508.2c0,0.9,0.2,1.2,0.9,1.2c0.3,0,0.7-0.1,1-0.2l-0.2,2.1c-0.6,0.3-1.4,0.5-2.1,0.5
				c-2.1,0-3-0.9-3-3.2v-11.3h3.4L129.6,508.2z"/>
		</g>
		<g>
			<path class="st8" d="M76.7,523.7v5.8h-1.4v-5.6c0.2-1.1-0.6-2.1-1.7-2.3c-0.2,0-0.3,0-0.5,0c-1.5,0-2.7,1.2-2.7,2.7
				c0,0.1,0,0.2,0,0.3v4.9h-1.4v-5.6c0.2-1.1-0.6-2.1-1.7-2.3c-0.2,0-0.3,0-0.5,0c-1.2,0-2.7,0.9-2.7,3.1v4.8h-1.4v-9h1.3l0.1,1.4
				c0.6-1,1.7-1.6,2.9-1.6c1.3-0.1,2.5,0.6,3.1,1.8c0.6-1.1,1.8-1.8,3.1-1.8c1.8-0.1,3.3,1.2,3.4,3
				C76.7,523.4,76.7,523.6,76.7,523.7z"/>
			<path class="st8" d="M79.2,517.7c0-0.6,0.5-1.1,1.1-1.1c0.6,0,1.1,0.5,1.1,1.1c0,0.6-0.5,1.1-1.1,1.1c-0.6,0-1-0.4-1.1-0.9
				C79.2,517.8,79.2,517.7,79.2,517.7z M81,529.5h-1.5v-9H81V529.5z"/>
			<path class="st8" d="M85.2,527.1c0,0.9,0.2,1.2,1,1.2c0.5,0,0.9-0.1,1.3-0.3l-0.2,1.4c-0.4,0.2-0.9,0.3-1.3,0.2
				c-1.5,0-2.2-0.8-2.2-2.4v-10.9h1.4L85.2,527.1z"/>
			<path class="st8" d="M90.3,527.1c0,0.9,0.2,1.2,1,1.2c0.5,0,0.9-0.1,1.3-0.3l-0.2,1.4c-0.4,0.2-0.9,0.3-1.3,0.2
				c-1.4,0-2.2-0.8-2.2-2.4v-10.9h1.4L90.3,527.1z"/>
			<path class="st8" d="M102.1,525c0,2.9-1.6,4.7-4.4,4.7s-4.3-1.8-4.3-4.7s1.6-4.7,4.3-4.7S102.1,522,102.1,525z M94.9,525
				c0,2.1,1.1,3.4,2.9,3.4s2.9-1.3,2.9-3.4s-1.1-3.4-2.9-3.4S94.9,522.8,94.9,525z"/>
			<path class="st8" d="M112.3,523.7v5.8h-1.4v-5.3c0-2-1-2.7-2.2-2.7s-2.8,0.8-2.8,3.1v4.8h-1.4v-9h1.3l0.1,1.4
				c0.6-1,1.8-1.7,3-1.6c1.8-0.2,3.3,1.1,3.5,2.9C112.4,523.4,112.4,523.5,112.3,523.7z"/>
			<path class="st8" d="M122.8,525.5H116c0,1.6,1.2,2.9,2.8,2.9c0,0,0.1,0,0.1,0c1,0.2,2.1-0.4,2.5-1.3l1.2,0.6
				c-0.7,1.4-2.2,2.1-3.7,2c-2.7,0-4.4-1.8-4.4-4.7s1.5-4.7,4.2-4.7c2.2-0.1,3.9,1.6,4,3.8c0,0.1,0,0.3,0,0.4
				C122.8,524.9,122.8,525.2,122.8,525.5z M116,524.2h5.5c-0.2-1.7-1.1-2.7-2.7-2.7C117.3,521.5,116.1,522.7,116,524.2
				C116,524.2,116,524.2,116,524.2z"/>
			<path class="st8" d="M124.4,527.6l1.2-0.8c0.5,1.1,1.7,1.7,2.8,1.6c1.5,0,2.2-0.6,2.2-1.3s-0.6-1.1-2.4-1.4
				c-2.6-0.5-3.5-1.2-3.5-2.7s1.3-2.7,3.5-2.7c1.9,0,3.1,0.7,3.6,2.2l-1.2,0.7c-0.3-1-1.3-1.7-2.3-1.6c-1.2,0-2.1,0.7-2.1,1.3
				s0.6,1.2,2.4,1.5c2.5,0.4,3.4,1.2,3.4,2.7s-1.5,2.7-3.8,2.7C126.7,529.8,125.2,529,124.4,527.6z"/>
		</g>
		<g>
			<path class="st8" d="M74.3,460.1c0,2.9-1.6,4.7-4.1,4.7c-1.3,0-2.5-0.6-3.1-1.8l-0.1,1.6h-1.3v-13.1h1.4v5.6c0.6-1,1.8-1.6,3-1.6
				C72.7,455.4,74.3,457.1,74.3,460.1z M72.8,460.1c0-2.1-1.1-3.4-2.8-3.4s-2.8,1.3-2.8,3.3v0.2c0,2,1.1,3.3,2.8,3.3
				S72.8,462.2,72.8,460.1z"/>
			<path class="st8" d="M76.2,452.8c0-0.6,0.5-1.1,1.1-1.1s1.1,0.5,1.1,1.1s-0.5,1.1-1.1,1.1c0,0,0,0,0,0c-0.6,0-1-0.4-1.1-0.9
				C76.2,452.9,76.2,452.8,76.2,452.8z M78.1,464.6h-1.4v-9h1.4V464.6z"/>
			<path class="st8" d="M82.3,462.2c0,0.9,0.2,1.2,1,1.2c0.5,0,0.9-0.1,1.3-0.3l-0.2,1.4c-0.4,0.2-0.9,0.3-1.3,0.2
				c-1.5,0-2.2-0.8-2.2-2.4v-10.9h1.4L82.3,462.2z"/>
			<path class="st8" d="M87.4,462.2c0,0.9,0.2,1.2,1,1.2c0.5,0,0.9-0.1,1.3-0.3l-0.2,1.4c-0.4,0.2-0.9,0.3-1.3,0.2
				c-1.5,0-2.2-0.8-2.2-2.4v-10.9h1.4L87.4,462.2z"/>
			<path class="st8" d="M99.2,460.1c0,2.9-1.6,4.7-4.3,4.7s-4.4-1.8-4.4-4.7s1.6-4.7,4.4-4.7S99.2,457.1,99.2,460.1z M92,460.1
				c0,2.1,1.1,3.4,2.9,3.4s2.9-1.3,2.9-3.4s-1.1-3.4-2.9-3.4S92,457.9,92,460.1L92,460.1z"/>
			<path class="st8" d="M109.4,458.8v5.8H108v-5.3c0-2-1-2.7-2.2-2.7s-2.8,0.8-2.8,3.1v4.8h-1.4v-9h1.3l0.1,1.4c0.6-1,1.8-1.7,3-1.6
				c1.8-0.2,3.4,1.1,3.5,2.9C109.5,458.5,109.5,458.6,109.4,458.8z"/>
			<path class="st8" d="M119.9,460.6h-6.8c0,1.6,1.2,2.9,2.8,2.9c0,0,0.1,0,0.1,0c1.3,0,2.2-0.5,2.5-1.3l1.2,0.6
				c-0.7,1.4-2.2,2.1-3.8,2c-2.7,0-4.4-1.8-4.4-4.7s1.5-4.7,4.2-4.7c2.2-0.1,3.9,1.6,4,3.8c0,0.1,0,0.3,0,0.4
				C120,460,119.9,460.3,119.9,460.6z M113.1,459.3h5.4c-0.2-1.6-1.1-2.7-2.7-2.7C114.4,456.6,113.2,457.8,113.1,459.3
				C113.1,459.3,113.1,459.3,113.1,459.3z"/>
			<path class="st8" d="M121.4,462.7l1.2-0.8c0.5,1.1,1.7,1.7,2.8,1.6c1.5,0,2.2-0.6,2.2-1.3s-0.6-1.1-2.3-1.4
				c-2.6-0.5-3.5-1.2-3.5-2.7s1.3-2.7,3.6-2.7c1.9,0,3.1,0.7,3.6,2.2l-1.2,0.7c-0.3-1-1.3-1.7-2.3-1.6c-1.2,0-2.1,0.6-2.1,1.3
				s0.6,1.2,2.4,1.5c2.5,0.4,3.4,1.2,3.4,2.6s-1.4,2.7-3.8,2.7C123.7,464.9,122.2,464.1,121.4,462.7z"/>
		</g>
		<g>
			<path class="st8" d="M74.3,396.5c0,2.9-1.6,4.7-4.1,4.7c-1.3,0-2.5-0.6-3.1-1.8L67,401h-1.3v-13.1h1.4v5.5c0.6-1,1.8-1.6,3-1.6
				C72.7,391.8,74.3,393.6,74.3,396.5z M72.8,396.5c0-2.1-1.1-3.4-2.8-3.4s-2.8,1.3-2.8,3.3v0.2c0,2,1.1,3.3,2.8,3.3
				S72.8,398.6,72.8,396.5z"/>
			<path class="st8" d="M76.2,389.2c0-0.6,0.5-1.1,1.1-1.1s1.1,0.5,1.1,1.1s-0.5,1.1-1.1,1.1S76.2,389.8,76.2,389.2z M78.1,401h-1.4
				v-9h1.4V401z"/>
			<path class="st8" d="M82.3,398.6c0,0.9,0.2,1.2,1,1.2c0.5,0,0.9-0.1,1.3-0.2l-0.2,1.4c-0.4,0.2-0.9,0.3-1.3,0.3
				c-1.5,0-2.2-0.8-2.2-2.4v-10.9h1.4L82.3,398.6z"/>
			<path class="st8" d="M87.4,398.6c0,0.9,0.2,1.2,1,1.2c0.4,0,0.9-0.1,1.3-0.2l-0.2,1.4c-0.4,0.2-0.9,0.3-1.3,0.3
				c-1.5,0-2.2-0.8-2.2-2.4v-10.9h1.4L87.4,398.6z"/>
			<path class="st8" d="M99.2,396.5c0,2.9-1.6,4.7-4.3,4.7s-4.4-1.8-4.4-4.7s1.6-4.7,4.4-4.7S99.2,393.6,99.2,396.5z M92,396.5
				c0,2.1,1.1,3.4,2.9,3.4s2.9-1.3,2.9-3.4s-1.1-3.4-2.9-3.4S92,394.4,92,396.5L92,396.5z"/>
			<path class="st8" d="M109.4,395.2v5.8H108v-5.3c0-2-1-2.7-2.2-2.7s-2.8,0.8-2.8,3.1v4.8h-1.4v-9h1.3l0.1,1.4
				c1.1-1.6,3.3-2.1,4.9-1C108.8,393,109.4,394.1,109.4,395.2L109.4,395.2z"/>
			<path class="st8" d="M119.9,397h-6.8c0,1.6,1.2,2.9,2.8,2.9c0,0,0.1,0,0.1,0c1.3,0,2.2-0.5,2.5-1.3l1.2,0.6
				c-0.7,1.4-2.2,2.1-3.8,2c-2.7,0-4.4-1.8-4.4-4.7s1.5-4.7,4.2-4.7c2.2-0.1,3.9,1.6,4,3.8c0,0.1,0,0.3,0,0.4
				C120,396.4,119.9,396.7,119.9,397z M113.1,395.7h5.4c-0.2-1.7-1.1-2.7-2.7-2.7C114.4,393,113.2,394.1,113.1,395.7
				C113.1,395.7,113.1,395.7,113.1,395.7L113.1,395.7z"/>
			<path class="st8" d="M121.4,399.1l1.2-0.8c0.5,1.1,1.7,1.7,2.8,1.6c1.5,0,2.2-0.6,2.2-1.3s-0.6-1.1-2.3-1.4
				c-2.6-0.5-3.5-1.2-3.5-2.7s1.3-2.7,3.6-2.7c1.9,0,3.1,0.7,3.6,2.2l-1.2,0.7c-0.3-1-1.3-1.7-2.3-1.6c-1.2,0-2.1,0.6-2.1,1.3
				s0.6,1.2,2.4,1.5c2.5,0.4,3.4,1.2,3.4,2.6s-1.4,2.7-3.8,2.7C123.7,401.3,122.2,400.5,121.4,399.1z"/>
		</g>
		<g>
			<path class="st8" d="M74.3,291c0,2.9-1.6,4.7-4.1,4.7c-1.3,0-2.5-0.6-3.1-1.8l-0.1,1.6h-1.3v-13.1h1.4v5.5c0.6-1,1.8-1.6,3-1.6
				C72.7,286.3,74.3,288,74.3,291z M72.8,291c0-2.1-1.1-3.4-2.8-3.4s-2.8,1.3-2.8,3.3v0.2c0,2,1.1,3.3,2.8,3.3S72.8,293.1,72.8,291z
				"/>
			<path class="st8" d="M76.2,283.7c0-0.6,0.5-1.1,1.1-1.1s1.1,0.5,1.1,1.1s-0.5,1.1-1.1,1.1c0,0,0,0,0,0c-0.6,0-1-0.4-1.1-0.9
				C76.2,283.8,76.2,283.7,76.2,283.7z M78.1,295.5h-1.4v-9h1.4V295.5z"/>
			<path class="st8" d="M82.3,293.1c0,0.9,0.2,1.2,1,1.2c0.5,0,0.9-0.1,1.3-0.2l-0.2,1.4c-0.4,0.2-0.9,0.3-1.3,0.2
				c-1.5,0-2.2-0.8-2.2-2.4v-10.9h1.4L82.3,293.1z"/>
			<path class="st8" d="M87.4,293.1c0,0.9,0.2,1.2,1,1.2c0.4,0,0.9-0.1,1.3-0.2l-0.2,1.4c-0.4,0.2-0.9,0.3-1.3,0.2
				c-1.5,0-2.2-0.8-2.2-2.4v-10.9h1.4L87.4,293.1z"/>
			<path class="st8" d="M99.2,291c0,2.9-1.6,4.7-4.3,4.7s-4.4-1.8-4.4-4.7s1.6-4.7,4.4-4.7S99.2,288.1,99.2,291z M92,291
				c0,2.1,1.1,3.4,2.9,3.4s2.9-1.3,2.9-3.4s-1.1-3.4-2.9-3.4S92,288.8,92,291z"/>
			<path class="st8" d="M109.4,289.7v5.8H108v-5.3c0-2-1-2.7-2.2-2.7s-2.8,0.8-2.8,3.1v4.8h-1.4v-9h1.3l0.1,1.4c0.6-1,1.8-1.7,3-1.6
				c1.8-0.2,3.4,1.1,3.5,2.9C109.5,289.4,109.5,289.5,109.4,289.7z"/>
			<path class="st8" d="M119.9,291.5h-6.8c0,1.6,1.2,2.9,2.8,2.9c0,0,0.1,0,0.1,0c1.3,0,2.2-0.5,2.5-1.3l1.2,0.6
				c-0.7,1.4-2.2,2.1-3.8,2c-2.7,0-4.4-1.8-4.4-4.7s1.5-4.7,4.2-4.7c2.2-0.1,3.9,1.6,4,3.8c0,0.1,0,0.3,0,0.4
				C120,290.9,119.9,291.2,119.9,291.5z M113.1,290.2h5.4c-0.2-1.7-1.1-2.7-2.7-2.7C114.4,287.5,113.2,288.7,113.1,290.2
				C113.1,290.2,113.1,290.2,113.1,290.2z"/>
			<path class="st8" d="M121.4,293.6l1.2-0.8c0.5,1.1,1.7,1.7,2.8,1.6c1.5,0,2.2-0.6,2.2-1.3s-0.6-1.1-2.3-1.4
				c-2.6-0.5-3.5-1.2-3.5-2.7s1.3-2.7,3.6-2.7c1.9,0,3.1,0.7,3.6,2.2l-1.2,0.7c-0.3-1-1.3-1.7-2.3-1.6c-1.2,0-2.1,0.6-2.1,1.3
				s0.6,1.2,2.4,1.5c2.5,0.4,3.4,1.2,3.4,2.6s-1.4,2.7-3.8,2.7C123.7,295.8,122.2,295,121.4,293.6z"/>
		</g>
		<circle id="Elipse_276" class="st9" cx="37.6" cy="280.4" r="7.7"/>
		<g>
			<path class="st3" d="M38.5,276.2v7.9h-2v-5.9c-0.5,0.5-1.2,0.8-1.9,1l-0.2-1.7c0.9-0.1,1.8-0.6,2.4-1.3L38.5,276.2z"/>
		</g>
		<circle id="Elipse_277" class="st9" cx="37.7" cy="385" r="7.7"/>
		<g>
			<path class="st3" d="M34.4,386.9c2.7-1.7,3.8-2.9,3.8-4c0-0.6-0.4-1-0.9-1.1c0,0-0.1,0-0.1,0c-0.8,0-1.2,0.6-1.2,1.6l-1.8-0.5
				c0-1.8,1.3-2.7,3.1-2.7c2.1,0,3,1.3,3,2.5c0,1.5-1.2,2.7-3.4,4l0,0c0.4,0,1.1,0,1.6,0h1.8v1.6h-5.9V386.9z"/>
		</g>
		<circle id="Elipse_278" class="st9" cx="37.7" cy="447.7" r="7.7"/>
		<g>
			<path class="st3" d="M40.1,445.3c0.1,0.9-0.6,1.7-1.5,1.8l0,0c0.9,0,1.7,0.8,1.6,1.7c0,0,0,0.1,0,0.1c0,1.4-1.3,2.3-3.1,2.3
				s-2.7-0.6-3.1-2l1.9-0.8c0.1,0.9,0.5,1.2,1.2,1.2s1.1-0.4,1.1-1s-0.4-0.9-1.2-0.9h-0.4v-1.3H37c0.8,0,1.1-0.3,1.1-0.9
				c0.1-0.5-0.3-0.9-0.7-0.9c-0.1,0-0.1,0-0.2,0c-0.5-0.1-1.1,0.3-1.2,0.8c0,0.1,0,0.3,0,0.4l-1.8-0.6c0.3-1.5,1.5-2,3-2
				C39.1,443.1,40.1,444,40.1,445.3z"/>
		</g>
		<circle id="Elipse_279" class="st9" cx="37.7" cy="512.2" r="7.7"/>
		<g>
			<path class="st3" d="M41.3,514.5H40v1.9h-2v-1.9h-4.3v-1.1l3.7-5.6H40v5.2h1.3L41.3,514.5z M35.8,513H38v-2.3l0.1-1.4l0,0
				c-0.2,0.5-0.5,1-0.8,1.4L35.8,513z"/>
		</g>
		<g>
			<path class="st8" d="M128.2,324.3h-1.3v-7.9h1.3V324.3z"/>
			<path class="st8" d="M136.1,318.9c0,1.5-1.1,2.5-2.8,2.5h-1.8v3h-1.3v-7.9h3.1C135,316.4,136.1,317.3,136.1,318.9z M134.8,318.9
				c0-0.9-0.5-1.4-1.7-1.4h-1.6v2.7h1.6C134.3,320.2,134.8,319.8,134.8,318.9z"/>
			<path class="st8" d="M140.8,324.4c-2.3,0-3.7-1.6-3.7-4.1s1.4-4.1,3.7-4.1c1.4-0.1,2.7,0.7,3.2,2l-1.2,0.5
				c-0.2-0.9-1-1.4-1.9-1.4c-1.5,0-2.4,1.1-2.4,3s0.9,3,2.4,3c0.9,0,1.8-0.6,2-1.5l1.2,0.4C143.5,323.6,142.2,324.5,140.8,324.4z"/>
			<path class="st8" d="M154.4,321H152v2.5h-1.1V321h-2.4v-1.1h2.4v-2.5h1.1v2.5h2.4L154.4,321z"/>
			<path class="st8" d="M164.5,318.4c0.1,0.9-0.6,1.8-1.5,1.9l0,0c0.9,0,1.7,0.8,1.7,1.7c0,0,0,0.1,0,0.1c0,1.3-1.1,2.3-2.9,2.3
				c-1.3,0.1-2.5-0.7-2.8-1.9l1.2-0.6c0.1,0.8,0.9,1.5,1.7,1.4c1,0,1.5-0.5,1.5-1.3s-0.5-1.2-1.6-1.2h-0.4v-1h0.3
				c1,0,1.5-0.4,1.5-1.2c0.1-0.6-0.4-1.2-1-1.3c-0.1,0-0.2,0-0.3,0c-0.7-0.1-1.4,0.4-1.5,1.2l-1.2-0.5c0.4-1.2,1.5-1.9,2.7-1.8
				C163.6,316.3,164.5,317.2,164.5,318.4z"/>
			<path class="st8" d="M167.8,324c0,0.9-0.6,1.8-1.4,2.1l-0.6-0.5c0.6-0.2,1.1-0.6,1.3-1.2h-0.1c-0.1,0.1-0.2,0.1-0.3,0.1
				c-0.4,0-0.8-0.4-0.8-0.8c0,0,0,0,0,0c0-0.5,0.4-0.9,0.8-0.9c0,0,0,0,0.1,0C167.4,322.7,167.8,323.2,167.8,324z"/>
			<path class="st8" d="M174.4,321.7c0.1,1.4-1,2.6-2.4,2.7c-0.1,0-0.3,0-0.4,0c-1.2,0.1-2.4-0.6-2.9-1.7l1.2-0.7
				c0.1,0.8,0.8,1.4,1.6,1.3c0.8,0.1,1.5-0.5,1.6-1.2c0-0.1,0-0.2,0-0.3c0.1-0.8-0.5-1.4-1.2-1.5c-0.1,0-0.2,0-0.3,0
				c-0.6,0-1.2,0.2-1.6,0.7l-1.1-0.1l0.5-4.5h4.6v1.1h-3.6l-0.3,2.2v0.2l0,0c0.5-0.5,1.1-0.7,1.8-0.6c1.3-0.1,2.4,0.9,2.5,2.2
				C174.4,321.5,174.4,321.6,174.4,321.7z"/>
			<path class="st8" d="M179.2,318.5c-0.1,1.1-1.1,1.9-2.2,1.8c-1.1-0.1-1.9-1.1-1.8-2.2c0.1-1,1-1.8,2-1.8c1.1,0,2,0.9,2,2
				C179.2,318.3,179.2,318.4,179.2,318.5z M176.3,318.5c0,0.8,0.3,1.3,0.9,1.3s1-0.5,1-1.3s-0.3-1.3-1-1.3S176.3,317.7,176.3,318.5z
				 M182.1,316.4h1.1l-5.2,7.9h-1.1L182.1,316.4z M184.9,322.2c-0.1,1.1-1.1,1.9-2.2,1.8c-1.1-0.1-1.9-1.1-1.8-2.2
				c0.1-1,1-1.8,2-1.8c1.1,0,2,0.9,2,2C184.9,322.1,184.9,322.1,184.9,322.2z M181.9,322.2c0,0.8,0.3,1.3,0.9,1.3s1-0.5,1-1.3
				s-0.3-1.3-1-1.3S181.9,321.4,181.9,322.2z"/>
		</g>
		<g>
			<path class="st8" d="M127,342.8h-1.3v-7.9h1.3V342.8z"/>
			<path class="st8" d="M134.9,337.4c0,1.5-1.1,2.5-2.8,2.5h-1.8v3h-1.3v-7.9h3.1C133.8,334.9,134.9,335.9,134.9,337.4z
				 M133.6,337.4c0-0.9-0.5-1.4-1.6-1.4h-1.6v2.7h1.6C133.1,338.8,133.6,338.3,133.6,337.4z"/>
			<path class="st8" d="M139.6,343c-2.3,0-3.7-1.6-3.7-4.1s1.4-4.1,3.7-4.1c1.4-0.1,2.7,0.7,3.2,1.9l-1.2,0.5
				c-0.2-0.9-1-1.4-1.9-1.4c-1.5,0-2.4,1.1-2.4,3s0.9,3,2.4,3c0.9,0,1.8-0.6,2-1.5l1.2,0.4C142.3,342.2,141,343.1,139.6,343z"/>
			<path class="st8" d="M153.2,339.5h-2.4v2.5h-1.1v-2.5h-2.4v-1.1h2.4V336h1.1v2.5h2.4V339.5z"/>
			<path class="st8" d="M164.1,340.9h-1.3v2h-1.2v-2h-3.9v-0.8l3.5-5.1h1.6v4.9h1.3V340.9z M158.9,339.9h2.6v-2.7l0.1-1.3l0,0
				c-0.2,0.5-0.5,0.9-0.8,1.3L158.9,339.9z"/>
			<path class="st8" d="M168.8,337c-0.1,1.1-1.1,1.9-2.2,1.8c-1.1-0.1-1.9-1.1-1.8-2.2c0.1-1,1-1.8,2-1.8c1.1,0,2,0.9,2,2
				C168.8,336.9,168.8,336.9,168.8,337z M165.8,337c0,0.8,0.3,1.3,0.9,1.3s1-0.5,1-1.3s-0.3-1.3-1-1.3S165.8,336.2,165.8,337z
				 M171.7,334.9h1.1l-5.2,7.9h-1.1L171.7,334.9z M174.4,340.8c-0.1,1.1-1.1,1.9-2.2,1.8c-1.1-0.1-1.9-1.1-1.8-2.2
				c0.1-1,1-1.8,2-1.8c1.1,0,2,0.9,2,2C174.5,340.6,174.4,340.7,174.4,340.8L174.4,340.8z M171.5,340.8c0,0.8,0.3,1.3,0.9,1.3
				s1-0.5,1-1.3s-0.3-1.3-1-1.3S171.5,340,171.5,340.8L171.5,340.8z"/>
		</g>
		<g>
			<path class="st8" d="M82.7,323.3c2.7-1.7,3.8-2.9,3.8-4c0-0.6-0.4-1-0.9-1.1c0,0-0.1,0-0.1,0c-0.8,0-1.2,0.6-1.2,1.6l-1.8-0.5
				c0-1.8,1.3-2.7,3.1-2.7c2.1,0,3,1.3,3,2.5c0,1.5-1.2,2.7-3.3,4l0,0l1.6-0.1h1.8v1.6h-5.9V323.3z"/>
			<path class="st8" d="M89.4,320.6c0-2.7,1-4.1,3.3-4.1s3.3,1.4,3.3,4.1s-1,4.1-3.3,4.1S89.4,323.3,89.4,320.6z M93.9,320.6
				c0-1.8-0.4-2.5-1.3-2.5s-1.2,0.7-1.2,2.5s0.4,2.5,1.3,2.5S94,322.4,93.9,320.6L93.9,320.6z"/>
			<path class="st8" d="M100.6,316.6l0.1,7.9h-2v-5.9c-0.5,0.5-1.2,0.8-1.9,1l-0.2-1.7c0.9-0.2,1.8-0.6,2.4-1.4L100.6,316.6z"/>
			<path class="st8" d="M108.1,320.5c0,2.8-1.2,4-3.3,4.1c-1.2,0.2-2.4-0.5-2.9-1.7l1.8-0.7c0.1,0.5,0.5,0.9,1.1,0.9
				c1,0,1.5-0.8,1.4-2.2v-0.2l0,0c-0.3,0.7-1.1,1.1-1.9,1.1c-1.4,0.1-2.5-1-2.6-2.3c0-0.1,0-0.1,0-0.2c0-1.7,1.1-2.7,3.1-2.7
				S108.1,317.9,108.1,320.5z M103.6,319.1c0,0.6,0.4,1,0.9,1.1c0.1,0,0.1,0,0.2,0c0.6,0.1,1.1-0.4,1.2-1c0.1-0.6-0.4-1.1-1-1.2
				c-0.1,0-0.1,0-0.2,0C104,318.1,103.6,318.5,103.6,319.1L103.6,319.1z"/>
		</g>
		<g>
			<path class="st8" d="M79.6,340.8c2.7-1.7,3.8-2.9,3.8-4c0-0.6-0.4-1-0.9-1.1c0,0-0.1,0-0.1,0c-0.8,0-1.2,0.5-1.2,1.6l-1.8-0.6
				c0.1-1.8,1.3-2.7,3.1-2.7c2.1,0,3,1.3,3,2.6c0,1.5-1.2,2.7-3.4,3.9l0,0c0.4,0,1.1,0,1.6,0h1.9v1.6l-5.9,0L79.6,340.8z"/>
			<path class="st8" d="M86.3,338.2c0-2.7,1.1-4.1,3.3-4s3.3,1.4,3.2,4.1s-1.1,4.1-3.3,4S86.3,340.9,86.3,338.2z M90.8,338.2
				c0-1.8-0.3-2.5-1.2-2.5s-1.2,0.7-1.3,2.5s0.3,2.5,1.2,2.5S90.8,340,90.8,338.2L90.8,338.2z"/>
			<path class="st8" d="M93.8,340.9c2.7-1.7,3.8-2.9,3.8-4c0-0.6-0.4-1-0.9-1.1c0,0-0.1,0-0.1,0c-0.8,0-1.2,0.5-1.2,1.6l-1.8-0.6
				c0.1-1.8,1.3-2.7,3.1-2.7c2.1,0,3,1.3,3,2.6c0,1.5-1.2,2.7-3.4,3.9l0,0c0.4,0,1.1,0,1.6,0h1.8v1.6h-5.9L93.8,340.9z"/>
			<path class="st8" d="M100.6,338.3c0-2.7,1.1-4.1,3.3-4s3.3,1.4,3.2,4.1s-1.1,4.1-3.3,4S100.6,341,100.6,338.3z M105.1,338.3
				c0-1.8-0.3-2.5-1.2-2.5s-1.2,0.7-1.3,2.5s0.4,2.5,1.2,2.5S105.1,340.1,105.1,338.3L105.1,338.3z"/>
		</g>
		<g>
			<path class="st8" d="M255.9,324.3h-1.3v-7.9h1.3V324.3z"/>
			<path class="st8" d="M263.8,318.9c0,1.5-1.1,2.5-2.8,2.5h-1.8v3H258v-7.9h3C262.7,316.4,263.8,317.3,263.8,318.9z M262.5,318.9
				c0-0.9-0.5-1.4-1.7-1.4h-1.6v2.7h1.6C262,320.2,262.5,319.8,262.5,318.9z"/>
			<path class="st8" d="M268.5,324.4c-2.3,0-3.7-1.6-3.7-4.1s1.5-4.1,3.7-4.1c1.4-0.1,2.7,0.7,3.2,2l-1.2,0.5
				c-0.2-0.9-1-1.4-1.9-1.4c-1.5,0-2.5,1.1-2.5,3s0.9,3,2.4,3c0.9,0,1.8-0.6,2-1.5l1.2,0.4C271.2,323.6,269.9,324.5,268.5,324.4z"/>
			<path class="st8" d="M282.1,321h-2.4v2.5h-1.1V321h-2.4v-1.1h2.4v-2.5h1.1v2.5h2.4V321z"/>
			<path class="st8" d="M293,322.3h-1.4v2h-1.2v-2h-3.9v-0.8l3.5-5.2h1.6v4.9h1.3V322.3z M287.8,321.3h2.6v-2.7v-1.3l0,0
				c-0.2,0.5-0.5,0.9-0.8,1.3L287.8,321.3z"/>
			<path class="st8" d="M295.8,324c0,0.9-0.5,1.8-1.4,2.1l-0.6-0.5c0.6-0.2,1.1-0.6,1.3-1.2H295c-0.1,0.1-0.2,0.1-0.3,0.1
				c-0.4,0-0.8-0.4-0.8-0.8c0,0,0,0,0,0c0-0.5,0.4-0.9,0.8-0.9c0,0,0,0,0.1,0C295.4,322.7,295.8,323.2,295.8,324z"/>
			<path class="st8" d="M302.4,321.7c0.1,1.4-1,2.6-2.4,2.7c-0.1,0-0.3,0-0.4,0c-1.2,0.1-2.4-0.6-2.9-1.7l1.2-0.7
				c0.1,0.8,0.8,1.4,1.6,1.3c0.8,0.1,1.5-0.5,1.6-1.3c0-0.1,0-0.2,0-0.3c0.1-0.8-0.5-1.4-1.2-1.5c-0.1,0-0.2,0-0.3,0
				c-0.7-0.1-1.3,0.2-1.7,0.8l-1.1-0.1l0.5-4.5h4.6v1.1h-3.6l-0.3,2.2v0.2l0,0c0.5-0.5,1.1-0.7,1.8-0.6c1.3-0.1,2.4,0.9,2.5,2.2
				C302.4,321.5,302.4,321.6,302.4,321.7z"/>
			<path class="st8" d="M307.2,318.5c-0.1,1.1-1.1,1.9-2.2,1.8c-1.1-0.1-1.9-1.1-1.8-2.2c0.1-1,1-1.8,2-1.8c1.1,0,2,0.9,2,2
				C307.3,318.3,307.3,318.4,307.2,318.5z M304.3,318.5c0,0.8,0.3,1.3,1,1.3s1-0.5,1-1.3s-0.3-1.3-1-1.3S304.3,317.7,304.3,318.5z
				 M310.1,316.4h1.1l-5.2,7.9h-1.1L310.1,316.4z M312.9,322.2c-0.1,1.1-1.1,1.9-2.2,1.8c-1.1-0.1-1.9-1.1-1.8-2.2
				c0.1-1,1-1.8,2-1.8c1.1,0,2,0.9,2,2C312.9,322.1,312.9,322.1,312.9,322.2z M309.9,322.2c0,0.8,0.3,1.3,1,1.3s1-0.5,1-1.3
				s-0.3-1.3-1-1.3S310,321.4,309.9,322.2L309.9,322.2z"/>
		</g>
		<g>
			<path class="st8" d="M255.9,342.8h-1.3v-7.9h1.3V342.8z"/>
			<path class="st8" d="M263.8,337.4c0,1.5-1.1,2.5-2.8,2.5h-1.8v3H258v-7.9h3C262.7,334.9,263.8,335.9,263.8,337.4z M262.5,337.4
				c0-0.9-0.5-1.4-1.7-1.4h-1.6v2.7h1.6C262,338.8,262.5,338.3,262.5,337.4z"/>
			<path class="st8" d="M268.5,343c-2.3,0-3.7-1.6-3.7-4.1s1.5-4.1,3.7-4.1c1.4-0.1,2.7,0.7,3.2,1.9l-1.2,0.5
				c-0.2-0.9-1-1.4-1.9-1.4c-1.5,0-2.5,1.1-2.5,3s0.9,3,2.4,3c0.9,0,1.8-0.6,2-1.5l1.2,0.4C271.2,342.2,269.9,343.1,268.5,343z"/>
			<path class="st8" d="M282.1,339.5h-2.4v2.5h-1.1v-2.5h-2.4v-1.1h2.4V336h1.1v2.5h2.4V339.5z"/>
			<path class="st8" d="M293,340.9h-1.4v2h-1.2v-2h-3.9v-0.8l3.5-5.1h1.6v4.9h1.3V340.9z M287.8,339.9h2.6v-2.7v-1.3l0,0
				c-0.2,0.5-0.5,0.9-0.8,1.3L287.8,339.9z"/>
			<path class="st8" d="M295.8,342.5c0,0.9-0.5,1.8-1.4,2.1l-0.6-0.5c0.6-0.2,1.1-0.6,1.3-1.2H295c-0.1,0.1-0.2,0.1-0.3,0.1
				c-0.4,0-0.8-0.4-0.8-0.8c0,0,0,0,0-0.1c0-0.5,0.4-0.9,0.9-0.9c0,0,0,0,0,0C295.4,341.2,295.8,341.8,295.8,342.5z"/>
			<path class="st8" d="M302.5,336.5l-1.1,0.5c-0.2-0.7-0.8-1.2-1.5-1.1c-1.2,0-2,1.3-2,3v0.2h0.1c0.3-0.9,1.2-1.4,2.1-1.3
				c1.3-0.1,2.5,0.9,2.6,2.2c0,0.1,0,0.2,0,0.3c0,1.4-1,2.5-2.4,2.6c-0.1,0-0.3,0-0.4,0c-2,0-3.1-1.6-3.1-4.1c0-2.7,1.4-4.1,3.2-4.1
				C301.1,334.7,302.2,335.4,302.5,336.5z M298.3,340.4c0,0.8,0.6,1.5,1.4,1.5c0.1,0,0.1,0,0.2,0c0.8,0,1.5-0.7,1.5-1.5
				s-0.7-1.5-1.5-1.5c-0.8-0.1-1.5,0.5-1.5,1.3C298.3,340.3,298.3,340.3,298.3,340.4L298.3,340.4z"/>
			<path class="st8" d="M309.4,340.3c0.1,1.4-1,2.6-2.4,2.7c-0.1,0-0.3,0-0.4,0c-1.2,0.1-2.4-0.6-2.9-1.7l1.2-0.7
				c0.1,0.8,0.8,1.4,1.6,1.3c0.8,0.1,1.5-0.5,1.6-1.3c0-0.1,0-0.2,0-0.3c0.1-0.8-0.5-1.5-1.3-1.5c-0.1,0-0.2,0-0.3,0
				c-0.6-0.1-1.2,0.2-1.6,0.7l-1.1-0.1l0.5-4.5h4.6v1.1h-3.6l-0.3,2.2v0.2l0,0c0.5-0.4,1.1-0.7,1.8-0.6c1.3-0.1,2.4,0.9,2.5,2.2
				C309.4,340,309.4,340.2,309.4,340.3z"/>
			<path class="st8" d="M314.2,337c-0.1,1.1-1.1,1.9-2.2,1.8c-1.1-0.1-1.9-1.1-1.8-2.2c0.1-1,1-1.8,2-1.8c1.1,0,2,0.9,2,2
				C314.2,336.9,314.2,336.9,314.2,337z M311.3,337c0,0.8,0.3,1.3,1,1.3s1-0.5,1-1.3s-0.3-1.3-1-1.3S311.3,336.2,311.3,337
				L311.3,337z M317.1,334.9h1.1l-5.2,7.9h-1.1L317.1,334.9z M319.9,340.8c-0.1,1.1-1.1,1.9-2.2,1.8c-1.1-0.1-1.9-1.1-1.8-2.2
				c0.1-1,1-1.8,2-1.8c1.1,0,2,0.9,2,2C319.9,340.6,319.9,340.7,319.9,340.8L319.9,340.8z M316.9,340.8c0,0.8,0.3,1.3,1,1.3
				s1-0.5,1-1.3s-0.3-1.3-1-1.3S316.9,340,316.9,340.8L316.9,340.8z"/>
		</g>
		<g>
			<path class="st8" d="M210.9,323.3c2.7-1.7,3.8-2.9,3.8-4.1c0-0.6-0.4-1-0.9-1.1c0,0-0.1,0-0.1,0c-0.8,0-1.2,0.6-1.2,1.6l-1.8-0.5
				c0-1.8,1.3-2.7,3.1-2.7c2.1,0,3,1.3,3,2.5c0,1.5-1.2,2.7-3.3,4l0,0c0.4,0,1.1-0.1,1.6-0.1h1.9v1.6h-5.9L210.9,323.3z"/>
			<path class="st8" d="M217.6,320.6c0-2.7,1.1-4.1,3.3-4.1s3.3,1.4,3.3,4s-1.1,4.1-3.3,4.1S217.6,323.3,217.6,320.6z M222.1,320.6
				c0-1.8-0.4-2.5-1.3-2.5s-1.2,0.7-1.2,2.5s0.4,2.5,1.3,2.5S222.1,322.4,222.1,320.6L222.1,320.6z"/>
			<path class="st8" d="M225.1,323.2c2.7-1.7,3.8-2.9,3.8-4c0-0.6-0.4-1-0.9-1.1c0,0-0.1,0-0.1,0c-0.8,0-1.2,0.6-1.2,1.6l-1.8-0.5
				c0-1.8,1.3-2.7,3.1-2.7c2.1,0,3,1.3,3,2.5c0,1.5-1.2,2.7-3.3,4l0,0c0.4,0,1.1,0,1.6,0h1.9v1.6h-5.9L225.1,323.2z"/>
			<path class="st8" d="M235.6,316.6v7.9h-2v-5.9c-0.5,0.5-1.2,0.8-1.9,1l-0.2-1.7c0.9-0.2,1.8-0.6,2.4-1.4L235.6,316.6z"/>
		</g>
		<g>
			<path class="st8" d="M208.8,340.8c2.7-1.7,3.8-2.9,3.8-4c0-0.6-0.4-1-0.9-1.1c0,0-0.1,0-0.1,0c-0.8,0-1.2,0.5-1.2,1.6l-1.8-0.6
				c0-1.8,1.4-2.7,3.1-2.7c2.1,0,3,1.3,3,2.6c0,1.5-1.2,2.7-3.4,3.9l0,0c0.4,0,1.1,0,1.6,0h1.9v1.6l-5.9,0L208.8,340.8z"/>
			<path class="st8" d="M215.5,338.2c0-2.7,1.1-4.1,3.3-4s3.3,1.4,3.3,4.1s-1.1,4.1-3.3,4S215.5,340.9,215.5,338.2z M220.1,338.2
				c0-1.8-0.4-2.5-1.2-2.5s-1.2,0.7-1.3,2.5s0.4,2.5,1.2,2.5S220,340,220.1,338.2L220.1,338.2z"/>
			<path class="st8" d="M223.1,340.9c2.7-1.7,3.8-2.9,3.8-4c0-0.6-0.4-1-0.9-1.1c0,0-0.1,0-0.1,0c-0.8,0-1.2,0.5-1.2,1.6l-1.8-0.6
				c0-1.8,1.4-2.7,3.1-2.7c2.1,0,3,1.3,3,2.6c0,1.5-1.2,2.7-3.4,3.9l0,0c0.4,0,1.1,0,1.6,0h1.9v1.6h-5.9L223.1,340.9z"/>
			<path class="st8" d="M229.9,341c2.7-1.7,3.8-2.9,3.8-4c0-0.6-0.4-1-0.9-1.1c0,0-0.1,0-0.1,0c-0.8,0-1.2,0.5-1.2,1.6l-1.8-0.6
				c0-1.8,1.4-2.7,3.1-2.7c2.1,0,3,1.3,3,2.6c0,1.5-1.2,2.7-3.4,3.9l0,0c0.4,0,1.1,0,1.6,0h1.9v1.6H230L229.9,341z"/>
		</g>
		<path id="Trazado_74893" class="st10" d="M120,320.8l-4-3.8v7.5L120,320.8z"/>
		<path id="Trazado_74894" class="st10" d="M120,339.8l-4-3.8v7.5L120,339.8z"/>
		<path id="Trazado_74895" class="st10" d="M248.5,320.8l-4-3.8v7.5L248.5,320.8z"/>
		<path id="Trazado_74896" class="st10" d="M248.5,339.8l-4-3.8v7.5L248.5,339.8z"/>
		<rect id="Rectángulo_1005" x="61.9" y="310" class="st11" width="375.3" height="39.7"/>
		<path id="Trazado_74897" class="st6" d="M18.2,196.8H1v83.6h17.2"/>
		<path id="Trazado_74898" class="st6" d="M1,281.1v105.8h17.2"/>
		<path id="Trazado_74899" class="st6" d="M1,386.9v62.6h17.2"/>
		<path id="Trazado_74900" class="st6" d="M1,448.2v64.5h17.2"/>
		<circle id="Elipse_280" class="st0" cx="61.9" cy="329.9" r="3.3"/>
	</g>
</g>
</svg>
