<svg xmlns="http://www.w3.org/2000/svg" viewBox="0 0 262.4 323.09"><defs><style>.cls-1{fill:#f2f2f2;}.cls-2{fill:#e6e6e6;}.cls-10,.cls-3{fill:none;stroke-linecap:round;stroke-linejoin:round;}.cls-3{stroke:#fbb03b;stroke-width:1.5px;stroke-dasharray:8;}.cls-4,.cls-7{isolation:isolate;}.cls-5{fill:#36c;}.cls-6{fill:#4d4d4d;}.cls-7{fill:#f42f63;opacity:0.9;}.cls-8{fill:#fff;}.cls-9{fill:#fbb03b;}.cls-10{stroke:#36c;stroke-width:0.75px;}</style></defs><title>infografia-movil2</title><g id="Capa_2" data-name="Capa 2"><g id="Capa_1-2" data-name="Capa 1"><g id="Grupo_8925" data-name="Grupo 8925"><path id="Trazado_85015" data-name="Trazado 85015" class="cls-1" d="M259.69,137.48H119L113,128l5.94-9.49H259.69Z"/><path id="Trazado_85016" data-name="Trazado 85016" class="cls-1" d="M259.69,271.94H119L113,257l5.94-14.9H259.69Z"/><path id="Trazado_85017" data-name="Trazado 85017" class="cls-1" d="M259.69,223.17H119L113,209,119,194.72H259.69Z"/><path id="Trazado_85018" data-name="Trazado 85018" class="cls-1" d="M259.69,323.09H119L113,307.51,119,291.93H259.69Z"/><g id="Grupo_8324" data-name="Grupo 8324"><path id="Trazado_85019" data-name="Trazado 85019" class="cls-2" d="M241.73,39.25c-.1-1.66-2.06-3-6-3.94a2.15,2.15,0,0,0,.2-.9V27.63h0c-.35-5.65-23.4-5.82-26.05-5.82s-25.7.17-26,5.82h0v6.78c0,1.84,2.37,3.28,5.89,4.36a1.94,1.94,0,0,0-.09.48h0V46c-3.79,1-5.69,2.26-5.78,3.89h0V56.7c0,1.28,1.15,2.37,3,3.27a2.15,2.15,0,0,0-.13.6h0v6.79c0,3.22,7.24,5.22,15.27,6.16a.57.57,0,0,0,.18,0h.05c1.55.18,3.12.31,4.68.41l.1,0h0c2,.12,3.92.18,5.74.18s3.77-.06,5.74-.18h.06l.09,0c1.55-.1,3.13-.23,4.68-.41h.05l.18,0c8-.94,15.26-2.94,15.27-6.16V60.57h0c-.07-1.18-1.08-2.18-3.07-3a2.16,2.16,0,0,0,.19-.87V50.36c3.46-1.07,5.79-2.5,5.79-4.33V39.25ZM233.91,57l-.33.29a8.74,8.74,0,0,1-2.46,1.33V54a14.33,14.33,0,0,0,2.9-1.33v4a.76.76,0,0,1-.11.32Zm-21.59,4.5h-1.47V56.69h1c1,0,1.95,0,2.91-.09v4.83l-.62,0-1.77,0Zm-4.21,0-1.32,0h-.17c-.52,0-1.05,0-1.56-.06V56.58c1,.05,1.93.08,2.91.1h.95v4.85h-.81Zm-17.44-2.21-.09,0V54.6c.9.25,1.87.47,2.89.68V60c-.88-.19-1.7-.38-2.44-.59l-.36-.1Zm20.34,8h.8v4.84c-1.33,0-2.62,0-3.86-.11V67.24c1,.05,1.94.08,2.92.1Zm3.68,0c1,0,1.95,0,2.91-.1v4.84c-1.24.06-2.52.1-3.86.11V67.35h.95Zm7.74-.44v4.81c-.93.1-1.89.18-2.89.25V67.13c1-.06,1.94-.14,2.89-.23Zm1.93-.21c1-.13,2-.26,2.9-.41V71c-.91.16-1.88.31-2.9.44Zm4.83-.76c1-.2,2-.43,2.89-.67v4.68c-.85.25-1.83.5-2.89.72Zm-32.83,0v4.73c-1.06-.22-2-.47-2.89-.72V65.26C194.37,65.5,195.34,65.73,196.36,65.93Zm1.94.35c.93.15,1.9.29,2.89.41v4.79c-1-.14-2-.28-2.89-.44Zm4.82.62c1,.09,1.92.17,2.9.23V72c-1-.07-2-.15-2.9-.25Zm-2.39-5.8-.29,0-.21,0V56.23c1,.1,1.91.17,2.89.24V61.3l-2.39-.2ZM198.3,56v4.79c-1-.14-2-.28-2.9-.45V55.61C196.34,55.77,197.3,55.91,198.3,56Zm19,5.22-.64,0V56.47c1-.07,1.94-.14,2.9-.23v4.81l-1.84.17-.42,0Zm4.18-.43V56c1-.12,2-.26,2.9-.42v4.77c-.91.16-1.87.31-2.9.45Zm4.83-5.55c1-.2,2-.43,2.9-.67v4.68c-.86.25-1.83.49-2.9.72Zm-13.2-4.43c-.73,0-1.44,0-2.14-.08h-.11V45.92c1,0,1.94.07,2.91.1h.95v4.84l-1.4,0h-.21ZM190.57,37V32.31c.9.25,1.87.47,2.9.67v4.73l-.36-.07c-.52-.12-1-.23-1.49-.36s-.72-.19-1.05-.29Zm17.55-2.6h.8v4.84c-1.3,0-2.6-.05-3.86-.11V34.29c1,0,1.93.08,2.9.1Zm3.67,0,2.92-.09v4.83l-.5,0h0q-1,0-2,.06h-1.36V34.4h.95Zm22,.48h0l-.36.27a9.47,9.47,0,0,1-2.3,1.19V31.72a13.85,13.85,0,0,0,2.9-1.33v4a.69.69,0,0,1-.22.47Zm-12.33,3.66V33.74c1-.12,2-.26,2.9-.41v4.75C223.44,38.24,222.48,38.39,221.46,38.53Zm4.83-.82V33c1-.2,2-.42,2.9-.67V37c-.87.25-1.84.49-2.9.72ZM219.54,34v4.81c-.94.1-1.9.18-2.9.25V34.18c1-.07,1.94-.14,2.9-.24Zm-19.31,4.81V34c1,.09,1.91.17,2.89.24V39C202.14,38.94,201.17,38.86,200.23,38.76Zm-1.93-5v4.79l-.58-.07-.36-.06-1.64-.25-.32-.06V33.33c.94.15,1.9.29,2.9.41Zm10.38,16.89-.4,0-1.81-.16-.37,0H206V45.58c.95.1,1.92.17,2.9.23v4.83Zm-6.38-.72-1.11-.2V45c.94.15,1.9.29,2.9.41v4.79c-.59-.07-1.17-.16-1.72-.24Zm-3-5.29v4.72c-1.07-.23-2-.48-2.9-.73V43.94c.91.25,1.88.47,2.9.67Zm-4.82-1.27V48a6,6,0,0,1-2.82-1.72l-.06-.11s0-.06,0-.1V42a14.09,14.09,0,0,0,2.9,1.33ZM217.59,46c1,0,1.94-.05,2.91-.1v4.83c-1.27.06-2.56.1-3.86.11V46h1Zm12.47,3.72-1.29.21-.76.11-.75.1V45.37c1-.12,2-.26,2.9-.41v4.76l-.1,0Zm-6.53.82-1.1.08V45.81c1-.06,1.95-.14,2.89-.23v4.8l-1.7.17h-.09Zm11-1.81c-.48.13-1,.26-1.51.38l-.74.17-.23,0V44.62c1-.2,2-.43,2.9-.68v4.69l-.42.12Zm5.23-9.43c-.09.65-1.57,1.53-4.22,2.35A64.75,64.75,0,0,1,220,44l-1,0-.87,0c-.8,0-1.61,0-2.45,0s-1.64,0-2.45,0l-.87,0-1,0a64.68,64.68,0,0,1-15.53-2.33c-2.63-.82-4.11-1.69-4.23-2.34a.14.14,0,0,1,0-.06l.2,0,1.16.26c1.92.41,4,.75,6.31,1h0c1.54.18,3.15.32,4.79.42h0c1.19.07,2.38.12,3.59.15l2.19,0h1.55a73.6,73.6,0,0,0,18-2.24l.61-.19.37-.11c.35-.11.68-.23,1-.35l.16-.06c.28-.1.54-.21.79-.32l.22-.1.77-.37.3-.18.34-.2.18-.11c4.33.94,5.47,2,5.58,2.37ZM209.88,23.75c15.92,0,24,2.51,24.12,3.95-.12.66-1.6,1.53-4.22,2.34a64.26,64.26,0,0,1-15.53,2.33l-1.05,0-.87,0c-.8,0-1.61,0-2.45,0s-1.65,0-2.44,0c-.3,0-.59,0-.88,0l-1,0A64.34,64.34,0,0,1,190,30c-2.62-.81-4.1-1.68-4.22-2.34C185.92,26.26,194,23.75,209.88,23.75ZM185.75,34.4v-4a14,14,0,0,0,2.89,1.33v4.64C186.77,35.66,185.75,35,185.75,34.4Zm4.68,13.42,0,0c1.32,1.34,4.05,2.39,7.46,3.18l.24.05.76.17a76,76,0,0,0,10.93,1.39h0c1.31.07,2.65.12,4,.15l1.78,0,2.05,0c1.26,0,2.5-.07,3.73-.14h0a73.33,73.33,0,0,0,11.14-1.43,17,17,0,0,1-2.85,1.12A65.8,65.8,0,0,1,213.1,54.7l-.66,0-.71,0-1.85,0c-.84,0-1.65,0-2.44,0l-.88,0-1,0A64.83,64.83,0,0,1,190,52.33c-2.65-.82-4.13-1.7-4.22-2.36.11-.36,1.08-1.28,4.67-2.15Zm-4.68,8.87v-4A14,14,0,0,0,188.64,54v4.62l-.55-.21h0c-1.51-.63-2.33-1.25-2.33-1.74Zm2.89,10.66v-4a14.33,14.33,0,0,0,2.9,1.33v4.64c-1.88-.7-2.9-1.41-2.9-2Zm45.38,2V64.67a14,14,0,0,0,2.89-1.33v4c0,.55-1,1.26-2.89,2Zm2.87-8.66c-.1.65-1.58,1.52-4.22,2.34a64.26,64.26,0,0,1-15.53,2.33l-1,0-.88,0c-.8,0-1.61,0-2.44,0s-1.65,0-2.45,0l-.87,0-1.05,0A64.26,64.26,0,0,1,192.88,63c-2.55-.79-4-1.63-4.21-2.28.29.1.58.2.89.29l.09,0,.8.23.31.09.48.12a70.34,70.34,0,0,0,12.84,1.84h0c1.5.08,3,.14,4.57.16h1.22c.53,0,1.08,0,1.63,0,1.41,0,2.8-.07,4.16-.15h0q2.49-.16,4.8-.42h.08c1.71-.2,3.34-.45,4.85-.73l.92-.18.2,0a26.3,26.3,0,0,0,7-2.29l.27-.16a2.7,2.7,0,0,0,.31-.2c.1-.07.2-.11.28-.18,1.91.69,2.43,1.3,2.49,1.54Zm0-12.66V43.35A14,14,0,0,0,239.8,42v4C239.8,46.57,238.79,47.28,236.91,48Z"/></g><line id="Línea_142" data-name="Línea 142" class="cls-3" x1="14.65" y1="77.97" x2="14.65" y2="0.75"/><g class="cls-4"><path class="cls-5" d="M79.4,73.43H76.74v3.82h-4V73.43H64V71.3l7.45-11.43h5.29V70.32H79.4ZM68.21,70.32h4.53V65.69l.1-2.85h0a18.29,18.29,0,0,1-1.53,2.85Z"/><path class="cls-5" d="M85.83,75.12a2.32,2.32,0,0,1-2.63,2.37c-1.64,0-2.64-.9-2.64-2.37a2.65,2.65,0,0,1,5.27,0Z"/><path class="cls-5" d="M100.71,71.3c0,4.26-3,6.21-6.77,6.21-3.08,0-5.27-1-6.79-3.47l4-2.27A2.53,2.53,0,0,0,94,74.09a2.35,2.35,0,0,0,2.66-2.48c0-1.55-.9-2.45-2.66-2.45a3.5,3.5,0,0,0-2.77,1l-3.42-.5,1.11-9.82H99.74v3.5H92.18l-.4,3.27a3.81,3.81,0,0,1-.13.63h0A4.83,4.83,0,0,1,95.26,66C98.68,66,100.71,68.24,100.71,71.3Z"/><path class="cls-5" d="M123.42,70.72c0,4.29-2,6.79-5.43,6.79a4.59,4.59,0,0,1-4.4-3.05l-.13,2.79h-3.92V58.5H114v7.79a4.18,4.18,0,0,1,4-2.47C121.36,63.82,123.42,66.35,123.42,70.72Zm-4.51-.06c0-2.47-1-3.55-2.47-3.55S114,68.35,114,70.53v.27c0,2.26.93,3.42,2.43,3.42S118.91,73.14,118.91,70.66Z"/><path class="cls-5" d="M125.05,60.42c0-1.5.79-2.16,2.61-2.16s2.61.66,2.61,2.16-.79,2.13-2.61,2.13S125.05,61.89,125.05,60.42Zm4.85,16.83h-4.48V64.08h4.48Z"/><path class="cls-5" d="M136.85,72.69c0,1.16.29,1.63,1.21,1.63a3.7,3.7,0,0,0,1.34-.23l-.29,2.76a5.68,5.68,0,0,1-2.73.66c-2.82,0-4-1.24-4-4.16V58.5h4.48Z"/><path class="cls-5" d="M144.8,72.69c0,1.16.29,1.63,1.22,1.63a3.78,3.78,0,0,0,1.34-.23l-.29,2.76a5.72,5.72,0,0,1-2.74.66c-2.82,0-4-1.24-4-4.16V58.5h4.47Z"/><path class="cls-5" d="M161.61,70.66c0,4.32-2.56,6.85-7,6.85s-7-2.53-7-6.85,2.56-6.84,7-6.84S161.61,66.35,161.61,70.66Zm-9.43,0c0,2.59.82,3.66,2.47,3.66s2.48-1.07,2.48-3.66S156.31,67,154.65,67,152.18,68.08,152.18,70.66Z"/><path class="cls-5" d="M176.73,68.48v8.77h-4.48V69.72c0-1.87-.76-2.48-1.87-2.48-1.29,0-2.37.87-2.37,3.06v7h-4.48V64.08h4l.13,2.53a4.61,4.61,0,0,1,4.5-2.79C174.88,63.82,176.73,65.42,176.73,68.48Z"/><path class="cls-5" d="M191.9,72h-9a2.52,2.52,0,0,0,2.76,2.4,2.25,2.25,0,0,0,2.43-1.45l3.63,1.16c-.76,2.29-3,3.45-6.06,3.45-4.61,0-7.11-2.5-7.11-6.85s2.48-6.84,6.88-6.84,6.58,2.5,6.58,6.66A8.12,8.12,0,0,1,191.9,72Zm-9-2.42h5c-.21-1.68-1-2.58-2.42-2.58S183.15,67.77,182.89,69.53Z"/><path class="cls-5" d="M192.9,75.19l2.32-2.52a4.26,4.26,0,0,0,3.9,1.87c1.23,0,2-.37,2-.93s-.63-.81-2.4-1.18c-4-.79-5.45-2.08-5.45-4.24s2.06-4.37,6.35-4.37c3.16,0,4.9.92,6,2.47l-2.42,2.37a3.64,3.64,0,0,0-3.48-1.87c-1.32,0-2,.48-2,1s.58.87,2.42,1.22c3.9.68,5.45,1.92,5.45,4.18,0,2.43-2,4.32-6.26,4.32C196.43,77.51,194.24,76.83,192.9,75.19Z"/></g><g class="cls-4"><path class="cls-6" d="M132,127.71a2.87,2.87,0,0,1-3.15,3.13h-2v-6.27h2A2.87,2.87,0,0,1,132,127.71Zm-.8,0a2.16,2.16,0,0,0-2.28-2.42h-1.34v4.84h1.34A2.16,2.16,0,0,0,131.16,127.71Z"/><path class="cls-6" d="M137.28,128.75H133.7a1.5,1.5,0,0,0,1.54,1.52,1.29,1.29,0,0,0,1.34-.7l.64.33a2,2,0,0,1-2,1,2.19,2.19,0,0,1-2.29-2.46c0-1.54.8-2.47,2.24-2.47a2.05,2.05,0,0,1,2.12,2.22A3.7,3.7,0,0,1,137.28,128.75Zm-3.57-.67h2.87c-.1-.88-.59-1.42-1.39-1.42A1.42,1.42,0,0,0,133.71,128.08Z"/><path class="cls-6" d="M138.09,129.86l.62-.43a1.47,1.47,0,0,0,1.5.84c.77,0,1.14-.31,1.14-.7s-.29-.56-1.24-.73c-1.35-.25-1.84-.62-1.84-1.42S139,126,140.14,126a1.72,1.72,0,0,1,1.88,1.14l-.65.38a1.15,1.15,0,0,0-1.23-.86c-.64,0-1.11.34-1.11.7s.31.61,1.28.77c1.33.22,1.8.62,1.8,1.4s-.77,1.4-2,1.4A2.17,2.17,0,0,1,138.09,129.86Z"/><path class="cls-6" d="M146.18,130.51a1.78,1.78,0,0,1-1.22.42,1.19,1.19,0,0,1-1.32-1.27v-2.91h-.95v-.66h.95V125l.76-.2v1.34h1.75v.66H144.4v2.78a.64.64,0,0,0,.71.69,1,1,0,0,0,.8-.35Z"/><path class="cls-6" d="M146.82,124.61a.57.57,0,1,1,.57.57A.54.54,0,0,1,146.82,124.61Zm1,6.23H147v-4.75h.76Z"/><path class="cls-6" d="M153.46,127.8v3h-.76v-2.77c0-1.06-.52-1.41-1.17-1.41a1.46,1.46,0,0,0-1.47,1.65v2.53h-.76v-4.75H150l0,.74a1.72,1.72,0,0,1,1.59-.83A1.7,1.7,0,0,1,153.46,127.8Z"/><path class="cls-6" d="M159.2,130.24l0,.6a1.63,1.63,0,0,1-.56.09.75.75,0,0,1-.86-.7,1.85,1.85,0,0,1-1.53.7c-.89,0-1.61-.41-1.61-1.27,0-.71.63-1.27,1.85-1.48l1.26-.21v-.26a1,1,0,0,0-1.11-1,1.39,1.39,0,0,0-1.35.9l-.56-.4a1.91,1.91,0,0,1,1.91-1.16c1.08,0,1.87.51,1.87,1.61V130c0,.22.1.34.36.34A1.52,1.52,0,0,0,159.2,130.24Zm-1.5-1v-.65l-1.06.2c-.84.15-1.26.43-1.26.87s.32.61.86.61C157,130.27,157.7,129.87,157.7,129.24Z"/><path class="cls-6" d="M164.28,123.91v6.93h-.67l-.05-.83a1.76,1.76,0,0,1-1.62.92c-1.32,0-2.16-.92-2.16-2.46s.84-2.47,2.16-2.47a1.81,1.81,0,0,1,1.58.83v-2.92Zm-.76,4.61v-.11c0-1.07-.59-1.75-1.49-1.75s-1.49.7-1.49,1.81.56,1.8,1.49,1.8S163.52,129.6,163.52,128.52Z"/><path class="cls-6" d="M170.1,128.47a2.3,2.3,0,1,1-2.3-2.47A2.2,2.2,0,0,1,170.1,128.47Zm-3.83,0c0,1.13.57,1.81,1.53,1.81s1.54-.68,1.54-1.81-.58-1.82-1.54-1.82S166.27,127.34,166.27,128.47Z"/><path class="cls-6" d="M170.9,129.86l.62-.43a1.49,1.49,0,0,0,1.5.84c.78,0,1.15-.31,1.15-.7s-.3-.56-1.25-.73c-1.34-.25-1.84-.62-1.84-1.42S171.79,126,173,126a1.71,1.71,0,0,1,1.88,1.14l-.64.38a1.16,1.16,0,0,0-1.24-.86c-.63,0-1.11.34-1.11.7s.31.61,1.28.77c1.33.22,1.81.62,1.81,1.4s-.77,1.4-2,1.4A2.17,2.17,0,0,1,170.9,129.86Z"/><path class="cls-6" d="M183.36,130.24l-.05.6a1.65,1.65,0,0,1-.57.09.74.74,0,0,1-.85-.7,1.86,1.86,0,0,1-1.53.7c-.89,0-1.61-.41-1.61-1.27,0-.71.62-1.27,1.85-1.48l1.26-.21v-.26a1,1,0,0,0-1.11-1,1.4,1.4,0,0,0-1.36.9l-.56-.4a1.93,1.93,0,0,1,1.92-1.16c1.08,0,1.87.51,1.87,1.61V130c0,.22.09.34.36.34A1.65,1.65,0,0,0,183.36,130.24Zm-1.5-1v-.65l-1.06.2c-.84.15-1.27.43-1.27.87s.33.61.87.61C181.16,130.27,181.86,129.87,181.86,129.24Z"/><path class="cls-6" d="M187.72,129.57c0,.48.12.63.51.63a1.72,1.72,0,0,0,.69-.13l-.12.73a1.78,1.78,0,0,1-.7.13c-.77,0-1.14-.4-1.14-1.27v-5.75h.76Z"/><path class="cls-6" d="M193.93,130.24l-.05.6a1.63,1.63,0,0,1-.56.09.75.75,0,0,1-.86-.7,1.85,1.85,0,0,1-1.53.7c-.89,0-1.61-.41-1.61-1.27,0-.71.63-1.27,1.85-1.48l1.26-.21v-.26a1,1,0,0,0-1.11-1,1.39,1.39,0,0,0-1.35.9l-.56-.4a1.91,1.91,0,0,1,1.91-1.16c1.08,0,1.87.51,1.87,1.61V130c0,.22.1.34.36.34A1.52,1.52,0,0,0,193.93,130.24Zm-1.5-1v-.65l-1.06.2c-.84.15-1.26.43-1.26.87s.32.61.86.61C191.73,130.27,192.43,129.87,192.43,129.24Z"/><path class="cls-6" d="M202.07,128.47c0,1.54-.84,2.46-2.16,2.46a1.79,1.79,0,0,1-1.63-.92l0,.83h-.67v-6.93h.76v2.92a1.79,1.79,0,0,1,1.58-.83C201.23,126,202.07,126.92,202.07,128.47Zm-.76,0c0-1.11-.56-1.81-1.49-1.81s-1.49.68-1.49,1.75v.11c0,1.08.59,1.75,1.49,1.75S201.31,129.57,201.31,128.47Z"/><path class="cls-6" d="M207.58,130.24l-.05.6a1.65,1.65,0,0,1-.57.09.74.74,0,0,1-.85-.7,1.86,1.86,0,0,1-1.53.7c-.89,0-1.61-.41-1.61-1.27,0-.71.62-1.27,1.85-1.48l1.26-.21v-.26a1,1,0,0,0-1.11-1,1.4,1.4,0,0,0-1.36.9l-.56-.4A1.93,1.93,0,0,1,205,126c1.08,0,1.87.51,1.87,1.61V130c0,.22.09.34.36.34A1.58,1.58,0,0,0,207.58,130.24Zm-1.5-1v-.65l-1.06.2c-.84.15-1.27.43-1.27.87s.33.61.87.61C205.38,130.27,206.08,129.87,206.08,129.24Z"/><path class="cls-6" d="M208,129.86l.62-.43a1.49,1.49,0,0,0,1.5.84c.78,0,1.15-.31,1.15-.7s-.3-.56-1.25-.73c-1.34-.25-1.84-.62-1.84-1.42s.71-1.42,1.87-1.42a1.71,1.71,0,0,1,1.88,1.14l-.64.38a1.16,1.16,0,0,0-1.24-.86c-.63,0-1.11.34-1.11.7s.32.61,1.28.77c1.33.22,1.81.62,1.81,1.4s-.77,1.4-2,1.4A2.17,2.17,0,0,1,208,129.86Z"/><path class="cls-6" d="M217.23,128.75h-3.57a1.5,1.5,0,0,0,1.54,1.52,1.29,1.29,0,0,0,1.34-.7l.64.33a2,2,0,0,1-2,1,2.19,2.19,0,0,1-2.29-2.46c0-1.54.8-2.47,2.24-2.47a2.05,2.05,0,0,1,2.12,2.22A3.48,3.48,0,0,1,217.23,128.75Zm-3.56-.67h2.87c-.1-.88-.59-1.42-1.39-1.42A1.42,1.42,0,0,0,213.67,128.08Z"/></g><g class="cls-4"><path class="cls-5" d="M37.18,62v3.39H35.45v-3c0-.64-.27-.87-.69-.87s-.89.38-.89,1.14v2.72H32.14v-3c0-.64-.28-.87-.69-.87s-.89.34-.89,1.18v2.68H28.83V60.29h1.54l.05,1a1.78,1.78,0,0,1,1.71-1.07,1.6,1.6,0,0,1,1.61,1,1.82,1.82,0,0,1,1.7-1A1.63,1.63,0,0,1,37.18,62Z"/><path class="cls-5" d="M43.36,64.34l-.13,1a1.46,1.46,0,0,1-.69.16c-.68,0-1.16-.23-1.31-.78a2,2,0,0,1-1.81.78c-1,0-1.58-.45-1.58-1.27s.54-1.38,2-1.67L41,62.31v-.18a.68.68,0,0,0-.72-.76.85.85,0,0,0-.94.79l-1.41-.41c.18-1,1-1.56,2.35-1.56,1.57,0,2.43.63,2.43,2V64c0,.26.12.39.37.39A1,1,0,0,0,43.36,64.34ZM40.8,59.63H39.54l.68-1.76h1.61Zm.17,4v-.44l-.82.2c-.43.1-.6.24-.6.52s.18.44.5.44S41,64.1,41,63.63Z"/><path class="cls-5" d="M43.41,64.57l.89-1a1.65,1.65,0,0,0,1.51.72c.48,0,.76-.14.76-.35s-.24-.32-.92-.46c-1.55-.31-2.11-.8-2.11-1.64s.79-1.68,2.45-1.68a2.59,2.59,0,0,1,2.33,1l-.94.92A1.39,1.39,0,0,0,46,61.33c-.51,0-.77.19-.77.39s.22.34.93.47c1.51.26,2.11.74,2.11,1.61s-.78,1.67-2.42,1.67A3,3,0,0,1,43.41,64.57Z"/><path class="cls-5" d="M56.75,58.13v7.24H55.2l-.06-1a1.78,1.78,0,0,1-1.66,1.07c-1.31,0-2.09-1-2.09-2.62s.79-2.66,2.1-2.66a1.61,1.61,0,0,1,1.53,1v-3ZM55,63v-.41c0-.75-.38-1.16-.94-1.16s-1,.41-1,1.37.37,1.37,1,1.37S55,63.8,55,63Z"/><path class="cls-5" d="M62.62,63.32H59.16a1,1,0,0,0,1.07.93.86.86,0,0,0,.93-.56l1.4.45a2.2,2.2,0,0,1-2.33,1.33,2.44,2.44,0,0,1-2.75-2.64,2.4,2.4,0,0,1,2.65-2.64,2.32,2.32,0,0,1,2.55,2.57A2.4,2.4,0,0,1,62.62,63.32Zm-3.47-.93h1.91c-.08-.65-.4-1-.94-1S59.25,61.71,59.15,62.39Z"/></g><g class="cls-4"><path class="cls-6" d="M62.3,113.44v12h-3v-8.94a6,6,0,0,1-2.84,1.53l-.29-2.59a6.26,6.26,0,0,0,3.66-2Z"/><path class="cls-6" d="M68.2,124.68a3.89,3.89,0,0,1-2.54,3.66l-1.36-1a3.54,3.54,0,0,0,2.26-1.94l-.08-.06a.67.67,0,0,1-.56.2A1.46,1.46,0,0,1,64.41,124a1.63,1.63,0,0,1,1.82-1.71C67.56,122.33,68.2,123.37,68.2,124.68Z"/><path class="cls-6" d="M78.65,116.63a2.58,2.58,0,0,1-2.26,2.76v.06a2.54,2.54,0,0,1,2.5,2.73c0,2.08-2,3.46-4.67,3.46-2.53,0-4.06-.87-4.73-3l2.84-1.22c.13,1.29.78,1.78,1.86,1.78s1.69-.53,1.67-1.46-.56-1.29-1.78-1.29H73.4v-2h.53c1.15,0,1.68-.45,1.68-1.38a1.27,1.27,0,0,0-1.42-1.42,1.56,1.56,0,0,0-1.68,1.62l-2.75-.93c.42-2.24,2.28-3.12,4.61-3.12C77.1,113.25,78.65,114.58,78.65,116.63Z"/><path class="cls-6" d="M91,122.82H89.14v2.64H86.37v-2.64H80.32v-1.48l5.16-7.9h3.66v7.23H91Zm-7.74-2.15h3.13v-3.21l.07-2h0a13.83,13.83,0,0,1-1.06,2Z"/></g><g class="cls-4"><path class="cls-6" d="M36.81,18.16v1.13H29.64V9.39h7v1.12H30.84v3.2h4.47v1.12H30.84v3.33Z"/><path class="cls-6" d="M39.75,17.28c0,.76.2,1,.81,1a2.62,2.62,0,0,0,1.1-.21l-.2,1.16a3,3,0,0,1-1.11.21c-1.21,0-1.8-.65-1.8-2V8.34h1.2Z"/><path class="cls-6" d="M54.15,15.54c0,2.44-1.33,3.9-3.42,3.9a2.84,2.84,0,0,1-2.49-1.32v4.32H47V11.79h1.05l.08,1.3a2.8,2.8,0,0,1,2.56-1.45C52.82,11.64,54.15,13.09,54.15,15.54Zm-1.2,0c0-1.74-.88-2.85-2.35-2.85s-2.36,1.06-2.36,2.76v.18c0,1.69.93,2.76,2.36,2.76S53,17.28,53,15.54Z"/><path class="cls-6" d="M60.48,11.79,60.24,13a2,2,0,0,0-.94-.2,2.2,2.2,0,0,0-2,2.48v4h-1.2v-7.5h1L57.26,13a2.4,2.4,0,0,1,2.4-1.38A1.9,1.9,0,0,1,60.48,11.79Z"/><path class="cls-6" d="M68,16H62.34a2.38,2.38,0,0,0,2.45,2.4,2,2,0,0,0,2.11-1.11l1,.52a3.21,3.21,0,0,1-3.12,1.64c-2.27,0-3.63-1.47-3.63-3.9s1.27-3.9,3.54-3.9a3.25,3.25,0,0,1,3.36,3.51A6,6,0,0,1,68,16Zm-5.64-1.07H66.9c-.16-1.38-.93-2.23-2.2-2.23A2.25,2.25,0,0,0,62.36,14.92Z"/><path class="cls-6" d="M69.29,17.74l1-.67a2.35,2.35,0,0,0,2.37,1.32c1.23,0,1.82-.5,1.82-1.11s-.47-.89-2-1.16c-2.13-.39-2.91-1-2.91-2.23s1.13-2.25,3-2.25c1.6,0,2.55.57,3,1.8l-1,.6a1.83,1.83,0,0,0-2-1.35c-1,0-1.76.54-1.76,1.09s.5,1,2,1.23c2.1.35,2.85,1,2.85,2.21s-1.22,2.22-3.14,2.22A3.41,3.41,0,0,1,69.29,17.74Z"/><path class="cls-6" d="M84,11.79v7.5h-1l-.08-1.14a2.87,2.87,0,0,1-2.68,1.29,2.52,2.52,0,0,1-2.76-2.75v-4.9h1.2v4.59c0,1.54.69,2,1.77,2a2.28,2.28,0,0,0,2.4-2.52V11.79Z"/><path class="cls-6" d="M93.51,15.54c0,2.44-1.33,3.9-3.42,3.9a2.84,2.84,0,0,1-2.49-1.32v4.32H86.4V11.79h1l.08,1.3a2.8,2.8,0,0,1,2.56-1.45C92.18,11.64,93.51,13.09,93.51,15.54Zm-1.2,0c0-1.74-.88-2.85-2.35-2.85s-2.36,1.06-2.36,2.76v.18c0,1.69.93,2.76,2.36,2.76S92.31,17.28,92.31,15.54Z"/><path class="cls-6" d="M102,11.79v7.5h-1l-.07-1.14a2.89,2.89,0,0,1-2.69,1.29,2.52,2.52,0,0,1-2.76-2.75v-4.9h1.2v4.59c0,1.54.69,2,1.77,2a2.27,2.27,0,0,0,2.4-2.52V11.79Z"/><path class="cls-6" d="M110.76,16h-5.65a2.37,2.37,0,0,0,2.44,2.4,2,2,0,0,0,2.12-1.11l1,.52a3.21,3.21,0,0,1-3.12,1.64c-2.26,0-3.63-1.47-3.63-3.9s1.28-3.9,3.54-3.9a3.24,3.24,0,0,1,3.36,3.51A6,6,0,0,1,110.76,16Zm-5.64-1.07h4.55c-.17-1.38-.93-2.23-2.21-2.23A2.26,2.26,0,0,0,105.12,14.92Z"/><path class="cls-6" d="M112.05,17.74l1-.67a2.35,2.35,0,0,0,2.37,1.32c1.23,0,1.81-.5,1.81-1.11s-.46-.89-2-1.16c-2.13-.39-2.91-1-2.91-2.23s1.12-2.25,3-2.25c1.61,0,2.55.57,3,1.8l-1,.6a1.83,1.83,0,0,0-1.95-1.35c-1,0-1.75.54-1.75,1.09s.49,1,2,1.23c2.1.35,2.85,1,2.85,2.21s-1.21,2.22-3.13,2.22A3.42,3.42,0,0,1,112.05,17.74Z"/><path class="cls-6" d="M124.85,18.76a2.82,2.82,0,0,1-1.94.68,1.88,1.88,0,0,1-2.08-2V12.82h-1.5v-1h1.5V10l1.2-.33v2.13h2.77v1H122v4.4a1,1,0,0,0,1.12,1.09,1.74,1.74,0,0,0,1.28-.55Z"/><path class="cls-6" d="M133,15.54c0,2.43-1.36,3.9-3.63,3.9s-3.63-1.47-3.63-3.9,1.37-3.9,3.63-3.9S133,13.11,133,15.54Zm-6.06,0c0,1.78.92,2.86,2.43,2.86s2.43-1.08,2.43-2.86-.91-2.87-2.43-2.87S126.9,13.75,126.9,15.54Z"/><path class="cls-6" d="M146.31,8.34v11h-1.05L145.19,18a2.81,2.81,0,0,1-2.57,1.46c-2.08,0-3.42-1.46-3.42-3.9s1.34-3.9,3.42-3.9A2.82,2.82,0,0,1,145.11,13V8.34Zm-1.2,7.29v-.18c0-1.7-.93-2.76-2.35-2.76s-2.36,1.11-2.36,2.85.89,2.85,2.36,2.85S145.11,17.32,145.11,15.63Z"/><path class="cls-6" d="M155.1,16h-5.66a2.39,2.39,0,0,0,2.45,2.4A2,2,0,0,0,154,17.28l1,.52a3.21,3.21,0,0,1-3.12,1.64c-2.26,0-3.63-1.47-3.63-3.9s1.28-3.9,3.54-3.9a3.25,3.25,0,0,1,3.36,3.51A6,6,0,0,1,155.1,16Zm-5.64-1.07H154c-.16-1.38-.93-2.23-2.2-2.23A2.25,2.25,0,0,0,149.46,14.92Z"/><path class="cls-6" d="M162.94,17.28c0,.76.2,1,.81,1a2.62,2.62,0,0,0,1.1-.21l-.2,1.16a3,3,0,0,1-1.11.21c-1.21,0-1.8-.65-1.8-2V8.34h1.2Z"/><path class="cls-6" d="M172.77,18.34l-.08.95a2.83,2.83,0,0,1-.9.15,1.19,1.19,0,0,1-1.35-1.11A3,3,0,0,1,168,19.44c-1.41,0-2.55-.66-2.55-2,0-1.13,1-2,2.92-2.34l2-.33v-.42a1.58,1.58,0,0,0-1.76-1.65,2.19,2.19,0,0,0-2.14,1.42l-.89-.64a3.06,3.06,0,0,1,3-1.83c1.71,0,3,.81,3,2.55v3.69c0,.36.15.54.57.54A2.41,2.41,0,0,0,172.77,18.34Zm-2.37-1.57v-1l-1.68.32c-1.32.24-2,.67-2,1.38s.51,1,1.37,1C169.29,18.39,170.4,17.76,170.4,16.77Z"/></g><g class="cls-4"><path class="cls-6" d="M36.17,33.54H31.05a1.44,1.44,0,0,0,1.58,1.36A1.28,1.28,0,0,0,34,34.07l2.07.67c-.44,1.3-1.71,2-3.45,2-2.63,0-4.05-1.43-4.05-3.9a3.55,3.55,0,0,1,3.91-3.9c2.45,0,3.75,1.42,3.75,3.8A5.38,5.38,0,0,1,36.17,33.54ZM31,32.15h2.82c-.12-.95-.59-1.47-1.38-1.47S31.19,31.15,31,32.15Z"/><path class="cls-6" d="M44.9,25.87V36.55H42.6l-.09-1.42a2.6,2.6,0,0,1-2.44,1.57c-1.94,0-3.09-1.43-3.09-3.87s1.17-3.93,3.1-3.93a2.4,2.4,0,0,1,2.27,1.41V25.87ZM42.35,33.1v-.6c-.06-1.11-.57-1.72-1.4-1.72s-1.41.61-1.41,2,.54,2,1.41,2S42.29,34.24,42.35,33.1Z"/><path class="cls-6" d="M53.81,29.05v7.5H51.53l-.08-1.4a2.6,2.6,0,0,1-2.59,1.55,2.32,2.32,0,0,1-2.57-2.64v-5h2.55v4.36c0,1,.38,1.34,1,1.34s1.38-.52,1.38-1.72v-4Z"/><path class="cls-6" d="M62.46,31.23,60.09,32c-.1-.86-.48-1.28-1.15-1.28-1,0-1.49.64-1.49,2.11s.59,2.06,1.49,2.06c.72,0,1.12-.44,1.24-1.22l2.3.73c-.21,1.31-1.43,2.3-3.53,2.3-2.62,0-4.05-1.44-4.05-3.9a3.59,3.59,0,0,1,4-3.9C61.28,28.9,62.22,30,62.46,31.23Z"/><path class="cls-6" d="M71.16,35,71,36.46a2,2,0,0,1-1,.24c-1,0-1.71-.35-1.94-1.15a2.87,2.87,0,0,1-2.67,1.15C63.86,36.7,63,36,63,34.82s.79-2,2.92-2.45l1.7-.33v-.28a1,1,0,0,0-1.07-1.11,1.25,1.25,0,0,0-1.39,1.16l-2.07-.6c.25-1.42,1.42-2.31,3.46-2.31,2.31,0,3.59.94,3.59,2.88v2.73c0,.39.18.58.54.58A1.58,1.58,0,0,0,71.16,35Zm-3.52-1v-.65l-1.22.29c-.63.15-.88.36-.88.77s.27.65.73.65C66.9,35.05,67.64,34.67,67.64,34Z"/><path class="cls-6" d="M78.93,31.23,76.56,32c-.1-.86-.48-1.28-1.15-1.28-1,0-1.49.64-1.49,2.11s.59,2.06,1.49,2.06c.72,0,1.12-.44,1.24-1.22l2.3.73c-.21,1.31-1.43,2.3-3.53,2.3-2.62,0-4-1.44-4-3.9a3.59,3.59,0,0,1,3.95-3.9C77.75,28.9,78.69,30,78.93,31.23Z"/><path class="cls-6" d="M79.71,27c0-.86.45-1.23,1.49-1.23s1.48.37,1.48,1.23-.45,1.21-1.48,1.21S79.71,27.81,79.71,27Zm2.76,9.58H79.92v-7.5h2.55Z"/><path class="cls-6" d="M91.47,32.8a4,4,0,0,1-7.92,0,4,4,0,0,1,7.92,0Zm-5.37,0c0,1.47.47,2.09,1.41,2.09s1.41-.62,1.41-2.09-.46-2.08-1.41-2.08S86.1,31.33,86.1,32.8Zm3.63-7.32-1.51,2.59H86.36l1-2.59Z"/><path class="cls-6" d="M100.08,31.56v5H97.53V32.26c0-1.06-.43-1.41-1.06-1.41s-1.35.49-1.35,1.74v4H92.57v-7.5h2.28l.07,1.44a2.63,2.63,0,0,1,2.57-1.59A2.42,2.42,0,0,1,100.08,31.56Z"/><path class="cls-6" d="M104.85,35.38l1.32-1.44A2.41,2.41,0,0,0,108.39,35c.71,0,1.13-.2,1.13-.52s-.36-.47-1.37-.67c-2.28-.46-3.1-1.19-3.1-2.42s1.17-2.49,3.61-2.49c1.8,0,2.79.52,3.44,1.41l-1.38,1.35a2.07,2.07,0,0,0-2-1.07c-.75,0-1.14.28-1.14.57s.33.5,1.38.7c2.22.38,3.1,1.09,3.1,2.38s-1.15,2.46-3.57,2.46A4.48,4.48,0,0,1,104.85,35.38Z"/><path class="cls-6" d="M120.5,29.05v7.5h-2.28l-.08-1.4a2.6,2.6,0,0,1-2.59,1.55A2.32,2.32,0,0,1,113,34.06v-5h2.55v4.36c0,1,.38,1.34,1,1.34S118,34.23,118,33v-4Z"/><path class="cls-6" d="M129.86,32.77c0,2.49-1.17,3.93-3.09,3.93a2.38,2.38,0,0,1-2.27-1.41V39.7H122V29.05h2.24l.07,1.59a2.62,2.62,0,0,1,2.51-1.74C128.72,28.9,129.86,30.32,129.86,32.77Zm-2.57,0c0-1.41-.54-2-1.41-2s-1.38.65-1.38,1.95v.15c0,1.24.5,1.94,1.38,1.94S127.29,34.21,127.29,32.8Z"/><path class="cls-6" d="M138.23,33.54h-5.12a1.44,1.44,0,0,0,1.58,1.36,1.28,1.28,0,0,0,1.38-.83l2.07.67c-.44,1.3-1.71,2-3.45,2-2.63,0-4.05-1.43-4.05-3.9a3.55,3.55,0,0,1,3.91-3.9c2.45,0,3.75,1.42,3.75,3.8A5.38,5.38,0,0,1,138.23,33.54Zm-5.13-1.39h2.82c-.12-.95-.59-1.47-1.38-1.47S133.25,31.15,133.1,32.15Z"/><path class="cls-6" d="M144.8,29.07l-.27,2.16a2,2,0,0,0-.95-.23,1.62,1.62,0,0,0-1.68,1.77v3.78h-2.55v-7.5h2.25l.11,1.62A2.28,2.28,0,0,1,144,28.9,1.75,1.75,0,0,1,144.8,29.07Z"/><path class="cls-6" d="M145.22,27c0-.86.45-1.23,1.48-1.23s1.49.37,1.49,1.23-.45,1.21-1.49,1.21S145.22,27.81,145.22,27ZM148,36.55h-2.55v-7.5H148Z"/><path class="cls-6" d="M157,32.8a4,4,0,0,1-7.91,0,4,4,0,0,1,7.91,0Zm-5.36,0c0,1.47.46,2.09,1.4,2.09s1.41-.62,1.41-2.09S154,30.72,153,30.72,151.61,31.33,151.61,32.8Z"/><path class="cls-6" d="M163.51,29.07l-.27,2.16a1.9,1.9,0,0,0-.94-.23,1.62,1.62,0,0,0-1.68,1.77v3.78h-2.55v-7.5h2.25l.1,1.62a2.28,2.28,0,0,1,2.28-1.77A1.69,1.69,0,0,1,163.51,29.07Z"/></g><g class="cls-4"><path class="cls-6" d="M131.1,202.35a1.88,1.88,0,0,1-2.1,1.91h-1.46v2.45h-.76v-6.27H129A1.88,1.88,0,0,1,131.1,202.35Zm-.79,0c0-.78-.44-1.19-1.43-1.19h-1.34v2.39h1.34C129.87,203.55,130.31,203.13,130.31,202.35Z"/><path class="cls-6" d="M135,202l-.15.74a1.38,1.38,0,0,0-.6-.12c-.57,0-1.25.5-1.25,1.57v2.56h-.76V202h.62l.1.78a1.52,1.52,0,0,1,1.52-.87A1.3,1.3,0,0,1,135,202Z"/><path class="cls-6" d="M140,204.33a2.3,2.3,0,1,1-2.3-2.46A2.2,2.2,0,0,1,140,204.33Zm-3.83,0c0,1.13.57,1.82,1.53,1.82s1.54-.69,1.54-1.82-.58-1.81-1.54-1.81S136.14,203.21,136.14,204.33Z"/><path class="cls-6" d="M145.17,203.13l-.73.34a1.21,1.21,0,0,0-1.26-.94c-1,0-1.52.68-1.52,1.8s.57,1.81,1.52,1.81a1.21,1.21,0,0,0,1.33-1l.7.25a2,2,0,0,1-2,1.39,2.47,2.47,0,0,1,0-4.93A2,2,0,0,1,145.17,203.13Z"/><path class="cls-6" d="M150.34,204.62h-3.57a1.5,1.5,0,0,0,1.54,1.52,1.29,1.29,0,0,0,1.34-.7l.64.33a2,2,0,0,1-2,1,2.2,2.2,0,0,1-2.29-2.47,2.15,2.15,0,0,1,2.24-2.46,2.05,2.05,0,0,1,2.12,2.22A3.48,3.48,0,0,1,150.34,204.62Zm-3.56-.67h2.87c-.1-.88-.59-1.42-1.39-1.42A1.42,1.42,0,0,0,146.78,204Z"/><path class="cls-6" d="M155.8,199.78v6.93h-.67l0-.83a1.79,1.79,0,0,1-1.63.92c-1.32,0-2.16-.92-2.16-2.47s.84-2.46,2.16-2.46a1.81,1.81,0,0,1,1.58.83v-2.92Zm-.76,4.61v-.11c0-1.07-.59-1.75-1.49-1.75s-1.49.7-1.49,1.8.56,1.81,1.49,1.81S155,205.46,155,204.39Z"/><path class="cls-6" d="M161.36,204.62h-3.58a1.5,1.5,0,0,0,1.54,1.52,1.29,1.29,0,0,0,1.34-.7l.64.33a2,2,0,0,1-2,1,2.2,2.2,0,0,1-2.29-2.47,2.15,2.15,0,0,1,2.24-2.46,2.05,2.05,0,0,1,2.12,2.22C161.39,204.31,161.37,204.49,161.36,204.62Zm-3.57-.67h2.87c-.1-.88-.59-1.42-1.39-1.42A1.42,1.42,0,0,0,157.79,204Z"/><path class="cls-6" d="M166.75,203.67v3H166v-2.77c0-1.06-.51-1.41-1.16-1.41a1.46,1.46,0,0,0-1.48,1.65v2.53h-.76V202h.67l.05.74a1.88,1.88,0,0,1,3.44,1Z"/><path class="cls-6" d="M171.07,206.38a1.83,1.83,0,0,1-1.23.42,1.19,1.19,0,0,1-1.32-1.27v-2.91h-1V202h1v-1.14l.76-.21V202H171v.66h-1.76v2.78a.65.65,0,0,0,.71.69,1.07,1.07,0,0,0,.81-.35Z"/><path class="cls-6" d="M175.93,204.62h-3.58a1.51,1.51,0,0,0,1.55,1.52,1.3,1.3,0,0,0,1.34-.7l.64.33a2.05,2.05,0,0,1-2,1,2.2,2.2,0,0,1-2.3-2.47,2.16,2.16,0,0,1,2.24-2.46,2.05,2.05,0,0,1,2.13,2.22A3.48,3.48,0,0,1,175.93,204.62Zm-3.57-.67h2.88c-.11-.88-.59-1.42-1.4-1.42A1.44,1.44,0,0,0,172.36,204Z"/><path class="cls-6" d="M176.74,205.73l.62-.43a1.49,1.49,0,0,0,1.5.84c.78,0,1.15-.32,1.15-.7s-.3-.56-1.24-.74c-1.35-.24-1.85-.61-1.85-1.41s.72-1.42,1.87-1.42a1.71,1.71,0,0,1,1.88,1.14l-.64.38a1.16,1.16,0,0,0-1.24-.86c-.63,0-1.11.34-1.11.69s.32.62,1.28.78c1.33.22,1.81.62,1.81,1.4s-.77,1.4-2,1.4A2.18,2.18,0,0,1,176.74,205.73Z"/><path class="cls-6" d="M189.14,199.78v6.93h-.66l0-.83a1.76,1.76,0,0,1-1.62.92c-1.32,0-2.17-.92-2.17-2.47a2.16,2.16,0,0,1,2.17-2.46,1.78,1.78,0,0,1,1.57.83v-2.92Zm-.76,4.61v-.11c0-1.07-.58-1.75-1.49-1.75s-1.49.7-1.49,1.8.56,1.81,1.49,1.81S188.38,205.46,188.38,204.39Z"/><path class="cls-6" d="M194.7,204.62h-3.58a1.51,1.51,0,0,0,1.55,1.52,1.3,1.3,0,0,0,1.34-.7l.63.33a2,2,0,0,1-2,1,2.2,2.2,0,0,1-2.3-2.47,2.16,2.16,0,0,1,2.24-2.46,2.05,2.05,0,0,1,2.13,2.22A3.48,3.48,0,0,1,194.7,204.62Zm-3.57-.67H194c-.11-.88-.59-1.42-1.4-1.42A1.44,1.44,0,0,0,191.13,204Z"/><path class="cls-6" d="M196.66,205.44c0,.48.12.63.51.63a1.8,1.8,0,0,0,.7-.13l-.13.73a1.75,1.75,0,0,1-.7.13c-.77,0-1.14-.41-1.14-1.27v-5.75h.76Z"/><path class="cls-6" d="M204,202l-.15.74a1.38,1.38,0,0,0-.6-.12c-.57,0-1.25.5-1.25,1.57v2.56h-.76V202h.62l.1.78a1.52,1.52,0,0,1,1.52-.87A1.3,1.3,0,0,1,204,202Z"/><path class="cls-6" d="M208.78,204.62h-3.57a1.5,1.5,0,0,0,1.54,1.52,1.29,1.29,0,0,0,1.34-.7l.64.33a2,2,0,0,1-2,1,2.2,2.2,0,0,1-2.29-2.47,2.15,2.15,0,0,1,2.24-2.46,2.05,2.05,0,0,1,2.12,2.22A3.48,3.48,0,0,1,208.78,204.62Zm-3.56-.67h2.87c-.1-.88-.59-1.42-1.39-1.42A1.42,1.42,0,0,0,205.22,204Z"/><path class="cls-6" d="M214,203.13l-.72.34a1.23,1.23,0,0,0-1.26-.94c-.95,0-1.52.68-1.52,1.8s.57,1.81,1.52,1.81a1.22,1.22,0,0,0,1.33-1l.7.25a2,2,0,0,1-2,1.39,2.47,2.47,0,0,1,0-4.93A2,2,0,0,1,214,203.13Z"/><path class="cls-6" d="M219.41,206.11l0,.6a1.65,1.65,0,0,1-.57.09.74.74,0,0,1-.85-.7,1.88,1.88,0,0,1-1.53.7c-.9,0-1.62-.41-1.62-1.27s.63-1.27,1.85-1.48l1.27-.21v-.26a1,1,0,0,0-1.11-1.05,1.4,1.4,0,0,0-1.36.9l-.56-.4a1.93,1.93,0,0,1,1.92-1.16c1.08,0,1.87.51,1.87,1.61v2.34c0,.22.09.34.36.34A1.65,1.65,0,0,0,219.41,206.11Zm-1.5-1v-.65l-1.07.2c-.83.15-1.26.42-1.26.87s.32.61.86.61C217.2,206.14,217.91,205.74,217.91,205.11Z"/><path class="cls-6" d="M224.38,202v4.75h-.67l-.05-.72a1.82,1.82,0,0,1-1.7.81,1.59,1.59,0,0,1-1.74-1.73V202H221v2.91c0,1,.43,1.27,1.12,1.27a1.45,1.45,0,0,0,1.52-1.6V202Z"/><path class="cls-6" d="M230.11,199.78v6.93h-.66l0-.83a1.76,1.76,0,0,1-1.62.92c-1.32,0-2.17-.92-2.17-2.47a2.16,2.16,0,0,1,2.17-2.46,1.78,1.78,0,0,1,1.57.83v-2.92Zm-.76,4.61v-.11c0-1.07-.58-1.75-1.49-1.75s-1.49.7-1.49,1.8.56,1.81,1.49,1.81S229.35,205.46,229.35,204.39Z"/><path class="cls-6" d="M235.94,204.33a2.31,2.31,0,1,1-2.3-2.46A2.2,2.2,0,0,1,235.94,204.33Zm-3.84,0c0,1.13.58,1.82,1.54,1.82s1.54-.69,1.54-1.82-.58-1.81-1.54-1.81S232.1,203.21,232.1,204.33Z"/></g><g class="cls-4"><path class="cls-6" d="M130.86,209.94v6.93h-.67l-.05-.83a1.76,1.76,0,0,1-1.62.92c-1.32,0-2.16-.92-2.16-2.46s.84-2.47,2.16-2.47a1.81,1.81,0,0,1,1.58.83v-2.92Zm-.76,4.61v-.11c0-1.07-.59-1.75-1.49-1.75s-1.49.71-1.49,1.81.56,1.8,1.49,1.8S130.1,215.63,130.1,214.55Z"/><path class="cls-6" d="M136.41,214.78h-3.57a1.5,1.5,0,0,0,1.54,1.52,1.3,1.3,0,0,0,1.34-.7l.64.33a2,2,0,0,1-2,1,2.19,2.19,0,0,1-2.29-2.46c0-1.54.8-2.47,2.23-2.47a2.06,2.06,0,0,1,2.13,2.22A3.48,3.48,0,0,1,136.41,214.78Zm-3.57-.67h2.88c-.1-.88-.59-1.42-1.4-1.42A1.44,1.44,0,0,0,132.84,214.11Z"/><path class="cls-6" d="M143.41,212.12l-.15.74a1.38,1.38,0,0,0-.6-.12c-.57,0-1.25.5-1.25,1.57v2.56h-.76v-4.75h.62l.1.78a1.52,1.52,0,0,1,1.52-.87A1.3,1.3,0,0,1,143.41,212.12Z"/><path class="cls-6" d="M148.16,214.78h-3.57a1.5,1.5,0,0,0,1.54,1.52,1.29,1.29,0,0,0,1.34-.7l.64.33a2,2,0,0,1-2,1,2.19,2.19,0,0,1-2.29-2.46c0-1.54.8-2.47,2.24-2.47a2.06,2.06,0,0,1,2.12,2.22A3.48,3.48,0,0,1,148.16,214.78Zm-3.57-.67h2.88c-.1-.88-.59-1.42-1.39-1.42A1.44,1.44,0,0,0,144.59,214.11Z"/><path class="cls-6" d="M153.48,217.39c0,.94-1.06,1.52-2.34,1.52-1.5,0-2.18-.54-2.18-1.25a.92.92,0,0,0,.19-1.8.94.94,0,0,1,.71-.93,1.45,1.45,0,0,1-.69-1.3c0-.94.8-1.6,1.94-1.6a2.33,2.33,0,0,1,1,.19,1.24,1.24,0,0,1,1.34-1l.17.66c-.64,0-1,.18-1.13.53a1.45,1.45,0,0,1,.6,1.19,1.73,1.73,0,0,1-1.95,1.61,2.7,2.7,0,0,1-.73-.09c-.38.09-.53.28-.53.6s.26.51.63.51h1.57C153,216.26,153.48,216.71,153.48,217.39Zm-.7.09c0-.35-.23-.56-.94-.56h-1.27c-.6,0-.91.22-.91.58s.52.77,1.57.77S152.78,217.89,152.78,217.48ZM150,213.63a1.17,1.17,0,0,0,2.32,0,1.18,1.18,0,0,0-2.32,0Z"/><path class="cls-6" d="M158.64,216.27l0,.6a1.74,1.74,0,0,1-.57.09.75.75,0,0,1-.86-.7,1.85,1.85,0,0,1-1.53.7c-.89,0-1.61-.41-1.61-1.27,0-.71.63-1.27,1.85-1.48l1.26-.21v-.26a1,1,0,0,0-1.11-1.05,1.39,1.39,0,0,0-1.35.9l-.56-.4A1.91,1.91,0,0,1,156,212c1.09,0,1.87.51,1.87,1.61V216c0,.22.1.34.36.34A1.52,1.52,0,0,0,158.64,216.27Zm-1.5-1v-.65l-1.06.2c-.83.15-1.26.43-1.26.87s.32.61.86.61C156.44,216.3,157.14,215.9,157.14,215.27Z"/><path class="cls-6" d="M160.22,215.6c0,.48.13.63.52.63a1.79,1.79,0,0,0,.69-.13l-.12.73a1.8,1.8,0,0,1-.71.13c-.76,0-1.14-.4-1.14-1.27v-5.75h.76Z"/><path class="cls-6" d="M162.93,216.87h-.76v-4.75h.76Zm.79-7.12-.93,1.59h-.61l.72-1.59Z"/><path class="cls-6" d="M168.72,216.27l0,.6a1.74,1.74,0,0,1-.57.09.75.75,0,0,1-.86-.7,1.85,1.85,0,0,1-1.52.7c-.9,0-1.62-.41-1.62-1.27,0-.71.63-1.27,1.85-1.48l1.26-.21v-.26a1,1,0,0,0-1.11-1.05,1.39,1.39,0,0,0-1.35.9l-.56-.4a1.91,1.91,0,0,1,1.91-1.16c1.09,0,1.87.51,1.87,1.61V216c0,.22.1.34.36.34A1.52,1.52,0,0,0,168.72,216.27Zm-1.5-1v-.65l-1.06.2c-.83.15-1.26.43-1.26.87s.32.61.86.61C166.52,216.3,167.22,215.9,167.22,215.27Z"/><path class="cls-6" d="M169.16,215.89l.61-.43a1.49,1.49,0,0,0,1.5.84c.78,0,1.15-.31,1.15-.7s-.29-.56-1.24-.73c-1.35-.25-1.84-.62-1.84-1.42s.71-1.42,1.87-1.42a1.72,1.72,0,0,1,1.88,1.14l-.65.38a1.15,1.15,0,0,0-1.23-.86c-.64,0-1.11.34-1.11.7s.31.61,1.28.77c1.33.22,1.8.62,1.8,1.4s-.77,1.4-2,1.4A2.16,2.16,0,0,1,169.16,215.89Z"/><path class="cls-6" d="M181.84,214.5c0,1.54-.84,2.46-2.16,2.46a1.8,1.8,0,0,1-1.58-.83v2.73h-.76v-6.74H178l0,.83a1.79,1.79,0,0,1,1.63-.92C181,212,181.84,213,181.84,214.5Zm-.76,0c0-1.1-.56-1.81-1.49-1.81s-1.49.68-1.49,1.75v.11c0,1.08.59,1.75,1.49,1.75S181.08,215.6,181.08,214.5Z"/><path class="cls-6" d="M187.35,216.27l0,.6a1.65,1.65,0,0,1-.57.09.75.75,0,0,1-.85-.7,1.85,1.85,0,0,1-1.53.7c-.89,0-1.61-.41-1.61-1.27,0-.71.62-1.27,1.85-1.48l1.26-.21v-.26a1,1,0,0,0-1.11-1.05,1.4,1.4,0,0,0-1.36.9l-.56-.4a1.93,1.93,0,0,1,1.92-1.16c1.08,0,1.87.51,1.87,1.61V216c0,.22.1.34.36.34A1.58,1.58,0,0,0,187.35,216.27Zm-1.5-1v-.65l-1.06.2c-.84.15-1.26.43-1.26.87s.32.61.86.61C185.15,216.3,185.85,215.9,185.85,215.27Z"/><path class="cls-6" d="M191,212.12l-.15.74a1.38,1.38,0,0,0-.6-.12c-.57,0-1.25.5-1.25,1.57v2.56h-.76v-4.75h.62l.1.78a1.52,1.52,0,0,1,1.52-.87A1.3,1.3,0,0,1,191,212.12Z"/><path class="cls-6" d="M196,216.27l0,.6a1.65,1.65,0,0,1-.57.09.75.75,0,0,1-.85-.7,1.85,1.85,0,0,1-1.53.7c-.89,0-1.61-.41-1.61-1.27,0-.71.63-1.27,1.85-1.48l1.26-.21v-.26a1,1,0,0,0-1.11-1.05,1.4,1.4,0,0,0-1.36.9l-.56-.4a1.93,1.93,0,0,1,1.92-1.16c1.08,0,1.87.51,1.87,1.61V216c0,.22.1.34.36.34A1.52,1.52,0,0,0,196,216.27Zm-1.5-1v-.65l-1.06.2c-.84.15-1.26.43-1.26.87s.32.61.86.61C193.78,216.3,194.48,215.9,194.48,215.27Z"/><path class="cls-6" d="M199.44,216.25c2.5-1.84,3.28-2.67,3.28-3.78a1.21,1.21,0,0,0-1.33-1.25,1.5,1.5,0,0,0-1.49,1.55l-.66-.4a2.06,2.06,0,0,1,2.18-1.86,1.92,1.92,0,0,1,2.1,2c0,1.18-.76,2.22-3,3.71h0l.94,0h2.19v.71h-4.21Z"/><path class="cls-6" d="M204.65,213.74c0-2.1.81-3.23,2.33-3.23s2.34,1.13,2.34,3.23S208.5,217,207,217,204.65,215.83,204.65,213.74Zm3.88,0c0-1.65-.54-2.55-1.55-2.55s-1.55.9-1.55,2.55.54,2.54,1.55,2.54S208.53,215.39,208.53,213.74Z"/><path class="cls-6" d="M212.6,210.61v6.26h-.75v-4.59c0-.21,0-.47,0-.74a3.69,3.69,0,0,1-1.62.89l-.2-.7a3.92,3.92,0,0,0,1.9-1.12Z"/><path class="cls-6" d="M218.57,213.74c0,2.09-.83,3.22-2.41,3.22a2.07,2.07,0,0,1-2.17-1.41l.75-.4a1.28,1.28,0,0,0,1.41,1.1c1.31,0,1.73-1.09,1.73-2.77v-.08h0a1.61,1.61,0,0,1-1.75,1.17,2,2,0,1,1,.06-4.06C217.73,210.51,218.57,211.84,218.57,213.74Zm-3.78-1.19a1.23,1.23,0,0,0,1.37,1.29,1.3,1.3,0,1,0,0-2.6A1.23,1.23,0,0,0,214.79,212.55Z"/><path class="cls-6" d="M224.45,217.67c-.37.93-.8,1.24-1.5,1.24a1.26,1.26,0,0,1-1-.4l.26-.65a.87.87,0,0,0,.77.38c.33,0,.63-.14.86-.76l.25-.62-2-4.74h.86l1.19,3.1.29.84.34-.94,1.11-3h.82Z"/><path class="cls-6" d="M230.06,216.25c2.51-1.84,3.29-2.67,3.29-3.78a1.22,1.22,0,0,0-1.33-1.25,1.49,1.49,0,0,0-1.49,1.55l-.67-.4a2.06,2.06,0,0,1,2.19-1.86,1.92,1.92,0,0,1,2.09,2c0,1.18-.76,2.22-3,3.71h0l.94,0h2.2v.71h-4.22Z"/><path class="cls-6" d="M235.27,213.74c0-2.1.82-3.23,2.33-3.23s2.34,1.13,2.34,3.23-.82,3.22-2.34,3.22S235.27,215.83,235.27,213.74Zm3.88,0c0-1.65-.54-2.55-1.55-2.55s-1.54.9-1.54,2.55.54,2.54,1.54,2.54S239.15,215.39,239.15,213.74Z"/><path class="cls-6" d="M241,216.25c2.5-1.84,3.28-2.67,3.28-3.78a1.21,1.21,0,0,0-1.33-1.25,1.5,1.5,0,0,0-1.49,1.55l-.66-.4a2.06,2.06,0,0,1,2.18-1.86,1.92,1.92,0,0,1,2.1,2c0,1.18-.76,2.22-3,3.71h0l.94,0h2.19v.71H241Z"/><path class="cls-6" d="M246.22,213.74c0-2.1.82-3.23,2.34-3.23s2.33,1.13,2.33,3.23-.81,3.22-2.33,3.22S246.22,215.83,246.22,213.74Zm3.88,0c0-1.65-.54-2.55-1.54-2.55s-1.55.9-1.55,2.55.54,2.54,1.55,2.54S250.1,215.39,250.1,213.74Z"/></g><g class="cls-4"><path class="cls-6" d="M65.1,195.4v12h-3v-9A5.83,5.83,0,0,1,59.24,200L59,197.42a6.15,6.15,0,0,0,3.66-2Z"/><path class="cls-6" d="M71,206.64a3.89,3.89,0,0,1-2.53,3.67l-1.36-1a3.56,3.56,0,0,0,2.25-2l-.07,0a.7.7,0,0,1-.56.2A1.47,1.47,0,0,1,67.21,206,1.65,1.65,0,0,1,69,204.29C70.37,204.29,71,205.33,71,206.64Z"/><path class="cls-6" d="M81.66,203.31c0,2.95-2.11,4.3-4.68,4.3a4.92,4.92,0,0,1-4.7-2.41L75,203.64a1.74,1.74,0,0,0,2,1.6,1.63,1.63,0,0,0,1.84-1.71,1.6,1.6,0,0,0-1.84-1.7,2.43,2.43,0,0,0-1.92.71l-2.37-.34.77-6.8H81v2.42H75.76l-.28,2.26a2.15,2.15,0,0,1-.09.44h0a3.36,3.36,0,0,1,2.48-.86A3.49,3.49,0,0,1,81.66,203.31Z"/></g><g class="cls-4"><path class="cls-6" d="M128.22,255.14h-.76v-6.26h.76Z"/><path class="cls-6" d="M134,252.11v3h-.76v-2.77c0-1.05-.51-1.4-1.17-1.4a1.46,1.46,0,0,0-1.47,1.65v2.52h-.76V250.4h.67l0,.74a1.73,1.73,0,0,1,1.6-.84A1.7,1.7,0,0,1,134,252.11Z"/><path class="cls-6" d="M139.29,250.4l-2,4.74h-.76l-2-4.74h.87l1.5,4,1.54-4Z"/><path class="cls-6" d="M144.08,253.05H140.5a1.51,1.51,0,0,0,1.55,1.52c.69,0,1.17-.24,1.34-.7l.63.33a2,2,0,0,1-2,1,2.2,2.2,0,0,1-2.3-2.47A2.16,2.16,0,0,1,142,250.3a2.06,2.06,0,0,1,2.13,2.22A3.48,3.48,0,0,1,144.08,253.05Zm-3.57-.67h2.88c-.11-.87-.59-1.41-1.4-1.41A1.43,1.43,0,0,0,140.51,252.38Z"/><path class="cls-6" d="M148.08,250.4l-.15.74a1.24,1.24,0,0,0-.6-.13,1.39,1.39,0,0,0-1.25,1.57v2.56h-.76V250.4h.62l.1.78a1.53,1.53,0,0,1,1.52-.88A1.15,1.15,0,0,1,148.08,250.4Z"/><path class="cls-6" d="M148.33,254.16l.61-.42a1.48,1.48,0,0,0,1.5.83c.78,0,1.15-.31,1.15-.7s-.29-.56-1.24-.73c-1.35-.25-1.84-.62-1.84-1.41s.71-1.43,1.87-1.43a1.7,1.7,0,0,1,1.87,1.14l-.64.38a1.15,1.15,0,0,0-1.23-.85c-.64,0-1.12.34-1.12.69s.32.62,1.29.78c1.33.22,1.8.61,1.8,1.39s-.77,1.41-2,1.41A2.15,2.15,0,0,1,148.33,254.16Z"/><path class="cls-6" d="M153.32,248.92a.57.57,0,1,1,.57.57A.54.54,0,0,1,153.32,248.92Zm1,6.22h-.76V250.4h.76Z"/><path class="cls-6" d="M160.1,252.77a2.31,2.31,0,1,1-2.3-2.47A2.2,2.2,0,0,1,160.1,252.77Zm-3.84,0c0,1.13.58,1.81,1.54,1.81s1.54-.68,1.54-1.81-.58-1.81-1.54-1.81S156.26,251.64,156.26,252.77Zm2.62-4.75-.93,1.59h-.61l.72-1.59Z"/><path class="cls-6" d="M165.48,252.11v3h-.75v-2.77c0-1.05-.52-1.4-1.17-1.4a1.46,1.46,0,0,0-1.47,1.65v2.52h-.76V250.4H162l0,.74a1.88,1.88,0,0,1,3.44,1Z"/><path class="cls-6" d="M174.17,248.21v6.93h-.66l0-.82a1.78,1.78,0,0,1-1.62.92c-1.32,0-2.17-.92-2.17-2.47s.85-2.47,2.17-2.47a1.77,1.77,0,0,1,1.57.84v-2.93Zm-.76,4.62v-.12c0-1.07-.59-1.74-1.49-1.74s-1.49.7-1.49,1.8.56,1.8,1.49,1.8S173.41,253.9,173.41,252.83Z"/><path class="cls-6" d="M179.73,253.05h-3.58a1.51,1.51,0,0,0,1.55,1.52c.69,0,1.17-.24,1.34-.7l.63.33a2,2,0,0,1-2,1,2.2,2.2,0,0,1-2.3-2.47,2.16,2.16,0,0,1,2.24-2.47,2.06,2.06,0,0,1,2.13,2.22A3.48,3.48,0,0,1,179.73,253.05Zm-3.57-.67H179c-.11-.87-.59-1.41-1.4-1.41A1.43,1.43,0,0,0,176.16,252.38Z"/><path class="cls-6" d="M181.69,253.87c0,.48.12.64.51.64a1.65,1.65,0,0,0,.7-.14l-.13.73a1.75,1.75,0,0,1-.7.14c-.77,0-1.14-.41-1.14-1.27v-5.76h.76Z"/><path class="cls-6" d="M190.76,250.79a1.89,1.89,0,0,1-2.11,1.9H187.2v2.45h-.76v-6.26h2.21A1.89,1.89,0,0,1,190.76,250.79Zm-.8,0c0-.78-.43-1.2-1.42-1.2H187.2V252h1.34C189.53,252,190,251.56,190,250.79Z"/><path class="cls-6" d="M194.61,250.4l-.15.74a1.27,1.27,0,0,0-.6-.13,1.39,1.39,0,0,0-1.25,1.57v2.56h-.76V250.4h.61l.11.78a1.52,1.52,0,0,1,1.52-.88A1.15,1.15,0,0,1,194.61,250.4Z"/><path class="cls-6" d="M199.36,253.05h-3.58a1.51,1.51,0,0,0,1.55,1.52c.69,0,1.17-.24,1.34-.7l.63.33a2,2,0,0,1-2,1,2.2,2.2,0,0,1-2.3-2.47,2.16,2.16,0,0,1,2.24-2.47,2.06,2.06,0,0,1,2.13,2.22A3.48,3.48,0,0,1,199.36,253.05Zm-3.57-.67h2.88c-.11-.87-.59-1.41-1.4-1.41A1.43,1.43,0,0,0,195.79,252.38Z"/><path class="cls-6" d="M200.17,254.16l.62-.42a1.48,1.48,0,0,0,1.5.83c.78,0,1.15-.31,1.15-.7s-.3-.56-1.25-.73c-1.34-.25-1.84-.62-1.84-1.41s.72-1.43,1.87-1.43a1.71,1.71,0,0,1,1.88,1.14l-.64.38a1.16,1.16,0,0,0-1.24-.85c-.63,0-1.11.34-1.11.69s.32.62,1.28.78c1.33.22,1.81.61,1.81,1.39s-.77,1.41-2,1.41A2.16,2.16,0,0,1,200.17,254.16Z"/><path class="cls-6" d="M209.47,250.4v4.74h-.66l-.05-.72a1.82,1.82,0,0,1-1.7.82,1.6,1.6,0,0,1-1.75-1.74v-3.1h.76v2.9c0,1,.44,1.27,1.12,1.27a1.44,1.44,0,0,0,1.52-1.59V250.4Z"/><path class="cls-6" d="M215.49,252.77c0,1.55-.84,2.47-2.16,2.47a1.8,1.8,0,0,1-1.58-.84v2.74H211V250.4h.67l.05.82a1.76,1.76,0,0,1,1.62-.92C214.65,250.3,215.49,251.22,215.49,252.77Zm-.76,0c0-1.1-.56-1.8-1.49-1.8s-1.49.67-1.49,1.74v.12c0,1.07.59,1.74,1.49,1.74S214.73,253.87,214.73,252.77Z"/><path class="cls-6" d="M220.84,250.4v4.74h-.66l-.05-.72a1.82,1.82,0,0,1-1.7.82,1.59,1.59,0,0,1-1.74-1.74v-3.1h.75v2.9c0,1,.44,1.27,1.12,1.27a1.44,1.44,0,0,0,1.52-1.59V250.4Z"/><path class="cls-6" d="M226.4,253.05h-3.58a1.51,1.51,0,0,0,1.55,1.52c.69,0,1.17-.24,1.34-.7l.63.33a2,2,0,0,1-2,1,2.2,2.2,0,0,1-2.3-2.47,2.16,2.16,0,0,1,2.24-2.47,2.06,2.06,0,0,1,2.13,2.22A3.48,3.48,0,0,1,226.4,253.05Zm-3.57-.67h2.88c-.11-.87-.59-1.41-1.4-1.41A1.43,1.43,0,0,0,222.83,252.38Z"/><path class="cls-6" d="M227.21,254.16l.62-.42a1.48,1.48,0,0,0,1.5.83c.78,0,1.15-.31,1.15-.7s-.3-.56-1.25-.73c-1.34-.25-1.84-.62-1.84-1.41s.71-1.43,1.87-1.43a1.71,1.71,0,0,1,1.88,1.14l-.64.38a1.16,1.16,0,0,0-1.24-.85c-.63,0-1.11.34-1.11.69s.31.62,1.28.78c1.33.22,1.81.61,1.81,1.39s-.77,1.41-2,1.41A2.16,2.16,0,0,1,227.21,254.16Z"/><path class="cls-6" d="M235.3,254.81a1.74,1.74,0,0,1-1.22.43,1.19,1.19,0,0,1-1.32-1.27v-2.92h-.95v-.65h.95v-1.14l.76-.21v1.35h1.76v.65h-1.76v2.78a.64.64,0,0,0,.71.7,1.1,1.1,0,0,0,.81-.36Z"/><path class="cls-6" d="M240.44,252.77a2.31,2.31,0,1,1-2.3-2.47A2.2,2.2,0,0,1,240.44,252.77Zm-3.84,0c0,1.13.58,1.81,1.54,1.81s1.54-.68,1.54-1.81-.58-1.81-1.54-1.81S236.6,251.64,236.6,252.77Z"/></g><g class="cls-4"><path class="cls-6" d="M132.56,262.14v3.16H132l0-.84a2.15,2.15,0,0,1-2,.94c-1.79,0-2.91-1.25-2.91-3.23s1.17-3.23,2.92-3.23a2.5,2.5,0,0,1,2.51,1.44l-.69.38a1.8,1.8,0,0,0-1.82-1.11c-1.27,0-2.12,1-2.12,2.52s.74,2.52,2.13,2.52c1.05,0,1.85-.54,1.85-1.62v-.22h-2v-.71Z"/><path class="cls-6" d="M138,263.22H134.4a1.51,1.51,0,0,0,1.55,1.51c.69,0,1.17-.24,1.34-.7l.63.33a2,2,0,0,1-2,1,2.2,2.2,0,0,1-2.3-2.47,2.16,2.16,0,0,1,2.24-2.47,2.06,2.06,0,0,1,2.13,2.22A3.74,3.74,0,0,1,138,263.22Zm-3.57-.68h2.88c-.11-.87-.59-1.41-1.4-1.41A1.43,1.43,0,0,0,134.41,262.54Z"/><path class="cls-6" d="M143.38,262.27v3h-.76v-2.77c0-1-.51-1.4-1.17-1.4a1.46,1.46,0,0,0-1.47,1.65v2.52h-.76v-4.74h.67l0,.74a1.73,1.73,0,0,1,1.6-.84A1.7,1.7,0,0,1,143.38,262.27Z"/><path class="cls-6" d="M148.89,263.22h-3.58a1.5,1.5,0,0,0,1.55,1.51,1.29,1.29,0,0,0,1.34-.7l.63.33a2,2,0,0,1-2,1,2.2,2.2,0,0,1-2.3-2.47,2.16,2.16,0,0,1,2.24-2.47,2.06,2.06,0,0,1,2.13,2.22A3.74,3.74,0,0,1,148.89,263.22Zm-3.57-.68h2.88c-.11-.87-.59-1.41-1.4-1.41A1.43,1.43,0,0,0,145.32,262.54Z"/><path class="cls-6" d="M152.89,260.56l-.15.74a1.27,1.27,0,0,0-.6-.13,1.39,1.39,0,0,0-1.25,1.57v2.56h-.76v-4.74h.61l.11.78a1.52,1.52,0,0,1,1.52-.88A1.15,1.15,0,0,1,152.89,260.56Z"/><path class="cls-6" d="M157.9,264.71l-.05.59a1.62,1.62,0,0,1-.57.1.74.74,0,0,1-.85-.7,1.89,1.89,0,0,1-1.53.7c-.89,0-1.61-.42-1.61-1.27s.62-1.28,1.85-1.48l1.26-.21v-.27a1,1,0,0,0-1.11-1,1.39,1.39,0,0,0-1.36.9l-.56-.41a1.94,1.94,0,0,1,1.92-1.16c1.08,0,1.87.52,1.87,1.62v2.33c0,.23.09.34.36.34A2.45,2.45,0,0,0,157.9,264.71Zm-1.5-1v-.66l-1.06.2c-.84.15-1.27.43-1.27.88s.33.6.87.6C155.7,264.73,156.4,264.33,156.4,263.71Z"/><path class="cls-6" d="M159.48,264c0,.48.12.64.51.64a1.58,1.58,0,0,0,.69-.14l-.12.73a1.75,1.75,0,0,1-.7.14c-.77,0-1.14-.41-1.14-1.27v-5.76h.76Z"/><path class="cls-6" d="M168.3,258.37v6.93h-.66l0-.82a1.78,1.78,0,0,1-1.62.92c-1.32,0-2.17-.92-2.17-2.47s.85-2.47,2.17-2.47a1.77,1.77,0,0,1,1.57.84v-2.93Zm-.76,4.62v-.12c0-1.07-.59-1.74-1.49-1.74s-1.49.7-1.49,1.8.56,1.8,1.49,1.8S167.54,264.06,167.54,263Z"/><path class="cls-6" d="M173.86,263.22h-3.58a1.51,1.51,0,0,0,1.55,1.51c.69,0,1.17-.24,1.34-.7l.63.33a2,2,0,0,1-2,1,2.2,2.2,0,0,1-2.3-2.47,2.16,2.16,0,0,1,2.24-2.47,2.06,2.06,0,0,1,2.13,2.22A3.74,3.74,0,0,1,173.86,263.22Zm-3.57-.68h2.88c-.11-.87-.59-1.41-1.4-1.41A1.43,1.43,0,0,0,170.29,262.54Z"/><path class="cls-6" d="M178.82,264c0,.48.12.64.51.64a1.58,1.58,0,0,0,.69-.14l-.12.73a1.78,1.78,0,0,1-.7.14c-.77,0-1.14-.41-1.14-1.27v-5.76h.76Z"/><path class="cls-6" d="M185,264.71l-.05.59a1.62,1.62,0,0,1-.57.1.75.75,0,0,1-.85-.7,1.88,1.88,0,0,1-1.53.7c-.89,0-1.61-.42-1.61-1.27s.63-1.28,1.85-1.48l1.26-.21v-.27a1,1,0,0,0-1.11-1,1.39,1.39,0,0,0-1.36.9l-.56-.41a1.94,1.94,0,0,1,1.92-1.16c1.08,0,1.87.52,1.87,1.62v2.33c0,.23.1.34.36.34A2.33,2.33,0,0,0,185,264.71Zm-1.5-1v-.66l-1.06.2c-.84.15-1.26.43-1.26.88s.32.6.86.6C182.83,264.73,183.53,264.33,183.53,263.71Z"/><path class="cls-6" d="M193.73,265.3h-.94l-2.62-4.19-.67-1.24h0l0,1v4.42h-.72V259h.94l2.61,4.18.68,1.25h0l0-1V259h.72Z"/><path class="cls-6" d="M199.61,264.71l-.05.59a1.62,1.62,0,0,1-.57.1.74.74,0,0,1-.85-.7,1.89,1.89,0,0,1-1.53.7c-.89,0-1.61-.42-1.61-1.27s.62-1.28,1.85-1.48l1.26-.21v-.27a1,1,0,0,0-1.11-1,1.39,1.39,0,0,0-1.36.9l-.56-.41a1.94,1.94,0,0,1,1.92-1.16c1.08,0,1.87.52,1.87,1.62v2.33c0,.23.09.34.36.34A2.45,2.45,0,0,0,199.61,264.71Zm-1.5-1v-.66l-1.06.2c-.84.15-1.27.43-1.27.88s.33.6.87.6C197.41,264.73,198.11,264.33,198.11,263.71Z"/><path class="cls-6" d="M204.44,261.73l-.73.34a1.22,1.22,0,0,0-1.26-.94c-.95,0-1.52.67-1.52,1.8s.57,1.8,1.52,1.8a1.22,1.22,0,0,0,1.33-1l.7.24a2,2,0,0,1-2,1.4,2.48,2.48,0,0,1,0-4.94A2,2,0,0,1,204.44,261.73Z"/><path class="cls-6" d="M205.39,259.08a.57.57,0,1,1,.57.57A.54.54,0,0,1,205.39,259.08Zm1,6.22h-.76v-4.74h.76Z"/><path class="cls-6" d="M212.16,262.93a2.3,2.3,0,1,1-2.29-2.47A2.2,2.2,0,0,1,212.16,262.93Zm-3.83,0c0,1.13.58,1.81,1.54,1.81s1.54-.68,1.54-1.81-.58-1.81-1.54-1.81S208.33,261.8,208.33,262.93Zm2.62-4.75-.93,1.59h-.62l.72-1.59Z"/><path class="cls-6" d="M217.55,262.27v3h-.76v-2.77c0-1-.51-1.4-1.17-1.4a1.46,1.46,0,0,0-1.47,1.65v2.52h-.76v-4.74h.67l.05.74a1.88,1.88,0,0,1,3.44,1Z"/></g><g class="cls-4"><path class="cls-6" d="M132,305.24V306h-4.54v-6.27h4.4v.72h-3.64v2h2.83v.71h-2.83v2.11Z"/><path class="cls-6" d="M136.07,306l-1.31-1.84L133.41,306h-.89l1.83-2.39-1.71-2.36h1l1.25,1.76,1.23-1.76h.9l-1.72,2.33L137,306Z"/><path class="cls-6" d="M141.73,302.37l-.72.34a1.23,1.23,0,0,0-1.27-.94c-.94,0-1.51.68-1.51,1.8s.57,1.81,1.51,1.81a1.21,1.21,0,0,0,1.33-1l.71.25a2,2,0,0,1-2,1.39,2.47,2.47,0,0,1,0-4.93A2,2,0,0,1,141.73,302.37Z"/><path class="cls-6" d="M146.91,303.86h-3.58a1.5,1.5,0,0,0,1.55,1.52,1.28,1.28,0,0,0,1.33-.7l.64.33a2,2,0,0,1-2,1,2.2,2.2,0,0,1-2.3-2.47,2.15,2.15,0,0,1,2.24-2.46,2.05,2.05,0,0,1,2.12,2.22A3.7,3.7,0,0,1,146.91,303.86Zm-3.57-.67h2.87c-.1-.88-.58-1.42-1.39-1.42A1.42,1.42,0,0,0,143.34,303.19Z"/><path class="cls-6" d="M152.36,299V306h-.67l0-.83A1.79,1.79,0,0,1,150,306c-1.31,0-2.16-.92-2.16-2.47s.85-2.46,2.16-2.46a1.79,1.79,0,0,1,1.58.83V299Zm-.76,4.61v-.11c0-1.07-.59-1.75-1.49-1.75s-1.49.7-1.49,1.8.56,1.81,1.49,1.81S151.6,304.7,151.6,303.63Z"/><path class="cls-6" d="M157.92,303.86h-3.58a1.5,1.5,0,0,0,1.55,1.52,1.28,1.28,0,0,0,1.33-.7l.64.33a2,2,0,0,1-2,1,2.2,2.2,0,0,1-2.3-2.47,2.16,2.16,0,0,1,2.24-2.46,2,2,0,0,1,2.12,2.22A3.7,3.7,0,0,1,157.92,303.86Zm-3.57-.67h2.87c-.1-.88-.58-1.42-1.39-1.42A1.42,1.42,0,0,0,154.35,303.19Z"/><path class="cls-6" d="M163.31,302.91v3h-.76v-2.77c0-1.06-.51-1.41-1.16-1.41a1.46,1.46,0,0,0-1.47,1.65V306h-.76V301.2h.66l.05.74a1.88,1.88,0,0,1,3.44,1Z"/><path class="cls-6" d="M167.63,305.61a1.78,1.78,0,0,1-1.23.43,1.19,1.19,0,0,1-1.32-1.27v-2.91h-1v-.66h1v-1.14l.76-.21v1.35h1.76v.66h-1.76v2.78a.65.65,0,0,0,.71.69,1.07,1.07,0,0,0,.81-.35Z"/><path class="cls-6" d="M172.49,303.86h-3.57a1.5,1.5,0,0,0,1.54,1.52,1.29,1.29,0,0,0,1.34-.7l.64.33a2,2,0,0,1-2,1,2.2,2.2,0,0,1-2.29-2.47,2.15,2.15,0,0,1,2.24-2.46,2.05,2.05,0,0,1,2.12,2.22A3.48,3.48,0,0,1,172.49,303.86Zm-3.57-.67h2.88c-.1-.88-.59-1.42-1.39-1.42A1.44,1.44,0,0,0,168.92,303.19Z"/><path class="cls-6" d="M173.31,305l.61-.43a1.49,1.49,0,0,0,1.5.84c.78,0,1.15-.32,1.15-.7s-.29-.57-1.24-.74c-1.35-.24-1.84-.61-1.84-1.41s.71-1.42,1.87-1.42a1.7,1.7,0,0,1,1.87,1.14l-.64.37a1.16,1.16,0,0,0-1.23-.85c-.64,0-1.11.34-1.11.69s.31.62,1.28.78c1.33.22,1.8.62,1.8,1.4s-.77,1.4-2,1.4A2.16,2.16,0,0,1,173.31,305Z"/><path class="cls-6" d="M185.7,299V306H185l0-.83a1.76,1.76,0,0,1-1.62.92c-1.32,0-2.16-.92-2.16-2.47s.84-2.46,2.16-2.46a1.81,1.81,0,0,1,1.58.83V299Zm-.75,4.61v-.11c0-1.07-.59-1.75-1.49-1.75s-1.49.7-1.49,1.8.55,1.81,1.49,1.81S185,304.7,185,303.63Z"/><path class="cls-6" d="M191.26,303.86h-3.58a1.51,1.51,0,0,0,1.55,1.52,1.3,1.3,0,0,0,1.34-.7l.64.33a2.05,2.05,0,0,1-2,1,2.2,2.2,0,0,1-2.3-2.47,2.16,2.16,0,0,1,2.24-2.46,2.05,2.05,0,0,1,2.13,2.22A3.48,3.48,0,0,1,191.26,303.86Zm-3.57-.67h2.88c-.11-.88-.59-1.42-1.4-1.42A1.44,1.44,0,0,0,187.69,303.19Z"/><path class="cls-6" d="M193.22,304.68c0,.48.13.63.52.63a1.79,1.79,0,0,0,.69-.13l-.13.73a1.9,1.9,0,0,1-.7.13c-.77,0-1.14-.41-1.14-1.27V299h.76Z"/></g><g class="cls-4"><path class="cls-6" d="M126.89,315.13l.62-.43a1.48,1.48,0,0,0,1.5.84c.78,0,1.15-.31,1.15-.7s-.3-.56-1.25-.73c-1.34-.25-1.84-.62-1.84-1.42s.71-1.42,1.87-1.42a1.71,1.71,0,0,1,1.88,1.14l-.64.38a1.16,1.16,0,0,0-1.24-.86c-.63,0-1.11.34-1.11.69s.31.62,1.28.78c1.33.22,1.81.62,1.81,1.4s-.77,1.4-2,1.4A2.17,2.17,0,0,1,126.89,315.13Z"/><path class="cls-6" d="M136.11,314h-3.57a1.5,1.5,0,0,0,1.54,1.52,1.3,1.3,0,0,0,1.34-.7l.64.33a2,2,0,0,1-2,1,2.19,2.19,0,0,1-2.29-2.46c0-1.54.8-2.47,2.23-2.47a2.05,2.05,0,0,1,2.13,2.22A3.48,3.48,0,0,1,136.11,314Zm-3.57-.67h2.88c-.1-.88-.59-1.42-1.4-1.42A1.44,1.44,0,0,0,132.54,313.35Z"/><path class="cls-6" d="M141.32,312.53l-.72.34a1.23,1.23,0,0,0-1.26-.94c-1,0-1.52.68-1.52,1.81s.57,1.8,1.52,1.8a1.2,1.2,0,0,0,1.32-1l.71.25a2,2,0,0,1-2,1.39,2.47,2.47,0,0,1,0-4.93A2,2,0,0,1,141.32,312.53Z"/><path class="cls-6" d="M145.37,315.78a1.81,1.81,0,0,1-1.23.42,1.19,1.19,0,0,1-1.32-1.27V312h-.94v-.66h.94v-1.14l.76-.2v1.34h1.76V312h-1.76v2.78a.65.65,0,0,0,.72.69,1.06,1.06,0,0,0,.8-.35Z"/><path class="cls-6" d="M150.5,313.74a2.3,2.3,0,1,1-2.3-2.47A2.2,2.2,0,0,1,150.5,313.74Zm-3.83,0c0,1.12.58,1.81,1.53,1.81s1.54-.69,1.54-1.81-.58-1.82-1.54-1.82S146.67,312.61,146.67,313.74Z"/><path class="cls-6" d="M154.49,311.36l-.15.74a1.38,1.38,0,0,0-.6-.12c-.57,0-1.25.5-1.25,1.57v2.56h-.76v-4.75h.62l.1.78a1.52,1.52,0,0,1,1.52-.87A1.3,1.3,0,0,1,154.49,311.36Z"/><path class="cls-6" d="M162.11,312.53l-.72.34a1.23,1.23,0,0,0-1.27-.94c-.94,0-1.51.68-1.51,1.81s.57,1.8,1.51,1.8a1.21,1.21,0,0,0,1.33-1l.71.25a2,2,0,0,1-2,1.39,2.47,2.47,0,0,1,0-4.93A2,2,0,0,1,162.11,312.53Z"/><path class="cls-6" d="M167.55,313.74a2.3,2.3,0,1,1-2.29-2.47A2.19,2.19,0,0,1,167.55,313.74Zm-3.83,0c0,1.12.58,1.81,1.54,1.81s1.53-.69,1.53-1.81-.58-1.82-1.53-1.82S163.72,312.61,163.72,313.74Z"/><path class="cls-6" d="M173.08,313.74a2.3,2.3,0,1,1-2.3-2.47A2.2,2.2,0,0,1,173.08,313.74Zm-3.83,0c0,1.12.58,1.81,1.53,1.81s1.54-.69,1.54-1.81-.58-1.82-1.54-1.82S169.25,312.61,169.25,313.74Z"/><path class="cls-6" d="M178.81,313.74c0,1.54-.85,2.46-2.16,2.46a1.79,1.79,0,0,1-1.58-.83v2.73h-.76v-6.74H175l0,.83a1.79,1.79,0,0,1,1.63-.92C178,311.27,178.81,312.19,178.81,313.74Zm-.76,0c0-1.11-.56-1.81-1.49-1.81s-1.49.68-1.49,1.75v.11c0,1.07.59,1.75,1.49,1.75S178.05,314.84,178.05,313.74Z"/><path class="cls-6" d="M184.08,314H180.5a1.51,1.51,0,0,0,1.55,1.52,1.3,1.3,0,0,0,1.34-.7l.64.33a2.05,2.05,0,0,1-2,1,2.2,2.2,0,0,1-2.3-2.46,2.16,2.16,0,0,1,2.24-2.47,2.05,2.05,0,0,1,2.13,2.22A3.48,3.48,0,0,1,184.08,314Zm-3.57-.67h2.88c-.1-.88-.59-1.42-1.4-1.42A1.44,1.44,0,0,0,180.51,313.35Z"/><path class="cls-6" d="M188.08,311.36l-.15.74a1.38,1.38,0,0,0-.6-.12c-.57,0-1.25.5-1.25,1.57v2.56h-.76v-4.75h.62l.1.78a1.52,1.52,0,0,1,1.52-.87A1.3,1.3,0,0,1,188.08,311.36Z"/><path class="cls-6" d="M193.09,315.51l-.05.6a1.63,1.63,0,0,1-.56.09.75.75,0,0,1-.86-.7,1.85,1.85,0,0,1-1.53.7c-.89,0-1.61-.41-1.61-1.27,0-.71.63-1.27,1.85-1.48l1.26-.21V313a1,1,0,0,0-1.11-1.05,1.39,1.39,0,0,0-1.35.9l-.56-.4a1.91,1.91,0,0,1,1.91-1.16c1.08,0,1.87.51,1.87,1.61v2.34c0,.22.1.34.36.34A1.52,1.52,0,0,0,193.09,315.51Zm-1.5-1v-.65l-1.06.2c-.84.15-1.26.43-1.26.87s.32.61.86.61C190.89,315.54,191.59,315.14,191.59,314.51Z"/><path class="cls-6" d="M196.67,315.78a1.83,1.83,0,0,1-1.23.42,1.19,1.19,0,0,1-1.32-1.27V312h-1v-.66h1v-1.14l.76-.2v1.34h1.76V312h-1.76v2.78a.65.65,0,0,0,.71.69,1.07,1.07,0,0,0,.81-.35Z"/><path class="cls-6" d="M197.31,309.88a.57.57,0,1,1,.57.57A.54.54,0,0,1,197.31,309.88Zm.95,6.23h-.76v-4.75h.76Z"/><path class="cls-6" d="M203.72,311.36l-2,4.75H201l-2-4.75h.86l1.5,4,1.55-4Z"/><path class="cls-6" d="M208.78,313.74a2.31,2.31,0,1,1-2.3-2.47A2.2,2.2,0,0,1,208.78,313.74Zm-3.84,0c0,1.12.58,1.81,1.54,1.81s1.54-.69,1.54-1.81-.58-1.82-1.54-1.82S204.94,312.61,204.94,313.74Z"/></g><g class="cls-4"><path class="cls-6" d="M62.31,244.18v12h-3v-8.95a5.83,5.83,0,0,1-2.84,1.53l-.29-2.58a6.26,6.26,0,0,0,3.66-2Z"/><path class="cls-6" d="M68.21,255.42a3.9,3.9,0,0,1-2.53,3.66l-1.37-1a3.56,3.56,0,0,0,2.26-1.95l-.07-.05a.74.74,0,0,1-.57.2,1.46,1.46,0,0,1-1.51-1.53,1.64,1.64,0,0,1,1.82-1.71C67.57,253.07,68.21,254.11,68.21,255.42Z"/><path class="cls-6" d="M78.66,247.36a2.58,2.58,0,0,1-2.26,2.77v.06a2.54,2.54,0,0,1,2.5,2.73c0,2.08-2,3.46-4.66,3.46-2.54,0-4.07-.87-4.74-3l2.84-1.22c.13,1.3.78,1.79,1.86,1.79s1.69-.53,1.68-1.46-.57-1.29-1.79-1.29h-.67v-2h.52c1.15,0,1.68-.45,1.68-1.38a1.27,1.27,0,0,0-1.42-1.42A1.56,1.56,0,0,0,72.52,248l-2.75-.93c.42-2.24,2.28-3.12,4.61-3.12C77.11,244,78.66,245.32,78.66,247.36Z"/><path class="cls-6" d="M89.66,252.08c0,2.95-2.11,4.3-4.68,4.3a4.92,4.92,0,0,1-4.7-2.4L83,252.41a1.75,1.75,0,0,0,2,1.6,1.63,1.63,0,0,0,1.84-1.71A1.6,1.6,0,0,0,85,250.61a2.37,2.37,0,0,0-1.91.71L80.72,251l.76-6.79H89v2.42H83.76l-.27,2.26c0,.23-.08.38-.09.43h0a3.39,3.39,0,0,1,2.48-.85A3.48,3.48,0,0,1,89.66,252.08Z"/></g><g class="cls-4"><path class="cls-6" d="M51.55,298.17a2.59,2.59,0,0,1-2.26,2.77V301a2.54,2.54,0,0,1,2.49,2.74c0,2.07-2,3.46-4.66,3.46-2.53,0-4.06-.88-4.74-3L45.22,303c.13,1.29.79,1.78,1.86,1.78s1.7-.52,1.68-1.45S48.19,302,47,302H46.3v-2h.53c1.15,0,1.67-.46,1.67-1.39a1.27,1.27,0,0,0-1.42-1.42,1.56,1.56,0,0,0-1.67,1.62l-2.76-.93c.42-2.24,2.28-3.11,4.61-3.11C50,294.8,51.55,296.13,51.55,298.17Z"/><path class="cls-6" d="M52.58,301c0-4.1,1.64-6.19,5-6.19s5,2.09,5,6.19-1.64,6.2-5,6.2S52.58,305.09,52.58,301Zm6.89,0c0-2.69-.57-3.75-1.9-3.75s-1.89,1.06-1.89,3.75.56,3.76,1.89,3.76S59.47,303.69,59.47,301Z"/><path class="cls-6" d="M63.4,301c0-4.1,1.64-6.19,5-6.19s5,2.09,5,6.19-1.64,6.2-5,6.2S63.4,305.09,63.4,301Zm6.88,0c0-2.69-.56-3.75-1.89-3.75S66.5,298.3,66.5,301s.56,3.76,1.89,3.76S70.28,303.69,70.28,301Z"/><path class="cls-6" d="M93.73,300.94V307h-3.1v-5.35c0-1.15-.49-1.57-1.24-1.57-.93,0-1.6.69-1.6,2.06V307h-3.1v-5.35c0-1.15-.51-1.57-1.24-1.57s-1.6.62-1.6,2.12V307h-3.1v-9.1h2.77l.09,1.74a3.19,3.19,0,0,1,3.06-1.93,2.85,2.85,0,0,1,2.88,1.84,3.29,3.29,0,0,1,3.06-1.84A2.94,2.94,0,0,1,93.73,300.94Z"/><path class="cls-6" d="M94.72,295.36c0-1,.55-1.49,1.81-1.49s1.8.45,1.8,1.49-.55,1.48-1.8,1.48S94.72,296.38,94.72,295.36ZM98.07,307H95v-9.1h3.09Z"/><path class="cls-6" d="M102.43,303.85c0,.8.2,1.13.84,1.13a2.54,2.54,0,0,0,.92-.16l-.2,1.91a4,4,0,0,1-1.89.46c-1.95,0-2.77-.86-2.77-2.88V294h3.1Z"/></g><g class="cls-4"><path class="cls-6" d="M56,315.8v4.88H54.75v-4.76A1.71,1.71,0,0,0,53,314a2.3,2.3,0,0,0-2.26,2.53v4.18H49.47v-4.76a1.71,1.71,0,0,0-1.8-1.95,2.35,2.35,0,0,0-2.25,2.64v4.07H44.2v-7.62h1.07l.07,1.19a2.77,2.77,0,0,1,2.44-1.35,2.82,2.82,0,0,1,2.62,1.5,2.94,2.94,0,0,1,2.66-1.5A2.74,2.74,0,0,1,56,315.8Z"/><path class="cls-6" d="M58,310.68a.92.92,0,1,1,.91.91A.86.86,0,0,1,58,310.68Zm1.52,10H58.34v-7.62h1.22Z"/><path class="cls-6" d="M63.17,318.64c0,.77.2,1,.83,1a2.83,2.83,0,0,0,1.11-.21l-.2,1.17a2.92,2.92,0,0,1-1.13.21c-1.23,0-1.83-.65-1.83-2v-9.24h1.22Z"/><path class="cls-6" d="M67.46,318.64c0,.77.2,1,.82,1a2.83,2.83,0,0,0,1.11-.21l-.2,1.17a2.9,2.9,0,0,1-1.12.21c-1.24,0-1.83-.65-1.83-2v-9.24h1.22Z"/><path class="cls-6" d="M77.49,316.87c0,2.47-1.39,4-3.69,4s-3.69-1.49-3.69-4,1.39-4,3.69-4S77.49,314.4,77.49,316.87Zm-6.16,0c0,1.81.93,2.91,2.47,2.91s2.47-1.1,2.47-2.91S75.34,314,73.8,314,71.33,315.05,71.33,316.87Z"/><path class="cls-6" d="M86.14,315.8v4.88H84.92v-4.45c0-1.69-.82-2.26-1.87-2.26a2.34,2.34,0,0,0-2.36,2.65v4.06H79.47v-7.62h1.06l.08,1.19a2.76,2.76,0,0,1,2.56-1.35A2.73,2.73,0,0,1,86.14,315.8Z"/><path class="cls-6" d="M95,317.33H89.25a2.41,2.41,0,0,0,2.49,2.43c1.11,0,1.87-.39,2.14-1.12l1,.53a3.26,3.26,0,0,1-3.17,1.66c-2.31,0-3.69-1.49-3.69-4s1.29-4,3.59-4a3.31,3.31,0,0,1,3.42,3.57A6.29,6.29,0,0,1,95,317.33Zm-5.73-1.09h4.61c-.16-1.4-.94-2.27-2.24-2.27A2.29,2.29,0,0,0,89.27,316.24Z"/><path class="cls-6" d="M96.31,319.11l1-.69a2.38,2.38,0,0,0,2.41,1.34c1.25,0,1.84-.5,1.84-1.12s-.47-.9-2-1.18c-2.16-.39-3-1-3-2.27s1.14-2.29,3-2.29c1.63,0,2.59.58,3,1.83l-1,.61a1.86,1.86,0,0,0-2-1.37c-1,0-1.78.55-1.78,1.11s.5,1,2.05,1.25c2.14.36,2.9,1,2.9,2.25s-1.23,2.25-3.18,2.25A3.48,3.48,0,0,1,96.31,319.11Z"/></g><g class="cls-4"><path class="cls-6" d="M53.89,267.08c0,2.48-1.36,4-3.48,4a2.87,2.87,0,0,1-2.61-1.48l-.07,1.33H46.66V259.76h1.22v4.7a2.86,2.86,0,0,1,2.53-1.34C52.53,263.12,53.89,264.59,53.89,267.08Zm-1.22,0c0-1.77-.9-2.9-2.4-2.9s-2.39,1.09-2.39,2.81v.18c0,1.72.95,2.81,2.39,2.81S52.67,268.85,52.67,267.08Z"/><path class="cls-6" d="M55.58,260.89a.92.92,0,0,1,1.83,0,.92.92,0,1,1-1.83,0Zm1.52,10H55.88v-7.62H57.1Z"/><path class="cls-6" d="M60.71,268.85c0,.77.2,1,.83,1a2.83,2.83,0,0,0,1.11-.21l-.2,1.17a2.92,2.92,0,0,1-1.13.21c-1.23,0-1.83-.65-1.83-2v-9.24h1.22Z"/><path class="cls-6" d="M65,268.85c0,.77.19,1,.82,1a2.83,2.83,0,0,0,1.11-.21l-.2,1.17a2.9,2.9,0,0,1-1.12.21c-1.24,0-1.83-.65-1.83-2v-9.24H65Z"/><path class="cls-6" d="M75,267.08c0,2.47-1.38,4-3.68,4s-3.69-1.49-3.69-4,1.38-4,3.69-4S75,264.61,75,267.08Zm-6.15,0c0,1.81.93,2.91,2.47,2.91s2.47-1.1,2.47-2.91-.93-2.91-2.47-2.91S68.87,265.27,68.87,267.08Z"/><path class="cls-6" d="M83.68,266v4.88H82.46v-4.45c0-1.69-.82-2.26-1.87-2.26a2.35,2.35,0,0,0-2.37,2.66v4.05H77v-7.62h1.07l.08,1.19A3,3,0,0,1,83.68,266Z"/><path class="cls-6" d="M92.54,267.54H86.79A2.41,2.41,0,0,0,89.27,270c1.12,0,1.88-.4,2.15-1.13l1,.53A3.27,3.27,0,0,1,89.27,271c-2.3,0-3.68-1.49-3.68-4s1.29-4,3.59-4a3.31,3.31,0,0,1,3.42,3.56A6.29,6.29,0,0,1,92.54,267.54Zm-5.74-1.09h4.62c-.16-1.4-.94-2.27-2.24-2.27A2.31,2.31,0,0,0,86.8,266.45Z"/><path class="cls-6" d="M93.85,269.32l1-.69A2.38,2.38,0,0,0,97.25,270c1.25,0,1.84-.51,1.84-1.13s-.47-.9-2-1.18c-2.16-.39-3-1-3-2.27s1.14-2.28,3-2.28c1.63,0,2.59.58,3,1.83l-1,.61a1.86,1.86,0,0,0-2-1.38c-1,0-1.79.55-1.79,1.12s.51,1,2.06,1.25c2.14.35,2.9,1,2.9,2.24S99.07,271,97.12,271A3.46,3.46,0,0,1,93.85,269.32Z"/></g><g class="cls-4"><path class="cls-6" d="M53.89,218.31c0,2.48-1.36,4-3.48,4a2.87,2.87,0,0,1-2.61-1.48l-.07,1.33H46.66V211h1.22v4.69a2.88,2.88,0,0,1,2.53-1.34C52.53,214.34,53.89,215.82,53.89,218.31Zm-1.22,0c0-1.77-.9-2.9-2.4-2.9s-2.39,1.08-2.39,2.8v.19c0,1.72.95,2.8,2.39,2.8S52.67,220.07,52.67,218.31Z"/><path class="cls-6" d="M55.58,212.12a.92.92,0,1,1,.91.91A.86.86,0,0,1,55.58,212.12Zm1.52,10H55.88v-7.63H57.1Z"/><path class="cls-6" d="M60.71,220.07c0,.78.2,1,.83,1a2.66,2.66,0,0,0,1.11-.21l-.2,1.18a3.11,3.11,0,0,1-1.13.21c-1.23,0-1.83-.66-1.83-2V211h1.22Z"/><path class="cls-6" d="M65,220.07c0,.78.19,1,.82,1a2.66,2.66,0,0,0,1.11-.21l-.2,1.18a3.1,3.1,0,0,1-1.12.21c-1.24,0-1.83-.66-1.83-2V211H65Z"/><path class="cls-6" d="M75,218.31c0,2.46-1.38,4-3.68,4s-3.69-1.5-3.69-4,1.38-4,3.69-4S75,215.84,75,218.31Zm-6.15,0c0,1.81.93,2.91,2.47,2.91s2.47-1.1,2.47-2.91-.93-2.92-2.47-2.92S68.87,216.49,68.87,218.31Z"/><path class="cls-6" d="M83.68,217.24v4.88H82.46v-4.46c0-1.69-.82-2.25-1.87-2.25a2.34,2.34,0,0,0-2.37,2.65v4.06H77v-7.63h1.07l.08,1.19a3,3,0,0,1,5.53,1.56Z"/><path class="cls-6" d="M92.54,218.76H86.79a2.41,2.41,0,0,0,2.48,2.44c1.12,0,1.88-.39,2.15-1.13l1,.54a3.29,3.29,0,0,1-3.18,1.66c-2.3,0-3.68-1.5-3.68-4s1.29-4,3.59-4a3.31,3.31,0,0,1,3.42,3.57A6,6,0,0,1,92.54,218.76Zm-5.74-1.08h4.62c-.16-1.4-.94-2.27-2.24-2.27A2.31,2.31,0,0,0,86.8,217.68Z"/><path class="cls-6" d="M93.85,220.55l1-.69a2.38,2.38,0,0,0,2.41,1.34c1.25,0,1.84-.5,1.84-1.13s-.47-.9-2-1.17c-2.16-.4-3-1-3-2.27s1.14-2.29,3-2.29c1.63,0,2.59.58,3,1.83l-1,.61a1.85,1.85,0,0,0-2-1.37c-1,0-1.79.55-1.79,1.11s.51,1,2.06,1.25c2.14.35,2.9,1,2.9,2.24s-1.24,2.26-3.19,2.26A3.46,3.46,0,0,1,93.85,220.55Z"/></g><g class="cls-4"><path class="cls-6" d="M54.45,137.36c0,2.48-1.36,4-3.48,4a2.84,2.84,0,0,1-2.6-1.48l-.08,1.33H47.22V130h1.22v4.69A2.88,2.88,0,0,1,51,133.39C53.09,133.39,54.45,134.87,54.45,137.36Zm-1.22,0c0-1.77-.9-2.9-2.39-2.9s-2.4,1.08-2.4,2.8v.19c0,1.72,1,2.8,2.4,2.8S53.23,139.12,53.23,137.36Z"/><path class="cls-6" d="M56.14,131.17a.92.92,0,1,1,.91.91A.86.86,0,0,1,56.14,131.17Zm1.52,10H56.44v-7.63h1.22Z"/><path class="cls-6" d="M61.27,139.12c0,.78.2,1,.83,1a2.68,2.68,0,0,0,1.11-.22l-.2,1.18a3.11,3.11,0,0,1-1.13.21c-1.23,0-1.83-.66-1.83-2V130h1.22Z"/><path class="cls-6" d="M65.56,139.12c0,.78.2,1,.82,1a2.68,2.68,0,0,0,1.11-.22l-.19,1.18a3.2,3.2,0,0,1-1.13.21c-1.24,0-1.83-.66-1.83-2V130h1.22Z"/><path class="cls-6" d="M75.59,137.36c0,2.46-1.39,4-3.69,4s-3.69-1.5-3.69-4,1.39-4,3.69-4S75.59,134.89,75.59,137.36Zm-6.16,0c0,1.81.93,2.91,2.47,2.91s2.47-1.1,2.47-2.91-.93-2.92-2.47-2.92S69.43,135.54,69.43,137.36Z"/><path class="cls-6" d="M84.24,136.29v4.88H83v-4.45c0-1.7-.82-2.26-1.87-2.26a2.34,2.34,0,0,0-2.36,2.65v4.06H77.57v-7.63h1.06l.08,1.19a3,3,0,0,1,5.53,1.56Z"/><path class="cls-6" d="M93.1,137.81H87.35a2.41,2.41,0,0,0,2.49,2.44A2.06,2.06,0,0,0,92,139.12l1,.54a3.28,3.28,0,0,1-3.17,1.66c-2.31,0-3.69-1.5-3.69-4s1.29-4,3.59-4A3.3,3.3,0,0,1,93.16,137,6,6,0,0,1,93.1,137.81Zm-5.73-1.08H92c-.17-1.4-.95-2.27-2.25-2.27A2.29,2.29,0,0,0,87.37,136.73Z"/><path class="cls-6" d="M94.41,139.6l1-.69a2.38,2.38,0,0,0,2.41,1.34c1.25,0,1.84-.5,1.84-1.13s-.47-.9-2-1.17c-2.16-.4-3-1-3-2.27s1.14-2.29,3-2.29c1.63,0,2.59.58,3,1.83l-1,.61a1.85,1.85,0,0,0-2-1.37c-1,0-1.78.55-1.78,1.11s.5,1,2,1.25c2.14.35,2.9,1,2.9,2.24s-1.23,2.26-3.18,2.26A3.48,3.48,0,0,1,94.41,139.6Z"/></g><circle id="Elipse_313" data-name="Elipse 313" class="cls-7" cx="28.86" cy="128.5" r="5.93"/><g class="cls-4"><path class="cls-8" d="M30.12,125.21v7.1H28.34V127a3.55,3.55,0,0,1-1.68.9l-.17-1.53a3.64,3.64,0,0,0,2.16-1.19Z"/></g><circle id="Elipse_314" data-name="Elipse 314" class="cls-7" cx="28.87" cy="208.78" r="5.93"/><g class="cls-4"><path class="cls-8" d="M26.45,211.05c2.43-1.52,3.4-2.62,3.4-3.62a.88.88,0,0,0-1-1c-.68,0-1.06.5-1.09,1.45l-1.58-.48c0-1.58,1.2-2.42,2.79-2.42,1.88,0,2.68,1.17,2.68,2.28,0,1.38-1.09,2.44-3,3.55h0c.35,0,1-.05,1.43-.05h1.66v1.41H26.45Z"/></g><circle id="Elipse_315" data-name="Elipse 315" class="cls-7" cx="28.87" cy="256.87" r="5.93"/><g class="cls-4"><path class="cls-8" d="M31.56,255.27a1.52,1.52,0,0,1-1.33,1.63v0a1.49,1.49,0,0,1,1.47,1.61c0,1.23-1.15,2-2.75,2s-2.4-.51-2.8-1.76l1.68-.72c.08.76.46,1.05,1.1,1.05s1-.31,1-.86-.33-.76-1.06-.76h-.39v-1.17h.31c.68,0,1-.27,1-.82a.75.75,0,0,0-.84-.84.92.92,0,0,0-1,1l-1.63-.55c.25-1.32,1.35-1.84,2.73-1.84C30.65,253.28,31.56,254.07,31.56,255.27Z"/></g><circle id="Elipse_316" data-name="Elipse 316" class="cls-7" cx="28.87" cy="306.32" r="5.93"/><g class="cls-4"><path class="cls-8" d="M32.18,308.19H31.1v1.56H29.46v-1.56H25.89v-.87l3-4.67H31.1v4.27h1.08Zm-4.57-1.27h1.85V305l0-1.17h0a7.31,7.31,0,0,1-.62,1.17Z"/></g><g class="cls-4"><path class="cls-6" d="M98,162.6h-1v-6.47h1Z"/><path class="cls-6" d="M104.42,158.15a2,2,0,0,1-2.28,2H100.7v2.44h-1v-6.47h2.49A2,2,0,0,1,104.42,158.15Zm-1.09,0c0-.74-.43-1.13-1.36-1.13H100.7v2.25H102C102.9,159.27,103.33,158.88,103.33,158.15Z"/><path class="cls-6" d="M108.24,162.7c-1.87,0-3-1.28-3-3.34s1.19-3.33,3-3.33a2.51,2.51,0,0,1,2.59,1.59l-1,.44a1.46,1.46,0,0,0-1.54-1.12c-1.21,0-2,.88-2,2.42s.73,2.43,2,2.43a1.63,1.63,0,0,0,1.67-1.24l1,.33A2.65,2.65,0,0,1,108.24,162.7Z"/><path class="cls-6" d="M119.37,159.9h-2v2h-.91v-2h-2V159h2v-2h.91v2h2Z"/><path class="cls-6" d="M127.6,157.75a1.43,1.43,0,0,1-1.22,1.57v0a1.41,1.41,0,0,1,1.37,1.52c0,1.06-.94,1.84-2.36,1.84a2.24,2.24,0,0,1-2.32-1.57l1-.46a1.3,1.3,0,0,0,1.4,1.13c.81,0,1.27-.44,1.26-1.08s-.44-.95-1.34-.95h-.29v-.84h.26c.81,0,1.21-.31,1.22-1a.94.94,0,0,0-1.07-1,1.11,1.11,0,0,0-1.22,1l-1-.39a2.15,2.15,0,0,1,2.21-1.47C126.87,156,127.6,156.8,127.6,157.75Z"/><path class="cls-6" d="M130.29,162.32a1.89,1.89,0,0,1-1.16,1.75l-.51-.43a1.57,1.57,0,0,0,1-1l0,0a.36.36,0,0,1-.27.08.64.64,0,0,1-.63-.69.71.71,0,0,1,.74-.72C130,161.28,130.29,161.72,130.29,162.32Z"/><path class="cls-6" d="M135.72,160.49a2.09,2.09,0,0,1-2.3,2.21,2.32,2.32,0,0,1-2.35-1.42l1-.54a1.25,1.25,0,0,0,1.35,1.07,1.17,1.17,0,0,0,1.29-1.26,1.14,1.14,0,0,0-1.25-1.25,1.54,1.54,0,0,0-1.32.56l-.87-.05.4-3.68h3.76v.9h-2.93l-.22,1.79,0,.14h0a1.86,1.86,0,0,1,1.43-.52A1.93,1.93,0,0,1,135.72,160.49Z"/><path class="cls-6" d="M139.65,157.83A1.64,1.64,0,1,1,138,156,1.62,1.62,0,0,1,139.65,157.83Zm-2.41,0c0,.65.28,1,.78,1s.78-.38.78-1-.27-1-.78-1S137.24,157.18,137.24,157.83Zm4.76-1.7h.9l-4.23,6.47h-.91Zm2.29,4.76a1.65,1.65,0,1,1-1.64-1.8A1.62,1.62,0,0,1,144.29,160.89Zm-2.42,0c0,.66.28,1,.78,1s.78-.38.78-1-.27-1-.78-1S141.87,160.25,141.87,160.89Z"/></g><g class="cls-4"><path class="cls-6" d="M97.55,176.82h-1v-6.47h1Z"/><path class="cls-6" d="M104,172.37c0,1.26-.88,2-2.28,2h-1.44v2.44h-1v-6.47h2.49A2,2,0,0,1,104,172.37Zm-1.09,0c0-.74-.42-1.13-1.35-1.13h-1.28v2.25h1.28C102.48,173.49,102.9,173.11,102.9,172.37Z"/><path class="cls-6" d="M107.82,176.92c-1.88,0-3.06-1.27-3.06-3.33s1.19-3.34,3-3.34a2.52,2.52,0,0,1,2.59,1.59l-1,.44a1.48,1.48,0,0,0-1.55-1.12c-1.2,0-2,.89-2,2.43s.74,2.42,2,2.42a1.6,1.6,0,0,0,1.66-1.24l1,.34A2.65,2.65,0,0,1,107.82,176.92Z"/><path class="cls-6" d="M119,174.13h-2v2.05h-.92v-2.05h-2v-.88h2v-2H117v2h2Z"/><path class="cls-6" d="M127.87,175.21h-1.1v1.61h-1v-1.61h-3.19v-.64l2.9-4.22h1.28v4h1.1Zm-4.23-.82h2.14v-2.22l0-1h0a8.18,8.18,0,0,1-.62,1.08Z"/><path class="cls-6" d="M131.69,172.06a1.65,1.65,0,1,1-1.64-1.81A1.62,1.62,0,0,1,131.69,172.06Zm-2.42,0c0,.64.28,1,.78,1s.79-.39.79-1-.28-1-.79-1S129.27,171.4,129.27,172.06Zm4.76-1.71h.91l-4.23,6.47h-.91Zm2.29,4.77a1.65,1.65,0,1,1-1.64-1.81A1.62,1.62,0,0,1,136.32,175.12Zm-2.41,0c0,.66.27,1,.77,1s.79-.38.79-1-.28-1-.79-1S133.91,174.47,133.91,175.12Z"/></g><g class="cls-4"><path class="cls-6" d="M62.88,161.79c2.2-1.4,3.08-2.4,3.07-3.32a.8.8,0,0,0-.87-.86c-.62,0-1,.46-1,1.33l-1.44-.44a2.25,2.25,0,0,1,2.52-2.22c1.72,0,2.46,1.05,2.46,2.06,0,1.27-1,2.24-2.72,3.26h0l1.3-.05h1.52v1.29l-4.86,0Z"/><path class="cls-6" d="M68.34,159.6c0-2.21.87-3.35,2.67-3.36s2.7,1.11,2.71,3.32-.86,3.34-2.67,3.35S68.36,161.8,68.34,159.6Zm3.71,0c0-1.45-.31-2-1-2s-1,.57-1,2,.32,2,1,2S72.06,161,72.05,159.57Z"/><path class="cls-6" d="M77.5,156.3l0,6.47H75.92l0-4.81a3.21,3.21,0,0,1-1.53.83l-.16-1.39a3.36,3.36,0,0,0,2-1.1Z"/><path class="cls-6" d="M83.61,159.53c0,2.32-1,3.31-2.73,3.32a2.27,2.27,0,0,1-2.38-1.4l1.5-.61a.82.82,0,0,0,.9.73c.83,0,1.2-.66,1.19-1.84v-.16h0a1.54,1.54,0,0,1-1.55.87,2,2,0,0,1-2.11-2.05c0-1.37.91-2.2,2.51-2.21S83.59,157.32,83.61,159.53ZM80,158.37a.92.92,0,1,0,.92-.87A.82.82,0,0,0,80,158.37Z"/></g><g class="cls-4"><path class="cls-6" d="M61.08,175.21c2.23-1.37,3.12-2.36,3.12-3.27a.8.8,0,0,0-.86-.88c-.62,0-1,.45-1,1.31l-1.44-.45a2.25,2.25,0,0,1,2.56-2.19,2.15,2.15,0,0,1,2.42,2.1c0,1.27-1,2.22-2.77,3.22h0c.32,0,.89,0,1.3,0h1.52v1.29l-4.85,0Z"/><path class="cls-6" d="M66.58,173.1c0-2.21.91-3.33,2.71-3.32S72,170.93,72,173.14s-.91,3.33-2.71,3.31S66.56,175.3,66.58,173.1Zm3.7,0c0-1.46-.28-2-1-2s-1,.56-1,2,.29,2,1,2S70.27,174.58,70.28,173.13Z"/><path class="cls-6" d="M72.75,175.3C75,173.94,75.87,173,75.87,172a.8.8,0,0,0-.86-.88c-.62,0-1,.46-1,1.32L72.57,172a2.25,2.25,0,0,1,2.56-2.19,2.14,2.14,0,0,1,2.42,2.1c0,1.27-1,2.22-2.77,3.22h0c.32,0,.89,0,1.3,0h1.53l0,1.28-4.85,0Z"/><path class="cls-6" d="M78.25,173.19c0-2.21.91-3.33,2.71-3.31s2.68,1.15,2.66,3.36-.91,3.32-2.71,3.31S78.23,175.4,78.25,173.19Zm3.71,0c0-1.45-.29-2-1-2s-1,.56-1,2,.28,2,1,2S81.94,174.67,82,173.22Z"/></g><g class="cls-4"><path class="cls-6" d="M196.45,162.6h-1v-6.47h1Z"/><path class="cls-6" d="M202.89,158.15a2,2,0,0,1-2.27,2h-1.45v2.44h-1v-6.47h2.5A2,2,0,0,1,202.89,158.15Zm-1.09,0c0-.74-.42-1.13-1.35-1.13h-1.28v2.25h1.28C201.38,159.27,201.8,158.88,201.8,158.15Z"/><path class="cls-6" d="M206.72,162.7c-1.88,0-3.05-1.28-3.05-3.34s1.18-3.33,3-3.33a2.52,2.52,0,0,1,2.59,1.59l-1,.44a1.46,1.46,0,0,0-1.54-1.12c-1.21,0-2,.88-2,2.42s.74,2.43,2,2.43a1.61,1.61,0,0,0,1.66-1.24l1,.33A2.67,2.67,0,0,1,206.72,162.7Z"/><path class="cls-6" d="M217.85,159.9H215.9v2H215v-2h-2V159h2v-2h.92v2h1.95Z"/><path class="cls-6" d="M226.77,161h-1.09v1.62h-1V161H221.5v-.64l2.89-4.21h1.29v4h1.09Zm-4.22-.81h2.13V158l0-1h0a8.88,8.88,0,0,1-.62,1.08Z"/><path class="cls-6" d="M229,162.32a1.87,1.87,0,0,1-1.16,1.75l-.51-.43a1.57,1.57,0,0,0,1-1l-.05,0a.36.36,0,0,1-.27.08.64.64,0,0,1-.63-.69.71.71,0,0,1,.75-.72C228.73,161.28,229,161.72,229,162.32Z"/><path class="cls-6" d="M234.46,160.49a2.09,2.09,0,0,1-2.3,2.21,2.33,2.33,0,0,1-2.35-1.42l1-.54a1.25,1.25,0,0,0,1.35,1.07,1.17,1.17,0,0,0,1.29-1.26,1.14,1.14,0,0,0-1.25-1.25,1.54,1.54,0,0,0-1.32.56l-.87-.05.4-3.68h3.76v.9h-2.92l-.23,1.79,0,.14h0a1.9,1.9,0,0,1,1.43-.52A1.93,1.93,0,0,1,234.46,160.49Z"/><path class="cls-6" d="M238.4,157.83a1.65,1.65,0,1,1-1.64-1.8A1.62,1.62,0,0,1,238.4,157.83Zm-2.42,0c0,.65.28,1,.78,1s.78-.38.78-1-.27-1-.78-1S236,157.18,236,157.83Zm4.76-1.7h.9l-4.22,6.47h-.92Zm2.29,4.76a1.65,1.65,0,1,1-1.64-1.8A1.62,1.62,0,0,1,243,160.89Zm-2.42,0c0,.66.28,1,.78,1s.78-.38.78-1-.27-1-.78-1S240.61,160.25,240.61,160.89Z"/></g><g class="cls-4"><path class="cls-6" d="M196.45,176.82h-1v-6.47h1Z"/><path class="cls-6" d="M202.89,172.37a2,2,0,0,1-2.27,2h-1.45v2.44h-1v-6.47h2.5A2,2,0,0,1,202.89,172.37Zm-1.09,0c0-.74-.42-1.13-1.35-1.13h-1.28v2.25h1.28C201.38,173.49,201.8,173.11,201.8,172.37Z"/><path class="cls-6" d="M206.72,176.92c-1.88,0-3.05-1.27-3.05-3.33s1.18-3.34,3-3.34a2.52,2.52,0,0,1,2.59,1.59l-1,.44a1.47,1.47,0,0,0-1.54-1.12c-1.21,0-2,.89-2,2.43s.74,2.42,2,2.42a1.6,1.6,0,0,0,1.66-1.24l1,.34A2.67,2.67,0,0,1,206.72,176.92Z"/><path class="cls-6" d="M217.85,174.13H215.9v2.05H215v-2.05h-2v-.88h2v-2h.92v2h1.95Z"/><path class="cls-6" d="M226.77,175.21h-1.09v1.61h-1v-1.61H221.5v-.64l2.89-4.22h1.29v4h1.09Zm-4.22-.82h2.13v-2.22l0-1h0a8.18,8.18,0,0,1-.62,1.08Z"/><path class="cls-6" d="M229,176.54a1.89,1.89,0,0,1-1.16,1.76l-.51-.44a1.53,1.53,0,0,0,1-1l-.05,0a.36.36,0,0,1-.27.08.63.63,0,0,1-.63-.68.71.71,0,0,1,.75-.73C228.73,175.5,229,175.94,229,176.54Z"/><path class="cls-6" d="M234.55,171.63l-.92.45a1.2,1.2,0,0,0-1.26-.92c-1,0-1.6,1.06-1.6,2.5v.17h0a1.7,1.7,0,0,1,1.71-1.09,2,2,0,0,1,2.16,2.07,2.05,2.05,0,0,1-2.31,2.11c-1.65,0-2.56-1.32-2.56-3.33,0-2.21,1.13-3.34,2.62-3.34A2,2,0,0,1,234.55,171.63Zm-3.44,3.17a1.17,1.17,0,0,0,1.26,1.22,1.2,1.2,0,1,0,0-2.4A1.16,1.16,0,0,0,231.11,174.8Z"/><path class="cls-6" d="M240.15,174.72a2.08,2.08,0,0,1-2.3,2.2,2.32,2.32,0,0,1-2.35-1.42l1-.54a1.24,1.24,0,0,0,1.35,1.07,1.17,1.17,0,0,0,1.29-1.26,1.13,1.13,0,0,0-1.25-1.24,1.54,1.54,0,0,0-1.32.56l-.87-.06.4-3.68h3.76v.9h-2.93l-.22,1.8,0,.14h0a1.83,1.83,0,0,1,1.43-.53A1.93,1.93,0,0,1,240.15,174.72Z"/><path class="cls-6" d="M244.09,172.06a1.65,1.65,0,1,1-1.64-1.81A1.62,1.62,0,0,1,244.09,172.06Zm-2.42,0c0,.64.28,1,.78,1s.78-.39.78-1-.27-1-.78-1S241.67,171.4,241.67,172.06Zm4.76-1.71h.9l-4.23,6.47h-.91Zm2.29,4.77a1.65,1.65,0,1,1-1.64-1.81A1.62,1.62,0,0,1,248.72,175.12Zm-2.42,0c0,.66.28,1,.78,1s.78-.38.78-1-.27-1-.78-1S246.3,174.47,246.3,175.12Z"/></g><g class="cls-4"><path class="cls-6" d="M162,161.79c2.21-1.4,3.09-2.41,3.08-3.32a.8.8,0,0,0-.88-.86c-.61,0-1,.46-1,1.33l-1.44-.44a2.25,2.25,0,0,1,2.52-2.22,2.15,2.15,0,0,1,2.46,2.06c0,1.27-1,2.24-2.73,3.26h0c.33,0,.9-.05,1.31-.05h1.52v1.29l-4.86,0Z"/><path class="cls-6" d="M167.43,159.6c0-2.21.86-3.35,2.67-3.36s2.69,1.11,2.71,3.32-.86,3.34-2.67,3.35S167.45,161.8,167.43,159.6Zm3.71,0c0-1.45-.32-2-1-2s-1,.57-1,2,.32,2,1,2S171.15,161,171.14,159.57Z"/><path class="cls-6" d="M173.64,161.71c2.2-1.4,3.08-2.4,3.07-3.31a.8.8,0,0,0-.87-.87c-.62,0-1,.46-1,1.33l-1.44-.43a2.25,2.25,0,0,1,2.52-2.23,2.16,2.16,0,0,1,2.46,2.07c0,1.26-1,2.23-2.72,3.25h0l1.3-.05h1.52v1.29l-4.86,0Z"/><path class="cls-6" d="M182.19,156.26l0,6.48h-1.62l0-4.82a3.13,3.13,0,0,1-1.52.83l-.17-1.39a3.36,3.36,0,0,0,2-1.1Z"/></g><g class="cls-4"><path class="cls-6" d="M160.45,175.21c2.23-1.36,3.12-2.36,3.12-3.27a.8.8,0,0,0-.86-.88c-.62,0-1,.45-1,1.32l-1.44-.46a2.25,2.25,0,0,1,2.56-2.18,2.14,2.14,0,0,1,2.42,2.1c0,1.26-1,2.22-2.77,3.21h0c.32,0,.89,0,1.31,0l1.52,0v1.28l-4.86,0Z"/><path class="cls-6" d="M166,173.1c0-2.21.91-3.33,2.71-3.31s2.68,1.15,2.66,3.35-.91,3.33-2.71,3.32S165.93,175.31,166,173.1Zm3.71,0c0-1.45-.29-2-1-2s-1,.56-1,2,.28,2,1,2S169.64,174.58,169.66,173.13Z"/><path class="cls-6" d="M172.12,175.31c2.23-1.37,3.12-2.36,3.13-3.27a.81.81,0,0,0-.87-.88c-.62,0-1,.45-1,1.31l-1.44-.45a2.26,2.26,0,0,1,2.56-2.19,2.14,2.14,0,0,1,2.42,2.1c0,1.27-1,2.22-2.77,3.22h0c.32,0,.89,0,1.31,0H177v1.29l-4.86,0Z"/><path class="cls-6" d="M177.72,175.36c2.23-1.37,3.12-2.36,3.13-3.28a.82.82,0,0,0-.87-.88c-.62,0-1,.46-1,1.32l-1.44-.45a2.25,2.25,0,0,1,2.56-2.19,2.14,2.14,0,0,1,2.42,2.1c0,1.27-1,2.22-2.77,3.22h0c.32,0,.89,0,1.31,0h1.52v1.28l-4.86,0Z"/></g><path id="Trazado_85024" data-name="Trazado 85024" class="cls-9" d="M92,159.52l-3-2.9v5.79Z"/><path id="Trazado_85025" data-name="Trazado 85025" class="cls-9" d="M92,174.08l-3-2.89V177Z"/><path id="Trazado_85026" data-name="Trazado 85026" class="cls-9" d="M190.59,159.52l-3.05-2.9v5.79Z"/><path id="Trazado_85027" data-name="Trazado 85027" class="cls-9" d="M190.59,174.08l-3.05-2.89V177Z"/><rect id="Rectángulo_1261" data-name="Rectángulo 1261" class="cls-10" x="47.49" y="151.2" width="212.7" height="30.48"/><path id="Trazado_85028" data-name="Trazado 85028" class="cls-3" d="M14,39.7H.75v89.14H14"/><path id="Trazado_85029" data-name="Trazado 85029" class="cls-3" d="M.75,129.69v79.09H14"/><path id="Trazado_85030" data-name="Trazado 85030" class="cls-3" d="M.75,210v47.25H14"/><path id="Trazado_85031" data-name="Trazado 85031" class="cls-3" d="M.75,258.4v49.45H14"/><circle id="Elipse_317" data-name="Elipse 317" class="cls-5" cx="47.49" cy="166.44" r="2.54"/><circle id="Elipse_318" data-name="Elipse 318" class="cls-5" cx="259.86" cy="166.44" r="2.54"/></g></g></g></svg>