<svg xmlns="http://www.w3.org/2000/svg" xmlns:xlink="http://www.w3.org/1999/xlink" width="245.867" height="261.443" viewBox="0 0 245.867 261.443"><defs><style>.a,.h{fill:none;}.b{clip-path:url(#a);}.c{opacity:0.64;}.d{fill:#fff;}.d,.e,.f,.g,.h{stroke:#34508b;stroke-linecap:round;stroke-linejoin:round;stroke-width:3px;}.e{fill:#34508b;}.f{fill:#f2f2f2;}.g{fill:#69f;}</style><clipPath id="a"><rect class="a" width="245.867" height="261.443" transform="translate(0 368.511)"/></clipPath></defs><g class="b" transform="translate(0 -368.511)"><g class="c" transform="translate(-86.559 394.324)"><path class="d" d="M188.571,454.262l-57.856,19.725a181.669,181.669,0,0,1-117.975,0l-57.856-19.725,27.977-113.534H160.593Z" transform="translate(94.499 -303.248)"/><path class="e" d="M176.287,351.349,61.182,314.893-53.924,351.349h-51.12V367.54L61.181,420.188,227.407,367.54V351.349Z" transform="translate(105.044 -298.702)"/><path class="f" d="M61.182,295.245l-166.226,52.647L61.181,400.539l166.226-52.647Z" transform="translate(105.044 -295.245)"/><path class="g" d="M-40.147,454.611l53.761,18.329a181.669,181.669,0,0,0,117.975,0l53.761-18.329-4.306-17.473L131.589,454a181.669,181.669,0,0,1-117.975,0l-49.456-16.86Z" transform="translate(93.624 -320.214)"/><path class="h" d="M96.68,359.135l77.986,27.948V500.635" transform="translate(69.546 -306.488)"/><circle class="e" cx="10.933" cy="10.933" r="10.933" transform="translate(230.564 192.447) rotate(-73.042)"/><path class="e" d="M187.861,519.968s-16.19,14.632-16.19,41.617h32.382C204.053,534.6,187.861,519.968,187.861,519.968Z" transform="translate(56.35 -334.79)"/></g></g></svg>